M48
; DRILL file {KiCad 5.1.4+dfsg1-1} date mer. 02 oct. 2019 13:30:23 CEST
; FORMAT={-:-/ absolute / metric / decimal}
; #@! TF.CreationDate,2019-10-02T13:30:23+02:00
; #@! TF.GenerationSoftware,Kicad,Pcbnew,5.1.4+dfsg1-1
; #@! TF.FileFunction,Plated,1,2,PTH
FMAT,2
METRIC
T1C0.600
T2C0.800
T3C0.900
T4C1.000
T5C1.100
T6C1.300
T7C1.500
T8C3.200
%
G90
G05
T1
X136.576Y-100.381
X141.732Y-100.482
X191.211Y-78.943
X215.9Y-62.357
T2
X70.866Y-83.998
X75.866Y-83.998
X212.623Y-93.523
X217.623Y-93.523
X53.569Y-83.998
X66.269Y-83.998
X194.869Y-84.658
X194.869Y-97.358
X210.845Y-76.124
X223.545Y-76.124
X157.226Y-89.002
X169.926Y-89.002
X183.21Y-87.046
X183.21Y-89.586
X183.21Y-92.126
X183.21Y-94.666
X190.83Y-87.046
X190.83Y-89.586
X190.83Y-92.126
X190.83Y-94.666
X75.54Y-67.767
X75.54Y-80.467
X101.219Y-89.316
X101.219Y-93.116
X151.155Y-87.859
X151.155Y-100.559
X151.155Y-103.509
X151.155Y-108.509
X72.39Y-103.077
X72.39Y-108.077
X238.103Y-81.864
X243.103Y-81.864
X199.009Y-84.658
X199.009Y-97.358
X96.749Y-80.391
X109.449Y-80.391
X179.248Y-84.684
X179.248Y-97.384
X80.877Y-75.26
X85.877Y-75.26
X96.749Y-84.226
X109.449Y-84.226
X222.682Y-90.653
X222.682Y-103.353
X186.411Y-67.589
X199.111Y-67.589
X184.484Y-83.388
X189.484Y-83.388
X79.604Y-78.892
X79.604Y-81.432
X79.604Y-83.972
X79.604Y-86.512
X87.224Y-78.892
X87.224Y-81.432
X87.224Y-83.972
X87.224Y-86.512
X228.6Y-75.87
X228.6Y-88.57
X173.812Y-84.684
X173.812Y-97.384
X199.009Y-101.502
X199.009Y-106.502
X72.39Y-92.202
X85.09Y-92.202
X71.425Y-67.767
X71.425Y-80.467
X119.228Y-86.563
X119.228Y-99.263
X91.415Y-71.298
X91.415Y-83.998
X89.002Y-92.202
X89.002Y-97.202
X123.215Y-86.563
X123.215Y-99.263
X211.455Y-82.144
X211.455Y-84.684
X211.455Y-87.224
X211.455Y-89.764
X219.075Y-82.144
X219.075Y-84.684
X219.075Y-87.224
X219.075Y-89.764
X130.861Y-75.209
X130.861Y-82.829
X135.941Y-75.209
X135.941Y-82.829
X141.021Y-75.209
X141.021Y-82.829
X148.641Y-75.209
X148.641Y-82.829
X243.129Y-63.83
X243.129Y-76.53
X96.012Y-95.301
X96.012Y-108.001
T3
X122.25Y-103.022
X124.79Y-103.022
X122.25Y-105.562
X124.79Y-105.562
T4
X108.001Y-96.495
X113.001Y-96.495
X138.994Y-96.164
X143.994Y-96.164
X136.474Y-91.186
X139.014Y-91.186
X141.554Y-91.186
X137.96Y-61.5
X140.5Y-61.5
X59.411Y-79.959
X61.951Y-79.959
X178.283Y-67.589
X178.283Y-72.589
X162.997Y-94.742
X167.997Y-94.742
X219.96Y-61.5
X222.5Y-61.5
X239.395Y-70.434
X239.395Y-72.974
T5
X152.908Y-75.209
X152.908Y-82.829
X205.257Y-61.493
X205.257Y-69.113
T6
X182.0Y-106.5
X187.0Y-106.5
X192.0Y-106.5
X212.573Y-65.815
X212.573Y-70.815
X79.0Y-106.5
X84.0Y-106.5
X89.0Y-106.5
X134.0Y-106.5
X139.0Y-106.5
X144.0Y-106.5
X158.0Y-106.5
X163.0Y-106.5
X168.0Y-106.5
X103.0Y-106.5
X108.0Y-106.5
X113.0Y-106.5
X161.163Y-76.382
X161.163Y-81.382
X206.0Y-106.5
X211.0Y-106.5
X216.0Y-106.5
T7
X226.87Y-93.726
X226.87Y-100.076
X226.87Y-106.426
X243.1Y-93.726
X243.1Y-100.076
X243.1Y-106.426
X51.87Y-93.726
X51.87Y-100.076
X51.87Y-106.426
X68.1Y-93.726
X68.1Y-100.076
X68.1Y-106.426
T8
X62.5Y-65.5
T0
M30
