G04 #@! TF.GenerationSoftware,KiCad,Pcbnew,5.1.4+dfsg1-1*
G04 #@! TF.CreationDate,2019-10-02T13:30:15+02:00*
G04 #@! TF.ProjectId,fat_bastard_main,6661745f-6261-4737-9461-72645f6d6169,rev?*
G04 #@! TF.SameCoordinates,Original*
G04 #@! TF.FileFunction,Soldermask,Bot*
G04 #@! TF.FilePolarity,Negative*
%FSLAX46Y46*%
G04 Gerber Fmt 4.6, Leading zero omitted, Abs format (unit mm)*
G04 Created by KiCad (PCBNEW 5.1.4+dfsg1-1) date 2019-10-02 13:30:15*
%MOMM*%
%LPD*%
G04 APERTURE LIST*
%ADD10C,0.100000*%
G04 APERTURE END LIST*
D10*
G36*
X151388751Y-107739543D02*
G01*
X151534341Y-107799848D01*
X151665370Y-107887399D01*
X151776801Y-107998830D01*
X151864352Y-108129859D01*
X151924657Y-108275449D01*
X151955400Y-108430006D01*
X151955400Y-108587594D01*
X151924657Y-108742151D01*
X151864352Y-108887741D01*
X151776801Y-109018770D01*
X151665370Y-109130201D01*
X151534341Y-109217752D01*
X151388751Y-109278057D01*
X151234194Y-109308800D01*
X151076606Y-109308800D01*
X150922049Y-109278057D01*
X150776459Y-109217752D01*
X150645430Y-109130201D01*
X150533999Y-109018770D01*
X150446448Y-108887741D01*
X150386143Y-108742151D01*
X150355400Y-108587594D01*
X150355400Y-108430006D01*
X150386143Y-108275449D01*
X150446448Y-108129859D01*
X150533999Y-107998830D01*
X150645430Y-107887399D01*
X150776459Y-107799848D01*
X150922049Y-107739543D01*
X151076606Y-107708800D01*
X151234194Y-107708800D01*
X151388751Y-107739543D01*
X151388751Y-107739543D01*
G37*
G36*
X72623351Y-107307743D02*
G01*
X72768941Y-107368048D01*
X72899970Y-107455599D01*
X73011401Y-107567030D01*
X73098952Y-107698059D01*
X73159257Y-107843649D01*
X73190000Y-107998206D01*
X73190000Y-108155794D01*
X73159257Y-108310351D01*
X73098952Y-108455941D01*
X73011401Y-108586970D01*
X72899970Y-108698401D01*
X72768941Y-108785952D01*
X72623351Y-108846257D01*
X72468794Y-108877000D01*
X72311206Y-108877000D01*
X72156649Y-108846257D01*
X72011059Y-108785952D01*
X71880030Y-108698401D01*
X71768599Y-108586970D01*
X71681048Y-108455941D01*
X71620743Y-108310351D01*
X71590000Y-108155794D01*
X71590000Y-107998206D01*
X71620743Y-107843649D01*
X71681048Y-107698059D01*
X71768599Y-107567030D01*
X71880030Y-107455599D01*
X72011059Y-107368048D01*
X72156649Y-107307743D01*
X72311206Y-107277000D01*
X72468794Y-107277000D01*
X72623351Y-107307743D01*
X72623351Y-107307743D01*
G37*
G36*
X96090471Y-107204659D02*
G01*
X96168827Y-107212376D01*
X96319628Y-107258121D01*
X96319630Y-107258122D01*
X96458605Y-107332406D01*
X96580422Y-107432378D01*
X96680394Y-107554195D01*
X96742293Y-107670000D01*
X96754679Y-107693172D01*
X96800424Y-107843973D01*
X96815870Y-108000800D01*
X96800424Y-108157627D01*
X96764683Y-108275449D01*
X96754678Y-108308430D01*
X96680394Y-108447405D01*
X96580422Y-108569222D01*
X96458605Y-108669194D01*
X96319630Y-108743478D01*
X96319628Y-108743479D01*
X96168827Y-108789224D01*
X96090471Y-108796941D01*
X96051294Y-108800800D01*
X95972706Y-108800800D01*
X95933529Y-108796941D01*
X95855173Y-108789224D01*
X95704372Y-108743479D01*
X95704370Y-108743478D01*
X95565395Y-108669194D01*
X95443578Y-108569222D01*
X95343606Y-108447405D01*
X95269322Y-108308430D01*
X95259317Y-108275449D01*
X95223576Y-108157627D01*
X95208130Y-108000800D01*
X95223576Y-107843973D01*
X95269321Y-107693172D01*
X95281707Y-107670000D01*
X95343606Y-107554195D01*
X95443578Y-107432378D01*
X95565395Y-107332406D01*
X95704370Y-107258122D01*
X95704372Y-107258121D01*
X95855173Y-107212376D01*
X95933529Y-107204659D01*
X95972706Y-107200800D01*
X96051294Y-107200800D01*
X96090471Y-107204659D01*
X96090471Y-107204659D01*
G37*
G36*
X227307534Y-104983643D02*
G01*
X227580515Y-105096716D01*
X227580517Y-105096717D01*
X227704190Y-105179353D01*
X227826193Y-105260873D01*
X228035127Y-105469807D01*
X228037767Y-105473758D01*
X228190408Y-105702200D01*
X228199284Y-105715485D01*
X228312357Y-105988466D01*
X228370000Y-106278262D01*
X228370000Y-106573738D01*
X228312357Y-106863534D01*
X228199284Y-107136515D01*
X228035127Y-107382193D01*
X227826193Y-107591127D01*
X227708151Y-107670000D01*
X227580517Y-107755283D01*
X227580516Y-107755284D01*
X227580515Y-107755284D01*
X227307534Y-107868357D01*
X227017738Y-107926000D01*
X226722262Y-107926000D01*
X226432466Y-107868357D01*
X226159485Y-107755284D01*
X226159484Y-107755284D01*
X226159483Y-107755283D01*
X226031849Y-107670000D01*
X225913807Y-107591127D01*
X225704873Y-107382193D01*
X225540716Y-107136515D01*
X225427643Y-106863534D01*
X225370000Y-106573738D01*
X225370000Y-106278262D01*
X225427643Y-105988466D01*
X225540716Y-105715485D01*
X225549593Y-105702200D01*
X225702233Y-105473758D01*
X225704873Y-105469807D01*
X225913807Y-105260873D01*
X226035810Y-105179353D01*
X226159483Y-105096717D01*
X226159485Y-105096716D01*
X226432466Y-104983643D01*
X226722262Y-104926000D01*
X227017738Y-104926000D01*
X227307534Y-104983643D01*
X227307534Y-104983643D01*
G37*
G36*
X244600000Y-107926000D02*
G01*
X241600000Y-107926000D01*
X241600000Y-104926000D01*
X244600000Y-104926000D01*
X244600000Y-107926000D01*
X244600000Y-107926000D01*
G37*
G36*
X69600000Y-107926000D02*
G01*
X66600000Y-107926000D01*
X66600000Y-104926000D01*
X69600000Y-104926000D01*
X69600000Y-107926000D01*
X69600000Y-107926000D01*
G37*
G36*
X52307534Y-104983643D02*
G01*
X52580515Y-105096716D01*
X52580517Y-105096717D01*
X52704190Y-105179353D01*
X52826193Y-105260873D01*
X53035127Y-105469807D01*
X53037767Y-105473758D01*
X53190408Y-105702200D01*
X53199284Y-105715485D01*
X53312357Y-105988466D01*
X53370000Y-106278262D01*
X53370000Y-106573738D01*
X53312357Y-106863534D01*
X53199284Y-107136515D01*
X53035127Y-107382193D01*
X52826193Y-107591127D01*
X52708151Y-107670000D01*
X52580517Y-107755283D01*
X52580516Y-107755284D01*
X52580515Y-107755284D01*
X52307534Y-107868357D01*
X52017738Y-107926000D01*
X51722262Y-107926000D01*
X51432466Y-107868357D01*
X51159485Y-107755284D01*
X51159484Y-107755284D01*
X51159483Y-107755283D01*
X51031849Y-107670000D01*
X50913807Y-107591127D01*
X50704873Y-107382193D01*
X50540716Y-107136515D01*
X50427643Y-106863534D01*
X50370000Y-106573738D01*
X50370000Y-106278262D01*
X50427643Y-105988466D01*
X50540716Y-105715485D01*
X50549593Y-105702200D01*
X50702233Y-105473758D01*
X50704873Y-105469807D01*
X50913807Y-105260873D01*
X51035810Y-105179353D01*
X51159483Y-105096717D01*
X51159485Y-105096716D01*
X51432466Y-104983643D01*
X51722262Y-104926000D01*
X52017738Y-104926000D01*
X52307534Y-104983643D01*
X52307534Y-104983643D01*
G37*
G36*
X103341275Y-105374962D02*
G01*
X103554201Y-105463159D01*
X103554203Y-105463160D01*
X103745831Y-105591202D01*
X103908798Y-105754169D01*
X103993410Y-105880799D01*
X104036841Y-105945799D01*
X104125038Y-106158725D01*
X104170000Y-106384764D01*
X104170000Y-106615236D01*
X104125038Y-106841275D01*
X104054251Y-107012170D01*
X104036840Y-107054203D01*
X103908798Y-107245831D01*
X103745831Y-107408798D01*
X103554203Y-107536840D01*
X103554202Y-107536841D01*
X103554201Y-107536841D01*
X103341275Y-107625038D01*
X103115236Y-107670000D01*
X102884764Y-107670000D01*
X102658725Y-107625038D01*
X102445799Y-107536841D01*
X102445798Y-107536841D01*
X102445797Y-107536840D01*
X102254169Y-107408798D01*
X102091202Y-107245831D01*
X101963160Y-107054203D01*
X101945749Y-107012170D01*
X101874962Y-106841275D01*
X101830000Y-106615236D01*
X101830000Y-106384764D01*
X101874962Y-106158725D01*
X101963159Y-105945799D01*
X102006591Y-105880799D01*
X102091202Y-105754169D01*
X102254169Y-105591202D01*
X102445797Y-105463160D01*
X102445799Y-105463159D01*
X102658725Y-105374962D01*
X102884764Y-105330000D01*
X103115236Y-105330000D01*
X103341275Y-105374962D01*
X103341275Y-105374962D01*
G37*
G36*
X182341275Y-105374962D02*
G01*
X182554201Y-105463159D01*
X182554203Y-105463160D01*
X182745831Y-105591202D01*
X182908798Y-105754169D01*
X182993410Y-105880799D01*
X183036841Y-105945799D01*
X183125038Y-106158725D01*
X183170000Y-106384764D01*
X183170000Y-106615236D01*
X183125038Y-106841275D01*
X183054251Y-107012170D01*
X183036840Y-107054203D01*
X182908798Y-107245831D01*
X182745831Y-107408798D01*
X182554203Y-107536840D01*
X182554202Y-107536841D01*
X182554201Y-107536841D01*
X182341275Y-107625038D01*
X182115236Y-107670000D01*
X181884764Y-107670000D01*
X181658725Y-107625038D01*
X181445799Y-107536841D01*
X181445798Y-107536841D01*
X181445797Y-107536840D01*
X181254169Y-107408798D01*
X181091202Y-107245831D01*
X180963160Y-107054203D01*
X180945749Y-107012170D01*
X180874962Y-106841275D01*
X180830000Y-106615236D01*
X180830000Y-106384764D01*
X180874962Y-106158725D01*
X180963159Y-105945799D01*
X181006591Y-105880799D01*
X181091202Y-105754169D01*
X181254169Y-105591202D01*
X181445797Y-105463160D01*
X181445799Y-105463159D01*
X181658725Y-105374962D01*
X181884764Y-105330000D01*
X182115236Y-105330000D01*
X182341275Y-105374962D01*
X182341275Y-105374962D01*
G37*
G36*
X192341275Y-105374962D02*
G01*
X192554201Y-105463159D01*
X192554203Y-105463160D01*
X192745831Y-105591202D01*
X192908798Y-105754169D01*
X192993410Y-105880799D01*
X193036841Y-105945799D01*
X193125038Y-106158725D01*
X193170000Y-106384764D01*
X193170000Y-106615236D01*
X193125038Y-106841275D01*
X193054251Y-107012170D01*
X193036840Y-107054203D01*
X192908798Y-107245831D01*
X192745831Y-107408798D01*
X192554203Y-107536840D01*
X192554202Y-107536841D01*
X192554201Y-107536841D01*
X192341275Y-107625038D01*
X192115236Y-107670000D01*
X191884764Y-107670000D01*
X191658725Y-107625038D01*
X191445799Y-107536841D01*
X191445798Y-107536841D01*
X191445797Y-107536840D01*
X191254169Y-107408798D01*
X191091202Y-107245831D01*
X190963160Y-107054203D01*
X190945749Y-107012170D01*
X190874962Y-106841275D01*
X190830000Y-106615236D01*
X190830000Y-106384764D01*
X190874962Y-106158725D01*
X190963159Y-105945799D01*
X191006591Y-105880799D01*
X191091202Y-105754169D01*
X191254169Y-105591202D01*
X191445797Y-105463160D01*
X191445799Y-105463159D01*
X191658725Y-105374962D01*
X191884764Y-105330000D01*
X192115236Y-105330000D01*
X192341275Y-105374962D01*
X192341275Y-105374962D01*
G37*
G36*
X108341275Y-105374962D02*
G01*
X108554201Y-105463159D01*
X108554203Y-105463160D01*
X108745831Y-105591202D01*
X108908798Y-105754169D01*
X108993410Y-105880799D01*
X109036841Y-105945799D01*
X109125038Y-106158725D01*
X109170000Y-106384764D01*
X109170000Y-106615236D01*
X109125038Y-106841275D01*
X109054251Y-107012170D01*
X109036840Y-107054203D01*
X108908798Y-107245831D01*
X108745831Y-107408798D01*
X108554203Y-107536840D01*
X108554202Y-107536841D01*
X108554201Y-107536841D01*
X108341275Y-107625038D01*
X108115236Y-107670000D01*
X107884764Y-107670000D01*
X107658725Y-107625038D01*
X107445799Y-107536841D01*
X107445798Y-107536841D01*
X107445797Y-107536840D01*
X107254169Y-107408798D01*
X107091202Y-107245831D01*
X106963160Y-107054203D01*
X106945749Y-107012170D01*
X106874962Y-106841275D01*
X106830000Y-106615236D01*
X106830000Y-106384764D01*
X106874962Y-106158725D01*
X106963159Y-105945799D01*
X107006591Y-105880799D01*
X107091202Y-105754169D01*
X107254169Y-105591202D01*
X107445797Y-105463160D01*
X107445799Y-105463159D01*
X107658725Y-105374962D01*
X107884764Y-105330000D01*
X108115236Y-105330000D01*
X108341275Y-105374962D01*
X108341275Y-105374962D01*
G37*
G36*
X113341275Y-105374962D02*
G01*
X113554201Y-105463159D01*
X113554203Y-105463160D01*
X113745831Y-105591202D01*
X113908798Y-105754169D01*
X113993410Y-105880799D01*
X114036841Y-105945799D01*
X114125038Y-106158725D01*
X114170000Y-106384764D01*
X114170000Y-106615236D01*
X114125038Y-106841275D01*
X114054251Y-107012170D01*
X114036840Y-107054203D01*
X113908798Y-107245831D01*
X113745831Y-107408798D01*
X113554203Y-107536840D01*
X113554202Y-107536841D01*
X113554201Y-107536841D01*
X113341275Y-107625038D01*
X113115236Y-107670000D01*
X112884764Y-107670000D01*
X112658725Y-107625038D01*
X112445799Y-107536841D01*
X112445798Y-107536841D01*
X112445797Y-107536840D01*
X112254169Y-107408798D01*
X112091202Y-107245831D01*
X111963160Y-107054203D01*
X111945749Y-107012170D01*
X111874962Y-106841275D01*
X111830000Y-106615236D01*
X111830000Y-106384764D01*
X111874962Y-106158725D01*
X111963159Y-105945799D01*
X112006591Y-105880799D01*
X112091202Y-105754169D01*
X112254169Y-105591202D01*
X112445797Y-105463160D01*
X112445799Y-105463159D01*
X112658725Y-105374962D01*
X112884764Y-105330000D01*
X113115236Y-105330000D01*
X113341275Y-105374962D01*
X113341275Y-105374962D01*
G37*
G36*
X89341275Y-105374962D02*
G01*
X89554201Y-105463159D01*
X89554203Y-105463160D01*
X89745831Y-105591202D01*
X89908798Y-105754169D01*
X89993410Y-105880799D01*
X90036841Y-105945799D01*
X90125038Y-106158725D01*
X90170000Y-106384764D01*
X90170000Y-106615236D01*
X90125038Y-106841275D01*
X90054251Y-107012170D01*
X90036840Y-107054203D01*
X89908798Y-107245831D01*
X89745831Y-107408798D01*
X89554203Y-107536840D01*
X89554202Y-107536841D01*
X89554201Y-107536841D01*
X89341275Y-107625038D01*
X89115236Y-107670000D01*
X88884764Y-107670000D01*
X88658725Y-107625038D01*
X88445799Y-107536841D01*
X88445798Y-107536841D01*
X88445797Y-107536840D01*
X88254169Y-107408798D01*
X88091202Y-107245831D01*
X87963160Y-107054203D01*
X87945749Y-107012170D01*
X87874962Y-106841275D01*
X87830000Y-106615236D01*
X87830000Y-106384764D01*
X87874962Y-106158725D01*
X87963159Y-105945799D01*
X88006591Y-105880799D01*
X88091202Y-105754169D01*
X88254169Y-105591202D01*
X88445797Y-105463160D01*
X88445799Y-105463159D01*
X88658725Y-105374962D01*
X88884764Y-105330000D01*
X89115236Y-105330000D01*
X89341275Y-105374962D01*
X89341275Y-105374962D01*
G37*
G36*
X84341275Y-105374962D02*
G01*
X84554201Y-105463159D01*
X84554203Y-105463160D01*
X84745831Y-105591202D01*
X84908798Y-105754169D01*
X84993410Y-105880799D01*
X85036841Y-105945799D01*
X85125038Y-106158725D01*
X85170000Y-106384764D01*
X85170000Y-106615236D01*
X85125038Y-106841275D01*
X85054251Y-107012170D01*
X85036840Y-107054203D01*
X84908798Y-107245831D01*
X84745831Y-107408798D01*
X84554203Y-107536840D01*
X84554202Y-107536841D01*
X84554201Y-107536841D01*
X84341275Y-107625038D01*
X84115236Y-107670000D01*
X83884764Y-107670000D01*
X83658725Y-107625038D01*
X83445799Y-107536841D01*
X83445798Y-107536841D01*
X83445797Y-107536840D01*
X83254169Y-107408798D01*
X83091202Y-107245831D01*
X82963160Y-107054203D01*
X82945749Y-107012170D01*
X82874962Y-106841275D01*
X82830000Y-106615236D01*
X82830000Y-106384764D01*
X82874962Y-106158725D01*
X82963159Y-105945799D01*
X83006591Y-105880799D01*
X83091202Y-105754169D01*
X83254169Y-105591202D01*
X83445797Y-105463160D01*
X83445799Y-105463159D01*
X83658725Y-105374962D01*
X83884764Y-105330000D01*
X84115236Y-105330000D01*
X84341275Y-105374962D01*
X84341275Y-105374962D01*
G37*
G36*
X79341275Y-105374962D02*
G01*
X79554201Y-105463159D01*
X79554203Y-105463160D01*
X79745831Y-105591202D01*
X79908798Y-105754169D01*
X79993410Y-105880799D01*
X80036841Y-105945799D01*
X80125038Y-106158725D01*
X80170000Y-106384764D01*
X80170000Y-106615236D01*
X80125038Y-106841275D01*
X80054251Y-107012170D01*
X80036840Y-107054203D01*
X79908798Y-107245831D01*
X79745831Y-107408798D01*
X79554203Y-107536840D01*
X79554202Y-107536841D01*
X79554201Y-107536841D01*
X79341275Y-107625038D01*
X79115236Y-107670000D01*
X78884764Y-107670000D01*
X78658725Y-107625038D01*
X78445799Y-107536841D01*
X78445798Y-107536841D01*
X78445797Y-107536840D01*
X78254169Y-107408798D01*
X78091202Y-107245831D01*
X77963160Y-107054203D01*
X77945749Y-107012170D01*
X77874962Y-106841275D01*
X77830000Y-106615236D01*
X77830000Y-106384764D01*
X77874962Y-106158725D01*
X77963159Y-105945799D01*
X78006591Y-105880799D01*
X78091202Y-105754169D01*
X78254169Y-105591202D01*
X78445797Y-105463160D01*
X78445799Y-105463159D01*
X78658725Y-105374962D01*
X78884764Y-105330000D01*
X79115236Y-105330000D01*
X79341275Y-105374962D01*
X79341275Y-105374962D01*
G37*
G36*
X187341275Y-105374962D02*
G01*
X187554201Y-105463159D01*
X187554203Y-105463160D01*
X187745831Y-105591202D01*
X187908798Y-105754169D01*
X187993410Y-105880799D01*
X188036841Y-105945799D01*
X188125038Y-106158725D01*
X188170000Y-106384764D01*
X188170000Y-106615236D01*
X188125038Y-106841275D01*
X188054251Y-107012170D01*
X188036840Y-107054203D01*
X187908798Y-107245831D01*
X187745831Y-107408798D01*
X187554203Y-107536840D01*
X187554202Y-107536841D01*
X187554201Y-107536841D01*
X187341275Y-107625038D01*
X187115236Y-107670000D01*
X186884764Y-107670000D01*
X186658725Y-107625038D01*
X186445799Y-107536841D01*
X186445798Y-107536841D01*
X186445797Y-107536840D01*
X186254169Y-107408798D01*
X186091202Y-107245831D01*
X185963160Y-107054203D01*
X185945749Y-107012170D01*
X185874962Y-106841275D01*
X185830000Y-106615236D01*
X185830000Y-106384764D01*
X185874962Y-106158725D01*
X185963159Y-105945799D01*
X186006591Y-105880799D01*
X186091202Y-105754169D01*
X186254169Y-105591202D01*
X186445797Y-105463160D01*
X186445799Y-105463159D01*
X186658725Y-105374962D01*
X186884764Y-105330000D01*
X187115236Y-105330000D01*
X187341275Y-105374962D01*
X187341275Y-105374962D01*
G37*
G36*
X168341275Y-105374962D02*
G01*
X168554201Y-105463159D01*
X168554203Y-105463160D01*
X168745831Y-105591202D01*
X168908798Y-105754169D01*
X168993410Y-105880799D01*
X169036841Y-105945799D01*
X169125038Y-106158725D01*
X169170000Y-106384764D01*
X169170000Y-106615236D01*
X169125038Y-106841275D01*
X169054251Y-107012170D01*
X169036840Y-107054203D01*
X168908798Y-107245831D01*
X168745831Y-107408798D01*
X168554203Y-107536840D01*
X168554202Y-107536841D01*
X168554201Y-107536841D01*
X168341275Y-107625038D01*
X168115236Y-107670000D01*
X167884764Y-107670000D01*
X167658725Y-107625038D01*
X167445799Y-107536841D01*
X167445798Y-107536841D01*
X167445797Y-107536840D01*
X167254169Y-107408798D01*
X167091202Y-107245831D01*
X166963160Y-107054203D01*
X166945749Y-107012170D01*
X166874962Y-106841275D01*
X166830000Y-106615236D01*
X166830000Y-106384764D01*
X166874962Y-106158725D01*
X166963159Y-105945799D01*
X167006591Y-105880799D01*
X167091202Y-105754169D01*
X167254169Y-105591202D01*
X167445797Y-105463160D01*
X167445799Y-105463159D01*
X167658725Y-105374962D01*
X167884764Y-105330000D01*
X168115236Y-105330000D01*
X168341275Y-105374962D01*
X168341275Y-105374962D01*
G37*
G36*
X144341275Y-105374962D02*
G01*
X144554201Y-105463159D01*
X144554203Y-105463160D01*
X144745831Y-105591202D01*
X144908798Y-105754169D01*
X144993410Y-105880799D01*
X145036841Y-105945799D01*
X145125038Y-106158725D01*
X145170000Y-106384764D01*
X145170000Y-106615236D01*
X145125038Y-106841275D01*
X145054251Y-107012170D01*
X145036840Y-107054203D01*
X144908798Y-107245831D01*
X144745831Y-107408798D01*
X144554203Y-107536840D01*
X144554202Y-107536841D01*
X144554201Y-107536841D01*
X144341275Y-107625038D01*
X144115236Y-107670000D01*
X143884764Y-107670000D01*
X143658725Y-107625038D01*
X143445799Y-107536841D01*
X143445798Y-107536841D01*
X143445797Y-107536840D01*
X143254169Y-107408798D01*
X143091202Y-107245831D01*
X142963160Y-107054203D01*
X142945749Y-107012170D01*
X142874962Y-106841275D01*
X142830000Y-106615236D01*
X142830000Y-106384764D01*
X142874962Y-106158725D01*
X142963159Y-105945799D01*
X143006591Y-105880799D01*
X143091202Y-105754169D01*
X143254169Y-105591202D01*
X143445797Y-105463160D01*
X143445799Y-105463159D01*
X143658725Y-105374962D01*
X143884764Y-105330000D01*
X144115236Y-105330000D01*
X144341275Y-105374962D01*
X144341275Y-105374962D01*
G37*
G36*
X139341275Y-105374962D02*
G01*
X139554201Y-105463159D01*
X139554203Y-105463160D01*
X139745831Y-105591202D01*
X139908798Y-105754169D01*
X139993410Y-105880799D01*
X140036841Y-105945799D01*
X140125038Y-106158725D01*
X140170000Y-106384764D01*
X140170000Y-106615236D01*
X140125038Y-106841275D01*
X140054251Y-107012170D01*
X140036840Y-107054203D01*
X139908798Y-107245831D01*
X139745831Y-107408798D01*
X139554203Y-107536840D01*
X139554202Y-107536841D01*
X139554201Y-107536841D01*
X139341275Y-107625038D01*
X139115236Y-107670000D01*
X138884764Y-107670000D01*
X138658725Y-107625038D01*
X138445799Y-107536841D01*
X138445798Y-107536841D01*
X138445797Y-107536840D01*
X138254169Y-107408798D01*
X138091202Y-107245831D01*
X137963160Y-107054203D01*
X137945749Y-107012170D01*
X137874962Y-106841275D01*
X137830000Y-106615236D01*
X137830000Y-106384764D01*
X137874962Y-106158725D01*
X137963159Y-105945799D01*
X138006591Y-105880799D01*
X138091202Y-105754169D01*
X138254169Y-105591202D01*
X138445797Y-105463160D01*
X138445799Y-105463159D01*
X138658725Y-105374962D01*
X138884764Y-105330000D01*
X139115236Y-105330000D01*
X139341275Y-105374962D01*
X139341275Y-105374962D01*
G37*
G36*
X134341275Y-105374962D02*
G01*
X134554201Y-105463159D01*
X134554203Y-105463160D01*
X134745831Y-105591202D01*
X134908798Y-105754169D01*
X134993410Y-105880799D01*
X135036841Y-105945799D01*
X135125038Y-106158725D01*
X135170000Y-106384764D01*
X135170000Y-106615236D01*
X135125038Y-106841275D01*
X135054251Y-107012170D01*
X135036840Y-107054203D01*
X134908798Y-107245831D01*
X134745831Y-107408798D01*
X134554203Y-107536840D01*
X134554202Y-107536841D01*
X134554201Y-107536841D01*
X134341275Y-107625038D01*
X134115236Y-107670000D01*
X133884764Y-107670000D01*
X133658725Y-107625038D01*
X133445799Y-107536841D01*
X133445798Y-107536841D01*
X133445797Y-107536840D01*
X133254169Y-107408798D01*
X133091202Y-107245831D01*
X132963160Y-107054203D01*
X132945749Y-107012170D01*
X132874962Y-106841275D01*
X132830000Y-106615236D01*
X132830000Y-106384764D01*
X132874962Y-106158725D01*
X132963159Y-105945799D01*
X133006591Y-105880799D01*
X133091202Y-105754169D01*
X133254169Y-105591202D01*
X133445797Y-105463160D01*
X133445799Y-105463159D01*
X133658725Y-105374962D01*
X133884764Y-105330000D01*
X134115236Y-105330000D01*
X134341275Y-105374962D01*
X134341275Y-105374962D01*
G37*
G36*
X216341275Y-105374962D02*
G01*
X216554201Y-105463159D01*
X216554203Y-105463160D01*
X216745831Y-105591202D01*
X216908798Y-105754169D01*
X216993410Y-105880799D01*
X217036841Y-105945799D01*
X217125038Y-106158725D01*
X217170000Y-106384764D01*
X217170000Y-106615236D01*
X217125038Y-106841275D01*
X217054251Y-107012170D01*
X217036840Y-107054203D01*
X216908798Y-107245831D01*
X216745831Y-107408798D01*
X216554203Y-107536840D01*
X216554202Y-107536841D01*
X216554201Y-107536841D01*
X216341275Y-107625038D01*
X216115236Y-107670000D01*
X215884764Y-107670000D01*
X215658725Y-107625038D01*
X215445799Y-107536841D01*
X215445798Y-107536841D01*
X215445797Y-107536840D01*
X215254169Y-107408798D01*
X215091202Y-107245831D01*
X214963160Y-107054203D01*
X214945749Y-107012170D01*
X214874962Y-106841275D01*
X214830000Y-106615236D01*
X214830000Y-106384764D01*
X214874962Y-106158725D01*
X214963159Y-105945799D01*
X215006591Y-105880799D01*
X215091202Y-105754169D01*
X215254169Y-105591202D01*
X215445797Y-105463160D01*
X215445799Y-105463159D01*
X215658725Y-105374962D01*
X215884764Y-105330000D01*
X216115236Y-105330000D01*
X216341275Y-105374962D01*
X216341275Y-105374962D01*
G37*
G36*
X211341275Y-105374962D02*
G01*
X211554201Y-105463159D01*
X211554203Y-105463160D01*
X211745831Y-105591202D01*
X211908798Y-105754169D01*
X211993410Y-105880799D01*
X212036841Y-105945799D01*
X212125038Y-106158725D01*
X212170000Y-106384764D01*
X212170000Y-106615236D01*
X212125038Y-106841275D01*
X212054251Y-107012170D01*
X212036840Y-107054203D01*
X211908798Y-107245831D01*
X211745831Y-107408798D01*
X211554203Y-107536840D01*
X211554202Y-107536841D01*
X211554201Y-107536841D01*
X211341275Y-107625038D01*
X211115236Y-107670000D01*
X210884764Y-107670000D01*
X210658725Y-107625038D01*
X210445799Y-107536841D01*
X210445798Y-107536841D01*
X210445797Y-107536840D01*
X210254169Y-107408798D01*
X210091202Y-107245831D01*
X209963160Y-107054203D01*
X209945749Y-107012170D01*
X209874962Y-106841275D01*
X209830000Y-106615236D01*
X209830000Y-106384764D01*
X209874962Y-106158725D01*
X209963159Y-105945799D01*
X210006591Y-105880799D01*
X210091202Y-105754169D01*
X210254169Y-105591202D01*
X210445797Y-105463160D01*
X210445799Y-105463159D01*
X210658725Y-105374962D01*
X210884764Y-105330000D01*
X211115236Y-105330000D01*
X211341275Y-105374962D01*
X211341275Y-105374962D01*
G37*
G36*
X206341275Y-105374962D02*
G01*
X206554201Y-105463159D01*
X206554203Y-105463160D01*
X206745831Y-105591202D01*
X206908798Y-105754169D01*
X206993410Y-105880799D01*
X207036841Y-105945799D01*
X207125038Y-106158725D01*
X207170000Y-106384764D01*
X207170000Y-106615236D01*
X207125038Y-106841275D01*
X207054251Y-107012170D01*
X207036840Y-107054203D01*
X206908798Y-107245831D01*
X206745831Y-107408798D01*
X206554203Y-107536840D01*
X206554202Y-107536841D01*
X206554201Y-107536841D01*
X206341275Y-107625038D01*
X206115236Y-107670000D01*
X205884764Y-107670000D01*
X205658725Y-107625038D01*
X205445799Y-107536841D01*
X205445798Y-107536841D01*
X205445797Y-107536840D01*
X205254169Y-107408798D01*
X205091202Y-107245831D01*
X204963160Y-107054203D01*
X204945749Y-107012170D01*
X204874962Y-106841275D01*
X204830000Y-106615236D01*
X204830000Y-106384764D01*
X204874962Y-106158725D01*
X204963159Y-105945799D01*
X205006591Y-105880799D01*
X205091202Y-105754169D01*
X205254169Y-105591202D01*
X205445797Y-105463160D01*
X205445799Y-105463159D01*
X205658725Y-105374962D01*
X205884764Y-105330000D01*
X206115236Y-105330000D01*
X206341275Y-105374962D01*
X206341275Y-105374962D01*
G37*
G36*
X158341275Y-105374962D02*
G01*
X158554201Y-105463159D01*
X158554203Y-105463160D01*
X158745831Y-105591202D01*
X158908798Y-105754169D01*
X158993410Y-105880799D01*
X159036841Y-105945799D01*
X159125038Y-106158725D01*
X159170000Y-106384764D01*
X159170000Y-106615236D01*
X159125038Y-106841275D01*
X159054251Y-107012170D01*
X159036840Y-107054203D01*
X158908798Y-107245831D01*
X158745831Y-107408798D01*
X158554203Y-107536840D01*
X158554202Y-107536841D01*
X158554201Y-107536841D01*
X158341275Y-107625038D01*
X158115236Y-107670000D01*
X157884764Y-107670000D01*
X157658725Y-107625038D01*
X157445799Y-107536841D01*
X157445798Y-107536841D01*
X157445797Y-107536840D01*
X157254169Y-107408798D01*
X157091202Y-107245831D01*
X156963160Y-107054203D01*
X156945749Y-107012170D01*
X156874962Y-106841275D01*
X156830000Y-106615236D01*
X156830000Y-106384764D01*
X156874962Y-106158725D01*
X156963159Y-105945799D01*
X157006591Y-105880799D01*
X157091202Y-105754169D01*
X157254169Y-105591202D01*
X157445797Y-105463160D01*
X157445799Y-105463159D01*
X157658725Y-105374962D01*
X157884764Y-105330000D01*
X158115236Y-105330000D01*
X158341275Y-105374962D01*
X158341275Y-105374962D01*
G37*
G36*
X163341275Y-105374962D02*
G01*
X163554201Y-105463159D01*
X163554203Y-105463160D01*
X163745831Y-105591202D01*
X163908798Y-105754169D01*
X163993410Y-105880799D01*
X164036841Y-105945799D01*
X164125038Y-106158725D01*
X164170000Y-106384764D01*
X164170000Y-106615236D01*
X164125038Y-106841275D01*
X164054251Y-107012170D01*
X164036840Y-107054203D01*
X163908798Y-107245831D01*
X163745831Y-107408798D01*
X163554203Y-107536840D01*
X163554202Y-107536841D01*
X163554201Y-107536841D01*
X163341275Y-107625038D01*
X163115236Y-107670000D01*
X162884764Y-107670000D01*
X162658725Y-107625038D01*
X162445799Y-107536841D01*
X162445798Y-107536841D01*
X162445797Y-107536840D01*
X162254169Y-107408798D01*
X162091202Y-107245831D01*
X161963160Y-107054203D01*
X161945749Y-107012170D01*
X161874962Y-106841275D01*
X161830000Y-106615236D01*
X161830000Y-106384764D01*
X161874962Y-106158725D01*
X161963159Y-105945799D01*
X162006591Y-105880799D01*
X162091202Y-105754169D01*
X162254169Y-105591202D01*
X162445797Y-105463160D01*
X162445799Y-105463159D01*
X162658725Y-105374962D01*
X162884764Y-105330000D01*
X163115236Y-105330000D01*
X163341275Y-105374962D01*
X163341275Y-105374962D01*
G37*
G36*
X199242351Y-105732943D02*
G01*
X199387941Y-105793248D01*
X199518970Y-105880799D01*
X199630401Y-105992230D01*
X199717952Y-106123259D01*
X199778257Y-106268849D01*
X199809000Y-106423406D01*
X199809000Y-106580994D01*
X199778257Y-106735551D01*
X199717952Y-106881141D01*
X199630401Y-107012170D01*
X199518970Y-107123601D01*
X199387941Y-107211152D01*
X199242351Y-107271457D01*
X199087794Y-107302200D01*
X198930206Y-107302200D01*
X198775649Y-107271457D01*
X198630059Y-107211152D01*
X198499030Y-107123601D01*
X198387599Y-107012170D01*
X198300048Y-106881141D01*
X198239743Y-106735551D01*
X198209000Y-106580994D01*
X198209000Y-106423406D01*
X198239743Y-106268849D01*
X198300048Y-106123259D01*
X198387599Y-105992230D01*
X198499030Y-105880799D01*
X198630059Y-105793248D01*
X198775649Y-105732943D01*
X198930206Y-105702200D01*
X199087794Y-105702200D01*
X199242351Y-105732943D01*
X199242351Y-105732943D01*
G37*
G36*
X123150200Y-106462400D02*
G01*
X121350200Y-106462400D01*
X121350200Y-104662400D01*
X123150200Y-104662400D01*
X123150200Y-106462400D01*
X123150200Y-106462400D01*
G37*
G36*
X125052720Y-104696986D02*
G01*
X125216510Y-104764830D01*
X125363917Y-104863324D01*
X125489276Y-104988683D01*
X125587770Y-105136090D01*
X125655614Y-105299880D01*
X125690200Y-105473758D01*
X125690200Y-105651042D01*
X125655614Y-105824920D01*
X125587770Y-105988710D01*
X125489276Y-106136117D01*
X125363917Y-106261476D01*
X125216510Y-106359970D01*
X125216509Y-106359971D01*
X125216508Y-106359971D01*
X125052720Y-106427814D01*
X124878844Y-106462400D01*
X124701556Y-106462400D01*
X124527680Y-106427814D01*
X124363892Y-106359971D01*
X124363891Y-106359971D01*
X124363890Y-106359970D01*
X124216483Y-106261476D01*
X124091124Y-106136117D01*
X123992630Y-105988710D01*
X123924786Y-105824920D01*
X123890200Y-105651042D01*
X123890200Y-105473758D01*
X123924786Y-105299880D01*
X123992630Y-105136090D01*
X124091124Y-104988683D01*
X124216483Y-104863324D01*
X124363890Y-104764830D01*
X124527680Y-104696986D01*
X124701556Y-104662400D01*
X124878844Y-104662400D01*
X125052720Y-104696986D01*
X125052720Y-104696986D01*
G37*
G36*
X151388751Y-102739543D02*
G01*
X151534341Y-102799848D01*
X151665370Y-102887399D01*
X151776801Y-102998830D01*
X151864352Y-103129859D01*
X151924657Y-103275449D01*
X151955400Y-103430006D01*
X151955400Y-103587594D01*
X151924657Y-103742151D01*
X151864352Y-103887741D01*
X151776801Y-104018770D01*
X151665370Y-104130201D01*
X151534341Y-104217752D01*
X151388751Y-104278057D01*
X151234194Y-104308800D01*
X151076606Y-104308800D01*
X150922049Y-104278057D01*
X150776459Y-104217752D01*
X150645430Y-104130201D01*
X150533999Y-104018770D01*
X150446448Y-103887741D01*
X150386143Y-103742151D01*
X150355400Y-103587594D01*
X150355400Y-103430006D01*
X150386143Y-103275449D01*
X150446448Y-103129859D01*
X150533999Y-102998830D01*
X150645430Y-102887399D01*
X150776459Y-102799848D01*
X150922049Y-102739543D01*
X151076606Y-102708800D01*
X151234194Y-102708800D01*
X151388751Y-102739543D01*
X151388751Y-102739543D01*
G37*
G36*
X222760271Y-102556459D02*
G01*
X222838627Y-102564176D01*
X222989428Y-102609921D01*
X222989430Y-102609922D01*
X223128405Y-102684206D01*
X223250222Y-102784178D01*
X223350194Y-102905995D01*
X223424478Y-103044970D01*
X223424479Y-103044972D01*
X223470224Y-103195773D01*
X223485670Y-103352600D01*
X223470224Y-103509427D01*
X223424479Y-103660228D01*
X223424478Y-103660230D01*
X223350194Y-103799205D01*
X223250222Y-103921022D01*
X223128405Y-104020994D01*
X222989430Y-104095278D01*
X222989428Y-104095279D01*
X222838627Y-104141024D01*
X222760271Y-104148741D01*
X222721094Y-104152600D01*
X222642506Y-104152600D01*
X222603329Y-104148741D01*
X222524973Y-104141024D01*
X222374172Y-104095279D01*
X222374170Y-104095278D01*
X222235195Y-104020994D01*
X222113378Y-103921022D01*
X222013406Y-103799205D01*
X221939122Y-103660230D01*
X221939121Y-103660228D01*
X221893376Y-103509427D01*
X221877930Y-103352600D01*
X221893376Y-103195773D01*
X221939121Y-103044972D01*
X221939122Y-103044970D01*
X222013406Y-102905995D01*
X222113378Y-102784178D01*
X222235195Y-102684206D01*
X222374170Y-102609922D01*
X222374172Y-102609921D01*
X222524973Y-102564176D01*
X222603329Y-102556459D01*
X222642506Y-102552600D01*
X222721094Y-102552600D01*
X222760271Y-102556459D01*
X222760271Y-102556459D01*
G37*
G36*
X123150000Y-103922400D02*
G01*
X121350000Y-103922400D01*
X121350000Y-102122400D01*
X123150000Y-102122400D01*
X123150000Y-103922400D01*
X123150000Y-103922400D01*
G37*
G36*
X125052520Y-102156986D02*
G01*
X125183289Y-102211152D01*
X125216310Y-102224830D01*
X125363717Y-102323324D01*
X125489076Y-102448683D01*
X125587570Y-102596090D01*
X125587571Y-102596092D01*
X125655414Y-102759880D01*
X125690000Y-102933756D01*
X125690000Y-103111044D01*
X125655414Y-103284920D01*
X125595318Y-103430006D01*
X125587570Y-103448710D01*
X125489076Y-103596117D01*
X125363717Y-103721476D01*
X125216310Y-103819970D01*
X125216309Y-103819971D01*
X125216308Y-103819971D01*
X125052520Y-103887814D01*
X124878644Y-103922400D01*
X124701356Y-103922400D01*
X124527480Y-103887814D01*
X124363692Y-103819971D01*
X124363691Y-103819971D01*
X124363690Y-103819970D01*
X124216283Y-103721476D01*
X124090924Y-103596117D01*
X123992430Y-103448710D01*
X123984683Y-103430006D01*
X123924586Y-103284920D01*
X123890000Y-103111044D01*
X123890000Y-102933756D01*
X123924586Y-102759880D01*
X123992429Y-102596092D01*
X123992430Y-102596090D01*
X124090924Y-102448683D01*
X124216283Y-102323324D01*
X124363690Y-102224830D01*
X124396712Y-102211152D01*
X124527480Y-102156986D01*
X124701356Y-102122400D01*
X124878644Y-102122400D01*
X125052520Y-102156986D01*
X125052520Y-102156986D01*
G37*
G36*
X72623351Y-102307743D02*
G01*
X72768941Y-102368048D01*
X72899970Y-102455599D01*
X73011401Y-102567030D01*
X73098952Y-102698059D01*
X73159257Y-102843649D01*
X73190000Y-102998206D01*
X73190000Y-103155794D01*
X73159257Y-103310351D01*
X73098952Y-103455941D01*
X73011401Y-103586970D01*
X72899970Y-103698401D01*
X72768941Y-103785952D01*
X72623351Y-103846257D01*
X72468794Y-103877000D01*
X72311206Y-103877000D01*
X72156649Y-103846257D01*
X72011059Y-103785952D01*
X71880030Y-103698401D01*
X71768599Y-103586970D01*
X71681048Y-103455941D01*
X71620743Y-103310351D01*
X71590000Y-103155794D01*
X71590000Y-102998206D01*
X71620743Y-102843649D01*
X71681048Y-102698059D01*
X71768599Y-102567030D01*
X71880030Y-102455599D01*
X72011059Y-102368048D01*
X72156649Y-102307743D01*
X72311206Y-102277000D01*
X72468794Y-102277000D01*
X72623351Y-102307743D01*
X72623351Y-102307743D01*
G37*
G36*
X199242351Y-100732943D02*
G01*
X199387941Y-100793248D01*
X199518970Y-100880799D01*
X199630401Y-100992230D01*
X199717952Y-101123259D01*
X199778257Y-101268849D01*
X199809000Y-101423406D01*
X199809000Y-101580994D01*
X199778257Y-101735551D01*
X199717952Y-101881141D01*
X199630401Y-102012170D01*
X199518970Y-102123601D01*
X199387941Y-102211152D01*
X199242351Y-102271457D01*
X199087794Y-102302200D01*
X198930206Y-102302200D01*
X198775649Y-102271457D01*
X198630059Y-102211152D01*
X198499030Y-102123601D01*
X198387599Y-102012170D01*
X198300048Y-101881141D01*
X198239743Y-101735551D01*
X198209000Y-101580994D01*
X198209000Y-101423406D01*
X198239743Y-101268849D01*
X198300048Y-101123259D01*
X198387599Y-100992230D01*
X198499030Y-100880799D01*
X198630059Y-100793248D01*
X198775649Y-100732943D01*
X198930206Y-100702200D01*
X199087794Y-100702200D01*
X199242351Y-100732943D01*
X199242351Y-100732943D01*
G37*
G36*
X52307534Y-98633643D02*
G01*
X52580515Y-98746716D01*
X52580517Y-98746717D01*
X52590264Y-98753230D01*
X52826193Y-98910873D01*
X53035127Y-99119807D01*
X53199284Y-99365485D01*
X53312357Y-99638466D01*
X53370000Y-99928262D01*
X53370000Y-100223738D01*
X53312357Y-100513534D01*
X53221474Y-100732943D01*
X53199283Y-100786517D01*
X53035126Y-101032194D01*
X52826194Y-101241126D01*
X52580517Y-101405283D01*
X52580516Y-101405284D01*
X52580515Y-101405284D01*
X52307534Y-101518357D01*
X52017738Y-101576000D01*
X51722262Y-101576000D01*
X51432466Y-101518357D01*
X51159485Y-101405284D01*
X51159484Y-101405284D01*
X51159483Y-101405283D01*
X50913806Y-101241126D01*
X50704874Y-101032194D01*
X50540717Y-100786517D01*
X50518526Y-100732943D01*
X50427643Y-100513534D01*
X50370000Y-100223738D01*
X50370000Y-99928262D01*
X50427643Y-99638466D01*
X50540716Y-99365485D01*
X50704873Y-99119807D01*
X50913807Y-98910873D01*
X51149736Y-98753230D01*
X51159483Y-98746717D01*
X51159485Y-98746716D01*
X51432466Y-98633643D01*
X51722262Y-98576000D01*
X52017738Y-98576000D01*
X52307534Y-98633643D01*
X52307534Y-98633643D01*
G37*
G36*
X68537534Y-98633643D02*
G01*
X68810515Y-98746716D01*
X68810517Y-98746717D01*
X68820264Y-98753230D01*
X69056193Y-98910873D01*
X69265127Y-99119807D01*
X69429284Y-99365485D01*
X69542357Y-99638466D01*
X69600000Y-99928262D01*
X69600000Y-100223738D01*
X69542357Y-100513534D01*
X69451474Y-100732943D01*
X69429283Y-100786517D01*
X69265126Y-101032194D01*
X69056194Y-101241126D01*
X68810517Y-101405283D01*
X68810516Y-101405284D01*
X68810515Y-101405284D01*
X68537534Y-101518357D01*
X68247738Y-101576000D01*
X67952262Y-101576000D01*
X67662466Y-101518357D01*
X67389485Y-101405284D01*
X67389484Y-101405284D01*
X67389483Y-101405283D01*
X67143806Y-101241126D01*
X66934874Y-101032194D01*
X66770717Y-100786517D01*
X66748526Y-100732943D01*
X66657643Y-100513534D01*
X66600000Y-100223738D01*
X66600000Y-99928262D01*
X66657643Y-99638466D01*
X66770716Y-99365485D01*
X66934873Y-99119807D01*
X67143807Y-98910873D01*
X67379736Y-98753230D01*
X67389483Y-98746717D01*
X67389485Y-98746716D01*
X67662466Y-98633643D01*
X67952262Y-98576000D01*
X68247738Y-98576000D01*
X68537534Y-98633643D01*
X68537534Y-98633643D01*
G37*
G36*
X243537534Y-98633643D02*
G01*
X243810515Y-98746716D01*
X243810517Y-98746717D01*
X243820264Y-98753230D01*
X244056193Y-98910873D01*
X244265127Y-99119807D01*
X244429284Y-99365485D01*
X244542357Y-99638466D01*
X244600000Y-99928262D01*
X244600000Y-100223738D01*
X244542357Y-100513534D01*
X244451474Y-100732943D01*
X244429283Y-100786517D01*
X244265126Y-101032194D01*
X244056194Y-101241126D01*
X243810517Y-101405283D01*
X243810516Y-101405284D01*
X243810515Y-101405284D01*
X243537534Y-101518357D01*
X243247738Y-101576000D01*
X242952262Y-101576000D01*
X242662466Y-101518357D01*
X242389485Y-101405284D01*
X242389484Y-101405284D01*
X242389483Y-101405283D01*
X242143806Y-101241126D01*
X241934874Y-101032194D01*
X241770717Y-100786517D01*
X241748526Y-100732943D01*
X241657643Y-100513534D01*
X241600000Y-100223738D01*
X241600000Y-99928262D01*
X241657643Y-99638466D01*
X241770716Y-99365485D01*
X241934873Y-99119807D01*
X242143807Y-98910873D01*
X242379736Y-98753230D01*
X242389483Y-98746717D01*
X242389485Y-98746716D01*
X242662466Y-98633643D01*
X242952262Y-98576000D01*
X243247738Y-98576000D01*
X243537534Y-98633643D01*
X243537534Y-98633643D01*
G37*
G36*
X227307534Y-98633643D02*
G01*
X227580515Y-98746716D01*
X227580517Y-98746717D01*
X227590264Y-98753230D01*
X227826193Y-98910873D01*
X228035127Y-99119807D01*
X228199284Y-99365485D01*
X228312357Y-99638466D01*
X228370000Y-99928262D01*
X228370000Y-100223738D01*
X228312357Y-100513534D01*
X228221474Y-100732943D01*
X228199283Y-100786517D01*
X228035126Y-101032194D01*
X227826194Y-101241126D01*
X227580517Y-101405283D01*
X227580516Y-101405284D01*
X227580515Y-101405284D01*
X227307534Y-101518357D01*
X227017738Y-101576000D01*
X226722262Y-101576000D01*
X226432466Y-101518357D01*
X226159485Y-101405284D01*
X226159484Y-101405284D01*
X226159483Y-101405283D01*
X225913806Y-101241126D01*
X225704874Y-101032194D01*
X225540717Y-100786517D01*
X225518526Y-100732943D01*
X225427643Y-100513534D01*
X225370000Y-100223738D01*
X225370000Y-99928262D01*
X225427643Y-99638466D01*
X225540716Y-99365485D01*
X225704873Y-99119807D01*
X225913807Y-98910873D01*
X226149736Y-98753230D01*
X226159483Y-98746717D01*
X226159485Y-98746716D01*
X226432466Y-98633643D01*
X226722262Y-98576000D01*
X227017738Y-98576000D01*
X227307534Y-98633643D01*
X227307534Y-98633643D01*
G37*
G36*
X151233871Y-99762459D02*
G01*
X151312227Y-99770176D01*
X151463028Y-99815921D01*
X151463030Y-99815922D01*
X151602005Y-99890206D01*
X151723822Y-99990178D01*
X151823794Y-100111995D01*
X151883522Y-100223738D01*
X151898079Y-100250972D01*
X151943824Y-100401773D01*
X151959270Y-100558600D01*
X151943824Y-100715427D01*
X151898079Y-100866228D01*
X151898078Y-100866230D01*
X151823794Y-101005205D01*
X151723822Y-101127022D01*
X151602005Y-101226994D01*
X151523700Y-101268849D01*
X151463028Y-101301279D01*
X151312227Y-101347024D01*
X151233871Y-101354741D01*
X151194694Y-101358600D01*
X151116106Y-101358600D01*
X151076929Y-101354741D01*
X150998573Y-101347024D01*
X150847772Y-101301279D01*
X150787100Y-101268849D01*
X150708795Y-101226994D01*
X150586978Y-101127022D01*
X150487006Y-101005205D01*
X150412722Y-100866230D01*
X150412721Y-100866228D01*
X150366976Y-100715427D01*
X150351530Y-100558600D01*
X150366976Y-100401773D01*
X150412721Y-100250972D01*
X150427278Y-100223738D01*
X150487006Y-100111995D01*
X150586978Y-99990178D01*
X150708795Y-99890206D01*
X150847770Y-99815922D01*
X150847772Y-99815921D01*
X150998573Y-99770176D01*
X151076929Y-99762459D01*
X151116106Y-99758600D01*
X151194694Y-99758600D01*
X151233871Y-99762459D01*
X151233871Y-99762459D01*
G37*
G36*
X119460951Y-98493943D02*
G01*
X119606541Y-98554248D01*
X119737570Y-98641799D01*
X119849001Y-98753230D01*
X119936552Y-98884259D01*
X119996857Y-99029849D01*
X120027600Y-99184406D01*
X120027600Y-99341994D01*
X119996857Y-99496551D01*
X119936552Y-99642141D01*
X119849001Y-99773170D01*
X119737570Y-99884601D01*
X119606541Y-99972152D01*
X119460951Y-100032457D01*
X119306394Y-100063200D01*
X119148806Y-100063200D01*
X118994249Y-100032457D01*
X118848659Y-99972152D01*
X118717630Y-99884601D01*
X118606199Y-99773170D01*
X118518648Y-99642141D01*
X118458343Y-99496551D01*
X118427600Y-99341994D01*
X118427600Y-99184406D01*
X118458343Y-99029849D01*
X118518648Y-98884259D01*
X118606199Y-98753230D01*
X118717630Y-98641799D01*
X118848659Y-98554248D01*
X118994249Y-98493943D01*
X119148806Y-98463200D01*
X119306394Y-98463200D01*
X119460951Y-98493943D01*
X119460951Y-98493943D01*
G37*
G36*
X123448751Y-98493943D02*
G01*
X123594341Y-98554248D01*
X123725370Y-98641799D01*
X123836801Y-98753230D01*
X123924352Y-98884259D01*
X123984657Y-99029849D01*
X124015400Y-99184406D01*
X124015400Y-99341994D01*
X123984657Y-99496551D01*
X123924352Y-99642141D01*
X123836801Y-99773170D01*
X123725370Y-99884601D01*
X123594341Y-99972152D01*
X123448751Y-100032457D01*
X123294194Y-100063200D01*
X123136606Y-100063200D01*
X122982049Y-100032457D01*
X122836459Y-99972152D01*
X122705430Y-99884601D01*
X122593999Y-99773170D01*
X122506448Y-99642141D01*
X122446143Y-99496551D01*
X122415400Y-99341994D01*
X122415400Y-99184406D01*
X122446143Y-99029849D01*
X122506448Y-98884259D01*
X122593999Y-98753230D01*
X122705430Y-98641799D01*
X122836459Y-98554248D01*
X122982049Y-98493943D01*
X123136606Y-98463200D01*
X123294194Y-98463200D01*
X123448751Y-98493943D01*
X123448751Y-98493943D01*
G37*
G36*
X174045551Y-96614343D02*
G01*
X174191141Y-96674648D01*
X174322170Y-96762199D01*
X174433601Y-96873630D01*
X174521152Y-97004659D01*
X174581457Y-97150249D01*
X174612200Y-97304806D01*
X174612200Y-97462394D01*
X174581457Y-97616951D01*
X174521152Y-97762541D01*
X174433601Y-97893570D01*
X174322170Y-98005001D01*
X174191141Y-98092552D01*
X174045551Y-98152857D01*
X173890994Y-98183600D01*
X173733406Y-98183600D01*
X173578849Y-98152857D01*
X173433259Y-98092552D01*
X173302230Y-98005001D01*
X173190799Y-97893570D01*
X173103248Y-97762541D01*
X173042943Y-97616951D01*
X173012200Y-97462394D01*
X173012200Y-97304806D01*
X173042943Y-97150249D01*
X173103248Y-97004659D01*
X173190799Y-96873630D01*
X173302230Y-96762199D01*
X173433259Y-96674648D01*
X173578849Y-96614343D01*
X173733406Y-96583600D01*
X173890994Y-96583600D01*
X174045551Y-96614343D01*
X174045551Y-96614343D01*
G37*
G36*
X179326271Y-96587459D02*
G01*
X179404627Y-96595176D01*
X179555428Y-96640921D01*
X179555430Y-96640922D01*
X179694405Y-96715206D01*
X179816222Y-96815178D01*
X179916194Y-96936995D01*
X179990478Y-97075970D01*
X179990479Y-97075972D01*
X180036224Y-97226773D01*
X180051670Y-97383600D01*
X180036224Y-97540427D01*
X179998184Y-97665828D01*
X179990478Y-97691230D01*
X179916194Y-97830205D01*
X179816222Y-97952022D01*
X179694405Y-98051994D01*
X179602948Y-98100879D01*
X179555428Y-98126279D01*
X179404627Y-98172024D01*
X179326271Y-98179741D01*
X179287094Y-98183600D01*
X179208506Y-98183600D01*
X179169329Y-98179741D01*
X179090973Y-98172024D01*
X178940172Y-98126279D01*
X178892652Y-98100879D01*
X178801195Y-98051994D01*
X178679378Y-97952022D01*
X178579406Y-97830205D01*
X178505122Y-97691230D01*
X178497416Y-97665828D01*
X178459376Y-97540427D01*
X178443930Y-97383600D01*
X178459376Y-97226773D01*
X178505121Y-97075972D01*
X178505122Y-97075970D01*
X178579406Y-96936995D01*
X178679378Y-96815178D01*
X178801195Y-96715206D01*
X178940170Y-96640922D01*
X178940172Y-96640921D01*
X179090973Y-96595176D01*
X179169329Y-96587459D01*
X179208506Y-96583600D01*
X179287094Y-96583600D01*
X179326271Y-96587459D01*
X179326271Y-96587459D01*
G37*
G36*
X199087471Y-96562059D02*
G01*
X199165827Y-96569776D01*
X199316628Y-96615521D01*
X199316630Y-96615522D01*
X199455605Y-96689806D01*
X199577422Y-96789778D01*
X199677394Y-96911595D01*
X199707692Y-96968278D01*
X199751679Y-97050572D01*
X199797424Y-97201373D01*
X199812870Y-97358200D01*
X199797424Y-97515027D01*
X199751679Y-97665828D01*
X199751678Y-97665830D01*
X199677394Y-97804805D01*
X199577422Y-97926622D01*
X199455605Y-98026594D01*
X199332207Y-98092552D01*
X199316628Y-98100879D01*
X199165827Y-98146624D01*
X199087471Y-98154341D01*
X199048294Y-98158200D01*
X198969706Y-98158200D01*
X198930529Y-98154341D01*
X198852173Y-98146624D01*
X198701372Y-98100879D01*
X198685793Y-98092552D01*
X198562395Y-98026594D01*
X198440578Y-97926622D01*
X198340606Y-97804805D01*
X198266322Y-97665830D01*
X198266321Y-97665828D01*
X198220576Y-97515027D01*
X198205130Y-97358200D01*
X198220576Y-97201373D01*
X198266321Y-97050572D01*
X198310308Y-96968278D01*
X198340606Y-96911595D01*
X198440578Y-96789778D01*
X198562395Y-96689806D01*
X198701370Y-96615522D01*
X198701372Y-96615521D01*
X198852173Y-96569776D01*
X198930529Y-96562059D01*
X198969706Y-96558200D01*
X199048294Y-96558200D01*
X199087471Y-96562059D01*
X199087471Y-96562059D01*
G37*
G36*
X195102151Y-96588943D02*
G01*
X195247741Y-96649248D01*
X195378770Y-96736799D01*
X195490201Y-96848230D01*
X195577752Y-96979259D01*
X195638057Y-97124849D01*
X195668800Y-97279406D01*
X195668800Y-97436994D01*
X195638057Y-97591551D01*
X195577752Y-97737141D01*
X195490201Y-97868170D01*
X195378770Y-97979601D01*
X195247741Y-98067152D01*
X195102151Y-98127457D01*
X194947594Y-98158200D01*
X194790006Y-98158200D01*
X194635449Y-98127457D01*
X194489859Y-98067152D01*
X194358830Y-97979601D01*
X194247399Y-97868170D01*
X194159848Y-97737141D01*
X194099543Y-97591551D01*
X194068800Y-97436994D01*
X194068800Y-97279406D01*
X194099543Y-97124849D01*
X194159848Y-96979259D01*
X194247399Y-96848230D01*
X194358830Y-96736799D01*
X194489859Y-96649248D01*
X194635449Y-96588943D01*
X194790006Y-96558200D01*
X194947594Y-96558200D01*
X195102151Y-96588943D01*
X195102151Y-96588943D01*
G37*
G36*
X89234951Y-96432743D02*
G01*
X89380541Y-96493048D01*
X89511570Y-96580599D01*
X89623001Y-96692030D01*
X89710552Y-96823059D01*
X89770857Y-96968649D01*
X89801600Y-97123206D01*
X89801600Y-97280794D01*
X89770857Y-97435351D01*
X89710552Y-97580941D01*
X89623001Y-97711970D01*
X89511570Y-97823401D01*
X89380541Y-97910952D01*
X89234951Y-97971257D01*
X89080394Y-98002000D01*
X88922806Y-98002000D01*
X88768249Y-97971257D01*
X88622659Y-97910952D01*
X88491630Y-97823401D01*
X88380199Y-97711970D01*
X88292648Y-97580941D01*
X88232343Y-97435351D01*
X88201600Y-97280794D01*
X88201600Y-97123206D01*
X88232343Y-96968649D01*
X88292648Y-96823059D01*
X88380199Y-96692030D01*
X88491630Y-96580599D01*
X88622659Y-96493048D01*
X88768249Y-96432743D01*
X88922806Y-96402000D01*
X89080394Y-96402000D01*
X89234951Y-96432743D01*
X89234951Y-96432743D01*
G37*
G36*
X113220708Y-95518751D02*
G01*
X113292489Y-95533029D01*
X113474478Y-95608411D01*
X113638263Y-95717849D01*
X113777551Y-95857137D01*
X113886989Y-96020922D01*
X113907341Y-96070057D01*
X113962371Y-96202912D01*
X114000800Y-96396107D01*
X114000800Y-96593093D01*
X113981562Y-96689807D01*
X113962371Y-96786289D01*
X113886989Y-96968278D01*
X113777551Y-97132063D01*
X113638263Y-97271351D01*
X113474478Y-97380789D01*
X113292489Y-97456171D01*
X113261203Y-97462394D01*
X113099293Y-97494600D01*
X112902307Y-97494600D01*
X112740397Y-97462394D01*
X112709111Y-97456171D01*
X112527122Y-97380789D01*
X112363337Y-97271351D01*
X112224049Y-97132063D01*
X112114611Y-96968278D01*
X112039229Y-96786289D01*
X112020038Y-96689807D01*
X112000800Y-96593093D01*
X112000800Y-96396107D01*
X112039229Y-96202912D01*
X112094259Y-96070057D01*
X112114611Y-96020922D01*
X112224049Y-95857137D01*
X112363337Y-95717849D01*
X112527122Y-95608411D01*
X112709111Y-95533029D01*
X112780892Y-95518751D01*
X112902307Y-95494600D01*
X113099293Y-95494600D01*
X113220708Y-95518751D01*
X113220708Y-95518751D01*
G37*
G36*
X108220708Y-95518751D02*
G01*
X108292489Y-95533029D01*
X108474478Y-95608411D01*
X108638263Y-95717849D01*
X108777551Y-95857137D01*
X108886989Y-96020922D01*
X108907341Y-96070057D01*
X108962371Y-96202912D01*
X109000800Y-96396107D01*
X109000800Y-96593093D01*
X108981562Y-96689807D01*
X108962371Y-96786289D01*
X108886989Y-96968278D01*
X108777551Y-97132063D01*
X108638263Y-97271351D01*
X108474478Y-97380789D01*
X108292489Y-97456171D01*
X108261203Y-97462394D01*
X108099293Y-97494600D01*
X107902307Y-97494600D01*
X107740397Y-97462394D01*
X107709111Y-97456171D01*
X107527122Y-97380789D01*
X107363337Y-97271351D01*
X107224049Y-97132063D01*
X107114611Y-96968278D01*
X107039229Y-96786289D01*
X107020038Y-96689807D01*
X107000800Y-96593093D01*
X107000800Y-96396107D01*
X107039229Y-96202912D01*
X107094259Y-96070057D01*
X107114611Y-96020922D01*
X107224049Y-95857137D01*
X107363337Y-95717849D01*
X107527122Y-95608411D01*
X107709111Y-95533029D01*
X107780892Y-95518751D01*
X107902307Y-95494600D01*
X108099293Y-95494600D01*
X108220708Y-95518751D01*
X108220708Y-95518751D01*
G37*
G36*
X144221490Y-95190019D02*
G01*
X144285889Y-95202829D01*
X144467878Y-95278211D01*
X144631663Y-95387649D01*
X144770951Y-95526937D01*
X144880389Y-95690722D01*
X144955771Y-95872711D01*
X144994200Y-96065909D01*
X144994200Y-96262891D01*
X144955771Y-96456089D01*
X144880389Y-96638078D01*
X144770951Y-96801863D01*
X144631663Y-96941151D01*
X144467878Y-97050589D01*
X144285889Y-97125971D01*
X144255272Y-97132061D01*
X144092693Y-97164400D01*
X143895707Y-97164400D01*
X143733128Y-97132061D01*
X143702511Y-97125971D01*
X143520522Y-97050589D01*
X143356737Y-96941151D01*
X143217449Y-96801863D01*
X143108011Y-96638078D01*
X143032629Y-96456089D01*
X142994200Y-96262891D01*
X142994200Y-96065909D01*
X143032629Y-95872711D01*
X143108011Y-95690722D01*
X143217449Y-95526937D01*
X143356737Y-95387649D01*
X143520522Y-95278211D01*
X143702511Y-95202829D01*
X143766910Y-95190019D01*
X143895707Y-95164400D01*
X144092693Y-95164400D01*
X144221490Y-95190019D01*
X144221490Y-95190019D01*
G37*
G36*
X139221490Y-95190019D02*
G01*
X139285889Y-95202829D01*
X139467878Y-95278211D01*
X139631663Y-95387649D01*
X139770951Y-95526937D01*
X139880389Y-95690722D01*
X139955771Y-95872711D01*
X139994200Y-96065909D01*
X139994200Y-96262891D01*
X139955771Y-96456089D01*
X139880389Y-96638078D01*
X139770951Y-96801863D01*
X139631663Y-96941151D01*
X139467878Y-97050589D01*
X139285889Y-97125971D01*
X139255272Y-97132061D01*
X139092693Y-97164400D01*
X138895707Y-97164400D01*
X138733128Y-97132061D01*
X138702511Y-97125971D01*
X138520522Y-97050589D01*
X138356737Y-96941151D01*
X138217449Y-96801863D01*
X138108011Y-96638078D01*
X138032629Y-96456089D01*
X137994200Y-96262891D01*
X137994200Y-96065909D01*
X138032629Y-95872711D01*
X138108011Y-95690722D01*
X138217449Y-95526937D01*
X138356737Y-95387649D01*
X138520522Y-95278211D01*
X138702511Y-95202829D01*
X138766910Y-95190019D01*
X138895707Y-95164400D01*
X139092693Y-95164400D01*
X139221490Y-95190019D01*
X139221490Y-95190019D01*
G37*
G36*
X96245351Y-94531543D02*
G01*
X96390941Y-94591848D01*
X96521970Y-94679399D01*
X96633401Y-94790830D01*
X96720952Y-94921859D01*
X96781257Y-95067449D01*
X96812000Y-95222006D01*
X96812000Y-95379594D01*
X96781257Y-95534151D01*
X96720952Y-95679741D01*
X96633401Y-95810770D01*
X96521970Y-95922201D01*
X96390941Y-96009752D01*
X96245351Y-96070057D01*
X96090794Y-96100800D01*
X95933206Y-96100800D01*
X95778649Y-96070057D01*
X95633059Y-96009752D01*
X95502030Y-95922201D01*
X95390599Y-95810770D01*
X95303048Y-95679741D01*
X95242743Y-95534151D01*
X95212000Y-95379594D01*
X95212000Y-95222006D01*
X95242743Y-95067449D01*
X95303048Y-94921859D01*
X95390599Y-94790830D01*
X95502030Y-94679399D01*
X95633059Y-94591848D01*
X95778649Y-94531543D01*
X95933206Y-94500800D01*
X96090794Y-94500800D01*
X96245351Y-94531543D01*
X96245351Y-94531543D01*
G37*
G36*
X163224490Y-93767619D02*
G01*
X163288889Y-93780429D01*
X163470878Y-93855811D01*
X163634663Y-93965249D01*
X163773951Y-94104537D01*
X163883389Y-94268322D01*
X163953057Y-94436517D01*
X163958771Y-94450312D01*
X163986925Y-94591849D01*
X163997200Y-94643509D01*
X163997200Y-94840491D01*
X163958771Y-95033689D01*
X163883389Y-95215678D01*
X163773951Y-95379463D01*
X163634663Y-95518751D01*
X163470878Y-95628189D01*
X163288889Y-95703571D01*
X163224490Y-95716381D01*
X163095693Y-95742000D01*
X162898707Y-95742000D01*
X162769910Y-95716381D01*
X162705511Y-95703571D01*
X162523522Y-95628189D01*
X162359737Y-95518751D01*
X162220449Y-95379463D01*
X162111011Y-95215678D01*
X162035629Y-95033689D01*
X161997200Y-94840491D01*
X161997200Y-94643509D01*
X162007476Y-94591849D01*
X162035629Y-94450312D01*
X162041343Y-94436517D01*
X162111011Y-94268322D01*
X162220449Y-94104537D01*
X162359737Y-93965249D01*
X162523522Y-93855811D01*
X162705511Y-93780429D01*
X162769910Y-93767619D01*
X162898707Y-93742000D01*
X163095693Y-93742000D01*
X163224490Y-93767619D01*
X163224490Y-93767619D01*
G37*
G36*
X168224490Y-93767619D02*
G01*
X168288889Y-93780429D01*
X168470878Y-93855811D01*
X168634663Y-93965249D01*
X168773951Y-94104537D01*
X168883389Y-94268322D01*
X168953057Y-94436517D01*
X168958771Y-94450312D01*
X168986925Y-94591849D01*
X168997200Y-94643509D01*
X168997200Y-94840491D01*
X168958771Y-95033689D01*
X168883389Y-95215678D01*
X168773951Y-95379463D01*
X168634663Y-95518751D01*
X168470878Y-95628189D01*
X168288889Y-95703571D01*
X168224490Y-95716381D01*
X168095693Y-95742000D01*
X167898707Y-95742000D01*
X167769910Y-95716381D01*
X167705511Y-95703571D01*
X167523522Y-95628189D01*
X167359737Y-95518751D01*
X167220449Y-95379463D01*
X167111011Y-95215678D01*
X167035629Y-95033689D01*
X166997200Y-94840491D01*
X166997200Y-94643509D01*
X167007476Y-94591849D01*
X167035629Y-94450312D01*
X167041343Y-94436517D01*
X167111011Y-94268322D01*
X167220449Y-94104537D01*
X167359737Y-93965249D01*
X167523522Y-93855811D01*
X167705511Y-93780429D01*
X167769910Y-93767619D01*
X167898707Y-93742000D01*
X168095693Y-93742000D01*
X168224490Y-93767619D01*
X168224490Y-93767619D01*
G37*
G36*
X183688671Y-93869659D02*
G01*
X183767027Y-93877376D01*
X183917828Y-93923121D01*
X183917830Y-93923122D01*
X184056805Y-93997406D01*
X184178622Y-94097378D01*
X184278594Y-94219195D01*
X184333972Y-94322800D01*
X184352879Y-94358172D01*
X184398624Y-94508973D01*
X184414070Y-94665800D01*
X184398624Y-94822627D01*
X184368522Y-94921859D01*
X184352878Y-94973430D01*
X184278594Y-95112405D01*
X184178622Y-95234222D01*
X184056805Y-95334194D01*
X183971868Y-95379594D01*
X183917828Y-95408479D01*
X183767027Y-95454224D01*
X183688671Y-95461941D01*
X183649494Y-95465800D01*
X182770906Y-95465800D01*
X182731729Y-95461941D01*
X182653373Y-95454224D01*
X182502572Y-95408479D01*
X182448532Y-95379594D01*
X182363595Y-95334194D01*
X182241778Y-95234222D01*
X182141806Y-95112405D01*
X182067522Y-94973430D01*
X182051878Y-94921859D01*
X182021776Y-94822627D01*
X182006330Y-94665800D01*
X182021776Y-94508973D01*
X182067521Y-94358172D01*
X182086428Y-94322800D01*
X182141806Y-94219195D01*
X182241778Y-94097378D01*
X182363595Y-93997406D01*
X182502570Y-93923122D01*
X182502572Y-93923121D01*
X182653373Y-93877376D01*
X182731729Y-93869659D01*
X182770906Y-93865800D01*
X183649494Y-93865800D01*
X183688671Y-93869659D01*
X183688671Y-93869659D01*
G37*
G36*
X191308671Y-93869659D02*
G01*
X191387027Y-93877376D01*
X191537828Y-93923121D01*
X191537830Y-93923122D01*
X191676805Y-93997406D01*
X191798622Y-94097378D01*
X191898594Y-94219195D01*
X191953972Y-94322800D01*
X191972879Y-94358172D01*
X192018624Y-94508973D01*
X192034070Y-94665800D01*
X192018624Y-94822627D01*
X191988522Y-94921859D01*
X191972878Y-94973430D01*
X191898594Y-95112405D01*
X191798622Y-95234222D01*
X191676805Y-95334194D01*
X191591868Y-95379594D01*
X191537828Y-95408479D01*
X191387027Y-95454224D01*
X191308671Y-95461941D01*
X191269494Y-95465800D01*
X190390906Y-95465800D01*
X190351729Y-95461941D01*
X190273373Y-95454224D01*
X190122572Y-95408479D01*
X190068532Y-95379594D01*
X189983595Y-95334194D01*
X189861778Y-95234222D01*
X189761806Y-95112405D01*
X189687522Y-94973430D01*
X189671878Y-94921859D01*
X189641776Y-94822627D01*
X189626330Y-94665800D01*
X189641776Y-94508973D01*
X189687521Y-94358172D01*
X189706428Y-94322800D01*
X189761806Y-94219195D01*
X189861778Y-94097378D01*
X189983595Y-93997406D01*
X190122570Y-93923122D01*
X190122572Y-93923121D01*
X190273373Y-93877376D01*
X190351729Y-93869659D01*
X190390906Y-93865800D01*
X191269494Y-93865800D01*
X191308671Y-93869659D01*
X191308671Y-93869659D01*
G37*
G36*
X227307534Y-92283643D02*
G01*
X227580515Y-92396716D01*
X227580517Y-92396717D01*
X227704190Y-92479353D01*
X227826193Y-92560873D01*
X228035127Y-92769807D01*
X228102337Y-92870394D01*
X228131624Y-92914224D01*
X228199284Y-93015485D01*
X228312357Y-93288466D01*
X228370000Y-93578262D01*
X228370000Y-93873738D01*
X228312357Y-94163534D01*
X228199284Y-94436515D01*
X228199283Y-94436517D01*
X228035126Y-94682194D01*
X227826194Y-94891126D01*
X227580517Y-95055283D01*
X227580516Y-95055284D01*
X227580515Y-95055284D01*
X227307534Y-95168357D01*
X227017738Y-95226000D01*
X226722262Y-95226000D01*
X226432466Y-95168357D01*
X226159485Y-95055284D01*
X226159484Y-95055284D01*
X226159483Y-95055283D01*
X225913806Y-94891126D01*
X225704874Y-94682194D01*
X225540717Y-94436517D01*
X225540716Y-94436515D01*
X225427643Y-94163534D01*
X225370000Y-93873738D01*
X225370000Y-93578262D01*
X225427643Y-93288466D01*
X225540716Y-93015485D01*
X225608377Y-92914224D01*
X225637663Y-92870394D01*
X225704873Y-92769807D01*
X225913807Y-92560873D01*
X226035810Y-92479353D01*
X226159483Y-92396717D01*
X226159485Y-92396716D01*
X226432466Y-92283643D01*
X226722262Y-92226000D01*
X227017738Y-92226000D01*
X227307534Y-92283643D01*
X227307534Y-92283643D01*
G37*
G36*
X68537534Y-92283643D02*
G01*
X68810515Y-92396716D01*
X68810517Y-92396717D01*
X68934190Y-92479353D01*
X69056193Y-92560873D01*
X69265127Y-92769807D01*
X69332337Y-92870394D01*
X69361624Y-92914224D01*
X69429284Y-93015485D01*
X69542357Y-93288466D01*
X69600000Y-93578262D01*
X69600000Y-93873738D01*
X69542357Y-94163534D01*
X69429284Y-94436515D01*
X69429283Y-94436517D01*
X69265126Y-94682194D01*
X69056194Y-94891126D01*
X68810517Y-95055283D01*
X68810516Y-95055284D01*
X68810515Y-95055284D01*
X68537534Y-95168357D01*
X68247738Y-95226000D01*
X67952262Y-95226000D01*
X67662466Y-95168357D01*
X67389485Y-95055284D01*
X67389484Y-95055284D01*
X67389483Y-95055283D01*
X67143806Y-94891126D01*
X66934874Y-94682194D01*
X66770717Y-94436517D01*
X66770716Y-94436515D01*
X66657643Y-94163534D01*
X66600000Y-93873738D01*
X66600000Y-93578262D01*
X66657643Y-93288466D01*
X66770716Y-93015485D01*
X66838377Y-92914224D01*
X66867663Y-92870394D01*
X66934873Y-92769807D01*
X67143807Y-92560873D01*
X67265810Y-92479353D01*
X67389483Y-92396717D01*
X67389485Y-92396716D01*
X67662466Y-92283643D01*
X67952262Y-92226000D01*
X68247738Y-92226000D01*
X68537534Y-92283643D01*
X68537534Y-92283643D01*
G37*
G36*
X52307534Y-92283643D02*
G01*
X52580515Y-92396716D01*
X52580517Y-92396717D01*
X52704190Y-92479353D01*
X52826193Y-92560873D01*
X53035127Y-92769807D01*
X53102337Y-92870394D01*
X53131624Y-92914224D01*
X53199284Y-93015485D01*
X53312357Y-93288466D01*
X53370000Y-93578262D01*
X53370000Y-93873738D01*
X53312357Y-94163534D01*
X53199284Y-94436515D01*
X53199283Y-94436517D01*
X53035126Y-94682194D01*
X52826194Y-94891126D01*
X52580517Y-95055283D01*
X52580516Y-95055284D01*
X52580515Y-95055284D01*
X52307534Y-95168357D01*
X52017738Y-95226000D01*
X51722262Y-95226000D01*
X51432466Y-95168357D01*
X51159485Y-95055284D01*
X51159484Y-95055284D01*
X51159483Y-95055283D01*
X50913806Y-94891126D01*
X50704874Y-94682194D01*
X50540717Y-94436517D01*
X50540716Y-94436515D01*
X50427643Y-94163534D01*
X50370000Y-93873738D01*
X50370000Y-93578262D01*
X50427643Y-93288466D01*
X50540716Y-93015485D01*
X50608377Y-92914224D01*
X50637663Y-92870394D01*
X50704873Y-92769807D01*
X50913807Y-92560873D01*
X51035810Y-92479353D01*
X51159483Y-92396717D01*
X51159485Y-92396716D01*
X51432466Y-92283643D01*
X51722262Y-92226000D01*
X52017738Y-92226000D01*
X52307534Y-92283643D01*
X52307534Y-92283643D01*
G37*
G36*
X243537534Y-92283643D02*
G01*
X243810515Y-92396716D01*
X243810517Y-92396717D01*
X243934190Y-92479353D01*
X244056193Y-92560873D01*
X244265127Y-92769807D01*
X244332337Y-92870394D01*
X244361624Y-92914224D01*
X244429284Y-93015485D01*
X244542357Y-93288466D01*
X244600000Y-93578262D01*
X244600000Y-93873738D01*
X244542357Y-94163534D01*
X244429284Y-94436515D01*
X244429283Y-94436517D01*
X244265126Y-94682194D01*
X244056194Y-94891126D01*
X243810517Y-95055283D01*
X243810516Y-95055284D01*
X243810515Y-95055284D01*
X243537534Y-95168357D01*
X243247738Y-95226000D01*
X242952262Y-95226000D01*
X242662466Y-95168357D01*
X242389485Y-95055284D01*
X242389484Y-95055284D01*
X242389483Y-95055283D01*
X242143806Y-94891126D01*
X241934874Y-94682194D01*
X241770717Y-94436517D01*
X241770716Y-94436515D01*
X241657643Y-94163534D01*
X241600000Y-93873738D01*
X241600000Y-93578262D01*
X241657643Y-93288466D01*
X241770716Y-93015485D01*
X241838377Y-92914224D01*
X241867663Y-92870394D01*
X241934873Y-92769807D01*
X242143807Y-92560873D01*
X242265810Y-92479353D01*
X242389483Y-92396717D01*
X242389485Y-92396716D01*
X242662466Y-92283643D01*
X242952262Y-92226000D01*
X243247738Y-92226000D01*
X243537534Y-92283643D01*
X243537534Y-92283643D01*
G37*
G36*
X212856751Y-92753543D02*
G01*
X213002341Y-92813848D01*
X213133370Y-92901399D01*
X213244801Y-93012830D01*
X213332352Y-93143859D01*
X213392657Y-93289449D01*
X213423400Y-93444006D01*
X213423400Y-93601594D01*
X213392657Y-93756151D01*
X213332352Y-93901741D01*
X213244801Y-94032770D01*
X213133370Y-94144201D01*
X213002341Y-94231752D01*
X212856751Y-94292057D01*
X212702194Y-94322800D01*
X212544606Y-94322800D01*
X212390049Y-94292057D01*
X212244459Y-94231752D01*
X212113430Y-94144201D01*
X212001999Y-94032770D01*
X211914448Y-93901741D01*
X211854143Y-93756151D01*
X211823400Y-93601594D01*
X211823400Y-93444006D01*
X211854143Y-93289449D01*
X211914448Y-93143859D01*
X212001999Y-93012830D01*
X212113430Y-92901399D01*
X212244459Y-92813848D01*
X212390049Y-92753543D01*
X212544606Y-92722800D01*
X212702194Y-92722800D01*
X212856751Y-92753543D01*
X212856751Y-92753543D01*
G37*
G36*
X217856751Y-92753543D02*
G01*
X218002341Y-92813848D01*
X218133370Y-92901399D01*
X218244801Y-93012830D01*
X218332352Y-93143859D01*
X218392657Y-93289449D01*
X218423400Y-93444006D01*
X218423400Y-93601594D01*
X218392657Y-93756151D01*
X218332352Y-93901741D01*
X218244801Y-94032770D01*
X218133370Y-94144201D01*
X218002341Y-94231752D01*
X217856751Y-94292057D01*
X217702194Y-94322800D01*
X217544606Y-94322800D01*
X217390049Y-94292057D01*
X217244459Y-94231752D01*
X217113430Y-94144201D01*
X217001999Y-94032770D01*
X216914448Y-93901741D01*
X216854143Y-93756151D01*
X216823400Y-93601594D01*
X216823400Y-93444006D01*
X216854143Y-93289449D01*
X216914448Y-93143859D01*
X217001999Y-93012830D01*
X217113430Y-92901399D01*
X217244459Y-92813848D01*
X217390049Y-92753543D01*
X217544606Y-92722800D01*
X217702194Y-92722800D01*
X217856751Y-92753543D01*
X217856751Y-92753543D01*
G37*
G36*
X102019000Y-93916400D02*
G01*
X100419000Y-93916400D01*
X100419000Y-92316400D01*
X102019000Y-92316400D01*
X102019000Y-93916400D01*
X102019000Y-93916400D01*
G37*
G36*
X85323351Y-91432743D02*
G01*
X85468941Y-91493048D01*
X85599970Y-91580599D01*
X85711401Y-91692030D01*
X85798952Y-91823059D01*
X85859257Y-91968649D01*
X85890000Y-92123206D01*
X85890000Y-92280794D01*
X85859257Y-92435351D01*
X85798952Y-92580941D01*
X85711401Y-92711970D01*
X85599970Y-92823401D01*
X85468941Y-92910952D01*
X85323351Y-92971257D01*
X85168794Y-93002000D01*
X85011206Y-93002000D01*
X84856649Y-92971257D01*
X84711059Y-92910952D01*
X84580030Y-92823401D01*
X84468599Y-92711970D01*
X84381048Y-92580941D01*
X84320743Y-92435351D01*
X84290000Y-92280794D01*
X84290000Y-92123206D01*
X84320743Y-91968649D01*
X84381048Y-91823059D01*
X84468599Y-91692030D01*
X84580030Y-91580599D01*
X84711059Y-91493048D01*
X84856649Y-91432743D01*
X85011206Y-91402000D01*
X85168794Y-91402000D01*
X85323351Y-91432743D01*
X85323351Y-91432743D01*
G37*
G36*
X72468471Y-91405859D02*
G01*
X72546827Y-91413576D01*
X72697628Y-91459321D01*
X72697630Y-91459322D01*
X72836605Y-91533606D01*
X72958422Y-91633578D01*
X73058394Y-91755395D01*
X73091948Y-91818170D01*
X73132679Y-91894372D01*
X73178424Y-92045173D01*
X73193870Y-92202000D01*
X73178424Y-92358827D01*
X73132679Y-92509628D01*
X73132678Y-92509630D01*
X73058394Y-92648605D01*
X72958422Y-92770422D01*
X72836605Y-92870394D01*
X72754605Y-92914224D01*
X72697628Y-92944679D01*
X72546827Y-92990424D01*
X72468471Y-92998141D01*
X72429294Y-93002000D01*
X72350706Y-93002000D01*
X72311529Y-92998141D01*
X72233173Y-92990424D01*
X72082372Y-92944679D01*
X72025395Y-92914224D01*
X71943395Y-92870394D01*
X71821578Y-92770422D01*
X71721606Y-92648605D01*
X71647322Y-92509630D01*
X71647321Y-92509628D01*
X71601576Y-92358827D01*
X71586130Y-92202000D01*
X71601576Y-92045173D01*
X71647321Y-91894372D01*
X71688052Y-91818170D01*
X71721606Y-91755395D01*
X71821578Y-91633578D01*
X71943395Y-91533606D01*
X72082370Y-91459322D01*
X72082372Y-91459321D01*
X72233173Y-91413576D01*
X72311529Y-91405859D01*
X72350706Y-91402000D01*
X72429294Y-91402000D01*
X72468471Y-91405859D01*
X72468471Y-91405859D01*
G37*
G36*
X89234951Y-91432743D02*
G01*
X89380541Y-91493048D01*
X89511570Y-91580599D01*
X89623001Y-91692030D01*
X89710552Y-91823059D01*
X89770857Y-91968649D01*
X89801600Y-92123206D01*
X89801600Y-92280794D01*
X89770857Y-92435351D01*
X89710552Y-92580941D01*
X89623001Y-92711970D01*
X89511570Y-92823401D01*
X89380541Y-92910952D01*
X89234951Y-92971257D01*
X89080394Y-93002000D01*
X88922806Y-93002000D01*
X88768249Y-92971257D01*
X88622659Y-92910952D01*
X88491630Y-92823401D01*
X88380199Y-92711970D01*
X88292648Y-92580941D01*
X88232343Y-92435351D01*
X88201600Y-92280794D01*
X88201600Y-92123206D01*
X88232343Y-91968649D01*
X88292648Y-91823059D01*
X88380199Y-91692030D01*
X88491630Y-91580599D01*
X88622659Y-91493048D01*
X88768249Y-91432743D01*
X88922806Y-91402000D01*
X89080394Y-91402000D01*
X89234951Y-91432743D01*
X89234951Y-91432743D01*
G37*
G36*
X183688671Y-91329659D02*
G01*
X183767027Y-91337376D01*
X183917828Y-91383121D01*
X183917830Y-91383122D01*
X184056805Y-91457406D01*
X184100235Y-91493048D01*
X184178622Y-91557378D01*
X184278593Y-91679194D01*
X184352879Y-91818172D01*
X184398624Y-91968973D01*
X184414070Y-92125800D01*
X184398624Y-92282627D01*
X184364015Y-92396716D01*
X184352878Y-92433430D01*
X184278594Y-92572405D01*
X184178622Y-92694222D01*
X184056805Y-92794194D01*
X183917830Y-92868478D01*
X183917828Y-92868479D01*
X183767027Y-92914224D01*
X183688671Y-92921941D01*
X183649494Y-92925800D01*
X182770906Y-92925800D01*
X182731729Y-92921941D01*
X182653373Y-92914224D01*
X182502572Y-92868479D01*
X182502570Y-92868478D01*
X182363595Y-92794194D01*
X182241778Y-92694222D01*
X182141806Y-92572405D01*
X182067522Y-92433430D01*
X182056385Y-92396716D01*
X182021776Y-92282627D01*
X182006330Y-92125800D01*
X182021776Y-91968973D01*
X182067521Y-91818172D01*
X182141807Y-91679194D01*
X182241778Y-91557378D01*
X182320165Y-91493048D01*
X182363595Y-91457406D01*
X182502570Y-91383122D01*
X182502572Y-91383121D01*
X182653373Y-91337376D01*
X182731729Y-91329659D01*
X182770906Y-91325800D01*
X183649494Y-91325800D01*
X183688671Y-91329659D01*
X183688671Y-91329659D01*
G37*
G36*
X191308671Y-91329659D02*
G01*
X191387027Y-91337376D01*
X191537828Y-91383121D01*
X191537830Y-91383122D01*
X191676805Y-91457406D01*
X191720235Y-91493048D01*
X191798622Y-91557378D01*
X191898593Y-91679194D01*
X191972879Y-91818172D01*
X192018624Y-91968973D01*
X192034070Y-92125800D01*
X192018624Y-92282627D01*
X191984015Y-92396716D01*
X191972878Y-92433430D01*
X191898594Y-92572405D01*
X191798622Y-92694222D01*
X191676805Y-92794194D01*
X191537830Y-92868478D01*
X191537828Y-92868479D01*
X191387027Y-92914224D01*
X191308671Y-92921941D01*
X191269494Y-92925800D01*
X190390906Y-92925800D01*
X190351729Y-92921941D01*
X190273373Y-92914224D01*
X190122572Y-92868479D01*
X190122570Y-92868478D01*
X189983595Y-92794194D01*
X189861778Y-92694222D01*
X189761806Y-92572405D01*
X189687522Y-92433430D01*
X189676385Y-92396716D01*
X189641776Y-92282627D01*
X189626330Y-92125800D01*
X189641776Y-91968973D01*
X189687521Y-91818172D01*
X189761807Y-91679194D01*
X189861778Y-91557378D01*
X189940165Y-91493048D01*
X189983595Y-91457406D01*
X190122570Y-91383122D01*
X190122572Y-91383121D01*
X190273373Y-91337376D01*
X190351729Y-91329659D01*
X190390906Y-91325800D01*
X191269494Y-91325800D01*
X191308671Y-91329659D01*
X191308671Y-91329659D01*
G37*
G36*
X141720827Y-90348299D02*
G01*
X141800942Y-90372602D01*
X141881055Y-90396903D01*
X141881057Y-90396904D01*
X142028718Y-90475831D01*
X142158149Y-90582051D01*
X142264369Y-90711482D01*
X142343296Y-90859143D01*
X142391901Y-91019373D01*
X142408312Y-91186000D01*
X142391901Y-91352627D01*
X142382651Y-91383121D01*
X142360117Y-91457407D01*
X142343296Y-91512857D01*
X142264369Y-91660518D01*
X142158149Y-91789949D01*
X142028718Y-91896169D01*
X141881057Y-91975096D01*
X141881055Y-91975097D01*
X141800942Y-91999398D01*
X141720827Y-92023701D01*
X141595952Y-92036000D01*
X141512448Y-92036000D01*
X141387573Y-92023701D01*
X141307458Y-91999398D01*
X141227345Y-91975097D01*
X141227343Y-91975096D01*
X141079682Y-91896169D01*
X140950251Y-91789949D01*
X140844031Y-91660518D01*
X140765104Y-91512857D01*
X140748284Y-91457407D01*
X140725749Y-91383121D01*
X140716499Y-91352627D01*
X140700088Y-91186000D01*
X140716499Y-91019373D01*
X140765104Y-90859143D01*
X140844031Y-90711482D01*
X140950251Y-90582051D01*
X141079682Y-90475831D01*
X141227343Y-90396904D01*
X141227345Y-90396903D01*
X141307458Y-90372602D01*
X141387573Y-90348299D01*
X141512448Y-90336000D01*
X141595952Y-90336000D01*
X141720827Y-90348299D01*
X141720827Y-90348299D01*
G37*
G36*
X137324200Y-92036000D02*
G01*
X135624200Y-92036000D01*
X135624200Y-90336000D01*
X137324200Y-90336000D01*
X137324200Y-92036000D01*
X137324200Y-92036000D01*
G37*
G36*
X139180827Y-90348299D02*
G01*
X139260942Y-90372602D01*
X139341055Y-90396903D01*
X139341057Y-90396904D01*
X139488718Y-90475831D01*
X139618149Y-90582051D01*
X139724369Y-90711482D01*
X139803296Y-90859143D01*
X139851901Y-91019373D01*
X139868312Y-91186000D01*
X139851901Y-91352627D01*
X139842651Y-91383121D01*
X139820117Y-91457407D01*
X139803296Y-91512857D01*
X139724369Y-91660518D01*
X139618149Y-91789949D01*
X139488718Y-91896169D01*
X139341057Y-91975096D01*
X139341055Y-91975097D01*
X139260942Y-91999398D01*
X139180827Y-92023701D01*
X139055952Y-92036000D01*
X138972448Y-92036000D01*
X138847573Y-92023701D01*
X138767458Y-91999398D01*
X138687345Y-91975097D01*
X138687343Y-91975096D01*
X138539682Y-91896169D01*
X138410251Y-91789949D01*
X138304031Y-91660518D01*
X138225104Y-91512857D01*
X138208284Y-91457407D01*
X138185749Y-91383121D01*
X138176499Y-91352627D01*
X138160088Y-91186000D01*
X138176499Y-91019373D01*
X138225104Y-90859143D01*
X138304031Y-90711482D01*
X138410251Y-90582051D01*
X138539682Y-90475831D01*
X138687343Y-90396904D01*
X138687345Y-90396903D01*
X138767458Y-90372602D01*
X138847573Y-90348299D01*
X138972448Y-90336000D01*
X139055952Y-90336000D01*
X139180827Y-90348299D01*
X139180827Y-90348299D01*
G37*
G36*
X222915151Y-89883343D02*
G01*
X223060741Y-89943648D01*
X223191770Y-90031199D01*
X223303201Y-90142630D01*
X223390752Y-90273659D01*
X223451057Y-90419249D01*
X223481800Y-90573806D01*
X223481800Y-90731394D01*
X223451057Y-90885951D01*
X223390752Y-91031541D01*
X223303201Y-91162570D01*
X223191770Y-91274001D01*
X223060741Y-91361552D01*
X222915151Y-91421857D01*
X222760594Y-91452600D01*
X222603006Y-91452600D01*
X222448449Y-91421857D01*
X222302859Y-91361552D01*
X222171830Y-91274001D01*
X222060399Y-91162570D01*
X221972848Y-91031541D01*
X221912543Y-90885951D01*
X221881800Y-90731394D01*
X221881800Y-90573806D01*
X221912543Y-90419249D01*
X221972848Y-90273659D01*
X222060399Y-90142630D01*
X222171830Y-90031199D01*
X222302859Y-89943648D01*
X222448449Y-89883343D01*
X222603006Y-89852600D01*
X222760594Y-89852600D01*
X222915151Y-89883343D01*
X222915151Y-89883343D01*
G37*
G36*
X211933471Y-88967459D02*
G01*
X212011827Y-88975176D01*
X212162628Y-89020921D01*
X212162630Y-89020922D01*
X212301605Y-89095206D01*
X212423422Y-89195178D01*
X212523394Y-89316995D01*
X212593528Y-89448206D01*
X212597679Y-89455972D01*
X212643424Y-89606773D01*
X212658870Y-89763600D01*
X212643424Y-89920427D01*
X212597679Y-90071228D01*
X212597678Y-90071230D01*
X212523394Y-90210205D01*
X212423422Y-90332022D01*
X212301605Y-90431994D01*
X212219592Y-90475831D01*
X212162628Y-90506279D01*
X212011827Y-90552024D01*
X211933471Y-90559741D01*
X211894294Y-90563600D01*
X211015706Y-90563600D01*
X210976529Y-90559741D01*
X210898173Y-90552024D01*
X210747372Y-90506279D01*
X210690408Y-90475831D01*
X210608395Y-90431994D01*
X210486578Y-90332022D01*
X210386606Y-90210205D01*
X210312322Y-90071230D01*
X210312321Y-90071228D01*
X210266576Y-89920427D01*
X210251130Y-89763600D01*
X210266576Y-89606773D01*
X210312321Y-89455972D01*
X210316472Y-89448206D01*
X210386606Y-89316995D01*
X210486578Y-89195178D01*
X210608395Y-89095206D01*
X210747370Y-89020922D01*
X210747372Y-89020921D01*
X210898173Y-88975176D01*
X210976529Y-88967459D01*
X211015706Y-88963600D01*
X211894294Y-88963600D01*
X211933471Y-88967459D01*
X211933471Y-88967459D01*
G37*
G36*
X220275000Y-90563600D02*
G01*
X217875000Y-90563600D01*
X217875000Y-88963600D01*
X220275000Y-88963600D01*
X220275000Y-90563600D01*
X220275000Y-90563600D01*
G37*
G36*
X183688671Y-88789659D02*
G01*
X183767027Y-88797376D01*
X183917828Y-88843121D01*
X183917830Y-88843122D01*
X184056805Y-88917406D01*
X184178622Y-89017378D01*
X184278594Y-89139195D01*
X184352878Y-89278170D01*
X184352879Y-89278172D01*
X184398624Y-89428973D01*
X184414070Y-89585800D01*
X184398624Y-89742627D01*
X184365264Y-89852600D01*
X184352878Y-89893430D01*
X184278594Y-90032405D01*
X184178622Y-90154222D01*
X184056805Y-90254194D01*
X183917830Y-90328478D01*
X183917828Y-90328479D01*
X183767027Y-90374224D01*
X183688671Y-90381941D01*
X183649494Y-90385800D01*
X182770906Y-90385800D01*
X182731729Y-90381941D01*
X182653373Y-90374224D01*
X182502572Y-90328479D01*
X182502570Y-90328478D01*
X182363595Y-90254194D01*
X182241778Y-90154222D01*
X182141806Y-90032405D01*
X182067522Y-89893430D01*
X182055136Y-89852600D01*
X182021776Y-89742627D01*
X182006330Y-89585800D01*
X182021776Y-89428973D01*
X182067521Y-89278172D01*
X182067522Y-89278170D01*
X182141806Y-89139195D01*
X182241778Y-89017378D01*
X182363595Y-88917406D01*
X182502570Y-88843122D01*
X182502572Y-88843121D01*
X182653373Y-88797376D01*
X182731729Y-88789659D01*
X182770906Y-88785800D01*
X183649494Y-88785800D01*
X183688671Y-88789659D01*
X183688671Y-88789659D01*
G37*
G36*
X191308671Y-88789659D02*
G01*
X191387027Y-88797376D01*
X191537828Y-88843121D01*
X191537830Y-88843122D01*
X191676805Y-88917406D01*
X191798622Y-89017378D01*
X191898594Y-89139195D01*
X191972878Y-89278170D01*
X191972879Y-89278172D01*
X192018624Y-89428973D01*
X192034070Y-89585800D01*
X192018624Y-89742627D01*
X191985264Y-89852600D01*
X191972878Y-89893430D01*
X191898594Y-90032405D01*
X191798622Y-90154222D01*
X191676805Y-90254194D01*
X191537830Y-90328478D01*
X191537828Y-90328479D01*
X191387027Y-90374224D01*
X191308671Y-90381941D01*
X191269494Y-90385800D01*
X190390906Y-90385800D01*
X190351729Y-90381941D01*
X190273373Y-90374224D01*
X190122572Y-90328479D01*
X190122570Y-90328478D01*
X189983595Y-90254194D01*
X189861778Y-90154222D01*
X189761806Y-90032405D01*
X189687522Y-89893430D01*
X189675136Y-89852600D01*
X189641776Y-89742627D01*
X189626330Y-89585800D01*
X189641776Y-89428973D01*
X189687521Y-89278172D01*
X189687522Y-89278170D01*
X189761806Y-89139195D01*
X189861778Y-89017378D01*
X189983595Y-88917406D01*
X190122570Y-88843122D01*
X190122572Y-88843121D01*
X190273373Y-88797376D01*
X190351729Y-88789659D01*
X190390906Y-88785800D01*
X191269494Y-88785800D01*
X191308671Y-88789659D01*
X191308671Y-88789659D01*
G37*
G36*
X101452351Y-88547143D02*
G01*
X101597941Y-88607448D01*
X101728970Y-88694999D01*
X101840401Y-88806430D01*
X101927952Y-88937459D01*
X101988257Y-89083049D01*
X102019000Y-89237606D01*
X102019000Y-89395194D01*
X101988257Y-89549751D01*
X101927952Y-89695341D01*
X101840401Y-89826370D01*
X101728970Y-89937801D01*
X101597941Y-90025352D01*
X101452351Y-90085657D01*
X101297794Y-90116400D01*
X101140206Y-90116400D01*
X100985649Y-90085657D01*
X100840059Y-90025352D01*
X100709030Y-89937801D01*
X100597599Y-89826370D01*
X100510048Y-89695341D01*
X100449743Y-89549751D01*
X100419000Y-89395194D01*
X100419000Y-89237606D01*
X100449743Y-89083049D01*
X100510048Y-88937459D01*
X100597599Y-88806430D01*
X100709030Y-88694999D01*
X100840059Y-88607448D01*
X100985649Y-88547143D01*
X101140206Y-88516400D01*
X101297794Y-88516400D01*
X101452351Y-88547143D01*
X101452351Y-88547143D01*
G37*
G36*
X157459351Y-88232343D02*
G01*
X157604941Y-88292648D01*
X157735970Y-88380199D01*
X157847401Y-88491630D01*
X157934952Y-88622659D01*
X157995257Y-88768249D01*
X158026000Y-88922806D01*
X158026000Y-89080394D01*
X157995257Y-89234951D01*
X157934952Y-89380541D01*
X157847401Y-89511570D01*
X157735970Y-89623001D01*
X157604941Y-89710552D01*
X157459351Y-89770857D01*
X157304794Y-89801600D01*
X157147206Y-89801600D01*
X156992649Y-89770857D01*
X156847059Y-89710552D01*
X156716030Y-89623001D01*
X156604599Y-89511570D01*
X156517048Y-89380541D01*
X156456743Y-89234951D01*
X156426000Y-89080394D01*
X156426000Y-88922806D01*
X156456743Y-88768249D01*
X156517048Y-88622659D01*
X156604599Y-88491630D01*
X156716030Y-88380199D01*
X156847059Y-88292648D01*
X156992649Y-88232343D01*
X157147206Y-88201600D01*
X157304794Y-88201600D01*
X157459351Y-88232343D01*
X157459351Y-88232343D01*
G37*
G36*
X170004471Y-88205459D02*
G01*
X170082827Y-88213176D01*
X170233628Y-88258921D01*
X170233630Y-88258922D01*
X170372605Y-88333206D01*
X170494422Y-88433178D01*
X170594394Y-88554995D01*
X170644423Y-88648593D01*
X170668679Y-88693972D01*
X170714424Y-88844773D01*
X170729870Y-89001600D01*
X170714424Y-89158427D01*
X170668679Y-89309228D01*
X170668678Y-89309230D01*
X170594394Y-89448205D01*
X170494422Y-89570022D01*
X170372605Y-89669994D01*
X170236719Y-89742627D01*
X170233628Y-89744279D01*
X170082827Y-89790024D01*
X170004471Y-89797741D01*
X169965294Y-89801600D01*
X169886706Y-89801600D01*
X169847529Y-89797741D01*
X169769173Y-89790024D01*
X169618372Y-89744279D01*
X169615281Y-89742627D01*
X169479395Y-89669994D01*
X169357578Y-89570022D01*
X169257606Y-89448205D01*
X169183322Y-89309230D01*
X169183321Y-89309228D01*
X169137576Y-89158427D01*
X169122130Y-89001600D01*
X169137576Y-88844773D01*
X169183321Y-88693972D01*
X169207577Y-88648593D01*
X169257606Y-88554995D01*
X169357578Y-88433178D01*
X169479395Y-88333206D01*
X169618370Y-88258922D01*
X169618372Y-88258921D01*
X169769173Y-88213176D01*
X169847529Y-88205459D01*
X169886706Y-88201600D01*
X169965294Y-88201600D01*
X170004471Y-88205459D01*
X170004471Y-88205459D01*
G37*
G36*
X228833351Y-87800543D02*
G01*
X228978941Y-87860848D01*
X229109970Y-87948399D01*
X229221401Y-88059830D01*
X229308952Y-88190859D01*
X229369257Y-88336449D01*
X229400000Y-88491006D01*
X229400000Y-88648594D01*
X229369257Y-88803151D01*
X229308952Y-88948741D01*
X229221401Y-89079770D01*
X229109970Y-89191201D01*
X228978941Y-89278752D01*
X228833351Y-89339057D01*
X228678794Y-89369800D01*
X228521206Y-89369800D01*
X228366649Y-89339057D01*
X228221059Y-89278752D01*
X228090030Y-89191201D01*
X227978599Y-89079770D01*
X227891048Y-88948741D01*
X227830743Y-88803151D01*
X227800000Y-88648594D01*
X227800000Y-88491006D01*
X227830743Y-88336449D01*
X227891048Y-88190859D01*
X227978599Y-88059830D01*
X228090030Y-87948399D01*
X228221059Y-87860848D01*
X228366649Y-87800543D01*
X228521206Y-87769800D01*
X228678794Y-87769800D01*
X228833351Y-87800543D01*
X228833351Y-87800543D01*
G37*
G36*
X151388751Y-87089343D02*
G01*
X151534341Y-87149648D01*
X151665370Y-87237199D01*
X151776801Y-87348630D01*
X151864352Y-87479659D01*
X151924657Y-87625249D01*
X151955400Y-87779806D01*
X151955400Y-87937394D01*
X151924657Y-88091951D01*
X151864352Y-88237541D01*
X151776801Y-88368570D01*
X151665370Y-88480001D01*
X151534341Y-88567552D01*
X151388751Y-88627857D01*
X151234194Y-88658600D01*
X151076606Y-88658600D01*
X150922049Y-88627857D01*
X150776459Y-88567552D01*
X150645430Y-88480001D01*
X150533999Y-88368570D01*
X150446448Y-88237541D01*
X150386143Y-88091951D01*
X150355400Y-87937394D01*
X150355400Y-87779806D01*
X150386143Y-87625249D01*
X150446448Y-87479659D01*
X150533999Y-87348630D01*
X150645430Y-87237199D01*
X150776459Y-87149648D01*
X150922049Y-87089343D01*
X151076606Y-87058600D01*
X151234194Y-87058600D01*
X151388751Y-87089343D01*
X151388751Y-87089343D01*
G37*
G36*
X211933471Y-86427459D02*
G01*
X212011827Y-86435176D01*
X212162628Y-86480921D01*
X212162630Y-86480922D01*
X212301605Y-86555206D01*
X212423422Y-86655178D01*
X212523394Y-86776995D01*
X212573549Y-86870828D01*
X212597679Y-86915972D01*
X212643424Y-87066773D01*
X212658870Y-87223600D01*
X212643424Y-87380427D01*
X212597679Y-87531228D01*
X212597678Y-87531230D01*
X212523394Y-87670205D01*
X212423422Y-87792022D01*
X212301605Y-87891994D01*
X212216668Y-87937394D01*
X212162628Y-87966279D01*
X212011827Y-88012024D01*
X211933471Y-88019741D01*
X211894294Y-88023600D01*
X211015706Y-88023600D01*
X210976529Y-88019741D01*
X210898173Y-88012024D01*
X210747372Y-87966279D01*
X210693332Y-87937394D01*
X210608395Y-87891994D01*
X210486578Y-87792022D01*
X210386606Y-87670205D01*
X210312322Y-87531230D01*
X210312321Y-87531228D01*
X210266576Y-87380427D01*
X210251130Y-87223600D01*
X210266576Y-87066773D01*
X210312321Y-86915972D01*
X210336451Y-86870828D01*
X210386606Y-86776995D01*
X210486578Y-86655178D01*
X210608395Y-86555206D01*
X210747370Y-86480922D01*
X210747372Y-86480921D01*
X210898173Y-86435176D01*
X210976529Y-86427459D01*
X211015706Y-86423600D01*
X211894294Y-86423600D01*
X211933471Y-86427459D01*
X211933471Y-86427459D01*
G37*
G36*
X219553471Y-86427459D02*
G01*
X219631827Y-86435176D01*
X219782628Y-86480921D01*
X219782630Y-86480922D01*
X219921605Y-86555206D01*
X220043422Y-86655178D01*
X220143394Y-86776995D01*
X220193549Y-86870828D01*
X220217679Y-86915972D01*
X220263424Y-87066773D01*
X220278870Y-87223600D01*
X220263424Y-87380427D01*
X220217679Y-87531228D01*
X220217678Y-87531230D01*
X220143394Y-87670205D01*
X220043422Y-87792022D01*
X219921605Y-87891994D01*
X219836668Y-87937394D01*
X219782628Y-87966279D01*
X219631827Y-88012024D01*
X219553471Y-88019741D01*
X219514294Y-88023600D01*
X218635706Y-88023600D01*
X218596529Y-88019741D01*
X218518173Y-88012024D01*
X218367372Y-87966279D01*
X218313332Y-87937394D01*
X218228395Y-87891994D01*
X218106578Y-87792022D01*
X218006606Y-87670205D01*
X217932322Y-87531230D01*
X217932321Y-87531228D01*
X217886576Y-87380427D01*
X217871130Y-87223600D01*
X217886576Y-87066773D01*
X217932321Y-86915972D01*
X217956451Y-86870828D01*
X218006606Y-86776995D01*
X218106578Y-86655178D01*
X218228395Y-86555206D01*
X218367370Y-86480922D01*
X218367372Y-86480921D01*
X218518173Y-86435176D01*
X218596529Y-86427459D01*
X218635706Y-86423600D01*
X219514294Y-86423600D01*
X219553471Y-86427459D01*
X219553471Y-86427459D01*
G37*
G36*
X191308671Y-86249659D02*
G01*
X191387027Y-86257376D01*
X191537828Y-86303121D01*
X191537830Y-86303122D01*
X191676805Y-86377406D01*
X191798622Y-86477378D01*
X191898594Y-86599195D01*
X191936026Y-86669225D01*
X191972879Y-86738172D01*
X192018624Y-86888973D01*
X192034070Y-87045800D01*
X192018624Y-87202627D01*
X191974334Y-87348630D01*
X191972878Y-87353430D01*
X191898594Y-87492405D01*
X191798622Y-87614222D01*
X191676805Y-87714194D01*
X191572774Y-87769800D01*
X191537828Y-87788479D01*
X191387027Y-87834224D01*
X191308671Y-87841941D01*
X191269494Y-87845800D01*
X190390906Y-87845800D01*
X190351729Y-87841941D01*
X190273373Y-87834224D01*
X190122572Y-87788479D01*
X190087626Y-87769800D01*
X189983595Y-87714194D01*
X189861778Y-87614222D01*
X189761806Y-87492405D01*
X189687522Y-87353430D01*
X189686066Y-87348630D01*
X189641776Y-87202627D01*
X189626330Y-87045800D01*
X189641776Y-86888973D01*
X189687521Y-86738172D01*
X189724374Y-86669225D01*
X189761806Y-86599195D01*
X189861778Y-86477378D01*
X189983595Y-86377406D01*
X190122570Y-86303122D01*
X190122572Y-86303121D01*
X190273373Y-86257376D01*
X190351729Y-86249659D01*
X190390906Y-86245800D01*
X191269494Y-86245800D01*
X191308671Y-86249659D01*
X191308671Y-86249659D01*
G37*
G36*
X184410200Y-87845800D02*
G01*
X182010200Y-87845800D01*
X182010200Y-86245800D01*
X184410200Y-86245800D01*
X184410200Y-87845800D01*
X184410200Y-87845800D01*
G37*
G36*
X123293871Y-85767059D02*
G01*
X123372227Y-85774776D01*
X123523028Y-85820521D01*
X123523030Y-85820522D01*
X123662005Y-85894806D01*
X123662007Y-85894807D01*
X123662006Y-85894807D01*
X123783822Y-85994778D01*
X123883793Y-86116594D01*
X123958079Y-86255572D01*
X124003824Y-86406373D01*
X124019270Y-86563200D01*
X124003824Y-86720027D01*
X123973489Y-86820028D01*
X123958078Y-86870830D01*
X123883794Y-87009805D01*
X123783822Y-87131622D01*
X123662005Y-87231594D01*
X123532485Y-87300824D01*
X123523028Y-87305879D01*
X123372227Y-87351624D01*
X123293871Y-87359341D01*
X123254694Y-87363200D01*
X123176106Y-87363200D01*
X123136929Y-87359341D01*
X123058573Y-87351624D01*
X122907772Y-87305879D01*
X122898315Y-87300824D01*
X122768795Y-87231594D01*
X122646978Y-87131622D01*
X122547006Y-87009805D01*
X122472722Y-86870830D01*
X122457311Y-86820028D01*
X122426976Y-86720027D01*
X122411530Y-86563200D01*
X122426976Y-86406373D01*
X122472721Y-86255572D01*
X122547007Y-86116594D01*
X122646978Y-85994778D01*
X122768794Y-85894807D01*
X122768793Y-85894807D01*
X122768795Y-85894806D01*
X122907770Y-85820522D01*
X122907772Y-85820521D01*
X123058573Y-85774776D01*
X123136929Y-85767059D01*
X123176106Y-85763200D01*
X123254694Y-85763200D01*
X123293871Y-85767059D01*
X123293871Y-85767059D01*
G37*
G36*
X119306071Y-85767059D02*
G01*
X119384427Y-85774776D01*
X119535228Y-85820521D01*
X119535230Y-85820522D01*
X119674205Y-85894806D01*
X119674207Y-85894807D01*
X119674206Y-85894807D01*
X119796022Y-85994778D01*
X119895993Y-86116594D01*
X119970279Y-86255572D01*
X120016024Y-86406373D01*
X120031470Y-86563200D01*
X120016024Y-86720027D01*
X119985689Y-86820028D01*
X119970278Y-86870830D01*
X119895994Y-87009805D01*
X119796022Y-87131622D01*
X119674205Y-87231594D01*
X119544685Y-87300824D01*
X119535228Y-87305879D01*
X119384427Y-87351624D01*
X119306071Y-87359341D01*
X119266894Y-87363200D01*
X119188306Y-87363200D01*
X119149129Y-87359341D01*
X119070773Y-87351624D01*
X118919972Y-87305879D01*
X118910515Y-87300824D01*
X118780995Y-87231594D01*
X118659178Y-87131622D01*
X118559206Y-87009805D01*
X118484922Y-86870830D01*
X118469511Y-86820028D01*
X118439176Y-86720027D01*
X118423730Y-86563200D01*
X118439176Y-86406373D01*
X118484921Y-86255572D01*
X118559207Y-86116594D01*
X118659178Y-85994778D01*
X118780994Y-85894807D01*
X118780993Y-85894807D01*
X118780995Y-85894806D01*
X118919970Y-85820522D01*
X118919972Y-85820521D01*
X119070773Y-85774776D01*
X119149129Y-85767059D01*
X119188306Y-85763200D01*
X119266894Y-85763200D01*
X119306071Y-85767059D01*
X119306071Y-85767059D01*
G37*
G36*
X87702071Y-85716259D02*
G01*
X87780427Y-85723976D01*
X87931228Y-85769721D01*
X87931230Y-85769722D01*
X88070205Y-85844006D01*
X88192022Y-85943978D01*
X88291994Y-86065795D01*
X88319147Y-86116595D01*
X88366279Y-86204772D01*
X88412024Y-86355573D01*
X88427470Y-86512400D01*
X88412024Y-86669227D01*
X88366279Y-86820028D01*
X88366278Y-86820030D01*
X88291994Y-86959005D01*
X88192022Y-87080822D01*
X88070205Y-87180794D01*
X87990121Y-87223600D01*
X87931228Y-87255079D01*
X87780427Y-87300824D01*
X87729112Y-87305878D01*
X87662894Y-87312400D01*
X86784306Y-87312400D01*
X86718088Y-87305878D01*
X86666773Y-87300824D01*
X86515972Y-87255079D01*
X86457079Y-87223600D01*
X86376995Y-87180794D01*
X86255178Y-87080822D01*
X86155206Y-86959005D01*
X86080922Y-86820030D01*
X86080921Y-86820028D01*
X86035176Y-86669227D01*
X86019730Y-86512400D01*
X86035176Y-86355573D01*
X86080921Y-86204772D01*
X86128053Y-86116595D01*
X86155206Y-86065795D01*
X86255178Y-85943978D01*
X86376995Y-85844006D01*
X86515970Y-85769722D01*
X86515972Y-85769721D01*
X86666773Y-85723976D01*
X86745129Y-85716259D01*
X86784306Y-85712400D01*
X87662894Y-85712400D01*
X87702071Y-85716259D01*
X87702071Y-85716259D01*
G37*
G36*
X80082071Y-85716259D02*
G01*
X80160427Y-85723976D01*
X80311228Y-85769721D01*
X80311230Y-85769722D01*
X80450205Y-85844006D01*
X80572022Y-85943978D01*
X80671994Y-86065795D01*
X80699147Y-86116595D01*
X80746279Y-86204772D01*
X80792024Y-86355573D01*
X80807470Y-86512400D01*
X80792024Y-86669227D01*
X80746279Y-86820028D01*
X80746278Y-86820030D01*
X80671994Y-86959005D01*
X80572022Y-87080822D01*
X80450205Y-87180794D01*
X80370121Y-87223600D01*
X80311228Y-87255079D01*
X80160427Y-87300824D01*
X80109112Y-87305878D01*
X80042894Y-87312400D01*
X79164306Y-87312400D01*
X79098088Y-87305878D01*
X79046773Y-87300824D01*
X78895972Y-87255079D01*
X78837079Y-87223600D01*
X78756995Y-87180794D01*
X78635178Y-87080822D01*
X78535206Y-86959005D01*
X78460922Y-86820030D01*
X78460921Y-86820028D01*
X78415176Y-86669227D01*
X78399730Y-86512400D01*
X78415176Y-86355573D01*
X78460921Y-86204772D01*
X78508053Y-86116595D01*
X78535206Y-86065795D01*
X78635178Y-85943978D01*
X78756995Y-85844006D01*
X78895970Y-85769722D01*
X78895972Y-85769721D01*
X79046773Y-85723976D01*
X79125129Y-85716259D01*
X79164306Y-85712400D01*
X80042894Y-85712400D01*
X80082071Y-85716259D01*
X80082071Y-85716259D01*
G37*
G36*
X179481151Y-83914343D02*
G01*
X179626741Y-83974648D01*
X179757770Y-84062199D01*
X179869201Y-84173630D01*
X179956752Y-84304659D01*
X180017057Y-84450249D01*
X180047800Y-84604806D01*
X180047800Y-84762394D01*
X180017057Y-84916951D01*
X179956752Y-85062541D01*
X179869201Y-85193570D01*
X179757770Y-85305001D01*
X179626741Y-85392552D01*
X179481151Y-85452857D01*
X179326594Y-85483600D01*
X179169006Y-85483600D01*
X179014449Y-85452857D01*
X178868859Y-85392552D01*
X178737830Y-85305001D01*
X178626399Y-85193570D01*
X178538848Y-85062541D01*
X178478543Y-84916951D01*
X178447800Y-84762394D01*
X178447800Y-84604806D01*
X178478543Y-84450249D01*
X178538848Y-84304659D01*
X178626399Y-84173630D01*
X178737830Y-84062199D01*
X178868859Y-83974648D01*
X179014449Y-83914343D01*
X179169006Y-83883600D01*
X179326594Y-83883600D01*
X179481151Y-83914343D01*
X179481151Y-83914343D01*
G37*
G36*
X211933471Y-83887459D02*
G01*
X212011827Y-83895176D01*
X212162628Y-83940921D01*
X212162630Y-83940922D01*
X212301605Y-84015206D01*
X212423422Y-84115178D01*
X212523394Y-84236995D01*
X212559847Y-84305194D01*
X212597679Y-84375972D01*
X212643424Y-84526773D01*
X212658870Y-84683600D01*
X212643424Y-84840427D01*
X212597679Y-84991228D01*
X212597678Y-84991230D01*
X212523394Y-85130205D01*
X212423422Y-85252022D01*
X212301605Y-85351994D01*
X212210148Y-85400879D01*
X212162628Y-85426279D01*
X212011827Y-85472024D01*
X211933471Y-85479741D01*
X211894294Y-85483600D01*
X211015706Y-85483600D01*
X210976529Y-85479741D01*
X210898173Y-85472024D01*
X210747372Y-85426279D01*
X210699852Y-85400879D01*
X210608395Y-85351994D01*
X210486578Y-85252022D01*
X210386606Y-85130205D01*
X210312322Y-84991230D01*
X210312321Y-84991228D01*
X210266576Y-84840427D01*
X210251130Y-84683600D01*
X210266576Y-84526773D01*
X210312321Y-84375972D01*
X210350153Y-84305194D01*
X210386606Y-84236995D01*
X210486578Y-84115178D01*
X210608395Y-84015206D01*
X210747370Y-83940922D01*
X210747372Y-83940921D01*
X210898173Y-83895176D01*
X210976529Y-83887459D01*
X211015706Y-83883600D01*
X211894294Y-83883600D01*
X211933471Y-83887459D01*
X211933471Y-83887459D01*
G37*
G36*
X219553471Y-83887459D02*
G01*
X219631827Y-83895176D01*
X219782628Y-83940921D01*
X219782630Y-83940922D01*
X219921605Y-84015206D01*
X220043422Y-84115178D01*
X220143394Y-84236995D01*
X220179847Y-84305194D01*
X220217679Y-84375972D01*
X220263424Y-84526773D01*
X220278870Y-84683600D01*
X220263424Y-84840427D01*
X220217679Y-84991228D01*
X220217678Y-84991230D01*
X220143394Y-85130205D01*
X220043422Y-85252022D01*
X219921605Y-85351994D01*
X219830148Y-85400879D01*
X219782628Y-85426279D01*
X219631827Y-85472024D01*
X219553471Y-85479741D01*
X219514294Y-85483600D01*
X218635706Y-85483600D01*
X218596529Y-85479741D01*
X218518173Y-85472024D01*
X218367372Y-85426279D01*
X218319852Y-85400879D01*
X218228395Y-85351994D01*
X218106578Y-85252022D01*
X218006606Y-85130205D01*
X217932322Y-84991230D01*
X217932321Y-84991228D01*
X217886576Y-84840427D01*
X217871130Y-84683600D01*
X217886576Y-84526773D01*
X217932321Y-84375972D01*
X217970153Y-84305194D01*
X218006606Y-84236995D01*
X218106578Y-84115178D01*
X218228395Y-84015206D01*
X218367370Y-83940922D01*
X218367372Y-83940921D01*
X218518173Y-83895176D01*
X218596529Y-83887459D01*
X218635706Y-83883600D01*
X219514294Y-83883600D01*
X219553471Y-83887459D01*
X219553471Y-83887459D01*
G37*
G36*
X173890671Y-83887459D02*
G01*
X173969027Y-83895176D01*
X174119828Y-83940921D01*
X174119830Y-83940922D01*
X174258805Y-84015206D01*
X174380622Y-84115178D01*
X174480594Y-84236995D01*
X174517047Y-84305194D01*
X174554879Y-84375972D01*
X174600624Y-84526773D01*
X174616070Y-84683600D01*
X174600624Y-84840427D01*
X174554879Y-84991228D01*
X174554878Y-84991230D01*
X174480594Y-85130205D01*
X174380622Y-85252022D01*
X174258805Y-85351994D01*
X174167348Y-85400879D01*
X174119828Y-85426279D01*
X173969027Y-85472024D01*
X173890671Y-85479741D01*
X173851494Y-85483600D01*
X173772906Y-85483600D01*
X173733729Y-85479741D01*
X173655373Y-85472024D01*
X173504572Y-85426279D01*
X173457052Y-85400879D01*
X173365595Y-85351994D01*
X173243778Y-85252022D01*
X173143806Y-85130205D01*
X173069522Y-84991230D01*
X173069521Y-84991228D01*
X173023776Y-84840427D01*
X173008330Y-84683600D01*
X173023776Y-84526773D01*
X173069521Y-84375972D01*
X173107353Y-84305194D01*
X173143806Y-84236995D01*
X173243778Y-84115178D01*
X173365595Y-84015206D01*
X173504570Y-83940922D01*
X173504572Y-83940921D01*
X173655373Y-83895176D01*
X173733729Y-83887459D01*
X173772906Y-83883600D01*
X173851494Y-83883600D01*
X173890671Y-83887459D01*
X173890671Y-83887459D01*
G37*
G36*
X199242351Y-83888943D02*
G01*
X199387941Y-83949248D01*
X199518970Y-84036799D01*
X199630401Y-84148230D01*
X199717952Y-84279259D01*
X199778257Y-84424849D01*
X199809000Y-84579406D01*
X199809000Y-84736994D01*
X199778257Y-84891551D01*
X199717952Y-85037141D01*
X199630401Y-85168170D01*
X199518970Y-85279601D01*
X199387941Y-85367152D01*
X199242351Y-85427457D01*
X199087794Y-85458200D01*
X198930206Y-85458200D01*
X198775649Y-85427457D01*
X198630059Y-85367152D01*
X198499030Y-85279601D01*
X198387599Y-85168170D01*
X198300048Y-85037141D01*
X198239743Y-84891551D01*
X198209000Y-84736994D01*
X198209000Y-84579406D01*
X198239743Y-84424849D01*
X198300048Y-84279259D01*
X198387599Y-84148230D01*
X198499030Y-84036799D01*
X198630059Y-83949248D01*
X198775649Y-83888943D01*
X198930206Y-83858200D01*
X199087794Y-83858200D01*
X199242351Y-83888943D01*
X199242351Y-83888943D01*
G37*
G36*
X194947271Y-83862059D02*
G01*
X195025627Y-83869776D01*
X195176428Y-83915521D01*
X195176430Y-83915522D01*
X195315405Y-83989806D01*
X195437222Y-84089778D01*
X195537194Y-84211595D01*
X195573361Y-84279258D01*
X195611479Y-84350572D01*
X195657224Y-84501373D01*
X195672670Y-84658200D01*
X195657224Y-84815027D01*
X195611479Y-84965828D01*
X195611478Y-84965830D01*
X195537194Y-85104805D01*
X195437222Y-85226622D01*
X195315405Y-85326594D01*
X195192007Y-85392552D01*
X195176428Y-85400879D01*
X195025627Y-85446624D01*
X194947271Y-85454341D01*
X194908094Y-85458200D01*
X194829506Y-85458200D01*
X194790329Y-85454341D01*
X194711973Y-85446624D01*
X194561172Y-85400879D01*
X194545593Y-85392552D01*
X194422195Y-85326594D01*
X194300378Y-85226622D01*
X194200406Y-85104805D01*
X194126122Y-84965830D01*
X194126121Y-84965828D01*
X194080376Y-84815027D01*
X194064930Y-84658200D01*
X194080376Y-84501373D01*
X194126121Y-84350572D01*
X194164239Y-84279258D01*
X194200406Y-84211595D01*
X194300378Y-84089778D01*
X194422195Y-83989806D01*
X194561170Y-83915522D01*
X194561172Y-83915521D01*
X194711973Y-83869776D01*
X194790329Y-83862059D01*
X194829506Y-83858200D01*
X194908094Y-83858200D01*
X194947271Y-83862059D01*
X194947271Y-83862059D01*
G37*
G36*
X96981951Y-83457143D02*
G01*
X97127541Y-83517448D01*
X97258570Y-83604999D01*
X97370001Y-83716430D01*
X97457552Y-83847459D01*
X97517857Y-83993049D01*
X97548600Y-84147606D01*
X97548600Y-84305194D01*
X97517857Y-84459751D01*
X97457552Y-84605341D01*
X97370001Y-84736370D01*
X97258570Y-84847801D01*
X97127541Y-84935352D01*
X96981951Y-84995657D01*
X96827394Y-85026400D01*
X96669806Y-85026400D01*
X96515249Y-84995657D01*
X96369659Y-84935352D01*
X96238630Y-84847801D01*
X96127199Y-84736370D01*
X96039648Y-84605341D01*
X95979343Y-84459751D01*
X95948600Y-84305194D01*
X95948600Y-84147606D01*
X95979343Y-83993049D01*
X96039648Y-83847459D01*
X96127199Y-83716430D01*
X96238630Y-83604999D01*
X96369659Y-83517448D01*
X96515249Y-83457143D01*
X96669806Y-83426400D01*
X96827394Y-83426400D01*
X96981951Y-83457143D01*
X96981951Y-83457143D01*
G37*
G36*
X109527071Y-83430259D02*
G01*
X109605427Y-83437976D01*
X109756228Y-83483721D01*
X109756230Y-83483722D01*
X109895205Y-83558006D01*
X110017022Y-83657978D01*
X110116994Y-83779795D01*
X110188912Y-83914343D01*
X110191279Y-83918772D01*
X110237024Y-84069573D01*
X110252470Y-84226400D01*
X110237024Y-84383227D01*
X110193479Y-84526775D01*
X110191278Y-84534030D01*
X110116994Y-84673005D01*
X110017022Y-84794822D01*
X109895205Y-84894794D01*
X109756230Y-84969078D01*
X109756228Y-84969079D01*
X109605427Y-85014824D01*
X109527071Y-85022541D01*
X109487894Y-85026400D01*
X109409306Y-85026400D01*
X109370129Y-85022541D01*
X109291773Y-85014824D01*
X109140972Y-84969079D01*
X109140970Y-84969078D01*
X109001995Y-84894794D01*
X108880178Y-84794822D01*
X108780206Y-84673005D01*
X108705922Y-84534030D01*
X108703721Y-84526775D01*
X108660176Y-84383227D01*
X108644730Y-84226400D01*
X108660176Y-84069573D01*
X108705921Y-83918772D01*
X108708288Y-83914343D01*
X108780206Y-83779795D01*
X108880178Y-83657978D01*
X109001995Y-83558006D01*
X109140970Y-83483722D01*
X109140972Y-83483721D01*
X109291773Y-83437976D01*
X109370129Y-83430259D01*
X109409306Y-83426400D01*
X109487894Y-83426400D01*
X109527071Y-83430259D01*
X109527071Y-83430259D01*
G37*
G36*
X53647071Y-83201659D02*
G01*
X53725427Y-83209376D01*
X53876228Y-83255121D01*
X53876230Y-83255122D01*
X54015205Y-83329406D01*
X54137022Y-83429378D01*
X54236994Y-83551195D01*
X54294071Y-83657978D01*
X54311279Y-83690172D01*
X54357024Y-83840973D01*
X54372470Y-83997800D01*
X54357024Y-84154627D01*
X54311512Y-84304659D01*
X54311278Y-84305430D01*
X54236994Y-84444405D01*
X54137022Y-84566222D01*
X54015205Y-84666194D01*
X53923748Y-84715079D01*
X53876228Y-84740479D01*
X53725427Y-84786224D01*
X53647071Y-84793941D01*
X53607894Y-84797800D01*
X53529306Y-84797800D01*
X53490129Y-84793941D01*
X53411773Y-84786224D01*
X53260972Y-84740479D01*
X53213452Y-84715079D01*
X53121995Y-84666194D01*
X53000178Y-84566222D01*
X52900206Y-84444405D01*
X52825922Y-84305430D01*
X52825688Y-84304659D01*
X52780176Y-84154627D01*
X52764730Y-83997800D01*
X52780176Y-83840973D01*
X52825921Y-83690172D01*
X52843129Y-83657978D01*
X52900206Y-83551195D01*
X53000178Y-83429378D01*
X53121995Y-83329406D01*
X53260970Y-83255122D01*
X53260972Y-83255121D01*
X53411773Y-83209376D01*
X53490129Y-83201659D01*
X53529306Y-83197800D01*
X53607894Y-83197800D01*
X53647071Y-83201659D01*
X53647071Y-83201659D01*
G37*
G36*
X66501951Y-83228543D02*
G01*
X66647541Y-83288848D01*
X66778570Y-83376399D01*
X66890001Y-83487830D01*
X66977552Y-83618859D01*
X67037857Y-83764449D01*
X67068600Y-83919006D01*
X67068600Y-84076594D01*
X67037857Y-84231151D01*
X66977552Y-84376741D01*
X66890001Y-84507770D01*
X66778570Y-84619201D01*
X66647541Y-84706752D01*
X66501951Y-84767057D01*
X66347394Y-84797800D01*
X66189806Y-84797800D01*
X66035249Y-84767057D01*
X65889659Y-84706752D01*
X65758630Y-84619201D01*
X65647199Y-84507770D01*
X65559648Y-84376741D01*
X65499343Y-84231151D01*
X65468600Y-84076594D01*
X65468600Y-83919006D01*
X65499343Y-83764449D01*
X65559648Y-83618859D01*
X65647199Y-83487830D01*
X65758630Y-83376399D01*
X65889659Y-83288848D01*
X66035249Y-83228543D01*
X66189806Y-83197800D01*
X66347394Y-83197800D01*
X66501951Y-83228543D01*
X66501951Y-83228543D01*
G37*
G36*
X91493071Y-83201659D02*
G01*
X91571427Y-83209376D01*
X91722228Y-83255121D01*
X91722230Y-83255122D01*
X91861205Y-83329406D01*
X91983022Y-83429378D01*
X92082994Y-83551195D01*
X92140071Y-83657978D01*
X92157279Y-83690172D01*
X92203024Y-83840973D01*
X92218470Y-83997800D01*
X92203024Y-84154627D01*
X92157512Y-84304659D01*
X92157278Y-84305430D01*
X92082994Y-84444405D01*
X91983022Y-84566222D01*
X91861205Y-84666194D01*
X91769748Y-84715079D01*
X91722228Y-84740479D01*
X91571427Y-84786224D01*
X91493071Y-84793941D01*
X91453894Y-84797800D01*
X91375306Y-84797800D01*
X91336129Y-84793941D01*
X91257773Y-84786224D01*
X91106972Y-84740479D01*
X91059452Y-84715079D01*
X90967995Y-84666194D01*
X90846178Y-84566222D01*
X90746206Y-84444405D01*
X90671922Y-84305430D01*
X90671688Y-84304659D01*
X90626176Y-84154627D01*
X90610730Y-83997800D01*
X90626176Y-83840973D01*
X90671921Y-83690172D01*
X90689129Y-83657978D01*
X90746206Y-83551195D01*
X90846178Y-83429378D01*
X90967995Y-83329406D01*
X91106970Y-83255122D01*
X91106972Y-83255121D01*
X91257773Y-83209376D01*
X91336129Y-83201659D01*
X91375306Y-83197800D01*
X91453894Y-83197800D01*
X91493071Y-83201659D01*
X91493071Y-83201659D01*
G37*
G36*
X71099351Y-83228543D02*
G01*
X71244941Y-83288848D01*
X71375970Y-83376399D01*
X71487401Y-83487830D01*
X71574952Y-83618859D01*
X71635257Y-83764449D01*
X71666000Y-83919006D01*
X71666000Y-84076594D01*
X71635257Y-84231151D01*
X71574952Y-84376741D01*
X71487401Y-84507770D01*
X71375970Y-84619201D01*
X71244941Y-84706752D01*
X71099351Y-84767057D01*
X70944794Y-84797800D01*
X70787206Y-84797800D01*
X70632649Y-84767057D01*
X70487059Y-84706752D01*
X70356030Y-84619201D01*
X70244599Y-84507770D01*
X70157048Y-84376741D01*
X70096743Y-84231151D01*
X70066000Y-84076594D01*
X70066000Y-83919006D01*
X70096743Y-83764449D01*
X70157048Y-83618859D01*
X70244599Y-83487830D01*
X70356030Y-83376399D01*
X70487059Y-83288848D01*
X70632649Y-83228543D01*
X70787206Y-83197800D01*
X70944794Y-83197800D01*
X71099351Y-83228543D01*
X71099351Y-83228543D01*
G37*
G36*
X76099351Y-83228543D02*
G01*
X76244941Y-83288848D01*
X76375970Y-83376399D01*
X76487401Y-83487830D01*
X76574952Y-83618859D01*
X76635257Y-83764449D01*
X76666000Y-83919006D01*
X76666000Y-84076594D01*
X76635257Y-84231151D01*
X76574952Y-84376741D01*
X76487401Y-84507770D01*
X76375970Y-84619201D01*
X76244941Y-84706752D01*
X76099351Y-84767057D01*
X75944794Y-84797800D01*
X75787206Y-84797800D01*
X75632649Y-84767057D01*
X75487059Y-84706752D01*
X75356030Y-84619201D01*
X75244599Y-84507770D01*
X75157048Y-84376741D01*
X75096743Y-84231151D01*
X75066000Y-84076594D01*
X75066000Y-83919006D01*
X75096743Y-83764449D01*
X75157048Y-83618859D01*
X75244599Y-83487830D01*
X75356030Y-83376399D01*
X75487059Y-83288848D01*
X75632649Y-83228543D01*
X75787206Y-83197800D01*
X75944794Y-83197800D01*
X76099351Y-83228543D01*
X76099351Y-83228543D01*
G37*
G36*
X80082071Y-83176259D02*
G01*
X80160427Y-83183976D01*
X80311228Y-83229721D01*
X80311230Y-83229722D01*
X80450205Y-83304006D01*
X80572022Y-83403978D01*
X80671994Y-83525795D01*
X80746278Y-83664770D01*
X80746279Y-83664772D01*
X80792024Y-83815573D01*
X80807470Y-83972400D01*
X80792024Y-84129227D01*
X80746512Y-84279259D01*
X80746278Y-84280030D01*
X80671994Y-84419005D01*
X80572022Y-84540822D01*
X80450205Y-84640794D01*
X80326807Y-84706752D01*
X80311228Y-84715079D01*
X80160427Y-84760824D01*
X80082071Y-84768541D01*
X80042894Y-84772400D01*
X79164306Y-84772400D01*
X79125129Y-84768541D01*
X79046773Y-84760824D01*
X78895972Y-84715079D01*
X78880393Y-84706752D01*
X78756995Y-84640794D01*
X78635178Y-84540822D01*
X78535206Y-84419005D01*
X78460922Y-84280030D01*
X78460688Y-84279259D01*
X78415176Y-84129227D01*
X78399730Y-83972400D01*
X78415176Y-83815573D01*
X78460921Y-83664772D01*
X78460922Y-83664770D01*
X78535206Y-83525795D01*
X78635178Y-83403978D01*
X78756995Y-83304006D01*
X78895970Y-83229722D01*
X78895972Y-83229721D01*
X79046773Y-83183976D01*
X79125129Y-83176259D01*
X79164306Y-83172400D01*
X80042894Y-83172400D01*
X80082071Y-83176259D01*
X80082071Y-83176259D01*
G37*
G36*
X87702071Y-83176259D02*
G01*
X87780427Y-83183976D01*
X87931228Y-83229721D01*
X87931230Y-83229722D01*
X88070205Y-83304006D01*
X88192022Y-83403978D01*
X88291994Y-83525795D01*
X88366278Y-83664770D01*
X88366279Y-83664772D01*
X88412024Y-83815573D01*
X88427470Y-83972400D01*
X88412024Y-84129227D01*
X88366512Y-84279259D01*
X88366278Y-84280030D01*
X88291994Y-84419005D01*
X88192022Y-84540822D01*
X88070205Y-84640794D01*
X87946807Y-84706752D01*
X87931228Y-84715079D01*
X87780427Y-84760824D01*
X87702071Y-84768541D01*
X87662894Y-84772400D01*
X86784306Y-84772400D01*
X86745129Y-84768541D01*
X86666773Y-84760824D01*
X86515972Y-84715079D01*
X86500393Y-84706752D01*
X86376995Y-84640794D01*
X86255178Y-84540822D01*
X86155206Y-84419005D01*
X86080922Y-84280030D01*
X86080688Y-84279259D01*
X86035176Y-84129227D01*
X86019730Y-83972400D01*
X86035176Y-83815573D01*
X86080921Y-83664772D01*
X86080922Y-83664770D01*
X86155206Y-83525795D01*
X86255178Y-83403978D01*
X86376995Y-83304006D01*
X86515970Y-83229722D01*
X86515972Y-83229721D01*
X86666773Y-83183976D01*
X86745129Y-83176259D01*
X86784306Y-83172400D01*
X87662894Y-83172400D01*
X87702071Y-83176259D01*
X87702071Y-83176259D01*
G37*
G36*
X189717351Y-82618943D02*
G01*
X189862941Y-82679248D01*
X189993970Y-82766799D01*
X190105401Y-82878230D01*
X190192952Y-83009259D01*
X190253257Y-83154849D01*
X190284000Y-83309406D01*
X190284000Y-83466994D01*
X190253257Y-83621551D01*
X190192952Y-83767141D01*
X190105401Y-83898170D01*
X189993970Y-84009601D01*
X189862941Y-84097152D01*
X189717351Y-84157457D01*
X189562794Y-84188200D01*
X189405206Y-84188200D01*
X189250649Y-84157457D01*
X189105059Y-84097152D01*
X188974030Y-84009601D01*
X188862599Y-83898170D01*
X188775048Y-83767141D01*
X188714743Y-83621551D01*
X188684000Y-83466994D01*
X188684000Y-83309406D01*
X188714743Y-83154849D01*
X188775048Y-83009259D01*
X188862599Y-82878230D01*
X188974030Y-82766799D01*
X189105059Y-82679248D01*
X189250649Y-82618943D01*
X189405206Y-82588200D01*
X189562794Y-82588200D01*
X189717351Y-82618943D01*
X189717351Y-82618943D01*
G37*
G36*
X184717351Y-82618943D02*
G01*
X184862941Y-82679248D01*
X184993970Y-82766799D01*
X185105401Y-82878230D01*
X185192952Y-83009259D01*
X185253257Y-83154849D01*
X185284000Y-83309406D01*
X185284000Y-83466994D01*
X185253257Y-83621551D01*
X185192952Y-83767141D01*
X185105401Y-83898170D01*
X184993970Y-84009601D01*
X184862941Y-84097152D01*
X184717351Y-84157457D01*
X184562794Y-84188200D01*
X184405206Y-84188200D01*
X184250649Y-84157457D01*
X184105059Y-84097152D01*
X183974030Y-84009601D01*
X183862599Y-83898170D01*
X183775048Y-83767141D01*
X183714743Y-83621551D01*
X183684000Y-83466994D01*
X183684000Y-83309406D01*
X183714743Y-83154849D01*
X183775048Y-83009259D01*
X183862599Y-82878230D01*
X183974030Y-82766799D01*
X184105059Y-82679248D01*
X184250649Y-82618943D01*
X184405206Y-82588200D01*
X184562794Y-82588200D01*
X184717351Y-82618943D01*
X184717351Y-82618943D01*
G37*
G36*
X153042837Y-81737358D02*
G01*
X153123638Y-81745316D01*
X153255795Y-81785406D01*
X153330992Y-81808217D01*
X153522084Y-81910357D01*
X153689581Y-82047819D01*
X153827043Y-82215316D01*
X153929183Y-82406408D01*
X153929184Y-82406412D01*
X153992084Y-82613762D01*
X154013322Y-82829400D01*
X153992084Y-83045038D01*
X153949937Y-83183976D01*
X153929183Y-83252392D01*
X153827043Y-83443484D01*
X153689581Y-83610981D01*
X153522084Y-83748443D01*
X153330992Y-83850583D01*
X153305882Y-83858200D01*
X153123638Y-83913484D01*
X153042837Y-83921442D01*
X152962038Y-83929400D01*
X152853962Y-83929400D01*
X152773163Y-83921442D01*
X152692362Y-83913484D01*
X152510118Y-83858200D01*
X152485008Y-83850583D01*
X152293916Y-83748443D01*
X152126419Y-83610981D01*
X151988957Y-83443484D01*
X151886817Y-83252392D01*
X151866063Y-83183976D01*
X151823916Y-83045038D01*
X151802678Y-82829400D01*
X151823916Y-82613762D01*
X151886816Y-82406412D01*
X151886817Y-82406408D01*
X151988957Y-82215316D01*
X152126419Y-82047819D01*
X152293916Y-81910357D01*
X152485008Y-81808217D01*
X152560205Y-81785406D01*
X152692362Y-81745316D01*
X152773163Y-81737358D01*
X152853962Y-81729400D01*
X152962038Y-81729400D01*
X153042837Y-81737358D01*
X153042837Y-81737358D01*
G37*
G36*
X148874151Y-82060143D02*
G01*
X149019741Y-82120448D01*
X149150770Y-82207999D01*
X149262201Y-82319430D01*
X149349752Y-82450459D01*
X149410057Y-82596049D01*
X149440800Y-82750606D01*
X149440800Y-82908194D01*
X149410057Y-83062751D01*
X149349752Y-83208341D01*
X149262201Y-83339370D01*
X149150770Y-83450801D01*
X149019741Y-83538352D01*
X148874151Y-83598657D01*
X148719594Y-83629400D01*
X148562006Y-83629400D01*
X148407449Y-83598657D01*
X148261859Y-83538352D01*
X148130830Y-83450801D01*
X148019399Y-83339370D01*
X147931848Y-83208341D01*
X147871543Y-83062751D01*
X147840800Y-82908194D01*
X147840800Y-82750606D01*
X147871543Y-82596049D01*
X147931848Y-82450459D01*
X148019399Y-82319430D01*
X148130830Y-82207999D01*
X148261859Y-82120448D01*
X148407449Y-82060143D01*
X148562006Y-82029400D01*
X148719594Y-82029400D01*
X148874151Y-82060143D01*
X148874151Y-82060143D01*
G37*
G36*
X131094151Y-82060143D02*
G01*
X131239741Y-82120448D01*
X131370770Y-82207999D01*
X131482201Y-82319430D01*
X131569752Y-82450459D01*
X131630057Y-82596049D01*
X131660800Y-82750606D01*
X131660800Y-82908194D01*
X131630057Y-83062751D01*
X131569752Y-83208341D01*
X131482201Y-83339370D01*
X131370770Y-83450801D01*
X131239741Y-83538352D01*
X131094151Y-83598657D01*
X130939594Y-83629400D01*
X130782006Y-83629400D01*
X130627449Y-83598657D01*
X130481859Y-83538352D01*
X130350830Y-83450801D01*
X130239399Y-83339370D01*
X130151848Y-83208341D01*
X130091543Y-83062751D01*
X130060800Y-82908194D01*
X130060800Y-82750606D01*
X130091543Y-82596049D01*
X130151848Y-82450459D01*
X130239399Y-82319430D01*
X130350830Y-82207999D01*
X130481859Y-82120448D01*
X130627449Y-82060143D01*
X130782006Y-82029400D01*
X130939594Y-82029400D01*
X131094151Y-82060143D01*
X131094151Y-82060143D01*
G37*
G36*
X136174151Y-82060143D02*
G01*
X136319741Y-82120448D01*
X136450770Y-82207999D01*
X136562201Y-82319430D01*
X136649752Y-82450459D01*
X136710057Y-82596049D01*
X136740800Y-82750606D01*
X136740800Y-82908194D01*
X136710057Y-83062751D01*
X136649752Y-83208341D01*
X136562201Y-83339370D01*
X136450770Y-83450801D01*
X136319741Y-83538352D01*
X136174151Y-83598657D01*
X136019594Y-83629400D01*
X135862006Y-83629400D01*
X135707449Y-83598657D01*
X135561859Y-83538352D01*
X135430830Y-83450801D01*
X135319399Y-83339370D01*
X135231848Y-83208341D01*
X135171543Y-83062751D01*
X135140800Y-82908194D01*
X135140800Y-82750606D01*
X135171543Y-82596049D01*
X135231848Y-82450459D01*
X135319399Y-82319430D01*
X135430830Y-82207999D01*
X135561859Y-82120448D01*
X135707449Y-82060143D01*
X135862006Y-82029400D01*
X136019594Y-82029400D01*
X136174151Y-82060143D01*
X136174151Y-82060143D01*
G37*
G36*
X141254151Y-82060143D02*
G01*
X141399741Y-82120448D01*
X141530770Y-82207999D01*
X141642201Y-82319430D01*
X141729752Y-82450459D01*
X141790057Y-82596049D01*
X141820800Y-82750606D01*
X141820800Y-82908194D01*
X141790057Y-83062751D01*
X141729752Y-83208341D01*
X141642201Y-83339370D01*
X141530770Y-83450801D01*
X141399741Y-83538352D01*
X141254151Y-83598657D01*
X141099594Y-83629400D01*
X140942006Y-83629400D01*
X140787449Y-83598657D01*
X140641859Y-83538352D01*
X140510830Y-83450801D01*
X140399399Y-83339370D01*
X140311848Y-83208341D01*
X140251543Y-83062751D01*
X140220800Y-82908194D01*
X140220800Y-82750606D01*
X140251543Y-82596049D01*
X140311848Y-82450459D01*
X140399399Y-82319430D01*
X140510830Y-82207999D01*
X140641859Y-82120448D01*
X140787449Y-82060143D01*
X140942006Y-82029400D01*
X141099594Y-82029400D01*
X141254151Y-82060143D01*
X141254151Y-82060143D01*
G37*
G36*
X211933471Y-81347459D02*
G01*
X212011827Y-81355176D01*
X212162628Y-81400921D01*
X212162630Y-81400922D01*
X212301605Y-81475206D01*
X212423422Y-81575178D01*
X212523394Y-81696995D01*
X212549222Y-81745316D01*
X212597679Y-81835972D01*
X212643424Y-81986773D01*
X212658870Y-82143600D01*
X212643424Y-82300427D01*
X212597912Y-82450459D01*
X212597678Y-82451230D01*
X212523394Y-82590205D01*
X212423422Y-82712022D01*
X212301605Y-82811994D01*
X212162630Y-82886278D01*
X212162628Y-82886279D01*
X212011827Y-82932024D01*
X211933471Y-82939741D01*
X211894294Y-82943600D01*
X211015706Y-82943600D01*
X210976529Y-82939741D01*
X210898173Y-82932024D01*
X210747372Y-82886279D01*
X210747370Y-82886278D01*
X210608395Y-82811994D01*
X210486578Y-82712022D01*
X210386606Y-82590205D01*
X210312322Y-82451230D01*
X210312088Y-82450459D01*
X210266576Y-82300427D01*
X210251130Y-82143600D01*
X210266576Y-81986773D01*
X210312321Y-81835972D01*
X210360778Y-81745316D01*
X210386606Y-81696995D01*
X210486578Y-81575178D01*
X210608395Y-81475206D01*
X210747370Y-81400922D01*
X210747372Y-81400921D01*
X210898173Y-81355176D01*
X210976529Y-81347459D01*
X211015706Y-81343600D01*
X211894294Y-81343600D01*
X211933471Y-81347459D01*
X211933471Y-81347459D01*
G37*
G36*
X219553471Y-81347459D02*
G01*
X219631827Y-81355176D01*
X219782628Y-81400921D01*
X219782630Y-81400922D01*
X219921605Y-81475206D01*
X220043422Y-81575178D01*
X220143394Y-81696995D01*
X220169222Y-81745316D01*
X220217679Y-81835972D01*
X220263424Y-81986773D01*
X220278870Y-82143600D01*
X220263424Y-82300427D01*
X220217912Y-82450459D01*
X220217678Y-82451230D01*
X220143394Y-82590205D01*
X220043422Y-82712022D01*
X219921605Y-82811994D01*
X219782630Y-82886278D01*
X219782628Y-82886279D01*
X219631827Y-82932024D01*
X219553471Y-82939741D01*
X219514294Y-82943600D01*
X218635706Y-82943600D01*
X218596529Y-82939741D01*
X218518173Y-82932024D01*
X218367372Y-82886279D01*
X218367370Y-82886278D01*
X218228395Y-82811994D01*
X218106578Y-82712022D01*
X218006606Y-82590205D01*
X217932322Y-82451230D01*
X217932088Y-82450459D01*
X217886576Y-82300427D01*
X217871130Y-82143600D01*
X217886576Y-81986773D01*
X217932321Y-81835972D01*
X217980778Y-81745316D01*
X218006606Y-81696995D01*
X218106578Y-81575178D01*
X218228395Y-81475206D01*
X218367370Y-81400922D01*
X218367372Y-81400921D01*
X218518173Y-81355176D01*
X218596529Y-81347459D01*
X218635706Y-81343600D01*
X219514294Y-81343600D01*
X219553471Y-81347459D01*
X219553471Y-81347459D01*
G37*
G36*
X243336751Y-81094943D02*
G01*
X243482341Y-81155248D01*
X243613370Y-81242799D01*
X243724801Y-81354230D01*
X243812352Y-81485259D01*
X243872657Y-81630849D01*
X243903400Y-81785406D01*
X243903400Y-81942994D01*
X243872657Y-82097551D01*
X243812352Y-82243141D01*
X243724801Y-82374170D01*
X243613370Y-82485601D01*
X243482341Y-82573152D01*
X243336751Y-82633457D01*
X243182194Y-82664200D01*
X243024606Y-82664200D01*
X242870049Y-82633457D01*
X242724459Y-82573152D01*
X242593430Y-82485601D01*
X242481999Y-82374170D01*
X242394448Y-82243141D01*
X242334143Y-82097551D01*
X242303400Y-81942994D01*
X242303400Y-81785406D01*
X242334143Y-81630849D01*
X242394448Y-81485259D01*
X242481999Y-81354230D01*
X242593430Y-81242799D01*
X242724459Y-81155248D01*
X242870049Y-81094943D01*
X243024606Y-81064200D01*
X243182194Y-81064200D01*
X243336751Y-81094943D01*
X243336751Y-81094943D01*
G37*
G36*
X238336751Y-81094943D02*
G01*
X238482341Y-81155248D01*
X238613370Y-81242799D01*
X238724801Y-81354230D01*
X238812352Y-81485259D01*
X238872657Y-81630849D01*
X238903400Y-81785406D01*
X238903400Y-81942994D01*
X238872657Y-82097551D01*
X238812352Y-82243141D01*
X238724801Y-82374170D01*
X238613370Y-82485601D01*
X238482341Y-82573152D01*
X238336751Y-82633457D01*
X238182194Y-82664200D01*
X238024606Y-82664200D01*
X237870049Y-82633457D01*
X237724459Y-82573152D01*
X237593430Y-82485601D01*
X237481999Y-82374170D01*
X237394448Y-82243141D01*
X237334143Y-82097551D01*
X237303400Y-81942994D01*
X237303400Y-81785406D01*
X237334143Y-81630849D01*
X237394448Y-81485259D01*
X237481999Y-81354230D01*
X237593430Y-81242799D01*
X237724459Y-81155248D01*
X237870049Y-81094943D01*
X238024606Y-81064200D01*
X238182194Y-81064200D01*
X238336751Y-81094943D01*
X238336751Y-81094943D01*
G37*
G36*
X162413000Y-82631600D02*
G01*
X159913000Y-82631600D01*
X159913000Y-80131600D01*
X162413000Y-80131600D01*
X162413000Y-82631600D01*
X162413000Y-82631600D01*
G37*
G36*
X87702071Y-80636259D02*
G01*
X87780427Y-80643976D01*
X87931228Y-80689721D01*
X87931230Y-80689722D01*
X88070205Y-80764006D01*
X88192022Y-80863978D01*
X88291994Y-80985795D01*
X88346945Y-81088601D01*
X88366279Y-81124772D01*
X88412024Y-81275573D01*
X88427470Y-81432400D01*
X88412024Y-81589227D01*
X88369503Y-81729400D01*
X88366278Y-81740030D01*
X88291994Y-81879005D01*
X88192022Y-82000822D01*
X88070205Y-82100794D01*
X88033433Y-82120449D01*
X87931228Y-82175079D01*
X87780427Y-82220824D01*
X87702071Y-82228541D01*
X87662894Y-82232400D01*
X86784306Y-82232400D01*
X86745129Y-82228541D01*
X86666773Y-82220824D01*
X86515972Y-82175079D01*
X86413767Y-82120449D01*
X86376995Y-82100794D01*
X86255178Y-82000822D01*
X86155206Y-81879005D01*
X86080922Y-81740030D01*
X86077697Y-81729400D01*
X86035176Y-81589227D01*
X86019730Y-81432400D01*
X86035176Y-81275573D01*
X86080921Y-81124772D01*
X86100255Y-81088601D01*
X86155206Y-80985795D01*
X86255178Y-80863978D01*
X86376995Y-80764006D01*
X86515970Y-80689722D01*
X86515972Y-80689721D01*
X86666773Y-80643976D01*
X86745129Y-80636259D01*
X86784306Y-80632400D01*
X87662894Y-80632400D01*
X87702071Y-80636259D01*
X87702071Y-80636259D01*
G37*
G36*
X80082071Y-80636259D02*
G01*
X80160427Y-80643976D01*
X80311228Y-80689721D01*
X80311230Y-80689722D01*
X80450205Y-80764006D01*
X80572022Y-80863978D01*
X80671994Y-80985795D01*
X80726945Y-81088601D01*
X80746279Y-81124772D01*
X80792024Y-81275573D01*
X80807470Y-81432400D01*
X80792024Y-81589227D01*
X80749503Y-81729400D01*
X80746278Y-81740030D01*
X80671994Y-81879005D01*
X80572022Y-82000822D01*
X80450205Y-82100794D01*
X80413433Y-82120449D01*
X80311228Y-82175079D01*
X80160427Y-82220824D01*
X80082071Y-82228541D01*
X80042894Y-82232400D01*
X79164306Y-82232400D01*
X79125129Y-82228541D01*
X79046773Y-82220824D01*
X78895972Y-82175079D01*
X78793767Y-82120449D01*
X78756995Y-82100794D01*
X78635178Y-82000822D01*
X78535206Y-81879005D01*
X78460922Y-81740030D01*
X78457697Y-81729400D01*
X78415176Y-81589227D01*
X78399730Y-81432400D01*
X78415176Y-81275573D01*
X78460921Y-81124772D01*
X78480255Y-81088601D01*
X78535206Y-80985795D01*
X78635178Y-80863978D01*
X78756995Y-80764006D01*
X78895970Y-80689722D01*
X78895972Y-80689721D01*
X79046773Y-80643976D01*
X79125129Y-80636259D01*
X79164306Y-80632400D01*
X80042894Y-80632400D01*
X80082071Y-80636259D01*
X80082071Y-80636259D01*
G37*
G36*
X75772951Y-79697943D02*
G01*
X75918541Y-79758248D01*
X76049570Y-79845799D01*
X76161001Y-79957230D01*
X76248552Y-80088259D01*
X76308857Y-80233849D01*
X76339600Y-80388406D01*
X76339600Y-80545994D01*
X76308857Y-80700551D01*
X76248552Y-80846141D01*
X76161001Y-80977170D01*
X76049570Y-81088601D01*
X75918541Y-81176152D01*
X75772951Y-81236457D01*
X75618394Y-81267200D01*
X75460806Y-81267200D01*
X75306249Y-81236457D01*
X75160659Y-81176152D01*
X75029630Y-81088601D01*
X74918199Y-80977170D01*
X74830648Y-80846141D01*
X74770343Y-80700551D01*
X74739600Y-80545994D01*
X74739600Y-80388406D01*
X74770343Y-80233849D01*
X74830648Y-80088259D01*
X74918199Y-79957230D01*
X75029630Y-79845799D01*
X75160659Y-79758248D01*
X75306249Y-79697943D01*
X75460806Y-79667200D01*
X75618394Y-79667200D01*
X75772951Y-79697943D01*
X75772951Y-79697943D01*
G37*
G36*
X71658151Y-79697943D02*
G01*
X71803741Y-79758248D01*
X71934770Y-79845799D01*
X72046201Y-79957230D01*
X72133752Y-80088259D01*
X72194057Y-80233849D01*
X72224800Y-80388406D01*
X72224800Y-80545994D01*
X72194057Y-80700551D01*
X72133752Y-80846141D01*
X72046201Y-80977170D01*
X71934770Y-81088601D01*
X71803741Y-81176152D01*
X71658151Y-81236457D01*
X71503594Y-81267200D01*
X71346006Y-81267200D01*
X71191449Y-81236457D01*
X71045859Y-81176152D01*
X70914830Y-81088601D01*
X70803399Y-80977170D01*
X70715848Y-80846141D01*
X70655543Y-80700551D01*
X70624800Y-80545994D01*
X70624800Y-80388406D01*
X70655543Y-80233849D01*
X70715848Y-80088259D01*
X70803399Y-79957230D01*
X70914830Y-79845799D01*
X71045859Y-79758248D01*
X71191449Y-79697943D01*
X71346006Y-79667200D01*
X71503594Y-79667200D01*
X71658151Y-79697943D01*
X71658151Y-79697943D01*
G37*
G36*
X96827071Y-79594859D02*
G01*
X96905427Y-79602576D01*
X97056228Y-79648321D01*
X97056230Y-79648322D01*
X97195205Y-79722606D01*
X97195207Y-79722607D01*
X97195206Y-79722607D01*
X97317022Y-79822578D01*
X97416993Y-79944394D01*
X97491279Y-80083372D01*
X97537024Y-80234173D01*
X97552470Y-80391000D01*
X97537024Y-80547827D01*
X97491279Y-80698628D01*
X97491278Y-80698630D01*
X97416994Y-80837605D01*
X97317022Y-80959422D01*
X97195205Y-81059394D01*
X97072892Y-81124772D01*
X97056228Y-81133679D01*
X96905427Y-81179424D01*
X96827071Y-81187141D01*
X96787894Y-81191000D01*
X96709306Y-81191000D01*
X96670129Y-81187141D01*
X96591773Y-81179424D01*
X96440972Y-81133679D01*
X96424308Y-81124772D01*
X96301995Y-81059394D01*
X96180178Y-80959422D01*
X96080206Y-80837605D01*
X96005922Y-80698630D01*
X96005921Y-80698628D01*
X95960176Y-80547827D01*
X95944730Y-80391000D01*
X95960176Y-80234173D01*
X96005921Y-80083372D01*
X96080207Y-79944394D01*
X96180178Y-79822578D01*
X96301994Y-79722607D01*
X96301993Y-79722607D01*
X96301995Y-79722606D01*
X96440970Y-79648322D01*
X96440972Y-79648321D01*
X96591773Y-79602576D01*
X96670129Y-79594859D01*
X96709306Y-79591000D01*
X96787894Y-79591000D01*
X96827071Y-79594859D01*
X96827071Y-79594859D01*
G37*
G36*
X109681951Y-79621743D02*
G01*
X109827541Y-79682048D01*
X109958570Y-79769599D01*
X110070001Y-79881030D01*
X110157552Y-80012059D01*
X110217857Y-80157649D01*
X110248600Y-80312206D01*
X110248600Y-80469794D01*
X110217857Y-80624351D01*
X110157552Y-80769941D01*
X110070001Y-80900970D01*
X109958570Y-81012401D01*
X109827541Y-81099952D01*
X109681951Y-81160257D01*
X109527394Y-81191000D01*
X109369806Y-81191000D01*
X109215249Y-81160257D01*
X109069659Y-81099952D01*
X108938630Y-81012401D01*
X108827199Y-80900970D01*
X108739648Y-80769941D01*
X108679343Y-80624351D01*
X108648600Y-80469794D01*
X108648600Y-80312206D01*
X108679343Y-80157649D01*
X108739648Y-80012059D01*
X108827199Y-79881030D01*
X108938630Y-79769599D01*
X109069659Y-79682048D01*
X109215249Y-79621743D01*
X109369806Y-79591000D01*
X109527394Y-79591000D01*
X109681951Y-79621743D01*
X109681951Y-79621743D01*
G37*
G36*
X60260600Y-80809200D02*
G01*
X58560600Y-80809200D01*
X58560600Y-79109200D01*
X60260600Y-79109200D01*
X60260600Y-80809200D01*
X60260600Y-80809200D01*
G37*
G36*
X62117227Y-79121499D02*
G01*
X62197342Y-79145801D01*
X62277455Y-79170103D01*
X62277457Y-79170104D01*
X62425118Y-79249031D01*
X62554549Y-79355251D01*
X62660769Y-79484682D01*
X62723785Y-79602576D01*
X62739697Y-79632345D01*
X62763999Y-79712458D01*
X62788301Y-79792573D01*
X62804712Y-79959200D01*
X62788301Y-80125827D01*
X62739696Y-80286057D01*
X62660769Y-80433718D01*
X62554549Y-80563149D01*
X62425118Y-80669369D01*
X62277457Y-80748296D01*
X62277455Y-80748297D01*
X62225668Y-80764006D01*
X62117227Y-80796901D01*
X61992352Y-80809200D01*
X61908848Y-80809200D01*
X61783973Y-80796901D01*
X61675532Y-80764006D01*
X61623745Y-80748297D01*
X61623743Y-80748296D01*
X61476082Y-80669369D01*
X61346651Y-80563149D01*
X61240431Y-80433718D01*
X61161504Y-80286057D01*
X61112899Y-80125827D01*
X61096488Y-79959200D01*
X61112899Y-79792573D01*
X61137202Y-79712458D01*
X61161503Y-79632345D01*
X61177415Y-79602576D01*
X61240431Y-79484682D01*
X61346651Y-79355251D01*
X61476082Y-79249031D01*
X61623743Y-79170104D01*
X61623745Y-79170103D01*
X61703858Y-79145801D01*
X61783973Y-79121499D01*
X61908848Y-79109200D01*
X61992352Y-79109200D01*
X62117227Y-79121499D01*
X62117227Y-79121499D01*
G37*
G36*
X87702071Y-78096259D02*
G01*
X87780427Y-78103976D01*
X87931228Y-78149721D01*
X87931230Y-78149722D01*
X88070205Y-78224006D01*
X88070207Y-78224007D01*
X88070206Y-78224007D01*
X88192022Y-78323978D01*
X88291993Y-78445794D01*
X88366279Y-78584772D01*
X88412024Y-78735573D01*
X88427470Y-78892400D01*
X88412024Y-79049227D01*
X88375356Y-79170104D01*
X88366278Y-79200030D01*
X88291994Y-79339005D01*
X88192022Y-79460822D01*
X88070205Y-79560794D01*
X87956178Y-79621743D01*
X87931228Y-79635079D01*
X87780427Y-79680824D01*
X87702071Y-79688541D01*
X87662894Y-79692400D01*
X86784306Y-79692400D01*
X86745129Y-79688541D01*
X86666773Y-79680824D01*
X86515972Y-79635079D01*
X86491022Y-79621743D01*
X86376995Y-79560794D01*
X86255178Y-79460822D01*
X86155206Y-79339005D01*
X86080922Y-79200030D01*
X86071844Y-79170104D01*
X86035176Y-79049227D01*
X86019730Y-78892400D01*
X86035176Y-78735573D01*
X86080921Y-78584772D01*
X86155207Y-78445794D01*
X86255178Y-78323978D01*
X86376994Y-78224007D01*
X86376993Y-78224007D01*
X86376995Y-78224006D01*
X86515970Y-78149722D01*
X86515972Y-78149721D01*
X86666773Y-78103976D01*
X86745129Y-78096259D01*
X86784306Y-78092400D01*
X87662894Y-78092400D01*
X87702071Y-78096259D01*
X87702071Y-78096259D01*
G37*
G36*
X80803600Y-79692400D02*
G01*
X78403600Y-79692400D01*
X78403600Y-78092400D01*
X80803600Y-78092400D01*
X80803600Y-79692400D01*
X80803600Y-79692400D01*
G37*
G36*
X161527610Y-75179636D02*
G01*
X161755095Y-75273864D01*
X161755097Y-75273865D01*
X161959828Y-75410662D01*
X162133938Y-75584772D01*
X162223874Y-75719370D01*
X162270736Y-75789505D01*
X162364964Y-76016990D01*
X162413000Y-76258484D01*
X162413000Y-76504716D01*
X162364964Y-76746210D01*
X162297475Y-76909141D01*
X162270735Y-76973697D01*
X162133938Y-77178428D01*
X161959828Y-77352538D01*
X161755097Y-77489335D01*
X161755096Y-77489336D01*
X161755095Y-77489336D01*
X161527610Y-77583564D01*
X161286116Y-77631600D01*
X161039884Y-77631600D01*
X160798390Y-77583564D01*
X160570905Y-77489336D01*
X160570904Y-77489336D01*
X160570903Y-77489335D01*
X160366172Y-77352538D01*
X160192062Y-77178428D01*
X160055265Y-76973697D01*
X160028525Y-76909141D01*
X159961036Y-76746210D01*
X159913000Y-76504716D01*
X159913000Y-76258484D01*
X159961036Y-76016990D01*
X160055264Y-75789505D01*
X160102127Y-75719370D01*
X160192062Y-75584772D01*
X160366172Y-75410662D01*
X160570903Y-75273865D01*
X160570905Y-75273864D01*
X160798390Y-75179636D01*
X161039884Y-75131600D01*
X161286116Y-75131600D01*
X161527610Y-75179636D01*
X161527610Y-75179636D01*
G37*
G36*
X243362151Y-75760943D02*
G01*
X243507741Y-75821248D01*
X243638770Y-75908799D01*
X243750201Y-76020230D01*
X243837752Y-76151259D01*
X243898057Y-76296849D01*
X243928800Y-76451406D01*
X243928800Y-76608994D01*
X243898057Y-76763551D01*
X243837752Y-76909141D01*
X243750201Y-77040170D01*
X243638770Y-77151601D01*
X243507741Y-77239152D01*
X243362151Y-77299457D01*
X243207594Y-77330200D01*
X243050006Y-77330200D01*
X242895449Y-77299457D01*
X242749859Y-77239152D01*
X242618830Y-77151601D01*
X242507399Y-77040170D01*
X242419848Y-76909141D01*
X242359543Y-76763551D01*
X242328800Y-76608994D01*
X242328800Y-76451406D01*
X242359543Y-76296849D01*
X242419848Y-76151259D01*
X242507399Y-76020230D01*
X242618830Y-75908799D01*
X242749859Y-75821248D01*
X242895449Y-75760943D01*
X243050006Y-75730200D01*
X243207594Y-75730200D01*
X243362151Y-75760943D01*
X243362151Y-75760943D01*
G37*
G36*
X223778751Y-75354543D02*
G01*
X223924341Y-75414848D01*
X224055370Y-75502399D01*
X224166801Y-75613830D01*
X224254352Y-75744859D01*
X224314657Y-75890449D01*
X224345400Y-76045006D01*
X224345400Y-76202594D01*
X224314657Y-76357151D01*
X224254352Y-76502741D01*
X224166801Y-76633770D01*
X224055370Y-76745201D01*
X223924341Y-76832752D01*
X223778751Y-76893057D01*
X223624194Y-76923800D01*
X223466606Y-76923800D01*
X223312049Y-76893057D01*
X223166459Y-76832752D01*
X223035430Y-76745201D01*
X222923999Y-76633770D01*
X222836448Y-76502741D01*
X222776143Y-76357151D01*
X222745400Y-76202594D01*
X222745400Y-76045006D01*
X222776143Y-75890449D01*
X222836448Y-75744859D01*
X222923999Y-75613830D01*
X223035430Y-75502399D01*
X223166459Y-75414848D01*
X223312049Y-75354543D01*
X223466606Y-75323800D01*
X223624194Y-75323800D01*
X223778751Y-75354543D01*
X223778751Y-75354543D01*
G37*
G36*
X210923871Y-75327659D02*
G01*
X211002227Y-75335376D01*
X211153028Y-75381121D01*
X211153030Y-75381122D01*
X211292005Y-75455406D01*
X211413822Y-75555378D01*
X211513794Y-75677195D01*
X211532919Y-75712975D01*
X211588079Y-75816172D01*
X211633824Y-75966973D01*
X211649270Y-76123800D01*
X211633824Y-76280627D01*
X211588079Y-76431428D01*
X211588078Y-76431430D01*
X211513794Y-76570405D01*
X211413822Y-76692222D01*
X211292005Y-76792194D01*
X211153030Y-76866478D01*
X211153028Y-76866479D01*
X211002227Y-76912224D01*
X210923871Y-76919941D01*
X210884694Y-76923800D01*
X210806106Y-76923800D01*
X210766929Y-76919941D01*
X210688573Y-76912224D01*
X210537772Y-76866479D01*
X210537770Y-76866478D01*
X210398795Y-76792194D01*
X210276978Y-76692222D01*
X210177006Y-76570405D01*
X210102722Y-76431430D01*
X210102721Y-76431428D01*
X210056976Y-76280627D01*
X210041530Y-76123800D01*
X210056976Y-75966973D01*
X210102721Y-75816172D01*
X210157881Y-75712975D01*
X210177006Y-75677195D01*
X210276978Y-75555378D01*
X210398795Y-75455406D01*
X210537770Y-75381122D01*
X210537772Y-75381121D01*
X210688573Y-75335376D01*
X210766929Y-75327659D01*
X210806106Y-75323800D01*
X210884694Y-75323800D01*
X210923871Y-75327659D01*
X210923871Y-75327659D01*
G37*
G36*
X228678471Y-75073659D02*
G01*
X228756827Y-75081376D01*
X228907628Y-75127121D01*
X228907630Y-75127122D01*
X229046605Y-75201406D01*
X229168422Y-75301378D01*
X229268394Y-75423195D01*
X229342678Y-75562170D01*
X229342679Y-75562172D01*
X229388424Y-75712973D01*
X229403870Y-75869800D01*
X229388424Y-76026627D01*
X229350617Y-76151259D01*
X229342678Y-76177430D01*
X229268394Y-76316405D01*
X229168422Y-76438222D01*
X229046605Y-76538194D01*
X228914150Y-76608993D01*
X228907628Y-76612479D01*
X228756827Y-76658224D01*
X228678471Y-76665941D01*
X228639294Y-76669800D01*
X228560706Y-76669800D01*
X228521529Y-76665941D01*
X228443173Y-76658224D01*
X228292372Y-76612479D01*
X228285850Y-76608993D01*
X228153395Y-76538194D01*
X228031578Y-76438222D01*
X227931606Y-76316405D01*
X227857322Y-76177430D01*
X227849383Y-76151259D01*
X227811576Y-76026627D01*
X227796130Y-75869800D01*
X227811576Y-75712973D01*
X227857321Y-75562172D01*
X227857322Y-75562170D01*
X227931606Y-75423195D01*
X228031578Y-75301378D01*
X228153395Y-75201406D01*
X228292370Y-75127122D01*
X228292372Y-75127121D01*
X228443173Y-75081376D01*
X228521529Y-75073659D01*
X228560706Y-75069800D01*
X228639294Y-75069800D01*
X228678471Y-75073659D01*
X228678471Y-75073659D01*
G37*
G36*
X154008000Y-76309400D02*
G01*
X151808000Y-76309400D01*
X151808000Y-74109400D01*
X154008000Y-74109400D01*
X154008000Y-76309400D01*
X154008000Y-76309400D01*
G37*
G36*
X86110751Y-74490943D02*
G01*
X86256341Y-74551248D01*
X86387370Y-74638799D01*
X86498801Y-74750230D01*
X86586352Y-74881259D01*
X86646657Y-75026849D01*
X86677400Y-75181406D01*
X86677400Y-75338994D01*
X86646657Y-75493551D01*
X86586352Y-75639141D01*
X86498801Y-75770170D01*
X86387370Y-75881601D01*
X86256341Y-75969152D01*
X86110751Y-76029457D01*
X85956194Y-76060200D01*
X85798606Y-76060200D01*
X85644049Y-76029457D01*
X85498459Y-75969152D01*
X85367430Y-75881601D01*
X85255999Y-75770170D01*
X85168448Y-75639141D01*
X85108143Y-75493551D01*
X85077400Y-75338994D01*
X85077400Y-75181406D01*
X85108143Y-75026849D01*
X85168448Y-74881259D01*
X85255999Y-74750230D01*
X85367430Y-74638799D01*
X85498459Y-74551248D01*
X85644049Y-74490943D01*
X85798606Y-74460200D01*
X85956194Y-74460200D01*
X86110751Y-74490943D01*
X86110751Y-74490943D01*
G37*
G36*
X81110751Y-74490943D02*
G01*
X81256341Y-74551248D01*
X81387370Y-74638799D01*
X81498801Y-74750230D01*
X81586352Y-74881259D01*
X81646657Y-75026849D01*
X81677400Y-75181406D01*
X81677400Y-75338994D01*
X81646657Y-75493551D01*
X81586352Y-75639141D01*
X81498801Y-75770170D01*
X81387370Y-75881601D01*
X81256341Y-75969152D01*
X81110751Y-76029457D01*
X80956194Y-76060200D01*
X80798606Y-76060200D01*
X80644049Y-76029457D01*
X80498459Y-75969152D01*
X80367430Y-75881601D01*
X80255999Y-75770170D01*
X80168448Y-75639141D01*
X80108143Y-75493551D01*
X80077400Y-75338994D01*
X80077400Y-75181406D01*
X80108143Y-75026849D01*
X80168448Y-74881259D01*
X80255999Y-74750230D01*
X80367430Y-74638799D01*
X80498459Y-74551248D01*
X80644049Y-74490943D01*
X80798606Y-74460200D01*
X80956194Y-74460200D01*
X81110751Y-74490943D01*
X81110751Y-74490943D01*
G37*
G36*
X131094151Y-74440143D02*
G01*
X131239741Y-74500448D01*
X131370770Y-74587999D01*
X131482201Y-74699430D01*
X131569752Y-74830459D01*
X131630057Y-74976049D01*
X131660800Y-75130606D01*
X131660800Y-75288194D01*
X131630057Y-75442751D01*
X131569752Y-75588341D01*
X131482201Y-75719370D01*
X131370770Y-75830801D01*
X131239741Y-75918352D01*
X131094151Y-75978657D01*
X130939594Y-76009400D01*
X130782006Y-76009400D01*
X130627449Y-75978657D01*
X130481859Y-75918352D01*
X130350830Y-75830801D01*
X130239399Y-75719370D01*
X130151848Y-75588341D01*
X130091543Y-75442751D01*
X130060800Y-75288194D01*
X130060800Y-75130606D01*
X130091543Y-74976049D01*
X130151848Y-74830459D01*
X130239399Y-74699430D01*
X130350830Y-74587999D01*
X130481859Y-74500448D01*
X130627449Y-74440143D01*
X130782006Y-74409400D01*
X130939594Y-74409400D01*
X131094151Y-74440143D01*
X131094151Y-74440143D01*
G37*
G36*
X136174151Y-74440143D02*
G01*
X136319741Y-74500448D01*
X136450770Y-74587999D01*
X136562201Y-74699430D01*
X136649752Y-74830459D01*
X136710057Y-74976049D01*
X136740800Y-75130606D01*
X136740800Y-75288194D01*
X136710057Y-75442751D01*
X136649752Y-75588341D01*
X136562201Y-75719370D01*
X136450770Y-75830801D01*
X136319741Y-75918352D01*
X136174151Y-75978657D01*
X136019594Y-76009400D01*
X135862006Y-76009400D01*
X135707449Y-75978657D01*
X135561859Y-75918352D01*
X135430830Y-75830801D01*
X135319399Y-75719370D01*
X135231848Y-75588341D01*
X135171543Y-75442751D01*
X135140800Y-75288194D01*
X135140800Y-75130606D01*
X135171543Y-74976049D01*
X135231848Y-74830459D01*
X135319399Y-74699430D01*
X135430830Y-74587999D01*
X135561859Y-74500448D01*
X135707449Y-74440143D01*
X135862006Y-74409400D01*
X136019594Y-74409400D01*
X136174151Y-74440143D01*
X136174151Y-74440143D01*
G37*
G36*
X141254151Y-74440143D02*
G01*
X141399741Y-74500448D01*
X141530770Y-74587999D01*
X141642201Y-74699430D01*
X141729752Y-74830459D01*
X141790057Y-74976049D01*
X141820800Y-75130606D01*
X141820800Y-75288194D01*
X141790057Y-75442751D01*
X141729752Y-75588341D01*
X141642201Y-75719370D01*
X141530770Y-75830801D01*
X141399741Y-75918352D01*
X141254151Y-75978657D01*
X141099594Y-76009400D01*
X140942006Y-76009400D01*
X140787449Y-75978657D01*
X140641859Y-75918352D01*
X140510830Y-75830801D01*
X140399399Y-75719370D01*
X140311848Y-75588341D01*
X140251543Y-75442751D01*
X140220800Y-75288194D01*
X140220800Y-75130606D01*
X140251543Y-74976049D01*
X140311848Y-74830459D01*
X140399399Y-74699430D01*
X140510830Y-74587999D01*
X140641859Y-74500448D01*
X140787449Y-74440143D01*
X140942006Y-74409400D01*
X141099594Y-74409400D01*
X141254151Y-74440143D01*
X141254151Y-74440143D01*
G37*
G36*
X149540800Y-76009400D02*
G01*
X147740800Y-76009400D01*
X147740800Y-74409400D01*
X149540800Y-74409400D01*
X149540800Y-76009400D01*
X149540800Y-76009400D01*
G37*
G36*
X239561627Y-72136499D02*
G01*
X239641742Y-72160801D01*
X239721855Y-72185103D01*
X239721857Y-72185104D01*
X239869518Y-72264031D01*
X239998949Y-72370251D01*
X240105169Y-72499682D01*
X240184096Y-72647343D01*
X240232701Y-72807573D01*
X240249112Y-72974200D01*
X240232701Y-73140827D01*
X240184096Y-73301057D01*
X240105169Y-73448718D01*
X239998949Y-73578149D01*
X239869518Y-73684369D01*
X239721857Y-73763296D01*
X239721855Y-73763297D01*
X239641742Y-73787599D01*
X239561627Y-73811901D01*
X239436752Y-73824200D01*
X239353248Y-73824200D01*
X239228373Y-73811901D01*
X239148258Y-73787599D01*
X239068145Y-73763297D01*
X239068143Y-73763296D01*
X238920482Y-73684369D01*
X238791051Y-73578149D01*
X238684831Y-73448718D01*
X238605904Y-73301057D01*
X238557299Y-73140827D01*
X238540888Y-72974200D01*
X238557299Y-72807573D01*
X238605904Y-72647343D01*
X238684831Y-72499682D01*
X238791051Y-72370251D01*
X238920482Y-72264031D01*
X239068143Y-72185104D01*
X239068145Y-72185103D01*
X239148258Y-72160801D01*
X239228373Y-72136499D01*
X239353248Y-72124200D01*
X239436752Y-72124200D01*
X239561627Y-72136499D01*
X239561627Y-72136499D01*
G37*
G36*
X178509890Y-71615019D02*
G01*
X178574289Y-71627829D01*
X178756278Y-71703211D01*
X178920063Y-71812649D01*
X179059351Y-71951937D01*
X179168789Y-72115722D01*
X179244171Y-72297711D01*
X179282600Y-72490909D01*
X179282600Y-72687891D01*
X179244171Y-72881089D01*
X179168789Y-73063078D01*
X179059351Y-73226863D01*
X178920063Y-73366151D01*
X178756278Y-73475589D01*
X178574289Y-73550971D01*
X178509890Y-73563781D01*
X178381093Y-73589400D01*
X178184107Y-73589400D01*
X178055310Y-73563781D01*
X177990911Y-73550971D01*
X177808922Y-73475589D01*
X177645137Y-73366151D01*
X177505849Y-73226863D01*
X177396411Y-73063078D01*
X177321029Y-72881089D01*
X177282600Y-72687891D01*
X177282600Y-72490909D01*
X177321029Y-72297711D01*
X177396411Y-72115722D01*
X177505849Y-71951937D01*
X177645137Y-71812649D01*
X177808922Y-71703211D01*
X177990911Y-71627829D01*
X178055310Y-71615019D01*
X178184107Y-71589400D01*
X178381093Y-71589400D01*
X178509890Y-71615019D01*
X178509890Y-71615019D01*
G37*
G36*
X91647951Y-70528543D02*
G01*
X91793541Y-70588848D01*
X91924570Y-70676399D01*
X92036001Y-70787830D01*
X92123552Y-70918859D01*
X92183857Y-71064449D01*
X92214600Y-71219006D01*
X92214600Y-71376594D01*
X92183857Y-71531151D01*
X92123552Y-71676741D01*
X92036001Y-71807770D01*
X91924570Y-71919201D01*
X91793541Y-72006752D01*
X91647951Y-72067057D01*
X91493394Y-72097800D01*
X91335806Y-72097800D01*
X91181249Y-72067057D01*
X91035659Y-72006752D01*
X90904630Y-71919201D01*
X90793199Y-71807770D01*
X90705648Y-71676741D01*
X90645343Y-71531151D01*
X90614600Y-71376594D01*
X90614600Y-71219006D01*
X90645343Y-71064449D01*
X90705648Y-70918859D01*
X90793199Y-70787830D01*
X90904630Y-70676399D01*
X91035659Y-70588848D01*
X91181249Y-70528543D01*
X91335806Y-70497800D01*
X91493394Y-70497800D01*
X91647951Y-70528543D01*
X91647951Y-70528543D01*
G37*
G36*
X213822600Y-72065200D02*
G01*
X211322600Y-72065200D01*
X211322600Y-69565200D01*
X213822600Y-69565200D01*
X213822600Y-72065200D01*
X213822600Y-72065200D01*
G37*
G36*
X240245000Y-71284200D02*
G01*
X238545000Y-71284200D01*
X238545000Y-69584200D01*
X240245000Y-69584200D01*
X240245000Y-71284200D01*
X240245000Y-71284200D01*
G37*
G36*
X205392237Y-68021358D02*
G01*
X205473038Y-68029316D01*
X205623068Y-68074828D01*
X205680392Y-68092217D01*
X205871484Y-68194357D01*
X206038981Y-68331819D01*
X206176443Y-68499316D01*
X206278583Y-68690408D01*
X206278584Y-68690412D01*
X206341484Y-68897762D01*
X206362722Y-69113400D01*
X206341484Y-69329038D01*
X206294951Y-69482434D01*
X206278583Y-69536392D01*
X206176443Y-69727484D01*
X206038981Y-69894981D01*
X205871484Y-70032443D01*
X205680392Y-70134583D01*
X205626434Y-70150951D01*
X205473038Y-70197484D01*
X205392237Y-70205442D01*
X205311438Y-70213400D01*
X205203362Y-70213400D01*
X205122563Y-70205442D01*
X205041762Y-70197484D01*
X204888366Y-70150951D01*
X204834408Y-70134583D01*
X204643316Y-70032443D01*
X204475819Y-69894981D01*
X204338357Y-69727484D01*
X204236217Y-69536392D01*
X204219849Y-69482434D01*
X204173316Y-69329038D01*
X204152078Y-69113400D01*
X204173316Y-68897762D01*
X204236216Y-68690412D01*
X204236217Y-68690408D01*
X204338357Y-68499316D01*
X204475819Y-68331819D01*
X204643316Y-68194357D01*
X204834408Y-68092217D01*
X204891732Y-68074828D01*
X205041762Y-68029316D01*
X205122563Y-68021358D01*
X205203362Y-68013400D01*
X205311438Y-68013400D01*
X205392237Y-68021358D01*
X205392237Y-68021358D01*
G37*
G36*
X179282600Y-68589400D02*
G01*
X177282600Y-68589400D01*
X177282600Y-66589400D01*
X179282600Y-66589400D01*
X179282600Y-68589400D01*
X179282600Y-68589400D01*
G37*
G36*
X71503271Y-66971059D02*
G01*
X71581627Y-66978776D01*
X71732428Y-67024521D01*
X71732430Y-67024522D01*
X71871405Y-67098806D01*
X71993222Y-67198778D01*
X72093194Y-67320595D01*
X72142259Y-67412389D01*
X72167479Y-67459572D01*
X72213224Y-67610373D01*
X72228670Y-67767200D01*
X72213224Y-67924027D01*
X72167479Y-68074828D01*
X72167478Y-68074830D01*
X72093194Y-68213805D01*
X71993222Y-68335622D01*
X71871405Y-68435594D01*
X71752190Y-68499316D01*
X71732428Y-68509879D01*
X71581627Y-68555624D01*
X71503271Y-68563341D01*
X71464094Y-68567200D01*
X71385506Y-68567200D01*
X71346329Y-68563341D01*
X71267973Y-68555624D01*
X71117172Y-68509879D01*
X71097410Y-68499316D01*
X70978195Y-68435594D01*
X70856378Y-68335622D01*
X70756406Y-68213805D01*
X70682122Y-68074830D01*
X70682121Y-68074828D01*
X70636376Y-67924027D01*
X70620930Y-67767200D01*
X70636376Y-67610373D01*
X70682121Y-67459572D01*
X70707341Y-67412389D01*
X70756406Y-67320595D01*
X70856378Y-67198778D01*
X70978195Y-67098806D01*
X71117170Y-67024522D01*
X71117172Y-67024521D01*
X71267973Y-66978776D01*
X71346329Y-66971059D01*
X71385506Y-66967200D01*
X71464094Y-66967200D01*
X71503271Y-66971059D01*
X71503271Y-66971059D01*
G37*
G36*
X75618071Y-66971059D02*
G01*
X75696427Y-66978776D01*
X75847228Y-67024521D01*
X75847230Y-67024522D01*
X75986205Y-67098806D01*
X76108022Y-67198778D01*
X76207994Y-67320595D01*
X76257059Y-67412389D01*
X76282279Y-67459572D01*
X76328024Y-67610373D01*
X76343470Y-67767200D01*
X76328024Y-67924027D01*
X76282279Y-68074828D01*
X76282278Y-68074830D01*
X76207994Y-68213805D01*
X76108022Y-68335622D01*
X75986205Y-68435594D01*
X75866990Y-68499316D01*
X75847228Y-68509879D01*
X75696427Y-68555624D01*
X75618071Y-68563341D01*
X75578894Y-68567200D01*
X75500306Y-68567200D01*
X75461129Y-68563341D01*
X75382773Y-68555624D01*
X75231972Y-68509879D01*
X75212210Y-68499316D01*
X75092995Y-68435594D01*
X74971178Y-68335622D01*
X74871206Y-68213805D01*
X74796922Y-68074830D01*
X74796921Y-68074828D01*
X74751176Y-67924027D01*
X74735730Y-67767200D01*
X74751176Y-67610373D01*
X74796921Y-67459572D01*
X74822141Y-67412389D01*
X74871206Y-67320595D01*
X74971178Y-67198778D01*
X75092995Y-67098806D01*
X75231970Y-67024522D01*
X75231972Y-67024521D01*
X75382773Y-66978776D01*
X75461129Y-66971059D01*
X75500306Y-66967200D01*
X75578894Y-66967200D01*
X75618071Y-66971059D01*
X75618071Y-66971059D01*
G37*
G36*
X63181870Y-62576859D02*
G01*
X63375068Y-62615288D01*
X63921033Y-62841434D01*
X64168378Y-63006705D01*
X64412388Y-63169747D01*
X64830253Y-63587612D01*
X64887558Y-63673375D01*
X65097134Y-63987027D01*
X65158567Y-64078969D01*
X65159863Y-64082098D01*
X65384712Y-64624932D01*
X65401129Y-64707465D01*
X65500000Y-65204524D01*
X65500000Y-65795476D01*
X65471587Y-65938316D01*
X65384712Y-66375068D01*
X65295933Y-66589400D01*
X65159863Y-66917903D01*
X65158566Y-66921033D01*
X65052728Y-67079430D01*
X64830253Y-67412388D01*
X64412388Y-67830253D01*
X64205723Y-67968342D01*
X63921033Y-68158566D01*
X63921032Y-68158567D01*
X63921031Y-68158567D01*
X63787674Y-68213805D01*
X63375068Y-68384712D01*
X63181870Y-68423141D01*
X62795476Y-68500000D01*
X62204524Y-68500000D01*
X61818130Y-68423141D01*
X61624932Y-68384712D01*
X61212326Y-68213805D01*
X61078969Y-68158567D01*
X61078968Y-68158567D01*
X61078967Y-68158566D01*
X60794277Y-67968342D01*
X60587612Y-67830253D01*
X60169747Y-67412388D01*
X59947272Y-67079430D01*
X59841434Y-66921033D01*
X59840138Y-66917903D01*
X59704067Y-66589400D01*
X59615288Y-66375068D01*
X59528413Y-65938316D01*
X59500000Y-65795476D01*
X59500000Y-65204524D01*
X59598871Y-64707465D01*
X59615288Y-64624932D01*
X59840137Y-64082098D01*
X59841433Y-64078969D01*
X59902867Y-63987027D01*
X60112442Y-63673375D01*
X60169747Y-63587612D01*
X60587612Y-63169747D01*
X60831622Y-63006705D01*
X61078967Y-62841434D01*
X61624932Y-62615288D01*
X61818130Y-62576859D01*
X62204524Y-62500000D01*
X62795476Y-62500000D01*
X63181870Y-62576859D01*
X63181870Y-62576859D01*
G37*
G36*
X199189071Y-66793259D02*
G01*
X199267427Y-66800976D01*
X199418228Y-66846721D01*
X199418230Y-66846722D01*
X199557205Y-66921006D01*
X199679022Y-67020978D01*
X199778994Y-67142795D01*
X199815161Y-67210458D01*
X199853279Y-67281772D01*
X199899024Y-67432573D01*
X199914470Y-67589400D01*
X199899024Y-67746227D01*
X199853279Y-67897028D01*
X199853278Y-67897030D01*
X199778994Y-68036005D01*
X199679022Y-68157822D01*
X199557205Y-68257794D01*
X199418230Y-68332078D01*
X199418228Y-68332079D01*
X199267427Y-68377824D01*
X199197491Y-68384712D01*
X199149894Y-68389400D01*
X199071306Y-68389400D01*
X199023709Y-68384712D01*
X198953773Y-68377824D01*
X198802972Y-68332079D01*
X198802970Y-68332078D01*
X198663995Y-68257794D01*
X198542178Y-68157822D01*
X198442206Y-68036005D01*
X198367922Y-67897030D01*
X198367921Y-67897028D01*
X198322176Y-67746227D01*
X198306730Y-67589400D01*
X198322176Y-67432573D01*
X198367921Y-67281772D01*
X198406039Y-67210458D01*
X198442206Y-67142795D01*
X198542178Y-67020978D01*
X198663995Y-66921006D01*
X198802970Y-66846722D01*
X198802972Y-66846721D01*
X198953773Y-66800976D01*
X199032129Y-66793259D01*
X199071306Y-66789400D01*
X199149894Y-66789400D01*
X199189071Y-66793259D01*
X199189071Y-66793259D01*
G37*
G36*
X186643951Y-66820143D02*
G01*
X186789541Y-66880448D01*
X186920570Y-66967999D01*
X187032001Y-67079430D01*
X187119552Y-67210459D01*
X187179857Y-67356049D01*
X187210600Y-67510606D01*
X187210600Y-67668194D01*
X187179857Y-67822751D01*
X187119552Y-67968341D01*
X187032001Y-68099370D01*
X186920570Y-68210801D01*
X186789541Y-68298352D01*
X186643951Y-68358657D01*
X186489394Y-68389400D01*
X186331806Y-68389400D01*
X186177249Y-68358657D01*
X186031659Y-68298352D01*
X185900630Y-68210801D01*
X185789199Y-68099370D01*
X185701648Y-67968341D01*
X185641343Y-67822751D01*
X185610600Y-67668194D01*
X185610600Y-67510606D01*
X185641343Y-67356049D01*
X185701648Y-67210459D01*
X185789199Y-67079430D01*
X185900630Y-66967999D01*
X186031659Y-66880448D01*
X186177249Y-66820143D01*
X186331806Y-66789400D01*
X186489394Y-66789400D01*
X186643951Y-66820143D01*
X186643951Y-66820143D01*
G37*
G36*
X232966703Y-63961486D02*
G01*
X233257883Y-64082097D01*
X233519940Y-64257198D01*
X233742802Y-64480060D01*
X233917903Y-64742117D01*
X234038514Y-65033297D01*
X234100000Y-65342412D01*
X234100000Y-65657588D01*
X234038514Y-65966703D01*
X233917903Y-66257883D01*
X233742802Y-66519940D01*
X233519940Y-66742802D01*
X233257883Y-66917903D01*
X232966703Y-67038514D01*
X232657588Y-67100000D01*
X232342412Y-67100000D01*
X232033297Y-67038514D01*
X231742117Y-66917903D01*
X231480060Y-66742802D01*
X231257198Y-66519940D01*
X231082097Y-66257883D01*
X230961486Y-65966703D01*
X230900000Y-65657588D01*
X230900000Y-65342412D01*
X230961486Y-65033297D01*
X231082097Y-64742117D01*
X231257198Y-64480060D01*
X231480060Y-64257198D01*
X231742117Y-64082097D01*
X232033297Y-63961486D01*
X232342412Y-63900000D01*
X232657588Y-63900000D01*
X232966703Y-63961486D01*
X232966703Y-63961486D01*
G37*
G36*
X212937210Y-64613236D02*
G01*
X213164695Y-64707464D01*
X213164697Y-64707465D01*
X213216557Y-64742117D01*
X213369428Y-64844262D01*
X213543538Y-65018372D01*
X213680336Y-65223105D01*
X213774564Y-65450590D01*
X213822600Y-65692084D01*
X213822600Y-65938316D01*
X213774564Y-66179810D01*
X213742224Y-66257884D01*
X213680335Y-66407297D01*
X213543538Y-66612028D01*
X213369428Y-66786138D01*
X213164697Y-66922935D01*
X213164696Y-66922936D01*
X213164695Y-66922936D01*
X212937210Y-67017164D01*
X212695716Y-67065200D01*
X212449484Y-67065200D01*
X212207990Y-67017164D01*
X211980505Y-66922936D01*
X211980504Y-66922936D01*
X211980503Y-66922935D01*
X211775772Y-66786138D01*
X211601662Y-66612028D01*
X211464865Y-66407297D01*
X211402976Y-66257884D01*
X211370636Y-66179810D01*
X211322600Y-65938316D01*
X211322600Y-65692084D01*
X211370636Y-65450590D01*
X211464864Y-65223105D01*
X211601662Y-65018372D01*
X211775772Y-64844262D01*
X211928643Y-64742117D01*
X211980503Y-64707465D01*
X211980505Y-64707464D01*
X212207990Y-64613236D01*
X212449484Y-64565200D01*
X212695716Y-64565200D01*
X212937210Y-64613236D01*
X212937210Y-64613236D01*
G37*
G36*
X243207271Y-63034059D02*
G01*
X243285627Y-63041776D01*
X243436428Y-63087521D01*
X243436430Y-63087522D01*
X243575405Y-63161806D01*
X243575407Y-63161807D01*
X243575406Y-63161807D01*
X243697222Y-63261778D01*
X243797193Y-63383594D01*
X243871479Y-63522572D01*
X243917224Y-63673373D01*
X243932670Y-63830200D01*
X243917224Y-63987027D01*
X243871479Y-64137828D01*
X243871478Y-64137830D01*
X243797194Y-64276805D01*
X243697222Y-64398622D01*
X243575405Y-64498594D01*
X243450794Y-64565200D01*
X243436428Y-64572879D01*
X243285627Y-64618624D01*
X243221580Y-64624932D01*
X243168094Y-64630200D01*
X243089506Y-64630200D01*
X243036020Y-64624932D01*
X242971973Y-64618624D01*
X242821172Y-64572879D01*
X242806806Y-64565200D01*
X242682195Y-64498594D01*
X242560378Y-64398622D01*
X242460406Y-64276805D01*
X242386122Y-64137830D01*
X242386121Y-64137828D01*
X242340376Y-63987027D01*
X242324930Y-63830200D01*
X242340376Y-63673373D01*
X242386121Y-63522572D01*
X242460407Y-63383594D01*
X242560378Y-63261778D01*
X242682194Y-63161807D01*
X242682193Y-63161807D01*
X242682195Y-63161806D01*
X242821170Y-63087522D01*
X242821172Y-63087521D01*
X242971973Y-63041776D01*
X243050329Y-63034059D01*
X243089506Y-63030200D01*
X243168094Y-63030200D01*
X243207271Y-63034059D01*
X243207271Y-63034059D01*
G37*
G36*
X206357400Y-62593400D02*
G01*
X204157400Y-62593400D01*
X204157400Y-60393400D01*
X206357400Y-60393400D01*
X206357400Y-62593400D01*
X206357400Y-62593400D01*
G37*
G36*
X222666627Y-60662299D02*
G01*
X222746742Y-60686601D01*
X222826855Y-60710903D01*
X222826857Y-60710904D01*
X222974518Y-60789831D01*
X223103949Y-60896051D01*
X223210169Y-61025482D01*
X223289096Y-61173143D01*
X223337701Y-61333373D01*
X223354112Y-61500000D01*
X223337701Y-61666627D01*
X223289096Y-61826857D01*
X223210169Y-61974518D01*
X223103949Y-62103949D01*
X222974518Y-62210169D01*
X222826857Y-62289096D01*
X222826855Y-62289097D01*
X222746742Y-62313398D01*
X222666627Y-62337701D01*
X222541752Y-62350000D01*
X222458248Y-62350000D01*
X222333373Y-62337701D01*
X222253258Y-62313398D01*
X222173145Y-62289097D01*
X222173143Y-62289096D01*
X222025482Y-62210169D01*
X221896051Y-62103949D01*
X221789831Y-61974518D01*
X221710904Y-61826857D01*
X221662299Y-61666627D01*
X221645888Y-61500000D01*
X221662299Y-61333373D01*
X221710904Y-61173143D01*
X221789831Y-61025482D01*
X221896051Y-60896051D01*
X222025482Y-60789831D01*
X222173143Y-60710904D01*
X222173145Y-60710903D01*
X222253258Y-60686601D01*
X222333373Y-60662299D01*
X222458248Y-60650000D01*
X222541752Y-60650000D01*
X222666627Y-60662299D01*
X222666627Y-60662299D01*
G37*
G36*
X220810000Y-62350000D02*
G01*
X219110000Y-62350000D01*
X219110000Y-60650000D01*
X220810000Y-60650000D01*
X220810000Y-62350000D01*
X220810000Y-62350000D01*
G37*
G36*
X138810000Y-62350000D02*
G01*
X137110000Y-62350000D01*
X137110000Y-60650000D01*
X138810000Y-60650000D01*
X138810000Y-62350000D01*
X138810000Y-62350000D01*
G37*
G36*
X140666627Y-60662299D02*
G01*
X140746742Y-60686601D01*
X140826855Y-60710903D01*
X140826857Y-60710904D01*
X140974518Y-60789831D01*
X141103949Y-60896051D01*
X141210169Y-61025482D01*
X141289096Y-61173143D01*
X141337701Y-61333373D01*
X141354112Y-61500000D01*
X141337701Y-61666627D01*
X141289096Y-61826857D01*
X141210169Y-61974518D01*
X141103949Y-62103949D01*
X140974518Y-62210169D01*
X140826857Y-62289096D01*
X140826855Y-62289097D01*
X140746742Y-62313398D01*
X140666627Y-62337701D01*
X140541752Y-62350000D01*
X140458248Y-62350000D01*
X140333373Y-62337701D01*
X140253258Y-62313398D01*
X140173145Y-62289097D01*
X140173143Y-62289096D01*
X140025482Y-62210169D01*
X139896051Y-62103949D01*
X139789831Y-61974518D01*
X139710904Y-61826857D01*
X139662299Y-61666627D01*
X139645888Y-61500000D01*
X139662299Y-61333373D01*
X139710904Y-61173143D01*
X139789831Y-61025482D01*
X139896051Y-60896051D01*
X140025482Y-60789831D01*
X140173143Y-60710904D01*
X140173145Y-60710903D01*
X140253258Y-60686601D01*
X140333373Y-60662299D01*
X140458248Y-60650000D01*
X140541752Y-60650000D01*
X140666627Y-60662299D01*
X140666627Y-60662299D01*
G37*
M02*
