G04 #@! TF.GenerationSoftware,KiCad,Pcbnew,5.1.4+dfsg1-1*
G04 #@! TF.CreationDate,2019-10-02T13:31:48+02:00*
G04 #@! TF.ProjectId,fat_bastard_lead,6661745f-6261-4737-9461-72645f6c6561,rev?*
G04 #@! TF.SameCoordinates,Original*
G04 #@! TF.FileFunction,Soldermask,Bot*
G04 #@! TF.FilePolarity,Negative*
%FSLAX46Y46*%
G04 Gerber Fmt 4.6, Leading zero omitted, Abs format (unit mm)*
G04 Created by KiCad (PCBNEW 5.1.4+dfsg1-1) date 2019-10-02 13:31:48*
%MOMM*%
%LPD*%
G04 APERTURE LIST*
%ADD10C,0.100000*%
G04 APERTURE END LIST*
D10*
G36*
X196232090Y-88459019D02*
G01*
X196296489Y-88471829D01*
X196478478Y-88547211D01*
X196642263Y-88656649D01*
X196781551Y-88795937D01*
X196890989Y-88959722D01*
X196966371Y-89141711D01*
X196973458Y-89177341D01*
X197004800Y-89334907D01*
X197004800Y-89531893D01*
X196979181Y-89660690D01*
X196966371Y-89725089D01*
X196890989Y-89907078D01*
X196781551Y-90070863D01*
X196642263Y-90210151D01*
X196478478Y-90319589D01*
X196296489Y-90394971D01*
X196232090Y-90407781D01*
X196103293Y-90433400D01*
X195906307Y-90433400D01*
X195777510Y-90407781D01*
X195713111Y-90394971D01*
X195531122Y-90319589D01*
X195367337Y-90210151D01*
X195228049Y-90070863D01*
X195118611Y-89907078D01*
X195043229Y-89725089D01*
X195030419Y-89660690D01*
X195004800Y-89531893D01*
X195004800Y-89334907D01*
X195036142Y-89177341D01*
X195043229Y-89141711D01*
X195118611Y-88959722D01*
X195228049Y-88795937D01*
X195367337Y-88656649D01*
X195531122Y-88547211D01*
X195713111Y-88471829D01*
X195777510Y-88459019D01*
X195906307Y-88433400D01*
X196103293Y-88433400D01*
X196232090Y-88459019D01*
X196232090Y-88459019D01*
G37*
G36*
X203732090Y-88459019D02*
G01*
X203796489Y-88471829D01*
X203978478Y-88547211D01*
X204142263Y-88656649D01*
X204281551Y-88795937D01*
X204390989Y-88959722D01*
X204466371Y-89141711D01*
X204473458Y-89177341D01*
X204504800Y-89334907D01*
X204504800Y-89531893D01*
X204479181Y-89660690D01*
X204466371Y-89725089D01*
X204390989Y-89907078D01*
X204281551Y-90070863D01*
X204142263Y-90210151D01*
X203978478Y-90319589D01*
X203796489Y-90394971D01*
X203732090Y-90407781D01*
X203603293Y-90433400D01*
X203406307Y-90433400D01*
X203277510Y-90407781D01*
X203213111Y-90394971D01*
X203031122Y-90319589D01*
X202867337Y-90210151D01*
X202728049Y-90070863D01*
X202618611Y-89907078D01*
X202543229Y-89725089D01*
X202530419Y-89660690D01*
X202504800Y-89531893D01*
X202504800Y-89334907D01*
X202536142Y-89177341D01*
X202543229Y-89141711D01*
X202618611Y-88959722D01*
X202728049Y-88795937D01*
X202867337Y-88656649D01*
X203031122Y-88547211D01*
X203213111Y-88471829D01*
X203277510Y-88459019D01*
X203406307Y-88433400D01*
X203603293Y-88433400D01*
X203732090Y-88459019D01*
X203732090Y-88459019D01*
G37*
G36*
X198732090Y-88459019D02*
G01*
X198796489Y-88471829D01*
X198978478Y-88547211D01*
X199142263Y-88656649D01*
X199281551Y-88795937D01*
X199390989Y-88959722D01*
X199466371Y-89141711D01*
X199473458Y-89177341D01*
X199504800Y-89334907D01*
X199504800Y-89531893D01*
X199479181Y-89660690D01*
X199466371Y-89725089D01*
X199390989Y-89907078D01*
X199281551Y-90070863D01*
X199142263Y-90210151D01*
X198978478Y-90319589D01*
X198796489Y-90394971D01*
X198732090Y-90407781D01*
X198603293Y-90433400D01*
X198406307Y-90433400D01*
X198277510Y-90407781D01*
X198213111Y-90394971D01*
X198031122Y-90319589D01*
X197867337Y-90210151D01*
X197728049Y-90070863D01*
X197618611Y-89907078D01*
X197543229Y-89725089D01*
X197530419Y-89660690D01*
X197504800Y-89531893D01*
X197504800Y-89334907D01*
X197536142Y-89177341D01*
X197543229Y-89141711D01*
X197618611Y-88959722D01*
X197728049Y-88795937D01*
X197867337Y-88656649D01*
X198031122Y-88547211D01*
X198213111Y-88471829D01*
X198277510Y-88459019D01*
X198406307Y-88433400D01*
X198603293Y-88433400D01*
X198732090Y-88459019D01*
X198732090Y-88459019D01*
G37*
G36*
X206232090Y-88459019D02*
G01*
X206296489Y-88471829D01*
X206478478Y-88547211D01*
X206642263Y-88656649D01*
X206781551Y-88795937D01*
X206890989Y-88959722D01*
X206966371Y-89141711D01*
X206973458Y-89177341D01*
X207004800Y-89334907D01*
X207004800Y-89531893D01*
X206979181Y-89660690D01*
X206966371Y-89725089D01*
X206890989Y-89907078D01*
X206781551Y-90070863D01*
X206642263Y-90210151D01*
X206478478Y-90319589D01*
X206296489Y-90394971D01*
X206232090Y-90407781D01*
X206103293Y-90433400D01*
X205906307Y-90433400D01*
X205777510Y-90407781D01*
X205713111Y-90394971D01*
X205531122Y-90319589D01*
X205367337Y-90210151D01*
X205228049Y-90070863D01*
X205118611Y-89907078D01*
X205043229Y-89725089D01*
X205030419Y-89660690D01*
X205004800Y-89531893D01*
X205004800Y-89334907D01*
X205036142Y-89177341D01*
X205043229Y-89141711D01*
X205118611Y-88959722D01*
X205228049Y-88795937D01*
X205367337Y-88656649D01*
X205531122Y-88547211D01*
X205713111Y-88471829D01*
X205777510Y-88459019D01*
X205906307Y-88433400D01*
X206103293Y-88433400D01*
X206232090Y-88459019D01*
X206232090Y-88459019D01*
G37*
G36*
X121977090Y-87824019D02*
G01*
X122041489Y-87836829D01*
X122223478Y-87912211D01*
X122387263Y-88021649D01*
X122526551Y-88160937D01*
X122635989Y-88324722D01*
X122711371Y-88506711D01*
X122711371Y-88506712D01*
X122749800Y-88699907D01*
X122749800Y-88896893D01*
X122733144Y-88980627D01*
X122711371Y-89090089D01*
X122635989Y-89272078D01*
X122526551Y-89435863D01*
X122387263Y-89575151D01*
X122223478Y-89684589D01*
X122041489Y-89759971D01*
X121977090Y-89772781D01*
X121848293Y-89798400D01*
X121651307Y-89798400D01*
X121522510Y-89772781D01*
X121458111Y-89759971D01*
X121276122Y-89684589D01*
X121112337Y-89575151D01*
X120973049Y-89435863D01*
X120863611Y-89272078D01*
X120788229Y-89090089D01*
X120766456Y-88980627D01*
X120749800Y-88896893D01*
X120749800Y-88699907D01*
X120788229Y-88506712D01*
X120788229Y-88506711D01*
X120863611Y-88324722D01*
X120973049Y-88160937D01*
X121112337Y-88021649D01*
X121276122Y-87912211D01*
X121458111Y-87836829D01*
X121522510Y-87824019D01*
X121651307Y-87798400D01*
X121848293Y-87798400D01*
X121977090Y-87824019D01*
X121977090Y-87824019D01*
G37*
G36*
X131977090Y-87824019D02*
G01*
X132041489Y-87836829D01*
X132223478Y-87912211D01*
X132387263Y-88021649D01*
X132526551Y-88160937D01*
X132635989Y-88324722D01*
X132711371Y-88506711D01*
X132711371Y-88506712D01*
X132749800Y-88699907D01*
X132749800Y-88896893D01*
X132733144Y-88980627D01*
X132711371Y-89090089D01*
X132635989Y-89272078D01*
X132526551Y-89435863D01*
X132387263Y-89575151D01*
X132223478Y-89684589D01*
X132041489Y-89759971D01*
X131977090Y-89772781D01*
X131848293Y-89798400D01*
X131651307Y-89798400D01*
X131522510Y-89772781D01*
X131458111Y-89759971D01*
X131276122Y-89684589D01*
X131112337Y-89575151D01*
X130973049Y-89435863D01*
X130863611Y-89272078D01*
X130788229Y-89090089D01*
X130766456Y-88980627D01*
X130749800Y-88896893D01*
X130749800Y-88699907D01*
X130788229Y-88506712D01*
X130788229Y-88506711D01*
X130863611Y-88324722D01*
X130973049Y-88160937D01*
X131112337Y-88021649D01*
X131276122Y-87912211D01*
X131458111Y-87836829D01*
X131522510Y-87824019D01*
X131651307Y-87798400D01*
X131848293Y-87798400D01*
X131977090Y-87824019D01*
X131977090Y-87824019D01*
G37*
G36*
X104116871Y-88027659D02*
G01*
X104195227Y-88035376D01*
X104346028Y-88081121D01*
X104346030Y-88081122D01*
X104485005Y-88155406D01*
X104606822Y-88255378D01*
X104706794Y-88377195D01*
X104781078Y-88516170D01*
X104781079Y-88516172D01*
X104826824Y-88666973D01*
X104842270Y-88823800D01*
X104826824Y-88980627D01*
X104788784Y-89106028D01*
X104781078Y-89131430D01*
X104706794Y-89270405D01*
X104606822Y-89392222D01*
X104485005Y-89492194D01*
X104393548Y-89541079D01*
X104346028Y-89566479D01*
X104195227Y-89612224D01*
X104116871Y-89619941D01*
X104077694Y-89623800D01*
X103999106Y-89623800D01*
X103959929Y-89619941D01*
X103881573Y-89612224D01*
X103730772Y-89566479D01*
X103683252Y-89541079D01*
X103591795Y-89492194D01*
X103469978Y-89392222D01*
X103370006Y-89270405D01*
X103295722Y-89131430D01*
X103288016Y-89106028D01*
X103249976Y-88980627D01*
X103234530Y-88823800D01*
X103249976Y-88666973D01*
X103295721Y-88516172D01*
X103295722Y-88516170D01*
X103370006Y-88377195D01*
X103469978Y-88255378D01*
X103591795Y-88155406D01*
X103730770Y-88081122D01*
X103730772Y-88081121D01*
X103881573Y-88035376D01*
X103959929Y-88027659D01*
X103999106Y-88023800D01*
X104077694Y-88023800D01*
X104116871Y-88027659D01*
X104116871Y-88027659D01*
G37*
G36*
X138612551Y-88029143D02*
G01*
X138758141Y-88089448D01*
X138889170Y-88176999D01*
X139000601Y-88288430D01*
X139088152Y-88419459D01*
X139148457Y-88565049D01*
X139179200Y-88719606D01*
X139179200Y-88877194D01*
X139148457Y-89031751D01*
X139088152Y-89177341D01*
X139000601Y-89308370D01*
X138889170Y-89419801D01*
X138758141Y-89507352D01*
X138612551Y-89567657D01*
X138457994Y-89598400D01*
X138300406Y-89598400D01*
X138145849Y-89567657D01*
X138000259Y-89507352D01*
X137869230Y-89419801D01*
X137757799Y-89308370D01*
X137670248Y-89177341D01*
X137609943Y-89031751D01*
X137579200Y-88877194D01*
X137579200Y-88719606D01*
X137609943Y-88565049D01*
X137670248Y-88419459D01*
X137757799Y-88288430D01*
X137869230Y-88176999D01*
X138000259Y-88089448D01*
X138145849Y-88029143D01*
X138300406Y-87998400D01*
X138457994Y-87998400D01*
X138612551Y-88029143D01*
X138612551Y-88029143D01*
G37*
G36*
X151157671Y-88002259D02*
G01*
X151236027Y-88009976D01*
X151386828Y-88055721D01*
X151386830Y-88055722D01*
X151525805Y-88130006D01*
X151647622Y-88229978D01*
X151747594Y-88351795D01*
X151767698Y-88389407D01*
X151821879Y-88490772D01*
X151867624Y-88641573D01*
X151883070Y-88798400D01*
X151867624Y-88955227D01*
X151821879Y-89106028D01*
X151821878Y-89106030D01*
X151747594Y-89245005D01*
X151647622Y-89366822D01*
X151525805Y-89466794D01*
X151404014Y-89531893D01*
X151386828Y-89541079D01*
X151236027Y-89586824D01*
X151157671Y-89594541D01*
X151118494Y-89598400D01*
X151039906Y-89598400D01*
X151000729Y-89594541D01*
X150922373Y-89586824D01*
X150771572Y-89541079D01*
X150754386Y-89531893D01*
X150632595Y-89466794D01*
X150510778Y-89366822D01*
X150410806Y-89245005D01*
X150336522Y-89106030D01*
X150336521Y-89106028D01*
X150290776Y-88955227D01*
X150275330Y-88798400D01*
X150290776Y-88641573D01*
X150336521Y-88490772D01*
X150390702Y-88389407D01*
X150410806Y-88351795D01*
X150510778Y-88229978D01*
X150632595Y-88130006D01*
X150771570Y-88055722D01*
X150771572Y-88055721D01*
X150922373Y-88009976D01*
X151000729Y-88002259D01*
X151039906Y-87998400D01*
X151118494Y-87998400D01*
X151157671Y-88002259D01*
X151157671Y-88002259D01*
G37*
G36*
X227741151Y-87698943D02*
G01*
X227886741Y-87759248D01*
X228017770Y-87846799D01*
X228129201Y-87958230D01*
X228216752Y-88089259D01*
X228277057Y-88234849D01*
X228307800Y-88389406D01*
X228307800Y-88546994D01*
X228277057Y-88701551D01*
X228216752Y-88847141D01*
X228129201Y-88978170D01*
X228017770Y-89089601D01*
X227886741Y-89177152D01*
X227741151Y-89237457D01*
X227586594Y-89268200D01*
X227429006Y-89268200D01*
X227274449Y-89237457D01*
X227128859Y-89177152D01*
X226997830Y-89089601D01*
X226886399Y-88978170D01*
X226798848Y-88847141D01*
X226738543Y-88701551D01*
X226707800Y-88546994D01*
X226707800Y-88389406D01*
X226738543Y-88234849D01*
X226798848Y-88089259D01*
X226886399Y-87958230D01*
X226997830Y-87846799D01*
X227128859Y-87759248D01*
X227274449Y-87698943D01*
X227429006Y-87668200D01*
X227586594Y-87668200D01*
X227741151Y-87698943D01*
X227741151Y-87698943D01*
G37*
G36*
X214886271Y-87672059D02*
G01*
X214964627Y-87679776D01*
X215115428Y-87725521D01*
X215115430Y-87725522D01*
X215254405Y-87799806D01*
X215376222Y-87899778D01*
X215476194Y-88021595D01*
X215494435Y-88055722D01*
X215550479Y-88160572D01*
X215596224Y-88311373D01*
X215611670Y-88468200D01*
X215596224Y-88625027D01*
X215550479Y-88775828D01*
X215550478Y-88775830D01*
X215476194Y-88914805D01*
X215376222Y-89036622D01*
X215254405Y-89136594D01*
X215178173Y-89177341D01*
X215115428Y-89210879D01*
X214964627Y-89256624D01*
X214886271Y-89264341D01*
X214847094Y-89268200D01*
X214768506Y-89268200D01*
X214729329Y-89264341D01*
X214650973Y-89256624D01*
X214500172Y-89210879D01*
X214437427Y-89177341D01*
X214361195Y-89136594D01*
X214239378Y-89036622D01*
X214139406Y-88914805D01*
X214065122Y-88775830D01*
X214065121Y-88775828D01*
X214019376Y-88625027D01*
X214003930Y-88468200D01*
X214019376Y-88311373D01*
X214065121Y-88160572D01*
X214121165Y-88055722D01*
X214139406Y-88021595D01*
X214239378Y-87899778D01*
X214361195Y-87799806D01*
X214500170Y-87725522D01*
X214500172Y-87725521D01*
X214650973Y-87679776D01*
X214729329Y-87672059D01*
X214768506Y-87668200D01*
X214847094Y-87668200D01*
X214886271Y-87672059D01*
X214886271Y-87672059D01*
G37*
G36*
X108380490Y-87163619D02*
G01*
X108444889Y-87176429D01*
X108626878Y-87251811D01*
X108790663Y-87361249D01*
X108929951Y-87500537D01*
X109039389Y-87664322D01*
X109095508Y-87799806D01*
X109114771Y-87846312D01*
X109153200Y-88039507D01*
X109153200Y-88236493D01*
X109142869Y-88288430D01*
X109114771Y-88429689D01*
X109039389Y-88611678D01*
X108929951Y-88775463D01*
X108790663Y-88914751D01*
X108626878Y-89024189D01*
X108444889Y-89099571D01*
X108412427Y-89106028D01*
X108251693Y-89138000D01*
X108054707Y-89138000D01*
X107893973Y-89106028D01*
X107861511Y-89099571D01*
X107679522Y-89024189D01*
X107515737Y-88914751D01*
X107376449Y-88775463D01*
X107267011Y-88611678D01*
X107191629Y-88429689D01*
X107163531Y-88288430D01*
X107153200Y-88236493D01*
X107153200Y-88039507D01*
X107191629Y-87846312D01*
X107210892Y-87799806D01*
X107267011Y-87664322D01*
X107376449Y-87500537D01*
X107515737Y-87361249D01*
X107679522Y-87251811D01*
X107861511Y-87176429D01*
X107925910Y-87163619D01*
X108054707Y-87138000D01*
X108251693Y-87138000D01*
X108380490Y-87163619D01*
X108380490Y-87163619D01*
G37*
G36*
X118380490Y-87163619D02*
G01*
X118444889Y-87176429D01*
X118626878Y-87251811D01*
X118790663Y-87361249D01*
X118929951Y-87500537D01*
X119039389Y-87664322D01*
X119095508Y-87799806D01*
X119114771Y-87846312D01*
X119153200Y-88039507D01*
X119153200Y-88236493D01*
X119142869Y-88288430D01*
X119114771Y-88429689D01*
X119039389Y-88611678D01*
X118929951Y-88775463D01*
X118790663Y-88914751D01*
X118626878Y-89024189D01*
X118444889Y-89099571D01*
X118412427Y-89106028D01*
X118251693Y-89138000D01*
X118054707Y-89138000D01*
X117893973Y-89106028D01*
X117861511Y-89099571D01*
X117679522Y-89024189D01*
X117515737Y-88914751D01*
X117376449Y-88775463D01*
X117267011Y-88611678D01*
X117191629Y-88429689D01*
X117163531Y-88288430D01*
X117153200Y-88236493D01*
X117153200Y-88039507D01*
X117191629Y-87846312D01*
X117210892Y-87799806D01*
X117267011Y-87664322D01*
X117376449Y-87500537D01*
X117515737Y-87361249D01*
X117679522Y-87251811D01*
X117861511Y-87176429D01*
X117925910Y-87163619D01*
X118054707Y-87138000D01*
X118251693Y-87138000D01*
X118380490Y-87163619D01*
X118380490Y-87163619D01*
G37*
G36*
X168498026Y-85002915D02*
G01*
X168716411Y-85093373D01*
X168716413Y-85093374D01*
X168912955Y-85224699D01*
X169080101Y-85391845D01*
X169169394Y-85525481D01*
X169211427Y-85588389D01*
X169301885Y-85806774D01*
X169348000Y-86038609D01*
X169348000Y-86274991D01*
X169301885Y-86506826D01*
X169211427Y-86725211D01*
X169211426Y-86725213D01*
X169080101Y-86921755D01*
X168912955Y-87088901D01*
X168716413Y-87220226D01*
X168716412Y-87220227D01*
X168716411Y-87220227D01*
X168498026Y-87310685D01*
X168266191Y-87356800D01*
X168029809Y-87356800D01*
X167797974Y-87310685D01*
X167579589Y-87220227D01*
X167579588Y-87220227D01*
X167579587Y-87220226D01*
X167383045Y-87088901D01*
X167215899Y-86921755D01*
X167084574Y-86725213D01*
X167084573Y-86725211D01*
X166994115Y-86506826D01*
X166948000Y-86274991D01*
X166948000Y-86038609D01*
X166994115Y-85806774D01*
X167084573Y-85588389D01*
X167126607Y-85525481D01*
X167215899Y-85391845D01*
X167383045Y-85224699D01*
X167579587Y-85093374D01*
X167579589Y-85093373D01*
X167797974Y-85002915D01*
X168029809Y-84956800D01*
X168266191Y-84956800D01*
X168498026Y-85002915D01*
X168498026Y-85002915D01*
G37*
G36*
X160287399Y-83584399D02*
G01*
X160287401Y-83584401D01*
X160288005Y-83590537D01*
X160288005Y-84578263D01*
X160287401Y-84584399D01*
X160287399Y-84584401D01*
X160281263Y-84585005D01*
X160263004Y-84585005D01*
X160238618Y-84587407D01*
X160215169Y-84594520D01*
X160193558Y-84606071D01*
X160174616Y-84621616D01*
X160159071Y-84640558D01*
X160147520Y-84662169D01*
X160140407Y-84685618D01*
X160138005Y-84710004D01*
X160138005Y-84759401D01*
X160140407Y-84783787D01*
X160147520Y-84807236D01*
X160159071Y-84828847D01*
X160174616Y-84847789D01*
X160193558Y-84863334D01*
X160215169Y-84874885D01*
X160238618Y-84881998D01*
X160263004Y-84884400D01*
X160287400Y-84884400D01*
X160287400Y-85563825D01*
X160289802Y-85588211D01*
X160296915Y-85611660D01*
X160302160Y-85622749D01*
X160329096Y-85673143D01*
X160377701Y-85833373D01*
X160394112Y-86000000D01*
X160377701Y-86166627D01*
X160329096Y-86326857D01*
X160250169Y-86474518D01*
X160143949Y-86603949D01*
X160014518Y-86710169D01*
X159866857Y-86789096D01*
X159866855Y-86789097D01*
X159786742Y-86813398D01*
X159706627Y-86837701D01*
X159581752Y-86850000D01*
X159498248Y-86850000D01*
X159373373Y-86837701D01*
X159293258Y-86813398D01*
X159213145Y-86789097D01*
X159213143Y-86789096D01*
X159065482Y-86710169D01*
X158936051Y-86603949D01*
X158829831Y-86474518D01*
X158750904Y-86326857D01*
X158702299Y-86166627D01*
X158685888Y-86000000D01*
X158702299Y-85833373D01*
X158750903Y-85673145D01*
X158772640Y-85632479D01*
X158782017Y-85609840D01*
X158786798Y-85585807D01*
X158787400Y-85573554D01*
X158787400Y-84884400D01*
X158811796Y-84884400D01*
X158836182Y-84881998D01*
X158859631Y-84874885D01*
X158881242Y-84863334D01*
X158900184Y-84847789D01*
X158915729Y-84828847D01*
X158927280Y-84807236D01*
X158934393Y-84783787D01*
X158936795Y-84759401D01*
X158936795Y-84710004D01*
X159338005Y-84710004D01*
X159338005Y-84759401D01*
X159340407Y-84783787D01*
X159347520Y-84807236D01*
X159359071Y-84828847D01*
X159374616Y-84847789D01*
X159393558Y-84863334D01*
X159415169Y-84874885D01*
X159438618Y-84881998D01*
X159463004Y-84884400D01*
X159611796Y-84884400D01*
X159636182Y-84881998D01*
X159659631Y-84874885D01*
X159681242Y-84863334D01*
X159700184Y-84847789D01*
X159715729Y-84828847D01*
X159727280Y-84807236D01*
X159734393Y-84783787D01*
X159736795Y-84759401D01*
X159736795Y-84710004D01*
X159734393Y-84685618D01*
X159727280Y-84662169D01*
X159715729Y-84640558D01*
X159700184Y-84621616D01*
X159681242Y-84606071D01*
X159659631Y-84594520D01*
X159636182Y-84587407D01*
X159611796Y-84585005D01*
X159463004Y-84585005D01*
X159438618Y-84587407D01*
X159415169Y-84594520D01*
X159393558Y-84606071D01*
X159374616Y-84621616D01*
X159359071Y-84640558D01*
X159347520Y-84662169D01*
X159340407Y-84685618D01*
X159338005Y-84710004D01*
X158936795Y-84710004D01*
X158934393Y-84685618D01*
X158927280Y-84662169D01*
X158915729Y-84640558D01*
X158900184Y-84621616D01*
X158881242Y-84606071D01*
X158859631Y-84594520D01*
X158836182Y-84587407D01*
X158811796Y-84585005D01*
X158793537Y-84585005D01*
X158787401Y-84584401D01*
X158787399Y-84584399D01*
X158786795Y-84578263D01*
X158786795Y-83590537D01*
X158787399Y-83584401D01*
X158787401Y-83584399D01*
X158793537Y-83583795D01*
X160281263Y-83583795D01*
X160287399Y-83584399D01*
X160287399Y-83584399D01*
G37*
G36*
X157850000Y-86850000D02*
G01*
X156150000Y-86850000D01*
X156150000Y-85150000D01*
X157850000Y-85150000D01*
X157850000Y-86850000D01*
X157850000Y-86850000D01*
G37*
G36*
X77706627Y-85162299D02*
G01*
X77786742Y-85186602D01*
X77866855Y-85210903D01*
X77866857Y-85210904D01*
X78014518Y-85289831D01*
X78143949Y-85396051D01*
X78250169Y-85525482D01*
X78329096Y-85673143D01*
X78377701Y-85833373D01*
X78394112Y-86000000D01*
X78377701Y-86166627D01*
X78329096Y-86326857D01*
X78250169Y-86474518D01*
X78143949Y-86603949D01*
X78014518Y-86710169D01*
X77866857Y-86789096D01*
X77866855Y-86789097D01*
X77786742Y-86813398D01*
X77706627Y-86837701D01*
X77581752Y-86850000D01*
X77498248Y-86850000D01*
X77373373Y-86837701D01*
X77293258Y-86813398D01*
X77213145Y-86789097D01*
X77213143Y-86789096D01*
X77065482Y-86710169D01*
X76936051Y-86603949D01*
X76829831Y-86474518D01*
X76750904Y-86326857D01*
X76702299Y-86166627D01*
X76685888Y-86000000D01*
X76702299Y-85833373D01*
X76750904Y-85673143D01*
X76829831Y-85525482D01*
X76936051Y-85396051D01*
X77065482Y-85289831D01*
X77213143Y-85210904D01*
X77213145Y-85210903D01*
X77293258Y-85186602D01*
X77373373Y-85162299D01*
X77498248Y-85150000D01*
X77581752Y-85150000D01*
X77706627Y-85162299D01*
X77706627Y-85162299D01*
G37*
G36*
X75850000Y-86850000D02*
G01*
X74150000Y-86850000D01*
X74150000Y-85150000D01*
X75850000Y-85150000D01*
X75850000Y-86850000D01*
X75850000Y-86850000D01*
G37*
G36*
X187312349Y-84419389D02*
G01*
X187405627Y-84428576D01*
X187556428Y-84474321D01*
X187556430Y-84474322D01*
X187695405Y-84548606D01*
X187817222Y-84648578D01*
X187917194Y-84770395D01*
X187936886Y-84807236D01*
X187991479Y-84909372D01*
X188037224Y-85060173D01*
X188052670Y-85217000D01*
X188037224Y-85373827D01*
X187991479Y-85524628D01*
X187991478Y-85524630D01*
X187917194Y-85663605D01*
X187817222Y-85785422D01*
X187695405Y-85885394D01*
X187556430Y-85959678D01*
X187556428Y-85959679D01*
X187405627Y-86005424D01*
X187327271Y-86013141D01*
X187288094Y-86017000D01*
X187209506Y-86017000D01*
X187170329Y-86013141D01*
X187091973Y-86005424D01*
X186941172Y-85959679D01*
X186941170Y-85959678D01*
X186802195Y-85885394D01*
X186680378Y-85785422D01*
X186580406Y-85663605D01*
X186506122Y-85524630D01*
X186506121Y-85524628D01*
X186460376Y-85373827D01*
X186444930Y-85217000D01*
X186460376Y-85060173D01*
X186506121Y-84909372D01*
X186560714Y-84807236D01*
X186580406Y-84770395D01*
X186680378Y-84648578D01*
X186802195Y-84548606D01*
X186941170Y-84474322D01*
X186941172Y-84474321D01*
X187091973Y-84428576D01*
X187185251Y-84419389D01*
X187209506Y-84417000D01*
X187288094Y-84417000D01*
X187312349Y-84419389D01*
X187312349Y-84419389D01*
G37*
G36*
X200182151Y-84447743D02*
G01*
X200327741Y-84508048D01*
X200458770Y-84595599D01*
X200570201Y-84707030D01*
X200657752Y-84838059D01*
X200718057Y-84983649D01*
X200748800Y-85138206D01*
X200748800Y-85295794D01*
X200718057Y-85450351D01*
X200657752Y-85595941D01*
X200570201Y-85726970D01*
X200458770Y-85838401D01*
X200327741Y-85925952D01*
X200182151Y-85986257D01*
X200027594Y-86017000D01*
X199870006Y-86017000D01*
X199715449Y-85986257D01*
X199569859Y-85925952D01*
X199438830Y-85838401D01*
X199327399Y-85726970D01*
X199239848Y-85595941D01*
X199179543Y-85450351D01*
X199148800Y-85295794D01*
X199148800Y-85138206D01*
X199179543Y-84983649D01*
X199239848Y-84838059D01*
X199327399Y-84707030D01*
X199438830Y-84595599D01*
X199569859Y-84508048D01*
X199715449Y-84447743D01*
X199870006Y-84417000D01*
X200027594Y-84417000D01*
X200182151Y-84447743D01*
X200182151Y-84447743D01*
G37*
G36*
X65466703Y-82461486D02*
G01*
X65757883Y-82582097D01*
X66019940Y-82757198D01*
X66242802Y-82980060D01*
X66417903Y-83242117D01*
X66538514Y-83533297D01*
X66600000Y-83842412D01*
X66600000Y-84157588D01*
X66538514Y-84466703D01*
X66417903Y-84757883D01*
X66242802Y-85019940D01*
X66019940Y-85242802D01*
X65757883Y-85417903D01*
X65466703Y-85538514D01*
X65157588Y-85600000D01*
X64842412Y-85600000D01*
X64533297Y-85538514D01*
X64242117Y-85417903D01*
X63980060Y-85242802D01*
X63757198Y-85019940D01*
X63582097Y-84757883D01*
X63461486Y-84466703D01*
X63400000Y-84157588D01*
X63400000Y-83842412D01*
X63461486Y-83533297D01*
X63582097Y-83242117D01*
X63757198Y-82980060D01*
X63980060Y-82757198D01*
X64242117Y-82582097D01*
X64533297Y-82461486D01*
X64842412Y-82400000D01*
X65157588Y-82400000D01*
X65466703Y-82461486D01*
X65466703Y-82461486D01*
G37*
G36*
X235466703Y-82461486D02*
G01*
X235757883Y-82582097D01*
X236019940Y-82757198D01*
X236242802Y-82980060D01*
X236417903Y-83242117D01*
X236538514Y-83533297D01*
X236600000Y-83842412D01*
X236600000Y-84157588D01*
X236538514Y-84466703D01*
X236417903Y-84757883D01*
X236242802Y-85019940D01*
X236019940Y-85242802D01*
X235757883Y-85417903D01*
X235466703Y-85538514D01*
X235157588Y-85600000D01*
X234842412Y-85600000D01*
X234533297Y-85538514D01*
X234242117Y-85417903D01*
X233980060Y-85242802D01*
X233757198Y-85019940D01*
X233582097Y-84757883D01*
X233461486Y-84466703D01*
X233400000Y-84157588D01*
X233400000Y-83842412D01*
X233461486Y-83533297D01*
X233582097Y-83242117D01*
X233757198Y-82980060D01*
X233980060Y-82757198D01*
X234242117Y-82582097D01*
X234533297Y-82461486D01*
X234842412Y-82400000D01*
X235157588Y-82400000D01*
X235466703Y-82461486D01*
X235466703Y-82461486D01*
G37*
G36*
X85059026Y-83072515D02*
G01*
X85277411Y-83162973D01*
X85277413Y-83162974D01*
X85473955Y-83294299D01*
X85641101Y-83461445D01*
X85757085Y-83635027D01*
X85772427Y-83657989D01*
X85862885Y-83876374D01*
X85909000Y-84108209D01*
X85909000Y-84344591D01*
X85862885Y-84576426D01*
X85787094Y-84759401D01*
X85772426Y-84794813D01*
X85641101Y-84991355D01*
X85473955Y-85158501D01*
X85277413Y-85289826D01*
X85277412Y-85289827D01*
X85277411Y-85289827D01*
X85059026Y-85380285D01*
X84827191Y-85426400D01*
X84590809Y-85426400D01*
X84358974Y-85380285D01*
X84140589Y-85289827D01*
X84140588Y-85289827D01*
X84140587Y-85289826D01*
X83944045Y-85158501D01*
X83776899Y-84991355D01*
X83645574Y-84794813D01*
X83630906Y-84759401D01*
X83555115Y-84576426D01*
X83509000Y-84344591D01*
X83509000Y-84108209D01*
X83555115Y-83876374D01*
X83645573Y-83657989D01*
X83660916Y-83635027D01*
X83776899Y-83461445D01*
X83944045Y-83294299D01*
X84140587Y-83162974D01*
X84140589Y-83162973D01*
X84358974Y-83072515D01*
X84590809Y-83026400D01*
X84827191Y-83026400D01*
X85059026Y-83072515D01*
X85059026Y-83072515D01*
G37*
G36*
X100059026Y-83072515D02*
G01*
X100277411Y-83162973D01*
X100277413Y-83162974D01*
X100473955Y-83294299D01*
X100641101Y-83461445D01*
X100757085Y-83635027D01*
X100772427Y-83657989D01*
X100862885Y-83876374D01*
X100909000Y-84108209D01*
X100909000Y-84344591D01*
X100862885Y-84576426D01*
X100787094Y-84759401D01*
X100772426Y-84794813D01*
X100641101Y-84991355D01*
X100473955Y-85158501D01*
X100277413Y-85289826D01*
X100277412Y-85289827D01*
X100277411Y-85289827D01*
X100059026Y-85380285D01*
X99827191Y-85426400D01*
X99590809Y-85426400D01*
X99358974Y-85380285D01*
X99140589Y-85289827D01*
X99140588Y-85289827D01*
X99140587Y-85289826D01*
X98944045Y-85158501D01*
X98776899Y-84991355D01*
X98645574Y-84794813D01*
X98630906Y-84759401D01*
X98555115Y-84576426D01*
X98509000Y-84344591D01*
X98509000Y-84108209D01*
X98555115Y-83876374D01*
X98645573Y-83657989D01*
X98660916Y-83635027D01*
X98776899Y-83461445D01*
X98944045Y-83294299D01*
X99140587Y-83162974D01*
X99140589Y-83162973D01*
X99358974Y-83072515D01*
X99590809Y-83026400D01*
X99827191Y-83026400D01*
X100059026Y-83072515D01*
X100059026Y-83072515D01*
G37*
G36*
X218550000Y-84550000D02*
G01*
X215450000Y-84550000D01*
X215450000Y-81450000D01*
X218550000Y-81450000D01*
X218550000Y-84550000D01*
X218550000Y-84550000D01*
G37*
G36*
X132136385Y-81464283D02*
G01*
X132269930Y-81504794D01*
X132393007Y-81570580D01*
X132500886Y-81659114D01*
X132589420Y-81766993D01*
X132655206Y-81890070D01*
X132695717Y-82023615D01*
X132710000Y-82168640D01*
X132710000Y-83831360D01*
X132695717Y-83976385D01*
X132655206Y-84109930D01*
X132589420Y-84233007D01*
X132500886Y-84340886D01*
X132393007Y-84429420D01*
X132269930Y-84495206D01*
X132136385Y-84535717D01*
X131991360Y-84550000D01*
X130328640Y-84550000D01*
X130183615Y-84535717D01*
X130050070Y-84495206D01*
X129926993Y-84429420D01*
X129819114Y-84340886D01*
X129730580Y-84233007D01*
X129664794Y-84109930D01*
X129624283Y-83976385D01*
X129610000Y-83831360D01*
X129610000Y-82168640D01*
X129624283Y-82023615D01*
X129664794Y-81890070D01*
X129730580Y-81766993D01*
X129819114Y-81659114D01*
X129926993Y-81570580D01*
X130050070Y-81504794D01*
X130183615Y-81464283D01*
X130328640Y-81450000D01*
X131991360Y-81450000D01*
X132136385Y-81464283D01*
X132136385Y-81464283D01*
G37*
G36*
X205636385Y-81464283D02*
G01*
X205769930Y-81504794D01*
X205893007Y-81570580D01*
X206000886Y-81659114D01*
X206089420Y-81766993D01*
X206155206Y-81890070D01*
X206195717Y-82023615D01*
X206210000Y-82168640D01*
X206210000Y-83831360D01*
X206195717Y-83976385D01*
X206155206Y-84109930D01*
X206089420Y-84233007D01*
X206000886Y-84340886D01*
X205893007Y-84429420D01*
X205769930Y-84495206D01*
X205636385Y-84535717D01*
X205491360Y-84550000D01*
X203828640Y-84550000D01*
X203683615Y-84535717D01*
X203550070Y-84495206D01*
X203426993Y-84429420D01*
X203319114Y-84340886D01*
X203230580Y-84233007D01*
X203164794Y-84109930D01*
X203124283Y-83976385D01*
X203110000Y-83831360D01*
X203110000Y-82168640D01*
X203124283Y-82023615D01*
X203164794Y-81890070D01*
X203230580Y-81766993D01*
X203319114Y-81659114D01*
X203426993Y-81570580D01*
X203550070Y-81504794D01*
X203683615Y-81464283D01*
X203828640Y-81450000D01*
X205491360Y-81450000D01*
X205636385Y-81464283D01*
X205636385Y-81464283D01*
G37*
G36*
X145050000Y-84550000D02*
G01*
X141950000Y-84550000D01*
X141950000Y-81450000D01*
X145050000Y-81450000D01*
X145050000Y-84550000D01*
X145050000Y-84550000D01*
G37*
G36*
X116510751Y-82390343D02*
G01*
X116656341Y-82450648D01*
X116787370Y-82538199D01*
X116898801Y-82649630D01*
X116986352Y-82780659D01*
X117046657Y-82926249D01*
X117077400Y-83080806D01*
X117077400Y-83238394D01*
X117046657Y-83392951D01*
X116986352Y-83538541D01*
X116898801Y-83669570D01*
X116787370Y-83781001D01*
X116656341Y-83868552D01*
X116510751Y-83928857D01*
X116356194Y-83959600D01*
X116198606Y-83959600D01*
X116044049Y-83928857D01*
X115898459Y-83868552D01*
X115767430Y-83781001D01*
X115655999Y-83669570D01*
X115568448Y-83538541D01*
X115508143Y-83392951D01*
X115477400Y-83238394D01*
X115477400Y-83080806D01*
X115508143Y-82926249D01*
X115568448Y-82780659D01*
X115655999Y-82649630D01*
X115767430Y-82538199D01*
X115898459Y-82450648D01*
X116044049Y-82390343D01*
X116198606Y-82359600D01*
X116356194Y-82359600D01*
X116510751Y-82390343D01*
X116510751Y-82390343D01*
G37*
G36*
X111510751Y-82390343D02*
G01*
X111656341Y-82450648D01*
X111787370Y-82538199D01*
X111898801Y-82649630D01*
X111986352Y-82780659D01*
X112046657Y-82926249D01*
X112077400Y-83080806D01*
X112077400Y-83238394D01*
X112046657Y-83392951D01*
X111986352Y-83538541D01*
X111898801Y-83669570D01*
X111787370Y-83781001D01*
X111656341Y-83868552D01*
X111510751Y-83928857D01*
X111356194Y-83959600D01*
X111198606Y-83959600D01*
X111044049Y-83928857D01*
X110898459Y-83868552D01*
X110767430Y-83781001D01*
X110655999Y-83669570D01*
X110568448Y-83538541D01*
X110508143Y-83392951D01*
X110477400Y-83238394D01*
X110477400Y-83080806D01*
X110508143Y-82926249D01*
X110568448Y-82780659D01*
X110655999Y-82649630D01*
X110767430Y-82538199D01*
X110898459Y-82450648D01*
X111044049Y-82390343D01*
X111198606Y-82359600D01*
X111356194Y-82359600D01*
X111510751Y-82390343D01*
X111510751Y-82390343D01*
G37*
G36*
X178962826Y-81417715D02*
G01*
X179181211Y-81508173D01*
X179181213Y-81508174D01*
X179268739Y-81566657D01*
X179377755Y-81639499D01*
X179544901Y-81806645D01*
X179676227Y-82003189D01*
X179766685Y-82221574D01*
X179812800Y-82453409D01*
X179812800Y-82689791D01*
X179766685Y-82921626D01*
X179700750Y-83080807D01*
X179676226Y-83140013D01*
X179544901Y-83336555D01*
X179377755Y-83503701D01*
X179181213Y-83635026D01*
X179181212Y-83635027D01*
X179181211Y-83635027D01*
X178962826Y-83725485D01*
X178730991Y-83771600D01*
X178494609Y-83771600D01*
X178262774Y-83725485D01*
X178044389Y-83635027D01*
X178044388Y-83635027D01*
X178044387Y-83635026D01*
X177847845Y-83503701D01*
X177680699Y-83336555D01*
X177549374Y-83140013D01*
X177524850Y-83080807D01*
X177458915Y-82921626D01*
X177412800Y-82689791D01*
X177412800Y-82453409D01*
X177458915Y-82221574D01*
X177549373Y-82003189D01*
X177680699Y-81806645D01*
X177847845Y-81639499D01*
X177956861Y-81566657D01*
X178044387Y-81508174D01*
X178044389Y-81508173D01*
X178262774Y-81417715D01*
X178494609Y-81371600D01*
X178730991Y-81371600D01*
X178962826Y-81417715D01*
X178962826Y-81417715D01*
G37*
G36*
X187761551Y-80028143D02*
G01*
X187907141Y-80088448D01*
X188038170Y-80175999D01*
X188149601Y-80287430D01*
X188237152Y-80418459D01*
X188297457Y-80564049D01*
X188328200Y-80718606D01*
X188328200Y-80876194D01*
X188297457Y-81030751D01*
X188237152Y-81176341D01*
X188149601Y-81307370D01*
X188038170Y-81418801D01*
X187907141Y-81506352D01*
X187761551Y-81566657D01*
X187606994Y-81597400D01*
X187449406Y-81597400D01*
X187294849Y-81566657D01*
X187149259Y-81506352D01*
X187018230Y-81418801D01*
X186906799Y-81307370D01*
X186819248Y-81176341D01*
X186758943Y-81030751D01*
X186728200Y-80876194D01*
X186728200Y-80718606D01*
X186758943Y-80564049D01*
X186819248Y-80418459D01*
X186906799Y-80287430D01*
X187018230Y-80175999D01*
X187149259Y-80088448D01*
X187294849Y-80028143D01*
X187449406Y-79997400D01*
X187606994Y-79997400D01*
X187761551Y-80028143D01*
X187761551Y-80028143D01*
G37*
G36*
X192761551Y-80028143D02*
G01*
X192907141Y-80088448D01*
X193038170Y-80175999D01*
X193149601Y-80287430D01*
X193237152Y-80418459D01*
X193297457Y-80564049D01*
X193328200Y-80718606D01*
X193328200Y-80876194D01*
X193297457Y-81030751D01*
X193237152Y-81176341D01*
X193149601Y-81307370D01*
X193038170Y-81418801D01*
X192907141Y-81506352D01*
X192761551Y-81566657D01*
X192606994Y-81597400D01*
X192449406Y-81597400D01*
X192294849Y-81566657D01*
X192149259Y-81506352D01*
X192018230Y-81418801D01*
X191906799Y-81307370D01*
X191819248Y-81176341D01*
X191758943Y-81030751D01*
X191728200Y-80876194D01*
X191728200Y-80718606D01*
X191758943Y-80564049D01*
X191819248Y-80418459D01*
X191906799Y-80287430D01*
X192018230Y-80175999D01*
X192149259Y-80088448D01*
X192294849Y-80028143D01*
X192449406Y-79997400D01*
X192606994Y-79997400D01*
X192761551Y-80028143D01*
X192761551Y-80028143D01*
G37*
G36*
X151185551Y-79240743D02*
G01*
X151331141Y-79301048D01*
X151462170Y-79388599D01*
X151573601Y-79500030D01*
X151661152Y-79631059D01*
X151721457Y-79776649D01*
X151752200Y-79931206D01*
X151752200Y-80088794D01*
X151721457Y-80243351D01*
X151661152Y-80388941D01*
X151573601Y-80519970D01*
X151462170Y-80631401D01*
X151331141Y-80718952D01*
X151185551Y-80779257D01*
X151030994Y-80810000D01*
X150873406Y-80810000D01*
X150718849Y-80779257D01*
X150573259Y-80718952D01*
X150442230Y-80631401D01*
X150330799Y-80519970D01*
X150243248Y-80388941D01*
X150182943Y-80243351D01*
X150152200Y-80088794D01*
X150152200Y-79931206D01*
X150182943Y-79776649D01*
X150243248Y-79631059D01*
X150330799Y-79500030D01*
X150442230Y-79388599D01*
X150573259Y-79301048D01*
X150718849Y-79240743D01*
X150873406Y-79210000D01*
X151030994Y-79210000D01*
X151185551Y-79240743D01*
X151185551Y-79240743D01*
G37*
G36*
X163730671Y-79213859D02*
G01*
X163809027Y-79221576D01*
X163959828Y-79267321D01*
X163959830Y-79267322D01*
X164098805Y-79341606D01*
X164220622Y-79441578D01*
X164307325Y-79547226D01*
X164320593Y-79563394D01*
X164394879Y-79702372D01*
X164440624Y-79853173D01*
X164456070Y-80010000D01*
X164440624Y-80166827D01*
X164412170Y-80260626D01*
X164394878Y-80317630D01*
X164320594Y-80456605D01*
X164220622Y-80578422D01*
X164098805Y-80678394D01*
X163959830Y-80752678D01*
X163959828Y-80752679D01*
X163809027Y-80798424D01*
X163730671Y-80806141D01*
X163691494Y-80810000D01*
X163612906Y-80810000D01*
X163573729Y-80806141D01*
X163495373Y-80798424D01*
X163344572Y-80752679D01*
X163344570Y-80752678D01*
X163205595Y-80678394D01*
X163083778Y-80578422D01*
X162983806Y-80456605D01*
X162909522Y-80317630D01*
X162892230Y-80260626D01*
X162863776Y-80166827D01*
X162848330Y-80010000D01*
X162863776Y-79853173D01*
X162909521Y-79702372D01*
X162983807Y-79563394D01*
X162997076Y-79547226D01*
X163083778Y-79441578D01*
X163205595Y-79341606D01*
X163344570Y-79267322D01*
X163344572Y-79267321D01*
X163495373Y-79221576D01*
X163573729Y-79213859D01*
X163612906Y-79210000D01*
X163691494Y-79210000D01*
X163730671Y-79213859D01*
X163730671Y-79213859D01*
G37*
G36*
X81706226Y-78043315D02*
G01*
X81893238Y-78120778D01*
X81924613Y-78133774D01*
X82121155Y-78265099D01*
X82288301Y-78432245D01*
X82355206Y-78532375D01*
X82419627Y-78628789D01*
X82510085Y-78847174D01*
X82556200Y-79079009D01*
X82556200Y-79315391D01*
X82510085Y-79547226D01*
X82475360Y-79631059D01*
X82419626Y-79765613D01*
X82288301Y-79962155D01*
X82121155Y-80129301D01*
X81924613Y-80260626D01*
X81924612Y-80260627D01*
X81924611Y-80260627D01*
X81706226Y-80351085D01*
X81474391Y-80397200D01*
X81238009Y-80397200D01*
X81006174Y-80351085D01*
X80787789Y-80260627D01*
X80787788Y-80260627D01*
X80787787Y-80260626D01*
X80591245Y-80129301D01*
X80424099Y-79962155D01*
X80292774Y-79765613D01*
X80237040Y-79631059D01*
X80202315Y-79547226D01*
X80156200Y-79315391D01*
X80156200Y-79079009D01*
X80202315Y-78847174D01*
X80292773Y-78628789D01*
X80357195Y-78532375D01*
X80424099Y-78432245D01*
X80591245Y-78265099D01*
X80787787Y-78133774D01*
X80819162Y-78120778D01*
X81006174Y-78043315D01*
X81238009Y-77997200D01*
X81474391Y-77997200D01*
X81706226Y-78043315D01*
X81706226Y-78043315D01*
G37*
G36*
X124210751Y-77919943D02*
G01*
X124356341Y-77980248D01*
X124487370Y-78067799D01*
X124598801Y-78179230D01*
X124686352Y-78310259D01*
X124746657Y-78455849D01*
X124777400Y-78610406D01*
X124777400Y-78767994D01*
X124746657Y-78922551D01*
X124686352Y-79068141D01*
X124598801Y-79199170D01*
X124487370Y-79310601D01*
X124356341Y-79398152D01*
X124210751Y-79458457D01*
X124056194Y-79489200D01*
X123898606Y-79489200D01*
X123744049Y-79458457D01*
X123598459Y-79398152D01*
X123467430Y-79310601D01*
X123355999Y-79199170D01*
X123268448Y-79068141D01*
X123208143Y-78922551D01*
X123177400Y-78767994D01*
X123177400Y-78610406D01*
X123208143Y-78455849D01*
X123268448Y-78310259D01*
X123355999Y-78179230D01*
X123467430Y-78067799D01*
X123598459Y-77980248D01*
X123744049Y-77919943D01*
X123898606Y-77889200D01*
X124056194Y-77889200D01*
X124210751Y-77919943D01*
X124210751Y-77919943D01*
G37*
G36*
X111355871Y-77893059D02*
G01*
X111434227Y-77900776D01*
X111585028Y-77946521D01*
X111585030Y-77946522D01*
X111724005Y-78020806D01*
X111845822Y-78120778D01*
X111945794Y-78242595D01*
X111981961Y-78310258D01*
X112020079Y-78381572D01*
X112065824Y-78532373D01*
X112081270Y-78689200D01*
X112065824Y-78846027D01*
X112020079Y-78996828D01*
X112020078Y-78996830D01*
X111945794Y-79135805D01*
X111845822Y-79257622D01*
X111724005Y-79357594D01*
X111585030Y-79431878D01*
X111585028Y-79431879D01*
X111434227Y-79477624D01*
X111355871Y-79485341D01*
X111316694Y-79489200D01*
X111238106Y-79489200D01*
X111198929Y-79485341D01*
X111120573Y-79477624D01*
X110969772Y-79431879D01*
X110969770Y-79431878D01*
X110830795Y-79357594D01*
X110708978Y-79257622D01*
X110609006Y-79135805D01*
X110534722Y-78996830D01*
X110534721Y-78996828D01*
X110488976Y-78846027D01*
X110473530Y-78689200D01*
X110488976Y-78532373D01*
X110534721Y-78381572D01*
X110572839Y-78310258D01*
X110609006Y-78242595D01*
X110708978Y-78120778D01*
X110830795Y-78020806D01*
X110969770Y-77946522D01*
X110969772Y-77946521D01*
X111120573Y-77900776D01*
X111198929Y-77893059D01*
X111238106Y-77889200D01*
X111316694Y-77889200D01*
X111355871Y-77893059D01*
X111355871Y-77893059D01*
G37*
G36*
X148286385Y-76214283D02*
G01*
X148419930Y-76254794D01*
X148543007Y-76320580D01*
X148650886Y-76409114D01*
X148739420Y-76516993D01*
X148805206Y-76640070D01*
X148845717Y-76773615D01*
X148860000Y-76918640D01*
X148860000Y-78581360D01*
X148845717Y-78726385D01*
X148805206Y-78859930D01*
X148739420Y-78983007D01*
X148650886Y-79090886D01*
X148543007Y-79179420D01*
X148419930Y-79245206D01*
X148286385Y-79285717D01*
X148141360Y-79300000D01*
X146478640Y-79300000D01*
X146333615Y-79285717D01*
X146200070Y-79245206D01*
X146076993Y-79179420D01*
X145969114Y-79090886D01*
X145880580Y-78983007D01*
X145814794Y-78859930D01*
X145774283Y-78726385D01*
X145760000Y-78581360D01*
X145760000Y-76918640D01*
X145774283Y-76773615D01*
X145814794Y-76640070D01*
X145880580Y-76516993D01*
X145969114Y-76409114D01*
X146076993Y-76320580D01*
X146200070Y-76254794D01*
X146333615Y-76214283D01*
X146478640Y-76200000D01*
X148141360Y-76200000D01*
X148286385Y-76214283D01*
X148286385Y-76214283D01*
G37*
G36*
X221786385Y-76214283D02*
G01*
X221919930Y-76254794D01*
X222043007Y-76320580D01*
X222150886Y-76409114D01*
X222239420Y-76516993D01*
X222305206Y-76640070D01*
X222345717Y-76773615D01*
X222360000Y-76918640D01*
X222360000Y-78581360D01*
X222345717Y-78726385D01*
X222305206Y-78859930D01*
X222239420Y-78983007D01*
X222150886Y-79090886D01*
X222043007Y-79179420D01*
X221919930Y-79245206D01*
X221786385Y-79285717D01*
X221641360Y-79300000D01*
X219978640Y-79300000D01*
X219833615Y-79285717D01*
X219700070Y-79245206D01*
X219576993Y-79179420D01*
X219469114Y-79090886D01*
X219380580Y-78983007D01*
X219314794Y-78859930D01*
X219274283Y-78726385D01*
X219260000Y-78581360D01*
X219260000Y-76918640D01*
X219274283Y-76773615D01*
X219314794Y-76640070D01*
X219380580Y-76516993D01*
X219469114Y-76409114D01*
X219576993Y-76320580D01*
X219700070Y-76254794D01*
X219833615Y-76214283D01*
X219978640Y-76200000D01*
X221641360Y-76200000D01*
X221786385Y-76214283D01*
X221786385Y-76214283D01*
G37*
G36*
X201816385Y-76214283D02*
G01*
X201949930Y-76254794D01*
X202073007Y-76320580D01*
X202180886Y-76409114D01*
X202269420Y-76516993D01*
X202335206Y-76640070D01*
X202375717Y-76773615D01*
X202390000Y-76918640D01*
X202390000Y-78581360D01*
X202375717Y-78726385D01*
X202335206Y-78859930D01*
X202269420Y-78983007D01*
X202180886Y-79090886D01*
X202073007Y-79179420D01*
X201949930Y-79245206D01*
X201816385Y-79285717D01*
X201671360Y-79300000D01*
X200008640Y-79300000D01*
X199863615Y-79285717D01*
X199730070Y-79245206D01*
X199606993Y-79179420D01*
X199499114Y-79090886D01*
X199410580Y-78983007D01*
X199344794Y-78859930D01*
X199304283Y-78726385D01*
X199290000Y-78581360D01*
X199290000Y-76918640D01*
X199304283Y-76773615D01*
X199344794Y-76640070D01*
X199410580Y-76516993D01*
X199499114Y-76409114D01*
X199606993Y-76320580D01*
X199730070Y-76254794D01*
X199863615Y-76214283D01*
X200008640Y-76200000D01*
X201671360Y-76200000D01*
X201816385Y-76214283D01*
X201816385Y-76214283D01*
G37*
G36*
X128316385Y-76214283D02*
G01*
X128449930Y-76254794D01*
X128573007Y-76320580D01*
X128680886Y-76409114D01*
X128769420Y-76516993D01*
X128835206Y-76640070D01*
X128875717Y-76773615D01*
X128890000Y-76918640D01*
X128890000Y-78581360D01*
X128875717Y-78726385D01*
X128835206Y-78859930D01*
X128769420Y-78983007D01*
X128680886Y-79090886D01*
X128573007Y-79179420D01*
X128449930Y-79245206D01*
X128316385Y-79285717D01*
X128171360Y-79300000D01*
X126508640Y-79300000D01*
X126363615Y-79285717D01*
X126230070Y-79245206D01*
X126106993Y-79179420D01*
X125999114Y-79090886D01*
X125910580Y-78983007D01*
X125844794Y-78859930D01*
X125804283Y-78726385D01*
X125790000Y-78581360D01*
X125790000Y-76918640D01*
X125804283Y-76773615D01*
X125844794Y-76640070D01*
X125910580Y-76516993D01*
X125999114Y-76409114D01*
X126106993Y-76320580D01*
X126230070Y-76254794D01*
X126363615Y-76214283D01*
X126508640Y-76200000D01*
X128171360Y-76200000D01*
X128316385Y-76214283D01*
X128316385Y-76214283D01*
G37*
G36*
X179812800Y-78771600D02*
G01*
X177412800Y-78771600D01*
X177412800Y-76371600D01*
X179812800Y-76371600D01*
X179812800Y-78771600D01*
X179812800Y-78771600D01*
G37*
G36*
X231624871Y-76140459D02*
G01*
X231703227Y-76148176D01*
X231854028Y-76193921D01*
X231854030Y-76193922D01*
X231993005Y-76268206D01*
X232114822Y-76368178D01*
X232214794Y-76489995D01*
X232263985Y-76582024D01*
X232289079Y-76628972D01*
X232334824Y-76779773D01*
X232350270Y-76936600D01*
X232334824Y-77093427D01*
X232323208Y-77131719D01*
X232289078Y-77244230D01*
X232214794Y-77383205D01*
X232114822Y-77505022D01*
X231993005Y-77604994D01*
X231854030Y-77679278D01*
X231854028Y-77679279D01*
X231703227Y-77725024D01*
X231624871Y-77732741D01*
X231585694Y-77736600D01*
X231507106Y-77736600D01*
X231467929Y-77732741D01*
X231389573Y-77725024D01*
X231238772Y-77679279D01*
X231238770Y-77679278D01*
X231099795Y-77604994D01*
X230977978Y-77505022D01*
X230878006Y-77383205D01*
X230803722Y-77244230D01*
X230769592Y-77131719D01*
X230757976Y-77093427D01*
X230742530Y-76936600D01*
X230757976Y-76779773D01*
X230803721Y-76628972D01*
X230828815Y-76582024D01*
X230878006Y-76489995D01*
X230977978Y-76368178D01*
X231099795Y-76268206D01*
X231238770Y-76193922D01*
X231238772Y-76193921D01*
X231389573Y-76148176D01*
X231467929Y-76140459D01*
X231507106Y-76136600D01*
X231585694Y-76136600D01*
X231624871Y-76140459D01*
X231624871Y-76140459D01*
G37*
G36*
X192800227Y-75819499D02*
G01*
X192880342Y-75843802D01*
X192960455Y-75868103D01*
X192960457Y-75868104D01*
X193108118Y-75947031D01*
X193237549Y-76053251D01*
X193343769Y-76182682D01*
X193422696Y-76330343D01*
X193422697Y-76330345D01*
X193430828Y-76357151D01*
X193471301Y-76490573D01*
X193487712Y-76657200D01*
X193471301Y-76823827D01*
X193450300Y-76893057D01*
X193425444Y-76975000D01*
X193422696Y-76984057D01*
X193343769Y-77131718D01*
X193237549Y-77261149D01*
X193108118Y-77367369D01*
X193078489Y-77383206D01*
X192960455Y-77446297D01*
X192880342Y-77470598D01*
X192800227Y-77494901D01*
X192675352Y-77507200D01*
X192591848Y-77507200D01*
X192466973Y-77494901D01*
X192386858Y-77470598D01*
X192306745Y-77446297D01*
X192188711Y-77383206D01*
X192159082Y-77367369D01*
X192029651Y-77261149D01*
X191923431Y-77131718D01*
X191844504Y-76984057D01*
X191841757Y-76975000D01*
X191816900Y-76893057D01*
X191795899Y-76823827D01*
X191779488Y-76657200D01*
X191795899Y-76490573D01*
X191836372Y-76357151D01*
X191844503Y-76330345D01*
X191844504Y-76330343D01*
X191923431Y-76182682D01*
X192029651Y-76053251D01*
X192159082Y-75947031D01*
X192306743Y-75868104D01*
X192306745Y-75868103D01*
X192386858Y-75843802D01*
X192466973Y-75819499D01*
X192591848Y-75807200D01*
X192675352Y-75807200D01*
X192800227Y-75819499D01*
X192800227Y-75819499D01*
G37*
G36*
X188403600Y-77507200D02*
G01*
X186703600Y-77507200D01*
X186703600Y-75807200D01*
X188403600Y-75807200D01*
X188403600Y-77507200D01*
X188403600Y-77507200D01*
G37*
G36*
X190260227Y-75819499D02*
G01*
X190340342Y-75843802D01*
X190420455Y-75868103D01*
X190420457Y-75868104D01*
X190568118Y-75947031D01*
X190697549Y-76053251D01*
X190803769Y-76182682D01*
X190882696Y-76330343D01*
X190882697Y-76330345D01*
X190890828Y-76357151D01*
X190931301Y-76490573D01*
X190947712Y-76657200D01*
X190931301Y-76823827D01*
X190910300Y-76893057D01*
X190885444Y-76975000D01*
X190882696Y-76984057D01*
X190803769Y-77131718D01*
X190697549Y-77261149D01*
X190568118Y-77367369D01*
X190538489Y-77383206D01*
X190420455Y-77446297D01*
X190340342Y-77470598D01*
X190260227Y-77494901D01*
X190135352Y-77507200D01*
X190051848Y-77507200D01*
X189926973Y-77494901D01*
X189846858Y-77470598D01*
X189766745Y-77446297D01*
X189648711Y-77383206D01*
X189619082Y-77367369D01*
X189489651Y-77261149D01*
X189383431Y-77131718D01*
X189304504Y-76984057D01*
X189301757Y-76975000D01*
X189276900Y-76893057D01*
X189255899Y-76823827D01*
X189239488Y-76657200D01*
X189255899Y-76490573D01*
X189296372Y-76357151D01*
X189304503Y-76330345D01*
X189304504Y-76330343D01*
X189383431Y-76182682D01*
X189489651Y-76053251D01*
X189619082Y-75947031D01*
X189766743Y-75868104D01*
X189766745Y-75868103D01*
X189846858Y-75843802D01*
X189926973Y-75819499D01*
X190051848Y-75807200D01*
X190135352Y-75807200D01*
X190260227Y-75819499D01*
X190260227Y-75819499D01*
G37*
G36*
X104271751Y-75354543D02*
G01*
X104417341Y-75414848D01*
X104548370Y-75502399D01*
X104659801Y-75613830D01*
X104747352Y-75744859D01*
X104807657Y-75890449D01*
X104838400Y-76045006D01*
X104838400Y-76202594D01*
X104807657Y-76357151D01*
X104747352Y-76502741D01*
X104659801Y-76633770D01*
X104548370Y-76745201D01*
X104417341Y-76832752D01*
X104271751Y-76893057D01*
X104117194Y-76923800D01*
X103959606Y-76923800D01*
X103805049Y-76893057D01*
X103659459Y-76832752D01*
X103528430Y-76745201D01*
X103416999Y-76633770D01*
X103329448Y-76502741D01*
X103269143Y-76357151D01*
X103238400Y-76202594D01*
X103238400Y-76045006D01*
X103269143Y-75890449D01*
X103329448Y-75744859D01*
X103416999Y-75613830D01*
X103528430Y-75502399D01*
X103659459Y-75414848D01*
X103805049Y-75354543D01*
X103959606Y-75323800D01*
X104117194Y-75323800D01*
X104271751Y-75354543D01*
X104271751Y-75354543D01*
G37*
G36*
X74985551Y-75354543D02*
G01*
X75131141Y-75414848D01*
X75262170Y-75502399D01*
X75373601Y-75613830D01*
X75461152Y-75744859D01*
X75521457Y-75890449D01*
X75552200Y-76045006D01*
X75552200Y-76202594D01*
X75521457Y-76357151D01*
X75461152Y-76502741D01*
X75373601Y-76633770D01*
X75262170Y-76745201D01*
X75131141Y-76832752D01*
X74985551Y-76893057D01*
X74830994Y-76923800D01*
X74673406Y-76923800D01*
X74518849Y-76893057D01*
X74373259Y-76832752D01*
X74242230Y-76745201D01*
X74130799Y-76633770D01*
X74043248Y-76502741D01*
X73982943Y-76357151D01*
X73952200Y-76202594D01*
X73952200Y-76045006D01*
X73982943Y-75890449D01*
X74043248Y-75744859D01*
X74130799Y-75613830D01*
X74242230Y-75502399D01*
X74373259Y-75414848D01*
X74518849Y-75354543D01*
X74673406Y-75323800D01*
X74830994Y-75323800D01*
X74985551Y-75354543D01*
X74985551Y-75354543D01*
G37*
G36*
X151030671Y-74997459D02*
G01*
X151109027Y-75005176D01*
X151259828Y-75050921D01*
X151259830Y-75050922D01*
X151398805Y-75125206D01*
X151520622Y-75225178D01*
X151620594Y-75346995D01*
X151656761Y-75414658D01*
X151694879Y-75485972D01*
X151740624Y-75636773D01*
X151756070Y-75793600D01*
X151740624Y-75950427D01*
X151709432Y-76053252D01*
X151694878Y-76101230D01*
X151620594Y-76240205D01*
X151520622Y-76362022D01*
X151398805Y-76461994D01*
X151259830Y-76536278D01*
X151259828Y-76536279D01*
X151109027Y-76582024D01*
X151030671Y-76589741D01*
X150991494Y-76593600D01*
X150912906Y-76593600D01*
X150873729Y-76589741D01*
X150795373Y-76582024D01*
X150644572Y-76536279D01*
X150644570Y-76536278D01*
X150505595Y-76461994D01*
X150383778Y-76362022D01*
X150283806Y-76240205D01*
X150209522Y-76101230D01*
X150194968Y-76053252D01*
X150163776Y-75950427D01*
X150148330Y-75793600D01*
X150163776Y-75636773D01*
X150209521Y-75485972D01*
X150247639Y-75414658D01*
X150283806Y-75346995D01*
X150383778Y-75225178D01*
X150505595Y-75125206D01*
X150644570Y-75050922D01*
X150644572Y-75050921D01*
X150795373Y-75005176D01*
X150873729Y-74997459D01*
X150912906Y-74993600D01*
X150991494Y-74993600D01*
X151030671Y-74997459D01*
X151030671Y-74997459D01*
G37*
G36*
X163885551Y-75024343D02*
G01*
X164031141Y-75084648D01*
X164162170Y-75172199D01*
X164273601Y-75283630D01*
X164361152Y-75414659D01*
X164421457Y-75560249D01*
X164452200Y-75714806D01*
X164452200Y-75872394D01*
X164421457Y-76026951D01*
X164361152Y-76172541D01*
X164273601Y-76303570D01*
X164162170Y-76415001D01*
X164031141Y-76502552D01*
X163885551Y-76562857D01*
X163730994Y-76593600D01*
X163573406Y-76593600D01*
X163418849Y-76562857D01*
X163273259Y-76502552D01*
X163142230Y-76415001D01*
X163030799Y-76303570D01*
X162943248Y-76172541D01*
X162882943Y-76026951D01*
X162852200Y-75872394D01*
X162852200Y-75714806D01*
X162882943Y-75560249D01*
X162943248Y-75414659D01*
X163030799Y-75283630D01*
X163142230Y-75172199D01*
X163273259Y-75084648D01*
X163418849Y-75024343D01*
X163573406Y-74993600D01*
X163730994Y-74993600D01*
X163885551Y-75024343D01*
X163885551Y-75024343D01*
G37*
G36*
X111381271Y-74108459D02*
G01*
X111459627Y-74116176D01*
X111610428Y-74161921D01*
X111610430Y-74161922D01*
X111749405Y-74236206D01*
X111749407Y-74236207D01*
X111749406Y-74236207D01*
X111871222Y-74336178D01*
X111971193Y-74457994D01*
X112045479Y-74596972D01*
X112091224Y-74747773D01*
X112106670Y-74904600D01*
X112091224Y-75061427D01*
X112046961Y-75207341D01*
X112045478Y-75212230D01*
X111971194Y-75351205D01*
X111871222Y-75473022D01*
X111749405Y-75572994D01*
X111610430Y-75647278D01*
X111610428Y-75647279D01*
X111459627Y-75693024D01*
X111381271Y-75700741D01*
X111342094Y-75704600D01*
X111263506Y-75704600D01*
X111224329Y-75700741D01*
X111145973Y-75693024D01*
X110995172Y-75647279D01*
X110995170Y-75647278D01*
X110856195Y-75572994D01*
X110734378Y-75473022D01*
X110634406Y-75351205D01*
X110560122Y-75212230D01*
X110558639Y-75207341D01*
X110514376Y-75061427D01*
X110498930Y-74904600D01*
X110514376Y-74747773D01*
X110560121Y-74596972D01*
X110634407Y-74457994D01*
X110734378Y-74336178D01*
X110856194Y-74236207D01*
X110856193Y-74236207D01*
X110856195Y-74236206D01*
X110995170Y-74161922D01*
X110995172Y-74161921D01*
X111145973Y-74116176D01*
X111224329Y-74108459D01*
X111263506Y-74104600D01*
X111342094Y-74104600D01*
X111381271Y-74108459D01*
X111381271Y-74108459D01*
G37*
G36*
X124236151Y-74135343D02*
G01*
X124381741Y-74195648D01*
X124512770Y-74283199D01*
X124624201Y-74394630D01*
X124711752Y-74525659D01*
X124772057Y-74671249D01*
X124802800Y-74825806D01*
X124802800Y-74983394D01*
X124772057Y-75137951D01*
X124711752Y-75283541D01*
X124624201Y-75414570D01*
X124512770Y-75526001D01*
X124381741Y-75613552D01*
X124236151Y-75673857D01*
X124081594Y-75704600D01*
X123924006Y-75704600D01*
X123769449Y-75673857D01*
X123623859Y-75613552D01*
X123492830Y-75526001D01*
X123381399Y-75414570D01*
X123293848Y-75283541D01*
X123233543Y-75137951D01*
X123202800Y-74983394D01*
X123202800Y-74825806D01*
X123233543Y-74671249D01*
X123293848Y-74525659D01*
X123381399Y-74394630D01*
X123492830Y-74283199D01*
X123623859Y-74195648D01*
X123769449Y-74135343D01*
X123924006Y-74104600D01*
X124081594Y-74104600D01*
X124236151Y-74135343D01*
X124236151Y-74135343D01*
G37*
G36*
X226394951Y-74059143D02*
G01*
X226540541Y-74119448D01*
X226671570Y-74206999D01*
X226783001Y-74318430D01*
X226870552Y-74449459D01*
X226930857Y-74595049D01*
X226961600Y-74749606D01*
X226961600Y-74907194D01*
X226930857Y-75061751D01*
X226870552Y-75207341D01*
X226783001Y-75338370D01*
X226671570Y-75449801D01*
X226540541Y-75537352D01*
X226394951Y-75597657D01*
X226240394Y-75628400D01*
X226082806Y-75628400D01*
X225928249Y-75597657D01*
X225782659Y-75537352D01*
X225651630Y-75449801D01*
X225540199Y-75338370D01*
X225452648Y-75207341D01*
X225392343Y-75061751D01*
X225361600Y-74907194D01*
X225361600Y-74749606D01*
X225392343Y-74595049D01*
X225452648Y-74449459D01*
X225540199Y-74318430D01*
X225651630Y-74206999D01*
X225782659Y-74119448D01*
X225928249Y-74059143D01*
X226082806Y-74028400D01*
X226240394Y-74028400D01*
X226394951Y-74059143D01*
X226394951Y-74059143D01*
G37*
G36*
X236351751Y-74059143D02*
G01*
X236497341Y-74119448D01*
X236628370Y-74206999D01*
X236739801Y-74318430D01*
X236827352Y-74449459D01*
X236887657Y-74595049D01*
X236918400Y-74749606D01*
X236918400Y-74907194D01*
X236887657Y-75061751D01*
X236827352Y-75207341D01*
X236739801Y-75338370D01*
X236628370Y-75449801D01*
X236497341Y-75537352D01*
X236351751Y-75597657D01*
X236197194Y-75628400D01*
X236039606Y-75628400D01*
X235885049Y-75597657D01*
X235739459Y-75537352D01*
X235608430Y-75449801D01*
X235496999Y-75338370D01*
X235409448Y-75207341D01*
X235349143Y-75061751D01*
X235318400Y-74907194D01*
X235318400Y-74749606D01*
X235349143Y-74595049D01*
X235409448Y-74449459D01*
X235496999Y-74318430D01*
X235608430Y-74206999D01*
X235739459Y-74119448D01*
X235885049Y-74059143D01*
X236039606Y-74028400D01*
X236197194Y-74028400D01*
X236351751Y-74059143D01*
X236351751Y-74059143D01*
G37*
G36*
X196524551Y-72230343D02*
G01*
X196670141Y-72290648D01*
X196801170Y-72378199D01*
X196912601Y-72489630D01*
X197000152Y-72620659D01*
X197060457Y-72766249D01*
X197091200Y-72920806D01*
X197091200Y-73078394D01*
X197060457Y-73232951D01*
X197000152Y-73378541D01*
X196912601Y-73509570D01*
X196801170Y-73621001D01*
X196670141Y-73708552D01*
X196524551Y-73768857D01*
X196369994Y-73799600D01*
X196212406Y-73799600D01*
X196057849Y-73768857D01*
X195912259Y-73708552D01*
X195781230Y-73621001D01*
X195669799Y-73509570D01*
X195582248Y-73378541D01*
X195521943Y-73232951D01*
X195491200Y-73078394D01*
X195491200Y-72920806D01*
X195521943Y-72766249D01*
X195582248Y-72620659D01*
X195669799Y-72489630D01*
X195781230Y-72378199D01*
X195912259Y-72290648D01*
X196057849Y-72230343D01*
X196212406Y-72199600D01*
X196369994Y-72199600D01*
X196524551Y-72230343D01*
X196524551Y-72230343D01*
G37*
G36*
X183669671Y-72203459D02*
G01*
X183748027Y-72211176D01*
X183898828Y-72256921D01*
X183898830Y-72256922D01*
X184037805Y-72331206D01*
X184159622Y-72431178D01*
X184259594Y-72552995D01*
X184275636Y-72583008D01*
X184333879Y-72691972D01*
X184379624Y-72842773D01*
X184395070Y-72999600D01*
X184379624Y-73156427D01*
X184333879Y-73307228D01*
X184333878Y-73307230D01*
X184259594Y-73446205D01*
X184159622Y-73568022D01*
X184037805Y-73667994D01*
X183898830Y-73742278D01*
X183898828Y-73742279D01*
X183748027Y-73788024D01*
X183669671Y-73795741D01*
X183630494Y-73799600D01*
X183551906Y-73799600D01*
X183512729Y-73795741D01*
X183434373Y-73788024D01*
X183283572Y-73742279D01*
X183283570Y-73742278D01*
X183144595Y-73667994D01*
X183022778Y-73568022D01*
X182922806Y-73446205D01*
X182848522Y-73307230D01*
X182848521Y-73307228D01*
X182802776Y-73156427D01*
X182787330Y-72999600D01*
X182802776Y-72842773D01*
X182848521Y-72691972D01*
X182906764Y-72583008D01*
X182922806Y-72552995D01*
X183022778Y-72431178D01*
X183144595Y-72331206D01*
X183283570Y-72256922D01*
X183283572Y-72256921D01*
X183434373Y-72211176D01*
X183512729Y-72203459D01*
X183551906Y-72199600D01*
X183630494Y-72199600D01*
X183669671Y-72203459D01*
X183669671Y-72203459D01*
G37*
G36*
X93441026Y-71293915D02*
G01*
X93659411Y-71384373D01*
X93659413Y-71384374D01*
X93855955Y-71515699D01*
X94023101Y-71682845D01*
X94075375Y-71761078D01*
X94154427Y-71879389D01*
X94244885Y-72097774D01*
X94291000Y-72329609D01*
X94291000Y-72565991D01*
X94244885Y-72797826D01*
X94161307Y-72999600D01*
X94154426Y-73016213D01*
X94023101Y-73212755D01*
X93855955Y-73379901D01*
X93659413Y-73511226D01*
X93659412Y-73511227D01*
X93659411Y-73511227D01*
X93441026Y-73601685D01*
X93209191Y-73647800D01*
X92972809Y-73647800D01*
X92740974Y-73601685D01*
X92522589Y-73511227D01*
X92522588Y-73511227D01*
X92522587Y-73511226D01*
X92326045Y-73379901D01*
X92158899Y-73212755D01*
X92027574Y-73016213D01*
X92020693Y-72999600D01*
X91937115Y-72797826D01*
X91891000Y-72565991D01*
X91891000Y-72329609D01*
X91937115Y-72097774D01*
X92027573Y-71879389D01*
X92106626Y-71761078D01*
X92158899Y-71682845D01*
X92326045Y-71515699D01*
X92522587Y-71384374D01*
X92522589Y-71384373D01*
X92740974Y-71293915D01*
X92972809Y-71247800D01*
X93209191Y-71247800D01*
X93441026Y-71293915D01*
X93441026Y-71293915D01*
G37*
G36*
X148286385Y-69724283D02*
G01*
X148419930Y-69764794D01*
X148543007Y-69830580D01*
X148650886Y-69919114D01*
X148739420Y-70026993D01*
X148805206Y-70150070D01*
X148845717Y-70283615D01*
X148860000Y-70428640D01*
X148860000Y-72091360D01*
X148845717Y-72236385D01*
X148805206Y-72369930D01*
X148739420Y-72493007D01*
X148650886Y-72600886D01*
X148543007Y-72689420D01*
X148419930Y-72755206D01*
X148286385Y-72795717D01*
X148141360Y-72810000D01*
X146478640Y-72810000D01*
X146333615Y-72795717D01*
X146200070Y-72755206D01*
X146076993Y-72689420D01*
X145969114Y-72600886D01*
X145880580Y-72493007D01*
X145814794Y-72369930D01*
X145774283Y-72236385D01*
X145760000Y-72091360D01*
X145760000Y-70428640D01*
X145774283Y-70283615D01*
X145814794Y-70150070D01*
X145880580Y-70026993D01*
X145969114Y-69919114D01*
X146076993Y-69830580D01*
X146200070Y-69764794D01*
X146333615Y-69724283D01*
X146478640Y-69710000D01*
X148141360Y-69710000D01*
X148286385Y-69724283D01*
X148286385Y-69724283D01*
G37*
G36*
X221786385Y-69724283D02*
G01*
X221919930Y-69764794D01*
X222043007Y-69830580D01*
X222150886Y-69919114D01*
X222239420Y-70026993D01*
X222305206Y-70150070D01*
X222345717Y-70283615D01*
X222360000Y-70428640D01*
X222360000Y-72091360D01*
X222345717Y-72236385D01*
X222305206Y-72369930D01*
X222239420Y-72493007D01*
X222150886Y-72600886D01*
X222043007Y-72689420D01*
X221919930Y-72755206D01*
X221786385Y-72795717D01*
X221641360Y-72810000D01*
X219978640Y-72810000D01*
X219833615Y-72795717D01*
X219700070Y-72755206D01*
X219576993Y-72689420D01*
X219469114Y-72600886D01*
X219380580Y-72493007D01*
X219314794Y-72369930D01*
X219274283Y-72236385D01*
X219260000Y-72091360D01*
X219260000Y-70428640D01*
X219274283Y-70283615D01*
X219314794Y-70150070D01*
X219380580Y-70026993D01*
X219469114Y-69919114D01*
X219576993Y-69830580D01*
X219700070Y-69764794D01*
X219833615Y-69724283D01*
X219978640Y-69710000D01*
X221641360Y-69710000D01*
X221786385Y-69724283D01*
X221786385Y-69724283D01*
G37*
G36*
X201816385Y-69724283D02*
G01*
X201949930Y-69764794D01*
X202073007Y-69830580D01*
X202180886Y-69919114D01*
X202269420Y-70026993D01*
X202335206Y-70150070D01*
X202375717Y-70283615D01*
X202390000Y-70428640D01*
X202390000Y-72091360D01*
X202375717Y-72236385D01*
X202335206Y-72369930D01*
X202269420Y-72493007D01*
X202180886Y-72600886D01*
X202073007Y-72689420D01*
X201949930Y-72755206D01*
X201816385Y-72795717D01*
X201671360Y-72810000D01*
X200008640Y-72810000D01*
X199863615Y-72795717D01*
X199730070Y-72755206D01*
X199606993Y-72689420D01*
X199499114Y-72600886D01*
X199410580Y-72493007D01*
X199344794Y-72369930D01*
X199304283Y-72236385D01*
X199290000Y-72091360D01*
X199290000Y-70428640D01*
X199304283Y-70283615D01*
X199344794Y-70150070D01*
X199410580Y-70026993D01*
X199499114Y-69919114D01*
X199606993Y-69830580D01*
X199730070Y-69764794D01*
X199863615Y-69724283D01*
X200008640Y-69710000D01*
X201671360Y-69710000D01*
X201816385Y-69724283D01*
X201816385Y-69724283D01*
G37*
G36*
X128316385Y-69724283D02*
G01*
X128449930Y-69764794D01*
X128573007Y-69830580D01*
X128680886Y-69919114D01*
X128769420Y-70026993D01*
X128835206Y-70150070D01*
X128875717Y-70283615D01*
X128890000Y-70428640D01*
X128890000Y-72091360D01*
X128875717Y-72236385D01*
X128835206Y-72369930D01*
X128769420Y-72493007D01*
X128680886Y-72600886D01*
X128573007Y-72689420D01*
X128449930Y-72755206D01*
X128316385Y-72795717D01*
X128171360Y-72810000D01*
X126508640Y-72810000D01*
X126363615Y-72795717D01*
X126230070Y-72755206D01*
X126106993Y-72689420D01*
X125999114Y-72600886D01*
X125910580Y-72493007D01*
X125844794Y-72369930D01*
X125804283Y-72236385D01*
X125790000Y-72091360D01*
X125790000Y-70428640D01*
X125804283Y-70283615D01*
X125844794Y-70150070D01*
X125910580Y-70026993D01*
X125999114Y-69919114D01*
X126106993Y-69830580D01*
X126230070Y-69764794D01*
X126363615Y-69724283D01*
X126508640Y-69710000D01*
X128171360Y-69710000D01*
X128316385Y-69724283D01*
X128316385Y-69724283D01*
G37*
G36*
X168498026Y-70002915D02*
G01*
X168716411Y-70093373D01*
X168716413Y-70093374D01*
X168912955Y-70224699D01*
X169080101Y-70391845D01*
X169200340Y-70571795D01*
X169211427Y-70588389D01*
X169301885Y-70806774D01*
X169348000Y-71038609D01*
X169348000Y-71274991D01*
X169301885Y-71506826D01*
X169227340Y-71686793D01*
X169211426Y-71725213D01*
X169080101Y-71921755D01*
X168912955Y-72088901D01*
X168716413Y-72220226D01*
X168716412Y-72220227D01*
X168716411Y-72220227D01*
X168498026Y-72310685D01*
X168266191Y-72356800D01*
X168029809Y-72356800D01*
X167797974Y-72310685D01*
X167579589Y-72220227D01*
X167579588Y-72220227D01*
X167579587Y-72220226D01*
X167383045Y-72088901D01*
X167215899Y-71921755D01*
X167084574Y-71725213D01*
X167068660Y-71686793D01*
X166994115Y-71506826D01*
X166948000Y-71274991D01*
X166948000Y-71038609D01*
X166994115Y-70806774D01*
X167084573Y-70588389D01*
X167095661Y-70571795D01*
X167215899Y-70391845D01*
X167383045Y-70224699D01*
X167579587Y-70093374D01*
X167579589Y-70093373D01*
X167797974Y-70002915D01*
X168029809Y-69956800D01*
X168266191Y-69956800D01*
X168498026Y-70002915D01*
X168498026Y-70002915D01*
G37*
G36*
X121566671Y-70222259D02*
G01*
X121645027Y-70229976D01*
X121795828Y-70275721D01*
X121795830Y-70275722D01*
X121934805Y-70350006D01*
X122056622Y-70449978D01*
X122156594Y-70571795D01*
X122186850Y-70628400D01*
X122230879Y-70710772D01*
X122276624Y-70861573D01*
X122292070Y-71018400D01*
X122276624Y-71175227D01*
X122240620Y-71293915D01*
X122230878Y-71326030D01*
X122156594Y-71465005D01*
X122056622Y-71586822D01*
X121934805Y-71686794D01*
X121795830Y-71761078D01*
X121795828Y-71761079D01*
X121645027Y-71806824D01*
X121566671Y-71814541D01*
X121527494Y-71818400D01*
X121448906Y-71818400D01*
X121409729Y-71814541D01*
X121331373Y-71806824D01*
X121180572Y-71761079D01*
X121180570Y-71761078D01*
X121041595Y-71686794D01*
X120919778Y-71586822D01*
X120819806Y-71465005D01*
X120745522Y-71326030D01*
X120735780Y-71293915D01*
X120699776Y-71175227D01*
X120684330Y-71018400D01*
X120699776Y-70861573D01*
X120745521Y-70710772D01*
X120789550Y-70628400D01*
X120819806Y-70571795D01*
X120919778Y-70449978D01*
X121041595Y-70350006D01*
X121180570Y-70275722D01*
X121180572Y-70275721D01*
X121331373Y-70229976D01*
X121409729Y-70222259D01*
X121448906Y-70218400D01*
X121527494Y-70218400D01*
X121566671Y-70222259D01*
X121566671Y-70222259D01*
G37*
G36*
X109021551Y-70249143D02*
G01*
X109167141Y-70309448D01*
X109298170Y-70396999D01*
X109409601Y-70508430D01*
X109497152Y-70639459D01*
X109557457Y-70785049D01*
X109588200Y-70939606D01*
X109588200Y-71097194D01*
X109557457Y-71251751D01*
X109497152Y-71397341D01*
X109409601Y-71528370D01*
X109298170Y-71639801D01*
X109167141Y-71727352D01*
X109021551Y-71787657D01*
X108866994Y-71818400D01*
X108709406Y-71818400D01*
X108554849Y-71787657D01*
X108409259Y-71727352D01*
X108278230Y-71639801D01*
X108166799Y-71528370D01*
X108079248Y-71397341D01*
X108018943Y-71251751D01*
X107988200Y-71097194D01*
X107988200Y-70939606D01*
X108018943Y-70785049D01*
X108079248Y-70639459D01*
X108166799Y-70508430D01*
X108278230Y-70396999D01*
X108409259Y-70309448D01*
X108554849Y-70249143D01*
X108709406Y-70218400D01*
X108866994Y-70218400D01*
X109021551Y-70249143D01*
X109021551Y-70249143D01*
G37*
G36*
X236351751Y-69059143D02*
G01*
X236497341Y-69119448D01*
X236628370Y-69206999D01*
X236739801Y-69318430D01*
X236827352Y-69449459D01*
X236887657Y-69595049D01*
X236918400Y-69749606D01*
X236918400Y-69907194D01*
X236887657Y-70061751D01*
X236827352Y-70207341D01*
X236739801Y-70338370D01*
X236628370Y-70449801D01*
X236497341Y-70537352D01*
X236351751Y-70597657D01*
X236197194Y-70628400D01*
X236039606Y-70628400D01*
X235885049Y-70597657D01*
X235739459Y-70537352D01*
X235608430Y-70449801D01*
X235496999Y-70338370D01*
X235409448Y-70207341D01*
X235349143Y-70061751D01*
X235318400Y-69907194D01*
X235318400Y-69749606D01*
X235349143Y-69595049D01*
X235409448Y-69449459D01*
X235496999Y-69318430D01*
X235608430Y-69206999D01*
X235739459Y-69119448D01*
X235885049Y-69059143D01*
X236039606Y-69028400D01*
X236197194Y-69028400D01*
X236351751Y-69059143D01*
X236351751Y-69059143D01*
G37*
G36*
X173531490Y-68367619D02*
G01*
X173595889Y-68380429D01*
X173777878Y-68455811D01*
X173941663Y-68565249D01*
X174080951Y-68704537D01*
X174190389Y-68868322D01*
X174227703Y-68958407D01*
X174265771Y-69050312D01*
X174304200Y-69243507D01*
X174304200Y-69440493D01*
X174278581Y-69569290D01*
X174265771Y-69633689D01*
X174190389Y-69815678D01*
X174080951Y-69979463D01*
X173941663Y-70118751D01*
X173777878Y-70228189D01*
X173595889Y-70303571D01*
X173531490Y-70316381D01*
X173402693Y-70342000D01*
X173205707Y-70342000D01*
X173076910Y-70316381D01*
X173012511Y-70303571D01*
X172830522Y-70228189D01*
X172666737Y-70118751D01*
X172527449Y-69979463D01*
X172418011Y-69815678D01*
X172342629Y-69633689D01*
X172329819Y-69569290D01*
X172304200Y-69440493D01*
X172304200Y-69243507D01*
X172342629Y-69050312D01*
X172380697Y-68958407D01*
X172418011Y-68868322D01*
X172527449Y-68704537D01*
X172666737Y-68565249D01*
X172830522Y-68455811D01*
X173012511Y-68380429D01*
X173076910Y-68367619D01*
X173205707Y-68342000D01*
X173402693Y-68342000D01*
X173531490Y-68367619D01*
X173531490Y-68367619D01*
G37*
G36*
X183531490Y-68367619D02*
G01*
X183595889Y-68380429D01*
X183777878Y-68455811D01*
X183941663Y-68565249D01*
X184080951Y-68704537D01*
X184190389Y-68868322D01*
X184227703Y-68958407D01*
X184265771Y-69050312D01*
X184304200Y-69243507D01*
X184304200Y-69440493D01*
X184278581Y-69569290D01*
X184265771Y-69633689D01*
X184190389Y-69815678D01*
X184080951Y-69979463D01*
X183941663Y-70118751D01*
X183777878Y-70228189D01*
X183595889Y-70303571D01*
X183531490Y-70316381D01*
X183402693Y-70342000D01*
X183205707Y-70342000D01*
X183076910Y-70316381D01*
X183012511Y-70303571D01*
X182830522Y-70228189D01*
X182666737Y-70118751D01*
X182527449Y-69979463D01*
X182418011Y-69815678D01*
X182342629Y-69633689D01*
X182329819Y-69569290D01*
X182304200Y-69440493D01*
X182304200Y-69243507D01*
X182342629Y-69050312D01*
X182380697Y-68958407D01*
X182418011Y-68868322D01*
X182527449Y-68704537D01*
X182666737Y-68565249D01*
X182830522Y-68455811D01*
X183012511Y-68380429D01*
X183076910Y-68367619D01*
X183205707Y-68342000D01*
X183402693Y-68342000D01*
X183531490Y-68367619D01*
X183531490Y-68367619D01*
G37*
G36*
X151185551Y-68267943D02*
G01*
X151331141Y-68328248D01*
X151462170Y-68415799D01*
X151573601Y-68527230D01*
X151661152Y-68658259D01*
X151721457Y-68803849D01*
X151752200Y-68958406D01*
X151752200Y-69115994D01*
X151721457Y-69270551D01*
X151661152Y-69416141D01*
X151573601Y-69547170D01*
X151462170Y-69658601D01*
X151331141Y-69746152D01*
X151185551Y-69806457D01*
X151030994Y-69837200D01*
X150873406Y-69837200D01*
X150718849Y-69806457D01*
X150573259Y-69746152D01*
X150442230Y-69658601D01*
X150330799Y-69547170D01*
X150243248Y-69416141D01*
X150182943Y-69270551D01*
X150152200Y-69115994D01*
X150152200Y-68958406D01*
X150182943Y-68803849D01*
X150243248Y-68658259D01*
X150330799Y-68527230D01*
X150442230Y-68415799D01*
X150573259Y-68328248D01*
X150718849Y-68267943D01*
X150873406Y-68237200D01*
X151030994Y-68237200D01*
X151185551Y-68267943D01*
X151185551Y-68267943D01*
G37*
G36*
X163730671Y-68241059D02*
G01*
X163809027Y-68248776D01*
X163959828Y-68294521D01*
X163959830Y-68294522D01*
X164098805Y-68368806D01*
X164220622Y-68468778D01*
X164320594Y-68590595D01*
X164394878Y-68729570D01*
X164394879Y-68729572D01*
X164440624Y-68880373D01*
X164456070Y-69037200D01*
X164440624Y-69194027D01*
X164394879Y-69344828D01*
X164394878Y-69344830D01*
X164320594Y-69483805D01*
X164220622Y-69605622D01*
X164098805Y-69705594D01*
X163988050Y-69764794D01*
X163959828Y-69779879D01*
X163809027Y-69825624D01*
X163730671Y-69833341D01*
X163691494Y-69837200D01*
X163612906Y-69837200D01*
X163573729Y-69833341D01*
X163495373Y-69825624D01*
X163344572Y-69779879D01*
X163316350Y-69764794D01*
X163205595Y-69705594D01*
X163083778Y-69605622D01*
X162983806Y-69483805D01*
X162909522Y-69344830D01*
X162909521Y-69344828D01*
X162863776Y-69194027D01*
X162848330Y-69037200D01*
X162863776Y-68880373D01*
X162909521Y-68729572D01*
X162909522Y-68729570D01*
X162983806Y-68590595D01*
X163083778Y-68468778D01*
X163205595Y-68368806D01*
X163344570Y-68294522D01*
X163344572Y-68294521D01*
X163495373Y-68248776D01*
X163573729Y-68241059D01*
X163612906Y-68237200D01*
X163691494Y-68237200D01*
X163730671Y-68241059D01*
X163730671Y-68241059D01*
G37*
G36*
X109015490Y-65853019D02*
G01*
X109079889Y-65865829D01*
X109261878Y-65941211D01*
X109425663Y-66050649D01*
X109564951Y-66189937D01*
X109674389Y-66353722D01*
X109748245Y-66532028D01*
X109749771Y-66535712D01*
X109788200Y-66728907D01*
X109788200Y-66925893D01*
X109785958Y-66937163D01*
X109749771Y-67119089D01*
X109674389Y-67301078D01*
X109564951Y-67464863D01*
X109425663Y-67604151D01*
X109261878Y-67713589D01*
X109079889Y-67788971D01*
X109015490Y-67801781D01*
X108886693Y-67827400D01*
X108689707Y-67827400D01*
X108560910Y-67801781D01*
X108496511Y-67788971D01*
X108314522Y-67713589D01*
X108150737Y-67604151D01*
X108011449Y-67464863D01*
X107902011Y-67301078D01*
X107826629Y-67119089D01*
X107790442Y-66937163D01*
X107788200Y-66925893D01*
X107788200Y-66728907D01*
X107826629Y-66535712D01*
X107828155Y-66532028D01*
X107902011Y-66353722D01*
X108011449Y-66189937D01*
X108150737Y-66050649D01*
X108314522Y-65941211D01*
X108496511Y-65865829D01*
X108560910Y-65853019D01*
X108689707Y-65827400D01*
X108886693Y-65827400D01*
X109015490Y-65853019D01*
X109015490Y-65853019D01*
G37*
G36*
X114015490Y-65853019D02*
G01*
X114079889Y-65865829D01*
X114261878Y-65941211D01*
X114425663Y-66050649D01*
X114564951Y-66189937D01*
X114674389Y-66353722D01*
X114748245Y-66532028D01*
X114749771Y-66535712D01*
X114788200Y-66728907D01*
X114788200Y-66925893D01*
X114785958Y-66937163D01*
X114749771Y-67119089D01*
X114674389Y-67301078D01*
X114564951Y-67464863D01*
X114425663Y-67604151D01*
X114261878Y-67713589D01*
X114079889Y-67788971D01*
X114015490Y-67801781D01*
X113886693Y-67827400D01*
X113689707Y-67827400D01*
X113560910Y-67801781D01*
X113496511Y-67788971D01*
X113314522Y-67713589D01*
X113150737Y-67604151D01*
X113011449Y-67464863D01*
X112902011Y-67301078D01*
X112826629Y-67119089D01*
X112790442Y-66937163D01*
X112788200Y-66925893D01*
X112788200Y-66728907D01*
X112826629Y-66535712D01*
X112828155Y-66532028D01*
X112902011Y-66353722D01*
X113011449Y-66189937D01*
X113150737Y-66050649D01*
X113314522Y-65941211D01*
X113496511Y-65865829D01*
X113560910Y-65853019D01*
X113689707Y-65827400D01*
X113886693Y-65827400D01*
X114015490Y-65853019D01*
X114015490Y-65853019D01*
G37*
G36*
X198630271Y-65980459D02*
G01*
X198708627Y-65988176D01*
X198859428Y-66033921D01*
X198859430Y-66033922D01*
X198998405Y-66108206D01*
X198998407Y-66108207D01*
X198998406Y-66108207D01*
X199120222Y-66208178D01*
X199220193Y-66329994D01*
X199294479Y-66468972D01*
X199340224Y-66619773D01*
X199355670Y-66776600D01*
X199340224Y-66933427D01*
X199295282Y-67081580D01*
X199294478Y-67084230D01*
X199220194Y-67223205D01*
X199120222Y-67345022D01*
X198998405Y-67444994D01*
X198859430Y-67519278D01*
X198859428Y-67519279D01*
X198708627Y-67565024D01*
X198630271Y-67572741D01*
X198591094Y-67576600D01*
X198512506Y-67576600D01*
X198473329Y-67572741D01*
X198394973Y-67565024D01*
X198244172Y-67519279D01*
X198244170Y-67519278D01*
X198105195Y-67444994D01*
X197983378Y-67345022D01*
X197883406Y-67223205D01*
X197809122Y-67084230D01*
X197808318Y-67081580D01*
X197763376Y-66933427D01*
X197747930Y-66776600D01*
X197763376Y-66619773D01*
X197809121Y-66468972D01*
X197883407Y-66329994D01*
X197983378Y-66208178D01*
X198105194Y-66108207D01*
X198105193Y-66108207D01*
X198105195Y-66108206D01*
X198244170Y-66033922D01*
X198244172Y-66033921D01*
X198394973Y-65988176D01*
X198473329Y-65980459D01*
X198512506Y-65976600D01*
X198591094Y-65976600D01*
X198630271Y-65980459D01*
X198630271Y-65980459D01*
G37*
G36*
X186085151Y-66007343D02*
G01*
X186230741Y-66067648D01*
X186361770Y-66155199D01*
X186473201Y-66266630D01*
X186560752Y-66397659D01*
X186621057Y-66543249D01*
X186651800Y-66697806D01*
X186651800Y-66855394D01*
X186621057Y-67009951D01*
X186560752Y-67155541D01*
X186473201Y-67286570D01*
X186361770Y-67398001D01*
X186230741Y-67485552D01*
X186085151Y-67545857D01*
X185930594Y-67576600D01*
X185773006Y-67576600D01*
X185618449Y-67545857D01*
X185472859Y-67485552D01*
X185341830Y-67398001D01*
X185230399Y-67286570D01*
X185142848Y-67155541D01*
X185082543Y-67009951D01*
X185051800Y-66855394D01*
X185051800Y-66697806D01*
X185082543Y-66543249D01*
X185142848Y-66397659D01*
X185230399Y-66266630D01*
X185341830Y-66155199D01*
X185472859Y-66067648D01*
X185618449Y-66007343D01*
X185773006Y-65976600D01*
X185930594Y-65976600D01*
X186085151Y-66007343D01*
X186085151Y-66007343D01*
G37*
G36*
X144476385Y-64474283D02*
G01*
X144609930Y-64514794D01*
X144733007Y-64580580D01*
X144840886Y-64669114D01*
X144929420Y-64776993D01*
X144995206Y-64900070D01*
X145035717Y-65033615D01*
X145050000Y-65178640D01*
X145050000Y-66841360D01*
X145035717Y-66986385D01*
X144995206Y-67119930D01*
X144929420Y-67243007D01*
X144840886Y-67350886D01*
X144733007Y-67439420D01*
X144609930Y-67505206D01*
X144476385Y-67545717D01*
X144331360Y-67560000D01*
X142668640Y-67560000D01*
X142523615Y-67545717D01*
X142390070Y-67505206D01*
X142266993Y-67439420D01*
X142159114Y-67350886D01*
X142070580Y-67243007D01*
X142004794Y-67119930D01*
X141964283Y-66986385D01*
X141950000Y-66841360D01*
X141950000Y-65178640D01*
X141964283Y-65033615D01*
X142004794Y-64900070D01*
X142070580Y-64776993D01*
X142159114Y-64669114D01*
X142266993Y-64580580D01*
X142390070Y-64514794D01*
X142523615Y-64474283D01*
X142668640Y-64460000D01*
X144331360Y-64460000D01*
X144476385Y-64474283D01*
X144476385Y-64474283D01*
G37*
G36*
X217976385Y-64474283D02*
G01*
X218109930Y-64514794D01*
X218233007Y-64580580D01*
X218340886Y-64669114D01*
X218429420Y-64776993D01*
X218495206Y-64900070D01*
X218535717Y-65033615D01*
X218550000Y-65178640D01*
X218550000Y-66841360D01*
X218535717Y-66986385D01*
X218495206Y-67119930D01*
X218429420Y-67243007D01*
X218340886Y-67350886D01*
X218233007Y-67439420D01*
X218109930Y-67505206D01*
X217976385Y-67545717D01*
X217831360Y-67560000D01*
X216168640Y-67560000D01*
X216023615Y-67545717D01*
X215890070Y-67505206D01*
X215766993Y-67439420D01*
X215659114Y-67350886D01*
X215570580Y-67243007D01*
X215504794Y-67119930D01*
X215464283Y-66986385D01*
X215450000Y-66841360D01*
X215450000Y-65178640D01*
X215464283Y-65033615D01*
X215504794Y-64900070D01*
X215570580Y-64776993D01*
X215659114Y-64669114D01*
X215766993Y-64580580D01*
X215890070Y-64514794D01*
X216023615Y-64474283D01*
X216168640Y-64460000D01*
X217831360Y-64460000D01*
X217976385Y-64474283D01*
X217976385Y-64474283D01*
G37*
G36*
X205636385Y-64474283D02*
G01*
X205769930Y-64514794D01*
X205893007Y-64580580D01*
X206000886Y-64669114D01*
X206089420Y-64776993D01*
X206155206Y-64900070D01*
X206195717Y-65033615D01*
X206210000Y-65178640D01*
X206210000Y-66841360D01*
X206195717Y-66986385D01*
X206155206Y-67119930D01*
X206089420Y-67243007D01*
X206000886Y-67350886D01*
X205893007Y-67439420D01*
X205769930Y-67505206D01*
X205636385Y-67545717D01*
X205491360Y-67560000D01*
X203828640Y-67560000D01*
X203683615Y-67545717D01*
X203550070Y-67505206D01*
X203426993Y-67439420D01*
X203319114Y-67350886D01*
X203230580Y-67243007D01*
X203164794Y-67119930D01*
X203124283Y-66986385D01*
X203110000Y-66841360D01*
X203110000Y-65178640D01*
X203124283Y-65033615D01*
X203164794Y-64900070D01*
X203230580Y-64776993D01*
X203319114Y-64669114D01*
X203426993Y-64580580D01*
X203550070Y-64514794D01*
X203683615Y-64474283D01*
X203828640Y-64460000D01*
X205491360Y-64460000D01*
X205636385Y-64474283D01*
X205636385Y-64474283D01*
G37*
G36*
X132136385Y-64474283D02*
G01*
X132269930Y-64514794D01*
X132393007Y-64580580D01*
X132500886Y-64669114D01*
X132589420Y-64776993D01*
X132655206Y-64900070D01*
X132695717Y-65033615D01*
X132710000Y-65178640D01*
X132710000Y-66841360D01*
X132695717Y-66986385D01*
X132655206Y-67119930D01*
X132589420Y-67243007D01*
X132500886Y-67350886D01*
X132393007Y-67439420D01*
X132269930Y-67505206D01*
X132136385Y-67545717D01*
X131991360Y-67560000D01*
X130328640Y-67560000D01*
X130183615Y-67545717D01*
X130050070Y-67505206D01*
X129926993Y-67439420D01*
X129819114Y-67350886D01*
X129730580Y-67243007D01*
X129664794Y-67119930D01*
X129624283Y-66986385D01*
X129610000Y-66841360D01*
X129610000Y-65178640D01*
X129624283Y-65033615D01*
X129664794Y-64900070D01*
X129730580Y-64776993D01*
X129819114Y-64669114D01*
X129926993Y-64580580D01*
X130050070Y-64514794D01*
X130183615Y-64474283D01*
X130328640Y-64460000D01*
X131991360Y-64460000D01*
X132136385Y-64474283D01*
X132136385Y-64474283D01*
G37*
G36*
X64521400Y-66985200D02*
G01*
X62021400Y-66985200D01*
X62021400Y-64485200D01*
X64521400Y-64485200D01*
X64521400Y-66985200D01*
X64521400Y-66985200D01*
G37*
G36*
X68636010Y-64533236D02*
G01*
X68863495Y-64627464D01*
X68863497Y-64627465D01*
X69068228Y-64764262D01*
X69242338Y-64938372D01*
X69369913Y-65129301D01*
X69379136Y-65143105D01*
X69473364Y-65370590D01*
X69521400Y-65612084D01*
X69521400Y-65858316D01*
X69473364Y-66099810D01*
X69436032Y-66189937D01*
X69379135Y-66327297D01*
X69242338Y-66532028D01*
X69068228Y-66706138D01*
X68863497Y-66842935D01*
X68863496Y-66842936D01*
X68863495Y-66842936D01*
X68636010Y-66937164D01*
X68394516Y-66985200D01*
X68148284Y-66985200D01*
X67906790Y-66937164D01*
X67679305Y-66842936D01*
X67679304Y-66842936D01*
X67679303Y-66842935D01*
X67474572Y-66706138D01*
X67300462Y-66532028D01*
X67163665Y-66327297D01*
X67106768Y-66189937D01*
X67069436Y-66099810D01*
X67021400Y-65858316D01*
X67021400Y-65612084D01*
X67069436Y-65370590D01*
X67163664Y-65143105D01*
X67172888Y-65129301D01*
X67300462Y-64938372D01*
X67474572Y-64764262D01*
X67679303Y-64627465D01*
X67679305Y-64627464D01*
X67906790Y-64533236D01*
X68148284Y-64485200D01*
X68394516Y-64485200D01*
X68636010Y-64533236D01*
X68636010Y-64533236D01*
G37*
G36*
X94291000Y-66147800D02*
G01*
X91891000Y-66147800D01*
X91891000Y-63747800D01*
X94291000Y-63747800D01*
X94291000Y-66147800D01*
X94291000Y-66147800D01*
G37*
G36*
X211806385Y-62474283D02*
G01*
X211939930Y-62514794D01*
X212063007Y-62580580D01*
X212170886Y-62669114D01*
X212259420Y-62776993D01*
X212325206Y-62900070D01*
X212365717Y-63033615D01*
X212380000Y-63178640D01*
X212380000Y-64841360D01*
X212365717Y-64986385D01*
X212325206Y-65119930D01*
X212259420Y-65243007D01*
X212170886Y-65350886D01*
X212063007Y-65439420D01*
X211939930Y-65505206D01*
X211806385Y-65545717D01*
X211661360Y-65560000D01*
X209998640Y-65560000D01*
X209853615Y-65545717D01*
X209720070Y-65505206D01*
X209596993Y-65439420D01*
X209489114Y-65350886D01*
X209400580Y-65243007D01*
X209334794Y-65119930D01*
X209294283Y-64986385D01*
X209280000Y-64841360D01*
X209280000Y-63178640D01*
X209294283Y-63033615D01*
X209334794Y-62900070D01*
X209400580Y-62776993D01*
X209489114Y-62669114D01*
X209596993Y-62580580D01*
X209720070Y-62514794D01*
X209853615Y-62474283D01*
X209998640Y-62460000D01*
X211661360Y-62460000D01*
X211806385Y-62474283D01*
X211806385Y-62474283D01*
G37*
G36*
X138306385Y-62474283D02*
G01*
X138439930Y-62514794D01*
X138563007Y-62580580D01*
X138670886Y-62669114D01*
X138759420Y-62776993D01*
X138825206Y-62900070D01*
X138865717Y-63033615D01*
X138880000Y-63178640D01*
X138880000Y-64841360D01*
X138865717Y-64986385D01*
X138825206Y-65119930D01*
X138759420Y-65243007D01*
X138670886Y-65350886D01*
X138563007Y-65439420D01*
X138439930Y-65505206D01*
X138306385Y-65545717D01*
X138161360Y-65560000D01*
X136498640Y-65560000D01*
X136353615Y-65545717D01*
X136220070Y-65505206D01*
X136096993Y-65439420D01*
X135989114Y-65350886D01*
X135900580Y-65243007D01*
X135834794Y-65119930D01*
X135794283Y-64986385D01*
X135780000Y-64841360D01*
X135780000Y-63178640D01*
X135794283Y-63033615D01*
X135834794Y-62900070D01*
X135900580Y-62776993D01*
X135989114Y-62669114D01*
X136096993Y-62580580D01*
X136220070Y-62514794D01*
X136353615Y-62474283D01*
X136498640Y-62460000D01*
X138161360Y-62460000D01*
X138306385Y-62474283D01*
X138306385Y-62474283D01*
G37*
G36*
X81706226Y-63043315D02*
G01*
X81882118Y-63116172D01*
X81924613Y-63133774D01*
X82121155Y-63265099D01*
X82288301Y-63432245D01*
X82410547Y-63615199D01*
X82419627Y-63628789D01*
X82510085Y-63847174D01*
X82556200Y-64079009D01*
X82556200Y-64315391D01*
X82510085Y-64547226D01*
X82459597Y-64669114D01*
X82419626Y-64765613D01*
X82288301Y-64962155D01*
X82121155Y-65129301D01*
X81924613Y-65260626D01*
X81924612Y-65260627D01*
X81924611Y-65260627D01*
X81706226Y-65351085D01*
X81474391Y-65397200D01*
X81238009Y-65397200D01*
X81006174Y-65351085D01*
X80787789Y-65260627D01*
X80787788Y-65260627D01*
X80787787Y-65260626D01*
X80591245Y-65129301D01*
X80424099Y-64962155D01*
X80292774Y-64765613D01*
X80252803Y-64669114D01*
X80202315Y-64547226D01*
X80156200Y-64315391D01*
X80156200Y-64079009D01*
X80202315Y-63847174D01*
X80292773Y-63628789D01*
X80301854Y-63615199D01*
X80424099Y-63432245D01*
X80591245Y-63265099D01*
X80787787Y-63133774D01*
X80830282Y-63116172D01*
X81006174Y-63043315D01*
X81238009Y-62997200D01*
X81474391Y-62997200D01*
X81706226Y-63043315D01*
X81706226Y-63043315D01*
G37*
G36*
X231779751Y-63467343D02*
G01*
X231925341Y-63527648D01*
X232056370Y-63615199D01*
X232167801Y-63726630D01*
X232255352Y-63857659D01*
X232315657Y-64003249D01*
X232346400Y-64157806D01*
X232346400Y-64315394D01*
X232315657Y-64469951D01*
X232255352Y-64615541D01*
X232167801Y-64746570D01*
X232056370Y-64858001D01*
X231925341Y-64945552D01*
X231779751Y-65005857D01*
X231625194Y-65036600D01*
X231467606Y-65036600D01*
X231313049Y-65005857D01*
X231167459Y-64945552D01*
X231036430Y-64858001D01*
X230924999Y-64746570D01*
X230837448Y-64615541D01*
X230777143Y-64469951D01*
X230746400Y-64315394D01*
X230746400Y-64157806D01*
X230777143Y-64003249D01*
X230837448Y-63857659D01*
X230924999Y-63726630D01*
X231036430Y-63615199D01*
X231167459Y-63527648D01*
X231313049Y-63467343D01*
X231467606Y-63436600D01*
X231625194Y-63436600D01*
X231779751Y-63467343D01*
X231779751Y-63467343D01*
G37*
G36*
X74830671Y-62627659D02*
G01*
X74909027Y-62635376D01*
X75059828Y-62681121D01*
X75059830Y-62681122D01*
X75198805Y-62755406D01*
X75320622Y-62855378D01*
X75420594Y-62977195D01*
X75477578Y-63083805D01*
X75494879Y-63116172D01*
X75540624Y-63266973D01*
X75556070Y-63423800D01*
X75540624Y-63580627D01*
X75526014Y-63628789D01*
X75494878Y-63731430D01*
X75420594Y-63870405D01*
X75320622Y-63992222D01*
X75198805Y-64092194D01*
X75076054Y-64157806D01*
X75059828Y-64166479D01*
X74909027Y-64212224D01*
X74830671Y-64219941D01*
X74791494Y-64223800D01*
X74712906Y-64223800D01*
X74673729Y-64219941D01*
X74595373Y-64212224D01*
X74444572Y-64166479D01*
X74428346Y-64157806D01*
X74305595Y-64092194D01*
X74183778Y-63992222D01*
X74083806Y-63870405D01*
X74009522Y-63731430D01*
X73978386Y-63628789D01*
X73963776Y-63580627D01*
X73948330Y-63423800D01*
X73963776Y-63266973D01*
X74009521Y-63116172D01*
X74026822Y-63083805D01*
X74083806Y-62977195D01*
X74183778Y-62855378D01*
X74305595Y-62755406D01*
X74444570Y-62681122D01*
X74444572Y-62681121D01*
X74595373Y-62635376D01*
X74673729Y-62627659D01*
X74712906Y-62623800D01*
X74791494Y-62623800D01*
X74830671Y-62627659D01*
X74830671Y-62627659D01*
G37*
G36*
X238822600Y-62978400D02*
G01*
X237122600Y-62978400D01*
X237122600Y-61278400D01*
X238822600Y-61278400D01*
X238822600Y-62978400D01*
X238822600Y-62978400D01*
G37*
G36*
X235599227Y-61290699D02*
G01*
X235679342Y-61315002D01*
X235759455Y-61339303D01*
X235759457Y-61339304D01*
X235907118Y-61418231D01*
X236036549Y-61524451D01*
X236142769Y-61653882D01*
X236207432Y-61774858D01*
X236221697Y-61801545D01*
X236235234Y-61846172D01*
X236270301Y-61961773D01*
X236286712Y-62128400D01*
X236270301Y-62295027D01*
X236245998Y-62375142D01*
X236227529Y-62436030D01*
X236221696Y-62455257D01*
X236142769Y-62602918D01*
X236036549Y-62732349D01*
X235907118Y-62838569D01*
X235760714Y-62916824D01*
X235759455Y-62917497D01*
X235679342Y-62941798D01*
X235599227Y-62966101D01*
X235474352Y-62978400D01*
X235390848Y-62978400D01*
X235265973Y-62966101D01*
X235185858Y-62941798D01*
X235105745Y-62917497D01*
X235104486Y-62916824D01*
X234958082Y-62838569D01*
X234828651Y-62732349D01*
X234722431Y-62602918D01*
X234643504Y-62455257D01*
X234637672Y-62436030D01*
X234619202Y-62375142D01*
X234594899Y-62295027D01*
X234578488Y-62128400D01*
X234594899Y-61961773D01*
X234629966Y-61846172D01*
X234643503Y-61801545D01*
X234657768Y-61774858D01*
X234722431Y-61653882D01*
X234828651Y-61524451D01*
X234958082Y-61418231D01*
X235105743Y-61339304D01*
X235105745Y-61339303D01*
X235185858Y-61315002D01*
X235265973Y-61290699D01*
X235390848Y-61278400D01*
X235474352Y-61278400D01*
X235599227Y-61290699D01*
X235599227Y-61290699D01*
G37*
G36*
X128655751Y-61384543D02*
G01*
X128801341Y-61444848D01*
X128932370Y-61532399D01*
X129043801Y-61643830D01*
X129131352Y-61774859D01*
X129191657Y-61920449D01*
X129222400Y-62075006D01*
X129222400Y-62232594D01*
X129191657Y-62387151D01*
X129131352Y-62532741D01*
X129043801Y-62663770D01*
X128932370Y-62775201D01*
X128801341Y-62862752D01*
X128655751Y-62923057D01*
X128501194Y-62953800D01*
X128343606Y-62953800D01*
X128189049Y-62923057D01*
X128043459Y-62862752D01*
X127912430Y-62775201D01*
X127800999Y-62663770D01*
X127713448Y-62532741D01*
X127653143Y-62387151D01*
X127622400Y-62232594D01*
X127622400Y-62075006D01*
X127653143Y-61920449D01*
X127713448Y-61774859D01*
X127800999Y-61643830D01*
X127912430Y-61532399D01*
X128043459Y-61444848D01*
X128189049Y-61384543D01*
X128343606Y-61353800D01*
X128501194Y-61353800D01*
X128655751Y-61384543D01*
X128655751Y-61384543D01*
G37*
G36*
X115800871Y-61357659D02*
G01*
X115879227Y-61365376D01*
X116030028Y-61411121D01*
X116030030Y-61411122D01*
X116169005Y-61485406D01*
X116169007Y-61485407D01*
X116169006Y-61485407D01*
X116290822Y-61585378D01*
X116390793Y-61707194D01*
X116465079Y-61846172D01*
X116510824Y-61996973D01*
X116526270Y-62153800D01*
X116510824Y-62310627D01*
X116466951Y-62455257D01*
X116465078Y-62461430D01*
X116390794Y-62600405D01*
X116290822Y-62722222D01*
X116169005Y-62822194D01*
X116077548Y-62871079D01*
X116030028Y-62896479D01*
X115879227Y-62942224D01*
X115800871Y-62949941D01*
X115761694Y-62953800D01*
X115683106Y-62953800D01*
X115643929Y-62949941D01*
X115565573Y-62942224D01*
X115414772Y-62896479D01*
X115367252Y-62871079D01*
X115275795Y-62822194D01*
X115153978Y-62722222D01*
X115054006Y-62600405D01*
X114979722Y-62461430D01*
X114977849Y-62455257D01*
X114933976Y-62310627D01*
X114918530Y-62153800D01*
X114933976Y-61996973D01*
X114979721Y-61846172D01*
X115054007Y-61707194D01*
X115153978Y-61585378D01*
X115275794Y-61485407D01*
X115275793Y-61485407D01*
X115275795Y-61485406D01*
X115414770Y-61411122D01*
X115414772Y-61411121D01*
X115565573Y-61365376D01*
X115643929Y-61357659D01*
X115683106Y-61353800D01*
X115761694Y-61353800D01*
X115800871Y-61357659D01*
X115800871Y-61357659D01*
G37*
G36*
X226240071Y-61332259D02*
G01*
X226318427Y-61339976D01*
X226469228Y-61385721D01*
X226469230Y-61385722D01*
X226608205Y-61460006D01*
X226730022Y-61559978D01*
X226829994Y-61681795D01*
X226879737Y-61774858D01*
X226904279Y-61820772D01*
X226950024Y-61971573D01*
X226965470Y-62128400D01*
X226950024Y-62285227D01*
X226904279Y-62436028D01*
X226904278Y-62436030D01*
X226829994Y-62575005D01*
X226730022Y-62696822D01*
X226608205Y-62796794D01*
X226484807Y-62862752D01*
X226469228Y-62871079D01*
X226318427Y-62916824D01*
X226240071Y-62924541D01*
X226200894Y-62928400D01*
X226122306Y-62928400D01*
X226083129Y-62924541D01*
X226004773Y-62916824D01*
X225853972Y-62871079D01*
X225838393Y-62862752D01*
X225714995Y-62796794D01*
X225593178Y-62696822D01*
X225493206Y-62575005D01*
X225418922Y-62436030D01*
X225418921Y-62436028D01*
X225373176Y-62285227D01*
X225357730Y-62128400D01*
X225373176Y-61971573D01*
X225418921Y-61820772D01*
X225443463Y-61774858D01*
X225493206Y-61681795D01*
X225593178Y-61559978D01*
X225714995Y-61460006D01*
X225853970Y-61385722D01*
X225853972Y-61385721D01*
X226004773Y-61339976D01*
X226083129Y-61332259D01*
X226122306Y-61328400D01*
X226200894Y-61328400D01*
X226240071Y-61332259D01*
X226240071Y-61332259D01*
G37*
M02*
