G04 #@! TF.GenerationSoftware,KiCad,Pcbnew,5.1.4+dfsg1-1*
G04 #@! TF.CreationDate,2019-10-02T13:31:48+02:00*
G04 #@! TF.ProjectId,fat_bastard_lead,6661745f-6261-4737-9461-72645f6c6561,rev?*
G04 #@! TF.SameCoordinates,Original*
G04 #@! TF.FileFunction,Copper,L2,Bot*
G04 #@! TF.FilePolarity,Positive*
%FSLAX46Y46*%
G04 Gerber Fmt 4.6, Leading zero omitted, Abs format (unit mm)*
G04 Created by KiCad (PCBNEW 5.1.4+dfsg1-1) date 2019-10-02 13:31:48*
%MOMM*%
%LPD*%
G04 APERTURE LIST*
%ADD10C,2.000000*%
%ADD11C,0.100000*%
%ADD12C,3.100000*%
%ADD13R,3.100000X3.100000*%
%ADD14R,1.700000X1.700000*%
%ADD15O,1.700000X1.700000*%
%ADD16C,1.600000*%
%ADD17O,1.600000X1.600000*%
%ADD18C,2.500000*%
%ADD19R,2.500000X2.500000*%
%ADD20C,2.400000*%
%ADD21R,2.400000X2.400000*%
%ADD22C,1.000000*%
%ADD23R,1.500000X1.000000*%
%ADD24C,0.800000*%
%ADD25C,1.200000*%
%ADD26C,0.600000*%
%ADD27C,0.254000*%
G04 APERTURE END LIST*
D10*
X113788200Y-66827400D03*
X108788200Y-66827400D03*
D11*
G36*
X205510963Y-81453732D02*
G01*
X205586195Y-81464891D01*
X205659971Y-81483371D01*
X205731580Y-81508993D01*
X205800332Y-81541511D01*
X205865567Y-81580611D01*
X205926655Y-81625917D01*
X205983008Y-81676992D01*
X206034083Y-81733345D01*
X206079389Y-81794433D01*
X206118489Y-81859668D01*
X206151007Y-81928420D01*
X206176629Y-82000029D01*
X206195109Y-82073805D01*
X206206268Y-82149037D01*
X206210000Y-82225000D01*
X206210000Y-83775000D01*
X206206268Y-83850963D01*
X206195109Y-83926195D01*
X206176629Y-83999971D01*
X206151007Y-84071580D01*
X206118489Y-84140332D01*
X206079389Y-84205567D01*
X206034083Y-84266655D01*
X205983008Y-84323008D01*
X205926655Y-84374083D01*
X205865567Y-84419389D01*
X205800332Y-84458489D01*
X205731580Y-84491007D01*
X205659971Y-84516629D01*
X205586195Y-84535109D01*
X205510963Y-84546268D01*
X205435000Y-84550000D01*
X203885000Y-84550000D01*
X203809037Y-84546268D01*
X203733805Y-84535109D01*
X203660029Y-84516629D01*
X203588420Y-84491007D01*
X203519668Y-84458489D01*
X203454433Y-84419389D01*
X203393345Y-84374083D01*
X203336992Y-84323008D01*
X203285917Y-84266655D01*
X203240611Y-84205567D01*
X203201511Y-84140332D01*
X203168993Y-84071580D01*
X203143371Y-83999971D01*
X203124891Y-83926195D01*
X203113732Y-83850963D01*
X203110000Y-83775000D01*
X203110000Y-82225000D01*
X203113732Y-82149037D01*
X203124891Y-82073805D01*
X203143371Y-82000029D01*
X203168993Y-81928420D01*
X203201511Y-81859668D01*
X203240611Y-81794433D01*
X203285917Y-81733345D01*
X203336992Y-81676992D01*
X203393345Y-81625917D01*
X203454433Y-81580611D01*
X203519668Y-81541511D01*
X203588420Y-81508993D01*
X203660029Y-81483371D01*
X203733805Y-81464891D01*
X203809037Y-81453732D01*
X203885000Y-81450000D01*
X205435000Y-81450000D01*
X205510963Y-81453732D01*
X205510963Y-81453732D01*
G37*
D12*
X204660000Y-83000000D03*
D11*
G36*
X201690963Y-76203732D02*
G01*
X201766195Y-76214891D01*
X201839971Y-76233371D01*
X201911580Y-76258993D01*
X201980332Y-76291511D01*
X202045567Y-76330611D01*
X202106655Y-76375917D01*
X202163008Y-76426992D01*
X202214083Y-76483345D01*
X202259389Y-76544433D01*
X202298489Y-76609668D01*
X202331007Y-76678420D01*
X202356629Y-76750029D01*
X202375109Y-76823805D01*
X202386268Y-76899037D01*
X202390000Y-76975000D01*
X202390000Y-78525000D01*
X202386268Y-78600963D01*
X202375109Y-78676195D01*
X202356629Y-78749971D01*
X202331007Y-78821580D01*
X202298489Y-78890332D01*
X202259389Y-78955567D01*
X202214083Y-79016655D01*
X202163008Y-79073008D01*
X202106655Y-79124083D01*
X202045567Y-79169389D01*
X201980332Y-79208489D01*
X201911580Y-79241007D01*
X201839971Y-79266629D01*
X201766195Y-79285109D01*
X201690963Y-79296268D01*
X201615000Y-79300000D01*
X200065000Y-79300000D01*
X199989037Y-79296268D01*
X199913805Y-79285109D01*
X199840029Y-79266629D01*
X199768420Y-79241007D01*
X199699668Y-79208489D01*
X199634433Y-79169389D01*
X199573345Y-79124083D01*
X199516992Y-79073008D01*
X199465917Y-79016655D01*
X199420611Y-78955567D01*
X199381511Y-78890332D01*
X199348993Y-78821580D01*
X199323371Y-78749971D01*
X199304891Y-78676195D01*
X199293732Y-78600963D01*
X199290000Y-78525000D01*
X199290000Y-76975000D01*
X199293732Y-76899037D01*
X199304891Y-76823805D01*
X199323371Y-76750029D01*
X199348993Y-76678420D01*
X199381511Y-76609668D01*
X199420611Y-76544433D01*
X199465917Y-76483345D01*
X199516992Y-76426992D01*
X199573345Y-76375917D01*
X199634433Y-76330611D01*
X199699668Y-76291511D01*
X199768420Y-76258993D01*
X199840029Y-76233371D01*
X199913805Y-76214891D01*
X199989037Y-76203732D01*
X200065000Y-76200000D01*
X201615000Y-76200000D01*
X201690963Y-76203732D01*
X201690963Y-76203732D01*
G37*
D12*
X200840000Y-77750000D03*
D11*
G36*
X201690963Y-69713732D02*
G01*
X201766195Y-69724891D01*
X201839971Y-69743371D01*
X201911580Y-69768993D01*
X201980332Y-69801511D01*
X202045567Y-69840611D01*
X202106655Y-69885917D01*
X202163008Y-69936992D01*
X202214083Y-69993345D01*
X202259389Y-70054433D01*
X202298489Y-70119668D01*
X202331007Y-70188420D01*
X202356629Y-70260029D01*
X202375109Y-70333805D01*
X202386268Y-70409037D01*
X202390000Y-70485000D01*
X202390000Y-72035000D01*
X202386268Y-72110963D01*
X202375109Y-72186195D01*
X202356629Y-72259971D01*
X202331007Y-72331580D01*
X202298489Y-72400332D01*
X202259389Y-72465567D01*
X202214083Y-72526655D01*
X202163008Y-72583008D01*
X202106655Y-72634083D01*
X202045567Y-72679389D01*
X201980332Y-72718489D01*
X201911580Y-72751007D01*
X201839971Y-72776629D01*
X201766195Y-72795109D01*
X201690963Y-72806268D01*
X201615000Y-72810000D01*
X200065000Y-72810000D01*
X199989037Y-72806268D01*
X199913805Y-72795109D01*
X199840029Y-72776629D01*
X199768420Y-72751007D01*
X199699668Y-72718489D01*
X199634433Y-72679389D01*
X199573345Y-72634083D01*
X199516992Y-72583008D01*
X199465917Y-72526655D01*
X199420611Y-72465567D01*
X199381511Y-72400332D01*
X199348993Y-72331580D01*
X199323371Y-72259971D01*
X199304891Y-72186195D01*
X199293732Y-72110963D01*
X199290000Y-72035000D01*
X199290000Y-70485000D01*
X199293732Y-70409037D01*
X199304891Y-70333805D01*
X199323371Y-70260029D01*
X199348993Y-70188420D01*
X199381511Y-70119668D01*
X199420611Y-70054433D01*
X199465917Y-69993345D01*
X199516992Y-69936992D01*
X199573345Y-69885917D01*
X199634433Y-69840611D01*
X199699668Y-69801511D01*
X199768420Y-69768993D01*
X199840029Y-69743371D01*
X199913805Y-69724891D01*
X199989037Y-69713732D01*
X200065000Y-69710000D01*
X201615000Y-69710000D01*
X201690963Y-69713732D01*
X201690963Y-69713732D01*
G37*
D12*
X200840000Y-71260000D03*
D11*
G36*
X205510963Y-64463732D02*
G01*
X205586195Y-64474891D01*
X205659971Y-64493371D01*
X205731580Y-64518993D01*
X205800332Y-64551511D01*
X205865567Y-64590611D01*
X205926655Y-64635917D01*
X205983008Y-64686992D01*
X206034083Y-64743345D01*
X206079389Y-64804433D01*
X206118489Y-64869668D01*
X206151007Y-64938420D01*
X206176629Y-65010029D01*
X206195109Y-65083805D01*
X206206268Y-65159037D01*
X206210000Y-65235000D01*
X206210000Y-66785000D01*
X206206268Y-66860963D01*
X206195109Y-66936195D01*
X206176629Y-67009971D01*
X206151007Y-67081580D01*
X206118489Y-67150332D01*
X206079389Y-67215567D01*
X206034083Y-67276655D01*
X205983008Y-67333008D01*
X205926655Y-67384083D01*
X205865567Y-67429389D01*
X205800332Y-67468489D01*
X205731580Y-67501007D01*
X205659971Y-67526629D01*
X205586195Y-67545109D01*
X205510963Y-67556268D01*
X205435000Y-67560000D01*
X203885000Y-67560000D01*
X203809037Y-67556268D01*
X203733805Y-67545109D01*
X203660029Y-67526629D01*
X203588420Y-67501007D01*
X203519668Y-67468489D01*
X203454433Y-67429389D01*
X203393345Y-67384083D01*
X203336992Y-67333008D01*
X203285917Y-67276655D01*
X203240611Y-67215567D01*
X203201511Y-67150332D01*
X203168993Y-67081580D01*
X203143371Y-67009971D01*
X203124891Y-66936195D01*
X203113732Y-66860963D01*
X203110000Y-66785000D01*
X203110000Y-65235000D01*
X203113732Y-65159037D01*
X203124891Y-65083805D01*
X203143371Y-65010029D01*
X203168993Y-64938420D01*
X203201511Y-64869668D01*
X203240611Y-64804433D01*
X203285917Y-64743345D01*
X203336992Y-64686992D01*
X203393345Y-64635917D01*
X203454433Y-64590611D01*
X203519668Y-64551511D01*
X203588420Y-64518993D01*
X203660029Y-64493371D01*
X203733805Y-64474891D01*
X203809037Y-64463732D01*
X203885000Y-64460000D01*
X205435000Y-64460000D01*
X205510963Y-64463732D01*
X205510963Y-64463732D01*
G37*
D12*
X204660000Y-66010000D03*
D11*
G36*
X211680963Y-62463732D02*
G01*
X211756195Y-62474891D01*
X211829971Y-62493371D01*
X211901580Y-62518993D01*
X211970332Y-62551511D01*
X212035567Y-62590611D01*
X212096655Y-62635917D01*
X212153008Y-62686992D01*
X212204083Y-62743345D01*
X212249389Y-62804433D01*
X212288489Y-62869668D01*
X212321007Y-62938420D01*
X212346629Y-63010029D01*
X212365109Y-63083805D01*
X212376268Y-63159037D01*
X212380000Y-63235000D01*
X212380000Y-64785000D01*
X212376268Y-64860963D01*
X212365109Y-64936195D01*
X212346629Y-65009971D01*
X212321007Y-65081580D01*
X212288489Y-65150332D01*
X212249389Y-65215567D01*
X212204083Y-65276655D01*
X212153008Y-65333008D01*
X212096655Y-65384083D01*
X212035567Y-65429389D01*
X211970332Y-65468489D01*
X211901580Y-65501007D01*
X211829971Y-65526629D01*
X211756195Y-65545109D01*
X211680963Y-65556268D01*
X211605000Y-65560000D01*
X210055000Y-65560000D01*
X209979037Y-65556268D01*
X209903805Y-65545109D01*
X209830029Y-65526629D01*
X209758420Y-65501007D01*
X209689668Y-65468489D01*
X209624433Y-65429389D01*
X209563345Y-65384083D01*
X209506992Y-65333008D01*
X209455917Y-65276655D01*
X209410611Y-65215567D01*
X209371511Y-65150332D01*
X209338993Y-65081580D01*
X209313371Y-65009971D01*
X209294891Y-64936195D01*
X209283732Y-64860963D01*
X209280000Y-64785000D01*
X209280000Y-63235000D01*
X209283732Y-63159037D01*
X209294891Y-63083805D01*
X209313371Y-63010029D01*
X209338993Y-62938420D01*
X209371511Y-62869668D01*
X209410611Y-62804433D01*
X209455917Y-62743345D01*
X209506992Y-62686992D01*
X209563345Y-62635917D01*
X209624433Y-62590611D01*
X209689668Y-62551511D01*
X209758420Y-62518993D01*
X209830029Y-62493371D01*
X209903805Y-62474891D01*
X209979037Y-62463732D01*
X210055000Y-62460000D01*
X211605000Y-62460000D01*
X211680963Y-62463732D01*
X211680963Y-62463732D01*
G37*
D12*
X210830000Y-64010000D03*
D11*
G36*
X217850963Y-64463732D02*
G01*
X217926195Y-64474891D01*
X217999971Y-64493371D01*
X218071580Y-64518993D01*
X218140332Y-64551511D01*
X218205567Y-64590611D01*
X218266655Y-64635917D01*
X218323008Y-64686992D01*
X218374083Y-64743345D01*
X218419389Y-64804433D01*
X218458489Y-64869668D01*
X218491007Y-64938420D01*
X218516629Y-65010029D01*
X218535109Y-65083805D01*
X218546268Y-65159037D01*
X218550000Y-65235000D01*
X218550000Y-66785000D01*
X218546268Y-66860963D01*
X218535109Y-66936195D01*
X218516629Y-67009971D01*
X218491007Y-67081580D01*
X218458489Y-67150332D01*
X218419389Y-67215567D01*
X218374083Y-67276655D01*
X218323008Y-67333008D01*
X218266655Y-67384083D01*
X218205567Y-67429389D01*
X218140332Y-67468489D01*
X218071580Y-67501007D01*
X217999971Y-67526629D01*
X217926195Y-67545109D01*
X217850963Y-67556268D01*
X217775000Y-67560000D01*
X216225000Y-67560000D01*
X216149037Y-67556268D01*
X216073805Y-67545109D01*
X216000029Y-67526629D01*
X215928420Y-67501007D01*
X215859668Y-67468489D01*
X215794433Y-67429389D01*
X215733345Y-67384083D01*
X215676992Y-67333008D01*
X215625917Y-67276655D01*
X215580611Y-67215567D01*
X215541511Y-67150332D01*
X215508993Y-67081580D01*
X215483371Y-67009971D01*
X215464891Y-66936195D01*
X215453732Y-66860963D01*
X215450000Y-66785000D01*
X215450000Y-65235000D01*
X215453732Y-65159037D01*
X215464891Y-65083805D01*
X215483371Y-65010029D01*
X215508993Y-64938420D01*
X215541511Y-64869668D01*
X215580611Y-64804433D01*
X215625917Y-64743345D01*
X215676992Y-64686992D01*
X215733345Y-64635917D01*
X215794433Y-64590611D01*
X215859668Y-64551511D01*
X215928420Y-64518993D01*
X216000029Y-64493371D01*
X216073805Y-64474891D01*
X216149037Y-64463732D01*
X216225000Y-64460000D01*
X217775000Y-64460000D01*
X217850963Y-64463732D01*
X217850963Y-64463732D01*
G37*
D12*
X217000000Y-66010000D03*
D11*
G36*
X221660963Y-69713732D02*
G01*
X221736195Y-69724891D01*
X221809971Y-69743371D01*
X221881580Y-69768993D01*
X221950332Y-69801511D01*
X222015567Y-69840611D01*
X222076655Y-69885917D01*
X222133008Y-69936992D01*
X222184083Y-69993345D01*
X222229389Y-70054433D01*
X222268489Y-70119668D01*
X222301007Y-70188420D01*
X222326629Y-70260029D01*
X222345109Y-70333805D01*
X222356268Y-70409037D01*
X222360000Y-70485000D01*
X222360000Y-72035000D01*
X222356268Y-72110963D01*
X222345109Y-72186195D01*
X222326629Y-72259971D01*
X222301007Y-72331580D01*
X222268489Y-72400332D01*
X222229389Y-72465567D01*
X222184083Y-72526655D01*
X222133008Y-72583008D01*
X222076655Y-72634083D01*
X222015567Y-72679389D01*
X221950332Y-72718489D01*
X221881580Y-72751007D01*
X221809971Y-72776629D01*
X221736195Y-72795109D01*
X221660963Y-72806268D01*
X221585000Y-72810000D01*
X220035000Y-72810000D01*
X219959037Y-72806268D01*
X219883805Y-72795109D01*
X219810029Y-72776629D01*
X219738420Y-72751007D01*
X219669668Y-72718489D01*
X219604433Y-72679389D01*
X219543345Y-72634083D01*
X219486992Y-72583008D01*
X219435917Y-72526655D01*
X219390611Y-72465567D01*
X219351511Y-72400332D01*
X219318993Y-72331580D01*
X219293371Y-72259971D01*
X219274891Y-72186195D01*
X219263732Y-72110963D01*
X219260000Y-72035000D01*
X219260000Y-70485000D01*
X219263732Y-70409037D01*
X219274891Y-70333805D01*
X219293371Y-70260029D01*
X219318993Y-70188420D01*
X219351511Y-70119668D01*
X219390611Y-70054433D01*
X219435917Y-69993345D01*
X219486992Y-69936992D01*
X219543345Y-69885917D01*
X219604433Y-69840611D01*
X219669668Y-69801511D01*
X219738420Y-69768993D01*
X219810029Y-69743371D01*
X219883805Y-69724891D01*
X219959037Y-69713732D01*
X220035000Y-69710000D01*
X221585000Y-69710000D01*
X221660963Y-69713732D01*
X221660963Y-69713732D01*
G37*
D12*
X220810000Y-71260000D03*
D11*
G36*
X221660963Y-76203732D02*
G01*
X221736195Y-76214891D01*
X221809971Y-76233371D01*
X221881580Y-76258993D01*
X221950332Y-76291511D01*
X222015567Y-76330611D01*
X222076655Y-76375917D01*
X222133008Y-76426992D01*
X222184083Y-76483345D01*
X222229389Y-76544433D01*
X222268489Y-76609668D01*
X222301007Y-76678420D01*
X222326629Y-76750029D01*
X222345109Y-76823805D01*
X222356268Y-76899037D01*
X222360000Y-76975000D01*
X222360000Y-78525000D01*
X222356268Y-78600963D01*
X222345109Y-78676195D01*
X222326629Y-78749971D01*
X222301007Y-78821580D01*
X222268489Y-78890332D01*
X222229389Y-78955567D01*
X222184083Y-79016655D01*
X222133008Y-79073008D01*
X222076655Y-79124083D01*
X222015567Y-79169389D01*
X221950332Y-79208489D01*
X221881580Y-79241007D01*
X221809971Y-79266629D01*
X221736195Y-79285109D01*
X221660963Y-79296268D01*
X221585000Y-79300000D01*
X220035000Y-79300000D01*
X219959037Y-79296268D01*
X219883805Y-79285109D01*
X219810029Y-79266629D01*
X219738420Y-79241007D01*
X219669668Y-79208489D01*
X219604433Y-79169389D01*
X219543345Y-79124083D01*
X219486992Y-79073008D01*
X219435917Y-79016655D01*
X219390611Y-78955567D01*
X219351511Y-78890332D01*
X219318993Y-78821580D01*
X219293371Y-78749971D01*
X219274891Y-78676195D01*
X219263732Y-78600963D01*
X219260000Y-78525000D01*
X219260000Y-76975000D01*
X219263732Y-76899037D01*
X219274891Y-76823805D01*
X219293371Y-76750029D01*
X219318993Y-76678420D01*
X219351511Y-76609668D01*
X219390611Y-76544433D01*
X219435917Y-76483345D01*
X219486992Y-76426992D01*
X219543345Y-76375917D01*
X219604433Y-76330611D01*
X219669668Y-76291511D01*
X219738420Y-76258993D01*
X219810029Y-76233371D01*
X219883805Y-76214891D01*
X219959037Y-76203732D01*
X220035000Y-76200000D01*
X221585000Y-76200000D01*
X221660963Y-76203732D01*
X221660963Y-76203732D01*
G37*
D12*
X220810000Y-77750000D03*
D13*
X217000000Y-83000000D03*
D11*
G36*
X132010963Y-81453732D02*
G01*
X132086195Y-81464891D01*
X132159971Y-81483371D01*
X132231580Y-81508993D01*
X132300332Y-81541511D01*
X132365567Y-81580611D01*
X132426655Y-81625917D01*
X132483008Y-81676992D01*
X132534083Y-81733345D01*
X132579389Y-81794433D01*
X132618489Y-81859668D01*
X132651007Y-81928420D01*
X132676629Y-82000029D01*
X132695109Y-82073805D01*
X132706268Y-82149037D01*
X132710000Y-82225000D01*
X132710000Y-83775000D01*
X132706268Y-83850963D01*
X132695109Y-83926195D01*
X132676629Y-83999971D01*
X132651007Y-84071580D01*
X132618489Y-84140332D01*
X132579389Y-84205567D01*
X132534083Y-84266655D01*
X132483008Y-84323008D01*
X132426655Y-84374083D01*
X132365567Y-84419389D01*
X132300332Y-84458489D01*
X132231580Y-84491007D01*
X132159971Y-84516629D01*
X132086195Y-84535109D01*
X132010963Y-84546268D01*
X131935000Y-84550000D01*
X130385000Y-84550000D01*
X130309037Y-84546268D01*
X130233805Y-84535109D01*
X130160029Y-84516629D01*
X130088420Y-84491007D01*
X130019668Y-84458489D01*
X129954433Y-84419389D01*
X129893345Y-84374083D01*
X129836992Y-84323008D01*
X129785917Y-84266655D01*
X129740611Y-84205567D01*
X129701511Y-84140332D01*
X129668993Y-84071580D01*
X129643371Y-83999971D01*
X129624891Y-83926195D01*
X129613732Y-83850963D01*
X129610000Y-83775000D01*
X129610000Y-82225000D01*
X129613732Y-82149037D01*
X129624891Y-82073805D01*
X129643371Y-82000029D01*
X129668993Y-81928420D01*
X129701511Y-81859668D01*
X129740611Y-81794433D01*
X129785917Y-81733345D01*
X129836992Y-81676992D01*
X129893345Y-81625917D01*
X129954433Y-81580611D01*
X130019668Y-81541511D01*
X130088420Y-81508993D01*
X130160029Y-81483371D01*
X130233805Y-81464891D01*
X130309037Y-81453732D01*
X130385000Y-81450000D01*
X131935000Y-81450000D01*
X132010963Y-81453732D01*
X132010963Y-81453732D01*
G37*
D12*
X131160000Y-83000000D03*
D11*
G36*
X128190963Y-76203732D02*
G01*
X128266195Y-76214891D01*
X128339971Y-76233371D01*
X128411580Y-76258993D01*
X128480332Y-76291511D01*
X128545567Y-76330611D01*
X128606655Y-76375917D01*
X128663008Y-76426992D01*
X128714083Y-76483345D01*
X128759389Y-76544433D01*
X128798489Y-76609668D01*
X128831007Y-76678420D01*
X128856629Y-76750029D01*
X128875109Y-76823805D01*
X128886268Y-76899037D01*
X128890000Y-76975000D01*
X128890000Y-78525000D01*
X128886268Y-78600963D01*
X128875109Y-78676195D01*
X128856629Y-78749971D01*
X128831007Y-78821580D01*
X128798489Y-78890332D01*
X128759389Y-78955567D01*
X128714083Y-79016655D01*
X128663008Y-79073008D01*
X128606655Y-79124083D01*
X128545567Y-79169389D01*
X128480332Y-79208489D01*
X128411580Y-79241007D01*
X128339971Y-79266629D01*
X128266195Y-79285109D01*
X128190963Y-79296268D01*
X128115000Y-79300000D01*
X126565000Y-79300000D01*
X126489037Y-79296268D01*
X126413805Y-79285109D01*
X126340029Y-79266629D01*
X126268420Y-79241007D01*
X126199668Y-79208489D01*
X126134433Y-79169389D01*
X126073345Y-79124083D01*
X126016992Y-79073008D01*
X125965917Y-79016655D01*
X125920611Y-78955567D01*
X125881511Y-78890332D01*
X125848993Y-78821580D01*
X125823371Y-78749971D01*
X125804891Y-78676195D01*
X125793732Y-78600963D01*
X125790000Y-78525000D01*
X125790000Y-76975000D01*
X125793732Y-76899037D01*
X125804891Y-76823805D01*
X125823371Y-76750029D01*
X125848993Y-76678420D01*
X125881511Y-76609668D01*
X125920611Y-76544433D01*
X125965917Y-76483345D01*
X126016992Y-76426992D01*
X126073345Y-76375917D01*
X126134433Y-76330611D01*
X126199668Y-76291511D01*
X126268420Y-76258993D01*
X126340029Y-76233371D01*
X126413805Y-76214891D01*
X126489037Y-76203732D01*
X126565000Y-76200000D01*
X128115000Y-76200000D01*
X128190963Y-76203732D01*
X128190963Y-76203732D01*
G37*
D12*
X127340000Y-77750000D03*
D11*
G36*
X128190963Y-69713732D02*
G01*
X128266195Y-69724891D01*
X128339971Y-69743371D01*
X128411580Y-69768993D01*
X128480332Y-69801511D01*
X128545567Y-69840611D01*
X128606655Y-69885917D01*
X128663008Y-69936992D01*
X128714083Y-69993345D01*
X128759389Y-70054433D01*
X128798489Y-70119668D01*
X128831007Y-70188420D01*
X128856629Y-70260029D01*
X128875109Y-70333805D01*
X128886268Y-70409037D01*
X128890000Y-70485000D01*
X128890000Y-72035000D01*
X128886268Y-72110963D01*
X128875109Y-72186195D01*
X128856629Y-72259971D01*
X128831007Y-72331580D01*
X128798489Y-72400332D01*
X128759389Y-72465567D01*
X128714083Y-72526655D01*
X128663008Y-72583008D01*
X128606655Y-72634083D01*
X128545567Y-72679389D01*
X128480332Y-72718489D01*
X128411580Y-72751007D01*
X128339971Y-72776629D01*
X128266195Y-72795109D01*
X128190963Y-72806268D01*
X128115000Y-72810000D01*
X126565000Y-72810000D01*
X126489037Y-72806268D01*
X126413805Y-72795109D01*
X126340029Y-72776629D01*
X126268420Y-72751007D01*
X126199668Y-72718489D01*
X126134433Y-72679389D01*
X126073345Y-72634083D01*
X126016992Y-72583008D01*
X125965917Y-72526655D01*
X125920611Y-72465567D01*
X125881511Y-72400332D01*
X125848993Y-72331580D01*
X125823371Y-72259971D01*
X125804891Y-72186195D01*
X125793732Y-72110963D01*
X125790000Y-72035000D01*
X125790000Y-70485000D01*
X125793732Y-70409037D01*
X125804891Y-70333805D01*
X125823371Y-70260029D01*
X125848993Y-70188420D01*
X125881511Y-70119668D01*
X125920611Y-70054433D01*
X125965917Y-69993345D01*
X126016992Y-69936992D01*
X126073345Y-69885917D01*
X126134433Y-69840611D01*
X126199668Y-69801511D01*
X126268420Y-69768993D01*
X126340029Y-69743371D01*
X126413805Y-69724891D01*
X126489037Y-69713732D01*
X126565000Y-69710000D01*
X128115000Y-69710000D01*
X128190963Y-69713732D01*
X128190963Y-69713732D01*
G37*
D12*
X127340000Y-71260000D03*
D11*
G36*
X132010963Y-64463732D02*
G01*
X132086195Y-64474891D01*
X132159971Y-64493371D01*
X132231580Y-64518993D01*
X132300332Y-64551511D01*
X132365567Y-64590611D01*
X132426655Y-64635917D01*
X132483008Y-64686992D01*
X132534083Y-64743345D01*
X132579389Y-64804433D01*
X132618489Y-64869668D01*
X132651007Y-64938420D01*
X132676629Y-65010029D01*
X132695109Y-65083805D01*
X132706268Y-65159037D01*
X132710000Y-65235000D01*
X132710000Y-66785000D01*
X132706268Y-66860963D01*
X132695109Y-66936195D01*
X132676629Y-67009971D01*
X132651007Y-67081580D01*
X132618489Y-67150332D01*
X132579389Y-67215567D01*
X132534083Y-67276655D01*
X132483008Y-67333008D01*
X132426655Y-67384083D01*
X132365567Y-67429389D01*
X132300332Y-67468489D01*
X132231580Y-67501007D01*
X132159971Y-67526629D01*
X132086195Y-67545109D01*
X132010963Y-67556268D01*
X131935000Y-67560000D01*
X130385000Y-67560000D01*
X130309037Y-67556268D01*
X130233805Y-67545109D01*
X130160029Y-67526629D01*
X130088420Y-67501007D01*
X130019668Y-67468489D01*
X129954433Y-67429389D01*
X129893345Y-67384083D01*
X129836992Y-67333008D01*
X129785917Y-67276655D01*
X129740611Y-67215567D01*
X129701511Y-67150332D01*
X129668993Y-67081580D01*
X129643371Y-67009971D01*
X129624891Y-66936195D01*
X129613732Y-66860963D01*
X129610000Y-66785000D01*
X129610000Y-65235000D01*
X129613732Y-65159037D01*
X129624891Y-65083805D01*
X129643371Y-65010029D01*
X129668993Y-64938420D01*
X129701511Y-64869668D01*
X129740611Y-64804433D01*
X129785917Y-64743345D01*
X129836992Y-64686992D01*
X129893345Y-64635917D01*
X129954433Y-64590611D01*
X130019668Y-64551511D01*
X130088420Y-64518993D01*
X130160029Y-64493371D01*
X130233805Y-64474891D01*
X130309037Y-64463732D01*
X130385000Y-64460000D01*
X131935000Y-64460000D01*
X132010963Y-64463732D01*
X132010963Y-64463732D01*
G37*
D12*
X131160000Y-66010000D03*
D11*
G36*
X138180963Y-62463732D02*
G01*
X138256195Y-62474891D01*
X138329971Y-62493371D01*
X138401580Y-62518993D01*
X138470332Y-62551511D01*
X138535567Y-62590611D01*
X138596655Y-62635917D01*
X138653008Y-62686992D01*
X138704083Y-62743345D01*
X138749389Y-62804433D01*
X138788489Y-62869668D01*
X138821007Y-62938420D01*
X138846629Y-63010029D01*
X138865109Y-63083805D01*
X138876268Y-63159037D01*
X138880000Y-63235000D01*
X138880000Y-64785000D01*
X138876268Y-64860963D01*
X138865109Y-64936195D01*
X138846629Y-65009971D01*
X138821007Y-65081580D01*
X138788489Y-65150332D01*
X138749389Y-65215567D01*
X138704083Y-65276655D01*
X138653008Y-65333008D01*
X138596655Y-65384083D01*
X138535567Y-65429389D01*
X138470332Y-65468489D01*
X138401580Y-65501007D01*
X138329971Y-65526629D01*
X138256195Y-65545109D01*
X138180963Y-65556268D01*
X138105000Y-65560000D01*
X136555000Y-65560000D01*
X136479037Y-65556268D01*
X136403805Y-65545109D01*
X136330029Y-65526629D01*
X136258420Y-65501007D01*
X136189668Y-65468489D01*
X136124433Y-65429389D01*
X136063345Y-65384083D01*
X136006992Y-65333008D01*
X135955917Y-65276655D01*
X135910611Y-65215567D01*
X135871511Y-65150332D01*
X135838993Y-65081580D01*
X135813371Y-65009971D01*
X135794891Y-64936195D01*
X135783732Y-64860963D01*
X135780000Y-64785000D01*
X135780000Y-63235000D01*
X135783732Y-63159037D01*
X135794891Y-63083805D01*
X135813371Y-63010029D01*
X135838993Y-62938420D01*
X135871511Y-62869668D01*
X135910611Y-62804433D01*
X135955917Y-62743345D01*
X136006992Y-62686992D01*
X136063345Y-62635917D01*
X136124433Y-62590611D01*
X136189668Y-62551511D01*
X136258420Y-62518993D01*
X136330029Y-62493371D01*
X136403805Y-62474891D01*
X136479037Y-62463732D01*
X136555000Y-62460000D01*
X138105000Y-62460000D01*
X138180963Y-62463732D01*
X138180963Y-62463732D01*
G37*
D12*
X137330000Y-64010000D03*
D11*
G36*
X144350963Y-64463732D02*
G01*
X144426195Y-64474891D01*
X144499971Y-64493371D01*
X144571580Y-64518993D01*
X144640332Y-64551511D01*
X144705567Y-64590611D01*
X144766655Y-64635917D01*
X144823008Y-64686992D01*
X144874083Y-64743345D01*
X144919389Y-64804433D01*
X144958489Y-64869668D01*
X144991007Y-64938420D01*
X145016629Y-65010029D01*
X145035109Y-65083805D01*
X145046268Y-65159037D01*
X145050000Y-65235000D01*
X145050000Y-66785000D01*
X145046268Y-66860963D01*
X145035109Y-66936195D01*
X145016629Y-67009971D01*
X144991007Y-67081580D01*
X144958489Y-67150332D01*
X144919389Y-67215567D01*
X144874083Y-67276655D01*
X144823008Y-67333008D01*
X144766655Y-67384083D01*
X144705567Y-67429389D01*
X144640332Y-67468489D01*
X144571580Y-67501007D01*
X144499971Y-67526629D01*
X144426195Y-67545109D01*
X144350963Y-67556268D01*
X144275000Y-67560000D01*
X142725000Y-67560000D01*
X142649037Y-67556268D01*
X142573805Y-67545109D01*
X142500029Y-67526629D01*
X142428420Y-67501007D01*
X142359668Y-67468489D01*
X142294433Y-67429389D01*
X142233345Y-67384083D01*
X142176992Y-67333008D01*
X142125917Y-67276655D01*
X142080611Y-67215567D01*
X142041511Y-67150332D01*
X142008993Y-67081580D01*
X141983371Y-67009971D01*
X141964891Y-66936195D01*
X141953732Y-66860963D01*
X141950000Y-66785000D01*
X141950000Y-65235000D01*
X141953732Y-65159037D01*
X141964891Y-65083805D01*
X141983371Y-65010029D01*
X142008993Y-64938420D01*
X142041511Y-64869668D01*
X142080611Y-64804433D01*
X142125917Y-64743345D01*
X142176992Y-64686992D01*
X142233345Y-64635917D01*
X142294433Y-64590611D01*
X142359668Y-64551511D01*
X142428420Y-64518993D01*
X142500029Y-64493371D01*
X142573805Y-64474891D01*
X142649037Y-64463732D01*
X142725000Y-64460000D01*
X144275000Y-64460000D01*
X144350963Y-64463732D01*
X144350963Y-64463732D01*
G37*
D12*
X143500000Y-66010000D03*
D11*
G36*
X148160963Y-69713732D02*
G01*
X148236195Y-69724891D01*
X148309971Y-69743371D01*
X148381580Y-69768993D01*
X148450332Y-69801511D01*
X148515567Y-69840611D01*
X148576655Y-69885917D01*
X148633008Y-69936992D01*
X148684083Y-69993345D01*
X148729389Y-70054433D01*
X148768489Y-70119668D01*
X148801007Y-70188420D01*
X148826629Y-70260029D01*
X148845109Y-70333805D01*
X148856268Y-70409037D01*
X148860000Y-70485000D01*
X148860000Y-72035000D01*
X148856268Y-72110963D01*
X148845109Y-72186195D01*
X148826629Y-72259971D01*
X148801007Y-72331580D01*
X148768489Y-72400332D01*
X148729389Y-72465567D01*
X148684083Y-72526655D01*
X148633008Y-72583008D01*
X148576655Y-72634083D01*
X148515567Y-72679389D01*
X148450332Y-72718489D01*
X148381580Y-72751007D01*
X148309971Y-72776629D01*
X148236195Y-72795109D01*
X148160963Y-72806268D01*
X148085000Y-72810000D01*
X146535000Y-72810000D01*
X146459037Y-72806268D01*
X146383805Y-72795109D01*
X146310029Y-72776629D01*
X146238420Y-72751007D01*
X146169668Y-72718489D01*
X146104433Y-72679389D01*
X146043345Y-72634083D01*
X145986992Y-72583008D01*
X145935917Y-72526655D01*
X145890611Y-72465567D01*
X145851511Y-72400332D01*
X145818993Y-72331580D01*
X145793371Y-72259971D01*
X145774891Y-72186195D01*
X145763732Y-72110963D01*
X145760000Y-72035000D01*
X145760000Y-70485000D01*
X145763732Y-70409037D01*
X145774891Y-70333805D01*
X145793371Y-70260029D01*
X145818993Y-70188420D01*
X145851511Y-70119668D01*
X145890611Y-70054433D01*
X145935917Y-69993345D01*
X145986992Y-69936992D01*
X146043345Y-69885917D01*
X146104433Y-69840611D01*
X146169668Y-69801511D01*
X146238420Y-69768993D01*
X146310029Y-69743371D01*
X146383805Y-69724891D01*
X146459037Y-69713732D01*
X146535000Y-69710000D01*
X148085000Y-69710000D01*
X148160963Y-69713732D01*
X148160963Y-69713732D01*
G37*
D12*
X147310000Y-71260000D03*
D11*
G36*
X148160963Y-76203732D02*
G01*
X148236195Y-76214891D01*
X148309971Y-76233371D01*
X148381580Y-76258993D01*
X148450332Y-76291511D01*
X148515567Y-76330611D01*
X148576655Y-76375917D01*
X148633008Y-76426992D01*
X148684083Y-76483345D01*
X148729389Y-76544433D01*
X148768489Y-76609668D01*
X148801007Y-76678420D01*
X148826629Y-76750029D01*
X148845109Y-76823805D01*
X148856268Y-76899037D01*
X148860000Y-76975000D01*
X148860000Y-78525000D01*
X148856268Y-78600963D01*
X148845109Y-78676195D01*
X148826629Y-78749971D01*
X148801007Y-78821580D01*
X148768489Y-78890332D01*
X148729389Y-78955567D01*
X148684083Y-79016655D01*
X148633008Y-79073008D01*
X148576655Y-79124083D01*
X148515567Y-79169389D01*
X148450332Y-79208489D01*
X148381580Y-79241007D01*
X148309971Y-79266629D01*
X148236195Y-79285109D01*
X148160963Y-79296268D01*
X148085000Y-79300000D01*
X146535000Y-79300000D01*
X146459037Y-79296268D01*
X146383805Y-79285109D01*
X146310029Y-79266629D01*
X146238420Y-79241007D01*
X146169668Y-79208489D01*
X146104433Y-79169389D01*
X146043345Y-79124083D01*
X145986992Y-79073008D01*
X145935917Y-79016655D01*
X145890611Y-78955567D01*
X145851511Y-78890332D01*
X145818993Y-78821580D01*
X145793371Y-78749971D01*
X145774891Y-78676195D01*
X145763732Y-78600963D01*
X145760000Y-78525000D01*
X145760000Y-76975000D01*
X145763732Y-76899037D01*
X145774891Y-76823805D01*
X145793371Y-76750029D01*
X145818993Y-76678420D01*
X145851511Y-76609668D01*
X145890611Y-76544433D01*
X145935917Y-76483345D01*
X145986992Y-76426992D01*
X146043345Y-76375917D01*
X146104433Y-76330611D01*
X146169668Y-76291511D01*
X146238420Y-76258993D01*
X146310029Y-76233371D01*
X146383805Y-76214891D01*
X146459037Y-76203732D01*
X146535000Y-76200000D01*
X148085000Y-76200000D01*
X148160963Y-76203732D01*
X148160963Y-76203732D01*
G37*
D12*
X147310000Y-77750000D03*
D13*
X143500000Y-83000000D03*
D14*
X157000000Y-86000000D03*
D15*
X159540000Y-86000000D03*
D14*
X237972600Y-62128400D03*
D15*
X235432600Y-62128400D03*
D14*
X187553600Y-76657200D03*
D15*
X190093600Y-76657200D03*
X192633600Y-76657200D03*
X77540000Y-86000000D03*
D14*
X75000000Y-86000000D03*
D16*
X226161600Y-74828400D03*
D17*
X226161600Y-62128400D03*
X231546400Y-76936600D03*
D16*
X231546400Y-64236600D03*
D17*
X214807800Y-88468200D03*
D16*
X227507800Y-88468200D03*
D17*
X183591200Y-72999600D03*
D16*
X196291200Y-72999600D03*
D17*
X187248800Y-85217000D03*
D16*
X199948800Y-85217000D03*
X185851800Y-66776600D03*
D17*
X198551800Y-66776600D03*
X150952200Y-75793600D03*
D16*
X163652200Y-75793600D03*
D17*
X163652200Y-80010000D03*
D16*
X150952200Y-80010000D03*
X128422400Y-62153800D03*
D17*
X115722400Y-62153800D03*
D16*
X138379200Y-88798400D03*
D17*
X151079200Y-88798400D03*
D16*
X104038400Y-76123800D03*
D17*
X104038400Y-88823800D03*
X111302800Y-74904600D03*
D16*
X124002800Y-74904600D03*
X123977400Y-78689200D03*
D17*
X111277400Y-78689200D03*
D16*
X108788200Y-71018400D03*
D17*
X121488200Y-71018400D03*
X163652200Y-69037200D03*
D16*
X150952200Y-69037200D03*
X74752200Y-76123800D03*
D17*
X74752200Y-63423800D03*
D18*
X68271400Y-65735200D03*
D19*
X63271400Y-65735200D03*
D16*
X236118400Y-74828400D03*
X236118400Y-69828400D03*
X187528200Y-80797400D03*
X192528200Y-80797400D03*
X116277400Y-83159600D03*
X111277400Y-83159600D03*
D10*
X183304200Y-69342000D03*
X173304200Y-69342000D03*
X108153200Y-88138000D03*
X118153200Y-88138000D03*
D20*
X84709000Y-84226400D03*
X99709000Y-84226400D03*
D21*
X178612800Y-77571600D03*
D20*
X178612800Y-82571600D03*
D21*
X93091000Y-64947800D03*
D20*
X93091000Y-72447800D03*
X168148000Y-71156800D03*
X168148000Y-86156800D03*
X81356200Y-79197200D03*
X81356200Y-64197200D03*
D22*
X159537400Y-84084400D03*
D11*
G36*
X160137400Y-84584400D02*
G01*
X160137400Y-84984400D01*
X159737400Y-84984400D01*
X159737400Y-84584400D01*
X159337400Y-84584400D01*
X159337400Y-84984400D01*
X158937400Y-84984400D01*
X158937400Y-84584400D01*
X158787400Y-84584400D01*
X158787400Y-83584400D01*
X160287400Y-83584400D01*
X160287400Y-84584400D01*
X160137400Y-84584400D01*
X160137400Y-84584400D01*
G37*
D23*
X159537400Y-85384400D03*
D10*
X198504800Y-89433400D03*
X203504800Y-89433400D03*
X131749800Y-88798400D03*
X121749800Y-88798400D03*
X206004800Y-89433400D03*
X196004800Y-89433400D03*
D24*
X156997400Y-66040000D03*
X210845400Y-75057000D03*
X188925200Y-88290400D03*
X120726200Y-66090800D03*
X138099800Y-75793600D03*
X86029800Y-91059000D03*
D25*
X81356200Y-73380600D02*
X77571600Y-69596000D01*
X72132200Y-69596000D02*
X68271400Y-65735200D01*
X77571600Y-69596000D02*
X72132200Y-69596000D01*
X87103600Y-78435200D02*
X93091000Y-72447800D01*
X79525600Y-87985600D02*
X77540000Y-86000000D01*
X85623400Y-87985600D02*
X79525600Y-87985600D01*
X93091000Y-72447800D02*
X93091000Y-80518000D01*
X93091000Y-80518000D02*
X85623400Y-87985600D01*
X164452199Y-80809999D02*
X163652200Y-80010000D01*
X179857400Y-82571600D02*
X166213800Y-82571600D01*
X166213800Y-82571600D02*
X164452199Y-80809999D01*
X184984400Y-82571600D02*
X179857400Y-82571600D01*
X187248800Y-85217000D02*
X187248800Y-84085630D01*
X185734770Y-82571600D02*
X184984400Y-82571600D01*
X187248800Y-84085630D02*
X185734770Y-82571600D01*
X186708971Y-81597399D02*
X185734770Y-82571600D01*
X187528200Y-80797400D02*
X186728201Y-81597399D01*
X186728201Y-81597399D02*
X186708971Y-81597399D01*
X187528200Y-76682600D02*
X187553600Y-76657200D01*
X187528200Y-80797400D02*
X187528200Y-76682600D01*
X104038400Y-88823800D02*
X104038400Y-86080600D01*
X106959400Y-83159600D02*
X111277400Y-83159600D01*
X104038400Y-86080600D02*
X106959400Y-83159600D01*
X111277400Y-78689200D02*
X111277400Y-83159600D01*
X105036000Y-72447800D02*
X111277400Y-78689200D01*
X93091000Y-72447800D02*
X105036000Y-72447800D01*
X81356200Y-73380600D02*
X81356200Y-79197200D01*
X86341600Y-79197200D02*
X87103600Y-78435200D01*
X81356200Y-79197200D02*
X86341600Y-79197200D01*
X95453200Y-74810000D02*
X93091000Y-72447800D01*
X101420790Y-93749990D02*
X95453200Y-87782400D01*
X174626410Y-93749990D02*
X101420790Y-93749990D01*
X178612800Y-82571600D02*
X178612800Y-89763600D01*
X95453200Y-87782400D02*
X95453200Y-74810000D01*
X178612800Y-89763600D02*
X174626410Y-93749990D01*
X181711600Y-85670400D02*
X178612800Y-82571600D01*
X181711600Y-91490800D02*
X181711600Y-85670400D01*
X229184200Y-76936600D02*
X228117400Y-78003400D01*
X231546400Y-76936600D02*
X229184200Y-76936600D01*
X228117400Y-78003400D02*
X228117400Y-81483200D01*
X228117400Y-81483200D02*
X215850610Y-93749990D01*
X215850610Y-93749990D02*
X183970790Y-93749990D01*
X183970790Y-93749990D02*
X181711600Y-91490800D01*
X175027600Y-86156800D02*
X178612800Y-82571600D01*
X168148000Y-86156800D02*
X175027600Y-86156800D01*
D26*
X81344800Y-63423800D02*
X81356200Y-63435200D01*
X93141800Y-64947800D02*
X94589600Y-63500000D01*
X93091000Y-64947800D02*
X93141800Y-64947800D01*
X105460800Y-63500000D02*
X108788200Y-66827400D01*
X94589600Y-63500000D02*
X105460800Y-63500000D01*
X92340400Y-64197200D02*
X93091000Y-64947800D01*
X81356200Y-64197200D02*
X92340400Y-64197200D01*
X75525600Y-64197200D02*
X74752200Y-63423800D01*
X81356200Y-64197200D02*
X75525600Y-64197200D01*
X131749800Y-88798400D02*
X138379200Y-88798400D01*
X121793000Y-83743800D02*
X124256800Y-83743800D01*
X129311400Y-88798400D02*
X131749800Y-88798400D01*
X124256800Y-83743800D02*
X129311400Y-88798400D01*
X102946200Y-64947800D02*
X107086400Y-69088000D01*
X93091000Y-64947800D02*
X102946200Y-64947800D01*
X107086400Y-69088000D02*
X112141000Y-69088000D01*
X116535200Y-73482200D02*
X116535200Y-78486000D01*
X112141000Y-69088000D02*
X116535200Y-73482200D01*
X116535200Y-78486000D02*
X121793000Y-83743800D01*
X166180800Y-69037200D02*
X163652200Y-69037200D01*
X185674000Y-66192400D02*
X179679600Y-66192400D01*
X178663600Y-77571600D02*
X174715200Y-77571600D01*
X186258200Y-66776600D02*
X185674000Y-66192400D01*
X178663600Y-67208400D02*
X178663600Y-77571600D01*
X179679600Y-66192400D02*
X178663600Y-67208400D01*
X174715200Y-77571600D02*
X166180800Y-69037200D01*
D25*
X157000000Y-86000000D02*
X157000000Y-66042600D01*
X157000000Y-66042600D02*
X156997400Y-66040000D01*
D26*
X74752200Y-76123800D02*
X65862200Y-76123800D01*
X63271400Y-73533000D02*
X63271400Y-65735200D01*
X65862200Y-76123800D02*
X63271400Y-73533000D01*
D25*
X145984600Y-63525400D02*
X143500000Y-66010000D01*
X202539600Y-62026800D02*
X201041000Y-63525400D01*
X206781400Y-62026800D02*
X202539600Y-62026800D01*
X210830000Y-64010000D02*
X208764600Y-64010000D01*
X208764600Y-64010000D02*
X206781400Y-62026800D01*
X159537400Y-63525400D02*
X159537400Y-83949999D01*
X201041000Y-63525400D02*
X159537400Y-63525400D01*
X159537400Y-63525400D02*
X145984600Y-63525400D01*
D27*
G36*
X115135215Y-60736210D02*
G01*
X114869940Y-60878003D01*
X114637424Y-61068824D01*
X114446603Y-61301340D01*
X114304810Y-61566615D01*
X114217495Y-61854456D01*
X114188012Y-62153800D01*
X114217495Y-62453144D01*
X114304810Y-62740985D01*
X114446603Y-63006260D01*
X114637424Y-63238776D01*
X114869940Y-63429597D01*
X115135215Y-63571390D01*
X115423056Y-63658705D01*
X115647389Y-63680800D01*
X115797411Y-63680800D01*
X116021744Y-63658705D01*
X116309585Y-63571390D01*
X116574860Y-63429597D01*
X116807376Y-63238776D01*
X116998197Y-63006260D01*
X117139990Y-62740985D01*
X117227305Y-62453144D01*
X117256788Y-62153800D01*
X117227305Y-61854456D01*
X117139990Y-61566615D01*
X116998197Y-61301340D01*
X116807376Y-61068824D01*
X116574860Y-60878003D01*
X116309585Y-60736210D01*
X116140767Y-60685000D01*
X127979408Y-60685000D01*
X127976990Y-60685481D01*
X127699094Y-60800590D01*
X127448994Y-60967701D01*
X127236301Y-61180394D01*
X127069190Y-61430494D01*
X126954081Y-61708390D01*
X126895400Y-62003404D01*
X126895400Y-62304196D01*
X126954081Y-62599210D01*
X127069190Y-62877106D01*
X127236301Y-63127206D01*
X127448994Y-63339899D01*
X127699094Y-63507010D01*
X127976990Y-63622119D01*
X128184231Y-63663341D01*
X128130617Y-63728670D01*
X127880064Y-64197422D01*
X127725774Y-64706047D01*
X127673677Y-65235000D01*
X127673677Y-66785000D01*
X127725774Y-67313953D01*
X127880064Y-67822578D01*
X128130617Y-68291330D01*
X128467805Y-68702195D01*
X128878670Y-69039383D01*
X129347422Y-69289936D01*
X129856047Y-69444226D01*
X130385000Y-69496323D01*
X131935000Y-69496323D01*
X132463953Y-69444226D01*
X132972578Y-69289936D01*
X133441330Y-69039383D01*
X133852195Y-68702195D01*
X134189383Y-68291330D01*
X134439936Y-67822578D01*
X134594226Y-67313953D01*
X134646323Y-66785000D01*
X134646323Y-65235000D01*
X134594226Y-64706047D01*
X134439936Y-64197422D01*
X134189383Y-63728670D01*
X133852195Y-63317805D01*
X133751297Y-63235000D01*
X135049483Y-63235000D01*
X135049483Y-64785000D01*
X135078411Y-65078712D01*
X135164084Y-65361136D01*
X135303208Y-65621420D01*
X135490439Y-65849561D01*
X135718580Y-66036792D01*
X135978864Y-66175916D01*
X136261288Y-66261589D01*
X136555000Y-66290517D01*
X138105000Y-66290517D01*
X138398712Y-66261589D01*
X138681136Y-66175916D01*
X138941420Y-66036792D01*
X139169561Y-65849561D01*
X139356792Y-65621420D01*
X139495916Y-65361136D01*
X139581589Y-65078712D01*
X139610517Y-64785000D01*
X139610517Y-63235000D01*
X139581589Y-62941288D01*
X139495916Y-62658864D01*
X139356792Y-62398580D01*
X139169561Y-62170439D01*
X138941420Y-61983208D01*
X138681136Y-61844084D01*
X138398712Y-61758411D01*
X138105000Y-61729483D01*
X136555000Y-61729483D01*
X136261288Y-61758411D01*
X135978864Y-61844084D01*
X135718580Y-61983208D01*
X135490439Y-62170439D01*
X135303208Y-62398580D01*
X135164084Y-62658864D01*
X135078411Y-62941288D01*
X135049483Y-63235000D01*
X133751297Y-63235000D01*
X133441330Y-62980617D01*
X132972578Y-62730064D01*
X132463953Y-62575774D01*
X131935000Y-62523677D01*
X130385000Y-62523677D01*
X129896167Y-62571823D01*
X129949400Y-62304196D01*
X129949400Y-62003404D01*
X129890719Y-61708390D01*
X129775610Y-61430494D01*
X129608499Y-61180394D01*
X129395806Y-60967701D01*
X129145706Y-60800590D01*
X128867810Y-60685481D01*
X128865392Y-60685000D01*
X225659500Y-60685000D01*
X225574415Y-60710810D01*
X225309140Y-60852603D01*
X225076624Y-61043424D01*
X224885803Y-61275940D01*
X224744010Y-61541215D01*
X224656695Y-61829056D01*
X224627212Y-62128400D01*
X224656695Y-62427744D01*
X224744010Y-62715585D01*
X224885803Y-62980860D01*
X225076624Y-63213376D01*
X225309140Y-63404197D01*
X225574415Y-63545990D01*
X225862256Y-63633305D01*
X226086589Y-63655400D01*
X226236611Y-63655400D01*
X226460944Y-63633305D01*
X226748785Y-63545990D01*
X227014060Y-63404197D01*
X227246576Y-63213376D01*
X227437397Y-62980860D01*
X227579190Y-62715585D01*
X227666505Y-62427744D01*
X227695988Y-62128400D01*
X227666505Y-61829056D01*
X227579190Y-61541215D01*
X227437397Y-61275940D01*
X227246576Y-61043424D01*
X227014060Y-60852603D01*
X226748785Y-60710810D01*
X226663700Y-60685000D01*
X234787635Y-60685000D01*
X234552227Y-60810828D01*
X234312097Y-61007897D01*
X234115028Y-61248027D01*
X233968593Y-61521988D01*
X233878418Y-61819254D01*
X233847970Y-62128400D01*
X233878418Y-62437546D01*
X233968593Y-62734812D01*
X234115028Y-63008773D01*
X234312097Y-63248903D01*
X234552227Y-63445972D01*
X234826188Y-63592407D01*
X235123454Y-63682582D01*
X235355131Y-63705400D01*
X235510069Y-63705400D01*
X235741746Y-63682582D01*
X236039012Y-63592407D01*
X236312973Y-63445972D01*
X236476468Y-63311796D01*
X236515197Y-63384253D01*
X236606046Y-63494954D01*
X236716747Y-63585803D01*
X236843043Y-63653310D01*
X236980083Y-63694880D01*
X237122600Y-63708917D01*
X238822600Y-63708917D01*
X238965117Y-63694880D01*
X239102157Y-63653310D01*
X239228453Y-63585803D01*
X239315000Y-63514776D01*
X239315001Y-78765400D01*
X230174800Y-78765400D01*
X230149830Y-78767879D01*
X230126017Y-78775143D01*
X230104079Y-78786913D01*
X230084858Y-78802737D01*
X230069094Y-78822007D01*
X230057392Y-78843981D01*
X230050202Y-78867817D01*
X230047800Y-78892597D01*
X230061176Y-87506600D01*
X229924436Y-87176481D01*
X229625999Y-86729839D01*
X229246161Y-86350001D01*
X228799519Y-86051564D01*
X228303237Y-85845997D01*
X227776386Y-85741200D01*
X227239214Y-85741200D01*
X226712363Y-85845997D01*
X226216081Y-86051564D01*
X225769439Y-86350001D01*
X225389601Y-86729839D01*
X225091164Y-87176481D01*
X224885597Y-87672763D01*
X224780800Y-88199614D01*
X224780800Y-88736786D01*
X224885597Y-89263637D01*
X225091164Y-89759919D01*
X225389601Y-90206561D01*
X225769439Y-90586399D01*
X226216081Y-90884836D01*
X226712363Y-91090403D01*
X227239214Y-91195200D01*
X227776386Y-91195200D01*
X228303237Y-91090403D01*
X228799519Y-90884836D01*
X229246161Y-90586399D01*
X229625999Y-90206561D01*
X229924436Y-89759919D01*
X230064151Y-89422618D01*
X230071748Y-94315000D01*
X217162260Y-94315000D01*
X229009640Y-82467621D01*
X229060270Y-82426070D01*
X229132376Y-82338209D01*
X229226098Y-82224009D01*
X229349319Y-81993478D01*
X229372004Y-81918696D01*
X229425199Y-81743337D01*
X229444400Y-81548384D01*
X229444400Y-81548374D01*
X229450819Y-81483200D01*
X229444400Y-81418026D01*
X229444400Y-78553060D01*
X229733861Y-78263600D01*
X230789734Y-78263600D01*
X230959215Y-78354190D01*
X231247056Y-78441505D01*
X231471389Y-78463600D01*
X231621411Y-78463600D01*
X231845744Y-78441505D01*
X232133585Y-78354190D01*
X232398860Y-78212397D01*
X232631376Y-78021576D01*
X232822197Y-77789060D01*
X232963990Y-77523785D01*
X233051305Y-77235944D01*
X233080788Y-76936600D01*
X233051305Y-76637256D01*
X232963990Y-76349415D01*
X232822197Y-76084140D01*
X232631376Y-75851624D01*
X232398860Y-75660803D01*
X232133585Y-75519010D01*
X231845744Y-75431695D01*
X231621411Y-75409600D01*
X231471389Y-75409600D01*
X231247056Y-75431695D01*
X230959215Y-75519010D01*
X230789734Y-75609600D01*
X229249373Y-75609600D01*
X229184199Y-75603181D01*
X229119025Y-75609600D01*
X229119016Y-75609600D01*
X228924063Y-75628801D01*
X228673922Y-75704681D01*
X228443391Y-75827902D01*
X228301931Y-75943996D01*
X228241330Y-75993730D01*
X228199779Y-76044360D01*
X227225165Y-77018975D01*
X227174530Y-77060530D01*
X227132978Y-77111162D01*
X227008702Y-77262592D01*
X226936321Y-77398008D01*
X226885481Y-77493123D01*
X226809601Y-77743264D01*
X226790400Y-77938217D01*
X226790400Y-77938226D01*
X226783981Y-78003400D01*
X226790400Y-78068574D01*
X226790401Y-80933538D01*
X215300950Y-92422990D01*
X184520451Y-92422990D01*
X183038600Y-90941140D01*
X183038600Y-89263305D01*
X194277800Y-89263305D01*
X194277800Y-89603495D01*
X194344168Y-89937147D01*
X194474353Y-90251441D01*
X194663352Y-90534298D01*
X194903902Y-90774848D01*
X195186759Y-90963847D01*
X195501053Y-91094032D01*
X195834705Y-91160400D01*
X196174895Y-91160400D01*
X196508547Y-91094032D01*
X196822841Y-90963847D01*
X197105698Y-90774848D01*
X197254800Y-90625746D01*
X197403902Y-90774848D01*
X197686759Y-90963847D01*
X198001053Y-91094032D01*
X198334705Y-91160400D01*
X198674895Y-91160400D01*
X199008547Y-91094032D01*
X199322841Y-90963847D01*
X199605698Y-90774848D01*
X199846248Y-90534298D01*
X200035247Y-90251441D01*
X200165432Y-89937147D01*
X200231800Y-89603495D01*
X200231800Y-89263305D01*
X200208291Y-89145116D01*
X200577800Y-89145116D01*
X200577800Y-89721684D01*
X200690282Y-90287175D01*
X200910926Y-90819855D01*
X201231250Y-91299254D01*
X201638946Y-91706950D01*
X202118345Y-92027274D01*
X202651025Y-92247918D01*
X203216516Y-92360400D01*
X203793084Y-92360400D01*
X204358575Y-92247918D01*
X204754800Y-92083796D01*
X205151025Y-92247918D01*
X205716516Y-92360400D01*
X206293084Y-92360400D01*
X206858575Y-92247918D01*
X207391255Y-92027274D01*
X207870654Y-91706950D01*
X208278350Y-91299254D01*
X208598674Y-90819855D01*
X208819318Y-90287175D01*
X208931800Y-89721684D01*
X208931800Y-89145116D01*
X208819318Y-88579625D01*
X208773165Y-88468200D01*
X212067606Y-88468200D01*
X212120258Y-89002785D01*
X212276191Y-89516827D01*
X212529412Y-89990570D01*
X212870190Y-90405810D01*
X213285430Y-90746588D01*
X213759173Y-90999809D01*
X214273215Y-91155742D01*
X214673839Y-91195200D01*
X214941761Y-91195200D01*
X215342385Y-91155742D01*
X215856427Y-90999809D01*
X216330170Y-90746588D01*
X216745410Y-90405810D01*
X217086188Y-89990570D01*
X217339409Y-89516827D01*
X217495342Y-89002785D01*
X217547994Y-88468200D01*
X217495342Y-87933615D01*
X217339409Y-87419573D01*
X217086188Y-86945830D01*
X216745410Y-86530590D01*
X216691470Y-86486323D01*
X218550000Y-86486323D01*
X218927758Y-86449117D01*
X219290999Y-86338929D01*
X219625763Y-86159994D01*
X219919187Y-85919187D01*
X220159994Y-85625763D01*
X220338929Y-85290999D01*
X220449117Y-84927758D01*
X220486323Y-84550000D01*
X220486323Y-81450000D01*
X220449117Y-81072242D01*
X220338929Y-80709001D01*
X220159994Y-80374237D01*
X219919187Y-80080813D01*
X219833749Y-80010696D01*
X220035000Y-80030517D01*
X221585000Y-80030517D01*
X221878712Y-80001589D01*
X222161136Y-79915916D01*
X222421420Y-79776792D01*
X222649561Y-79589561D01*
X222836792Y-79361420D01*
X222975916Y-79101136D01*
X223061589Y-78818712D01*
X223090517Y-78525000D01*
X223090517Y-76975000D01*
X223061589Y-76681288D01*
X222975916Y-76398864D01*
X222836792Y-76138580D01*
X222649561Y-75910439D01*
X222421420Y-75723208D01*
X222161136Y-75584084D01*
X221878712Y-75498411D01*
X221585000Y-75469483D01*
X220035000Y-75469483D01*
X219741288Y-75498411D01*
X219458864Y-75584084D01*
X219198580Y-75723208D01*
X218970439Y-75910439D01*
X218783208Y-76138580D01*
X218644084Y-76398864D01*
X218558411Y-76681288D01*
X218529483Y-76975000D01*
X218529483Y-78525000D01*
X218558411Y-78818712D01*
X218644084Y-79101136D01*
X218783208Y-79361420D01*
X218942323Y-79555301D01*
X218927758Y-79550883D01*
X218550000Y-79513677D01*
X215450000Y-79513677D01*
X215072242Y-79550883D01*
X214709001Y-79661071D01*
X214374237Y-79840006D01*
X214080813Y-80080813D01*
X213840006Y-80374237D01*
X213661071Y-80709001D01*
X213550883Y-81072242D01*
X213513677Y-81450000D01*
X213513677Y-84550000D01*
X213550883Y-84927758D01*
X213661071Y-85290999D01*
X213840006Y-85625763D01*
X214028137Y-85855002D01*
X213759173Y-85936591D01*
X213285430Y-86189812D01*
X212870190Y-86530590D01*
X212529412Y-86945830D01*
X212276191Y-87419573D01*
X212120258Y-87933615D01*
X212067606Y-88468200D01*
X208773165Y-88468200D01*
X208598674Y-88046945D01*
X208278350Y-87567546D01*
X207870654Y-87159850D01*
X207391255Y-86839526D01*
X206858575Y-86618882D01*
X206293084Y-86506400D01*
X205716516Y-86506400D01*
X205151025Y-86618882D01*
X204754800Y-86783004D01*
X204358575Y-86618882D01*
X203793084Y-86506400D01*
X203216516Y-86506400D01*
X202651025Y-86618882D01*
X202118345Y-86839526D01*
X201638946Y-87159850D01*
X201231250Y-87567546D01*
X200910926Y-88046945D01*
X200690282Y-88579625D01*
X200577800Y-89145116D01*
X200208291Y-89145116D01*
X200165432Y-88929653D01*
X200035247Y-88615359D01*
X199846248Y-88332502D01*
X199605698Y-88091952D01*
X199322841Y-87902953D01*
X199008547Y-87772768D01*
X198674895Y-87706400D01*
X198334705Y-87706400D01*
X198001053Y-87772768D01*
X197686759Y-87902953D01*
X197403902Y-88091952D01*
X197254800Y-88241054D01*
X197105698Y-88091952D01*
X196822841Y-87902953D01*
X196508547Y-87772768D01*
X196174895Y-87706400D01*
X195834705Y-87706400D01*
X195501053Y-87772768D01*
X195186759Y-87902953D01*
X194903902Y-88091952D01*
X194663352Y-88332502D01*
X194474353Y-88615359D01*
X194344168Y-88929653D01*
X194277800Y-89263305D01*
X183038600Y-89263305D01*
X183038600Y-85735574D01*
X183045019Y-85670400D01*
X183038600Y-85605226D01*
X183038600Y-85605216D01*
X183019399Y-85410263D01*
X182943519Y-85160122D01*
X182883643Y-85048102D01*
X182820298Y-84929591D01*
X182696022Y-84778161D01*
X182696021Y-84778160D01*
X182654470Y-84727530D01*
X182603840Y-84685979D01*
X181816461Y-83898600D01*
X185185110Y-83898600D01*
X185860858Y-84574348D01*
X185831210Y-84629815D01*
X185743895Y-84917656D01*
X185714412Y-85217000D01*
X185743895Y-85516344D01*
X185831210Y-85804185D01*
X185973003Y-86069460D01*
X186163824Y-86301976D01*
X186396340Y-86492797D01*
X186661615Y-86634590D01*
X186949456Y-86721905D01*
X187173789Y-86744000D01*
X187323811Y-86744000D01*
X187548144Y-86721905D01*
X187835985Y-86634590D01*
X188101260Y-86492797D01*
X188333776Y-86301976D01*
X188524597Y-86069460D01*
X188666390Y-85804185D01*
X188753705Y-85516344D01*
X188783188Y-85217000D01*
X188768376Y-85066604D01*
X198421800Y-85066604D01*
X198421800Y-85367396D01*
X198480481Y-85662410D01*
X198595590Y-85940306D01*
X198762701Y-86190406D01*
X198975394Y-86403099D01*
X199225494Y-86570210D01*
X199503390Y-86685319D01*
X199798404Y-86744000D01*
X200099196Y-86744000D01*
X200394210Y-86685319D01*
X200672106Y-86570210D01*
X200922206Y-86403099D01*
X201134899Y-86190406D01*
X201302010Y-85940306D01*
X201417119Y-85662410D01*
X201475800Y-85367396D01*
X201475800Y-85066604D01*
X201417119Y-84771590D01*
X201302010Y-84493694D01*
X201134899Y-84243594D01*
X200922206Y-84030901D01*
X200672106Y-83863790D01*
X200394210Y-83748681D01*
X200099196Y-83690000D01*
X199798404Y-83690000D01*
X199503390Y-83748681D01*
X199225494Y-83863790D01*
X198975394Y-84030901D01*
X198762701Y-84243594D01*
X198595590Y-84493694D01*
X198480481Y-84771590D01*
X198421800Y-85066604D01*
X188768376Y-85066604D01*
X188753705Y-84917656D01*
X188666390Y-84629815D01*
X188575800Y-84460334D01*
X188575800Y-84150804D01*
X188582219Y-84085630D01*
X188575800Y-84020456D01*
X188575800Y-84020446D01*
X188556599Y-83825493D01*
X188480719Y-83575352D01*
X188421114Y-83463839D01*
X188357498Y-83344821D01*
X188233222Y-83193391D01*
X188233221Y-83193390D01*
X188191670Y-83142760D01*
X188141040Y-83101209D01*
X187621105Y-82581275D01*
X187671071Y-82540269D01*
X187712626Y-82489634D01*
X187927337Y-82274923D01*
X187973610Y-82265719D01*
X188251506Y-82150610D01*
X188501606Y-81983499D01*
X188714299Y-81770806D01*
X188881410Y-81520706D01*
X188996519Y-81242810D01*
X189055200Y-80947796D01*
X189055200Y-80647004D01*
X191001200Y-80647004D01*
X191001200Y-80947796D01*
X191059881Y-81242810D01*
X191174990Y-81520706D01*
X191342101Y-81770806D01*
X191554794Y-81983499D01*
X191804894Y-82150610D01*
X192082790Y-82265719D01*
X192377804Y-82324400D01*
X192678596Y-82324400D01*
X192973610Y-82265719D01*
X193071913Y-82225000D01*
X202379483Y-82225000D01*
X202379483Y-83775000D01*
X202408411Y-84068712D01*
X202494084Y-84351136D01*
X202633208Y-84611420D01*
X202820439Y-84839561D01*
X203048580Y-85026792D01*
X203308864Y-85165916D01*
X203591288Y-85251589D01*
X203885000Y-85280517D01*
X205435000Y-85280517D01*
X205728712Y-85251589D01*
X206011136Y-85165916D01*
X206271420Y-85026792D01*
X206499561Y-84839561D01*
X206686792Y-84611420D01*
X206825916Y-84351136D01*
X206911589Y-84068712D01*
X206940517Y-83775000D01*
X206940517Y-82225000D01*
X206911589Y-81931288D01*
X206825916Y-81648864D01*
X206686792Y-81388580D01*
X206499561Y-81160439D01*
X206271420Y-80973208D01*
X206011136Y-80834084D01*
X205728712Y-80748411D01*
X205435000Y-80719483D01*
X203885000Y-80719483D01*
X203591288Y-80748411D01*
X203308864Y-80834084D01*
X203048580Y-80973208D01*
X202820439Y-81160439D01*
X202633208Y-81388580D01*
X202494084Y-81648864D01*
X202408411Y-81931288D01*
X202379483Y-82225000D01*
X193071913Y-82225000D01*
X193251506Y-82150610D01*
X193501606Y-81983499D01*
X193714299Y-81770806D01*
X193881410Y-81520706D01*
X193996519Y-81242810D01*
X194055200Y-80947796D01*
X194055200Y-80647004D01*
X193996519Y-80351990D01*
X193881410Y-80074094D01*
X193714299Y-79823994D01*
X193501606Y-79611301D01*
X193251506Y-79444190D01*
X192973610Y-79329081D01*
X192678596Y-79270400D01*
X192377804Y-79270400D01*
X192082790Y-79329081D01*
X191804894Y-79444190D01*
X191554794Y-79611301D01*
X191342101Y-79823994D01*
X191174990Y-80074094D01*
X191059881Y-80351990D01*
X191001200Y-80647004D01*
X189055200Y-80647004D01*
X188996519Y-80351990D01*
X188881410Y-80074094D01*
X188855200Y-80034868D01*
X188855200Y-78077060D01*
X188920154Y-78023754D01*
X189011003Y-77913053D01*
X189049732Y-77840596D01*
X189213227Y-77974772D01*
X189487188Y-78121207D01*
X189784454Y-78211382D01*
X190016131Y-78234200D01*
X190171069Y-78234200D01*
X190402746Y-78211382D01*
X190700012Y-78121207D01*
X190973973Y-77974772D01*
X191214103Y-77777703D01*
X191363600Y-77595540D01*
X191513097Y-77777703D01*
X191753227Y-77974772D01*
X192027188Y-78121207D01*
X192324454Y-78211382D01*
X192556131Y-78234200D01*
X192711069Y-78234200D01*
X192942746Y-78211382D01*
X193240012Y-78121207D01*
X193513973Y-77974772D01*
X193754103Y-77777703D01*
X193951172Y-77537573D01*
X194097607Y-77263612D01*
X194185156Y-76975000D01*
X198559483Y-76975000D01*
X198559483Y-78525000D01*
X198588411Y-78818712D01*
X198674084Y-79101136D01*
X198813208Y-79361420D01*
X199000439Y-79589561D01*
X199228580Y-79776792D01*
X199488864Y-79915916D01*
X199771288Y-80001589D01*
X200065000Y-80030517D01*
X201615000Y-80030517D01*
X201908712Y-80001589D01*
X202191136Y-79915916D01*
X202451420Y-79776792D01*
X202679561Y-79589561D01*
X202866792Y-79361420D01*
X203005916Y-79101136D01*
X203091589Y-78818712D01*
X203120517Y-78525000D01*
X203120517Y-76975000D01*
X203091589Y-76681288D01*
X203005916Y-76398864D01*
X202866792Y-76138580D01*
X202679561Y-75910439D01*
X202451420Y-75723208D01*
X202191136Y-75584084D01*
X201908712Y-75498411D01*
X201615000Y-75469483D01*
X200065000Y-75469483D01*
X199771288Y-75498411D01*
X199488864Y-75584084D01*
X199228580Y-75723208D01*
X199000439Y-75910439D01*
X198813208Y-76138580D01*
X198674084Y-76398864D01*
X198588411Y-76681288D01*
X198559483Y-76975000D01*
X194185156Y-76975000D01*
X194187782Y-76966346D01*
X194218230Y-76657200D01*
X194187782Y-76348054D01*
X194097607Y-76050788D01*
X193951172Y-75776827D01*
X193754103Y-75536697D01*
X193513973Y-75339628D01*
X193240012Y-75193193D01*
X192942746Y-75103018D01*
X192711069Y-75080200D01*
X192556131Y-75080200D01*
X192324454Y-75103018D01*
X192027188Y-75193193D01*
X191753227Y-75339628D01*
X191513097Y-75536697D01*
X191363600Y-75718860D01*
X191214103Y-75536697D01*
X190973973Y-75339628D01*
X190700012Y-75193193D01*
X190402746Y-75103018D01*
X190171069Y-75080200D01*
X190016131Y-75080200D01*
X189784454Y-75103018D01*
X189487188Y-75193193D01*
X189213227Y-75339628D01*
X189049732Y-75473804D01*
X189011003Y-75401347D01*
X188920154Y-75290646D01*
X188809453Y-75199797D01*
X188683157Y-75132290D01*
X188546117Y-75090720D01*
X188403600Y-75076683D01*
X186703600Y-75076683D01*
X186561083Y-75090720D01*
X186424043Y-75132290D01*
X186297747Y-75199797D01*
X186187046Y-75290646D01*
X186096197Y-75401347D01*
X186028690Y-75527643D01*
X185987120Y-75664683D01*
X185973083Y-75807200D01*
X185973083Y-77507200D01*
X185987120Y-77649717D01*
X186028690Y-77786757D01*
X186096197Y-77913053D01*
X186187046Y-78023754D01*
X186201201Y-78035370D01*
X186201200Y-80034868D01*
X186174990Y-80074094D01*
X186059881Y-80351990D01*
X186050677Y-80398263D01*
X185923977Y-80524963D01*
X185893639Y-80549861D01*
X185766101Y-80654529D01*
X185724550Y-80705159D01*
X185185110Y-81244600D01*
X180010990Y-81244600D01*
X179841191Y-81074801D01*
X179525577Y-80863915D01*
X179174885Y-80718653D01*
X179120941Y-80707923D01*
X179812800Y-80707923D01*
X180190558Y-80670717D01*
X180553799Y-80560529D01*
X180888563Y-80381594D01*
X181181987Y-80140787D01*
X181422794Y-79847363D01*
X181601729Y-79512599D01*
X181711917Y-79149358D01*
X181749123Y-78771600D01*
X181749123Y-76371600D01*
X181711917Y-75993842D01*
X181601729Y-75630601D01*
X181422794Y-75295837D01*
X181181987Y-75002413D01*
X180890600Y-74763278D01*
X180890600Y-74678004D01*
X224634600Y-74678004D01*
X224634600Y-74978796D01*
X224693281Y-75273810D01*
X224808390Y-75551706D01*
X224975501Y-75801806D01*
X225188194Y-76014499D01*
X225438294Y-76181610D01*
X225716190Y-76296719D01*
X226011204Y-76355400D01*
X226311996Y-76355400D01*
X226607010Y-76296719D01*
X226884906Y-76181610D01*
X227135006Y-76014499D01*
X227347699Y-75801806D01*
X227514810Y-75551706D01*
X227629919Y-75273810D01*
X227688600Y-74978796D01*
X227688600Y-74678004D01*
X234591400Y-74678004D01*
X234591400Y-74978796D01*
X234650081Y-75273810D01*
X234765190Y-75551706D01*
X234932301Y-75801806D01*
X235144994Y-76014499D01*
X235395094Y-76181610D01*
X235672990Y-76296719D01*
X235968004Y-76355400D01*
X236268796Y-76355400D01*
X236563810Y-76296719D01*
X236841706Y-76181610D01*
X237091806Y-76014499D01*
X237304499Y-75801806D01*
X237471610Y-75551706D01*
X237586719Y-75273810D01*
X237645400Y-74978796D01*
X237645400Y-74678004D01*
X237586719Y-74382990D01*
X237471610Y-74105094D01*
X237304499Y-73854994D01*
X237091806Y-73642301D01*
X236841706Y-73475190D01*
X236563810Y-73360081D01*
X236268796Y-73301400D01*
X235968004Y-73301400D01*
X235672990Y-73360081D01*
X235395094Y-73475190D01*
X235144994Y-73642301D01*
X234932301Y-73854994D01*
X234765190Y-74105094D01*
X234650081Y-74382990D01*
X234591400Y-74678004D01*
X227688600Y-74678004D01*
X227629919Y-74382990D01*
X227514810Y-74105094D01*
X227347699Y-73854994D01*
X227135006Y-73642301D01*
X226884906Y-73475190D01*
X226607010Y-73360081D01*
X226311996Y-73301400D01*
X226011204Y-73301400D01*
X225716190Y-73360081D01*
X225438294Y-73475190D01*
X225188194Y-73642301D01*
X224975501Y-73854994D01*
X224808390Y-74105094D01*
X224693281Y-74382990D01*
X224634600Y-74678004D01*
X180890600Y-74678004D01*
X180890600Y-70998254D01*
X181030650Y-71207854D01*
X181438346Y-71615550D01*
X181917745Y-71935874D01*
X182343914Y-72112399D01*
X182315403Y-72147140D01*
X182173610Y-72412415D01*
X182086295Y-72700256D01*
X182056812Y-72999600D01*
X182086295Y-73298944D01*
X182173610Y-73586785D01*
X182315403Y-73852060D01*
X182506224Y-74084576D01*
X182738740Y-74275397D01*
X183004015Y-74417190D01*
X183291856Y-74504505D01*
X183516189Y-74526600D01*
X183666211Y-74526600D01*
X183890544Y-74504505D01*
X184178385Y-74417190D01*
X184443660Y-74275397D01*
X184676176Y-74084576D01*
X184866997Y-73852060D01*
X185008790Y-73586785D01*
X185096105Y-73298944D01*
X185125588Y-72999600D01*
X185110776Y-72849204D01*
X194764200Y-72849204D01*
X194764200Y-73149996D01*
X194822881Y-73445010D01*
X194937990Y-73722906D01*
X195105101Y-73973006D01*
X195317794Y-74185699D01*
X195567894Y-74352810D01*
X195845790Y-74467919D01*
X196140804Y-74526600D01*
X196441596Y-74526600D01*
X196736610Y-74467919D01*
X197014506Y-74352810D01*
X197264606Y-74185699D01*
X197477299Y-73973006D01*
X197644410Y-73722906D01*
X197759519Y-73445010D01*
X197818200Y-73149996D01*
X197818200Y-72849204D01*
X197759519Y-72554190D01*
X197644410Y-72276294D01*
X197477299Y-72026194D01*
X197264606Y-71813501D01*
X197014506Y-71646390D01*
X196736610Y-71531281D01*
X196441596Y-71472600D01*
X196140804Y-71472600D01*
X195845790Y-71531281D01*
X195567894Y-71646390D01*
X195317794Y-71813501D01*
X195105101Y-72026194D01*
X194937990Y-72276294D01*
X194822881Y-72554190D01*
X194764200Y-72849204D01*
X185110776Y-72849204D01*
X185096105Y-72700256D01*
X185008790Y-72412415D01*
X184866997Y-72147140D01*
X184692567Y-71934596D01*
X185170054Y-71615550D01*
X185577750Y-71207854D01*
X185898074Y-70728455D01*
X186118718Y-70195775D01*
X186231200Y-69630284D01*
X186231200Y-69481558D01*
X186647237Y-69398803D01*
X187143519Y-69193236D01*
X187590161Y-68894799D01*
X187969999Y-68514961D01*
X188268436Y-68068319D01*
X188474003Y-67572037D01*
X188578800Y-67045186D01*
X188578800Y-66508014D01*
X188474003Y-65981163D01*
X188268436Y-65484881D01*
X187969999Y-65038239D01*
X187784160Y-64852400D01*
X196603185Y-64852400D01*
X196273412Y-65254230D01*
X196020191Y-65727973D01*
X195864258Y-66242015D01*
X195811606Y-66776600D01*
X195864258Y-67311185D01*
X196020191Y-67825227D01*
X196273412Y-68298970D01*
X196614190Y-68714210D01*
X197029430Y-69054988D01*
X197503173Y-69308209D01*
X198017215Y-69464142D01*
X198417839Y-69503600D01*
X198685761Y-69503600D01*
X198953861Y-69477194D01*
X198813208Y-69648580D01*
X198674084Y-69908864D01*
X198588411Y-70191288D01*
X198559483Y-70485000D01*
X198559483Y-72035000D01*
X198588411Y-72328712D01*
X198674084Y-72611136D01*
X198813208Y-72871420D01*
X199000439Y-73099561D01*
X199228580Y-73286792D01*
X199488864Y-73425916D01*
X199771288Y-73511589D01*
X200065000Y-73540517D01*
X201615000Y-73540517D01*
X201908712Y-73511589D01*
X202191136Y-73425916D01*
X202451420Y-73286792D01*
X202679561Y-73099561D01*
X202866792Y-72871420D01*
X203005916Y-72611136D01*
X203091589Y-72328712D01*
X203120517Y-72035000D01*
X203120517Y-70485000D01*
X218529483Y-70485000D01*
X218529483Y-72035000D01*
X218558411Y-72328712D01*
X218644084Y-72611136D01*
X218783208Y-72871420D01*
X218970439Y-73099561D01*
X219198580Y-73286792D01*
X219458864Y-73425916D01*
X219741288Y-73511589D01*
X220035000Y-73540517D01*
X221585000Y-73540517D01*
X221878712Y-73511589D01*
X222161136Y-73425916D01*
X222421420Y-73286792D01*
X222649561Y-73099561D01*
X222836792Y-72871420D01*
X222975916Y-72611136D01*
X223061589Y-72328712D01*
X223090517Y-72035000D01*
X223090517Y-70485000D01*
X223061589Y-70191288D01*
X222975916Y-69908864D01*
X222852520Y-69678004D01*
X234591400Y-69678004D01*
X234591400Y-69978796D01*
X234650081Y-70273810D01*
X234765190Y-70551706D01*
X234932301Y-70801806D01*
X235144994Y-71014499D01*
X235395094Y-71181610D01*
X235672990Y-71296719D01*
X235968004Y-71355400D01*
X236268796Y-71355400D01*
X236563810Y-71296719D01*
X236841706Y-71181610D01*
X237091806Y-71014499D01*
X237304499Y-70801806D01*
X237471610Y-70551706D01*
X237586719Y-70273810D01*
X237645400Y-69978796D01*
X237645400Y-69678004D01*
X237586719Y-69382990D01*
X237471610Y-69105094D01*
X237304499Y-68854994D01*
X237091806Y-68642301D01*
X236841706Y-68475190D01*
X236563810Y-68360081D01*
X236268796Y-68301400D01*
X235968004Y-68301400D01*
X235672990Y-68360081D01*
X235395094Y-68475190D01*
X235144994Y-68642301D01*
X234932301Y-68854994D01*
X234765190Y-69105094D01*
X234650081Y-69382990D01*
X234591400Y-69678004D01*
X222852520Y-69678004D01*
X222836792Y-69648580D01*
X222649561Y-69420439D01*
X222421420Y-69233208D01*
X222161136Y-69094084D01*
X221878712Y-69008411D01*
X221585000Y-68979483D01*
X220035000Y-68979483D01*
X219741288Y-69008411D01*
X219458864Y-69094084D01*
X219198580Y-69233208D01*
X218970439Y-69420439D01*
X218783208Y-69648580D01*
X218644084Y-69908864D01*
X218558411Y-70191288D01*
X218529483Y-70485000D01*
X203120517Y-70485000D01*
X203091589Y-70191288D01*
X203005916Y-69908864D01*
X202866792Y-69648580D01*
X202679561Y-69420439D01*
X202451420Y-69233208D01*
X202191136Y-69094084D01*
X201908712Y-69008411D01*
X201615000Y-68979483D01*
X200166173Y-68979483D01*
X200489410Y-68714210D01*
X200830188Y-68298970D01*
X201083409Y-67825227D01*
X201232138Y-67334933D01*
X201380064Y-67822578D01*
X201630617Y-68291330D01*
X201967805Y-68702195D01*
X202378670Y-69039383D01*
X202847422Y-69289936D01*
X203356047Y-69444226D01*
X203885000Y-69496323D01*
X205435000Y-69496323D01*
X205963953Y-69444226D01*
X206472578Y-69289936D01*
X206941330Y-69039383D01*
X207352195Y-68702195D01*
X207689383Y-68291330D01*
X207939936Y-67822578D01*
X208094226Y-67313953D01*
X208146323Y-66785000D01*
X208146323Y-65235000D01*
X208141041Y-65181369D01*
X208254322Y-65241919D01*
X208504463Y-65317799D01*
X208655449Y-65332670D01*
X208664084Y-65361136D01*
X208803208Y-65621420D01*
X208990439Y-65849561D01*
X209218580Y-66036792D01*
X209478864Y-66175916D01*
X209761288Y-66261589D01*
X210055000Y-66290517D01*
X211605000Y-66290517D01*
X211898712Y-66261589D01*
X212181136Y-66175916D01*
X212441420Y-66036792D01*
X212669561Y-65849561D01*
X212856792Y-65621420D01*
X212995916Y-65361136D01*
X213034179Y-65235000D01*
X214719483Y-65235000D01*
X214719483Y-66785000D01*
X214748411Y-67078712D01*
X214834084Y-67361136D01*
X214973208Y-67621420D01*
X215160439Y-67849561D01*
X215388580Y-68036792D01*
X215648864Y-68175916D01*
X215931288Y-68261589D01*
X216225000Y-68290517D01*
X217775000Y-68290517D01*
X218068712Y-68261589D01*
X218351136Y-68175916D01*
X218611420Y-68036792D01*
X218839561Y-67849561D01*
X219026792Y-67621420D01*
X219165916Y-67361136D01*
X219251589Y-67078712D01*
X219280517Y-66785000D01*
X219280517Y-65235000D01*
X219251589Y-64941288D01*
X219165916Y-64658864D01*
X219026792Y-64398580D01*
X218839561Y-64170439D01*
X218736921Y-64086204D01*
X230019400Y-64086204D01*
X230019400Y-64386996D01*
X230078081Y-64682010D01*
X230193190Y-64959906D01*
X230360301Y-65210006D01*
X230572994Y-65422699D01*
X230823094Y-65589810D01*
X231100990Y-65704919D01*
X231396004Y-65763600D01*
X231696796Y-65763600D01*
X231991810Y-65704919D01*
X232269706Y-65589810D01*
X232519806Y-65422699D01*
X232732499Y-65210006D01*
X232899610Y-64959906D01*
X233014719Y-64682010D01*
X233073400Y-64386996D01*
X233073400Y-64086204D01*
X233014719Y-63791190D01*
X232899610Y-63513294D01*
X232732499Y-63263194D01*
X232519806Y-63050501D01*
X232269706Y-62883390D01*
X231991810Y-62768281D01*
X231696796Y-62709600D01*
X231396004Y-62709600D01*
X231100990Y-62768281D01*
X230823094Y-62883390D01*
X230572994Y-63050501D01*
X230360301Y-63263194D01*
X230193190Y-63513294D01*
X230078081Y-63791190D01*
X230019400Y-64086204D01*
X218736921Y-64086204D01*
X218611420Y-63983208D01*
X218351136Y-63844084D01*
X218068712Y-63758411D01*
X217775000Y-63729483D01*
X216225000Y-63729483D01*
X215931288Y-63758411D01*
X215648864Y-63844084D01*
X215388580Y-63983208D01*
X215160439Y-64170439D01*
X214973208Y-64398580D01*
X214834084Y-64658864D01*
X214748411Y-64941288D01*
X214719483Y-65235000D01*
X213034179Y-65235000D01*
X213081589Y-65078712D01*
X213110517Y-64785000D01*
X213110517Y-63235000D01*
X213081589Y-62941288D01*
X212995916Y-62658864D01*
X212856792Y-62398580D01*
X212669561Y-62170439D01*
X212441420Y-61983208D01*
X212181136Y-61844084D01*
X211898712Y-61758411D01*
X211605000Y-61729483D01*
X210055000Y-61729483D01*
X209761288Y-61758411D01*
X209478864Y-61844084D01*
X209218580Y-61983208D01*
X208990439Y-62170439D01*
X208905364Y-62274103D01*
X207765825Y-61134565D01*
X207724270Y-61083930D01*
X207522208Y-60918102D01*
X207291678Y-60794881D01*
X207041537Y-60719001D01*
X206846584Y-60699800D01*
X206846574Y-60699800D01*
X206781400Y-60693381D01*
X206716226Y-60699800D01*
X202604771Y-60699800D01*
X202539599Y-60693381D01*
X202474428Y-60699800D01*
X202474416Y-60699800D01*
X202279463Y-60719001D01*
X202029322Y-60794881D01*
X201873812Y-60878003D01*
X201798790Y-60918103D01*
X201689376Y-61007897D01*
X201596730Y-61083930D01*
X201555179Y-61134560D01*
X200491340Y-62198400D01*
X159602584Y-62198400D01*
X159537400Y-62191980D01*
X159472216Y-62198400D01*
X146049773Y-62198400D01*
X145984599Y-62191981D01*
X145919425Y-62198400D01*
X145919416Y-62198400D01*
X145724463Y-62217601D01*
X145495895Y-62286937D01*
X145474322Y-62293481D01*
X145243791Y-62416702D01*
X145097113Y-62537078D01*
X145041730Y-62582530D01*
X145000179Y-62633160D01*
X143903856Y-63729483D01*
X142725000Y-63729483D01*
X142431288Y-63758411D01*
X142148864Y-63844084D01*
X141888580Y-63983208D01*
X141660439Y-64170439D01*
X141473208Y-64398580D01*
X141334084Y-64658864D01*
X141248411Y-64941288D01*
X141219483Y-65235000D01*
X141219483Y-66785000D01*
X141248411Y-67078712D01*
X141334084Y-67361136D01*
X141473208Y-67621420D01*
X141660439Y-67849561D01*
X141888580Y-68036792D01*
X142148864Y-68175916D01*
X142431288Y-68261589D01*
X142725000Y-68290517D01*
X144275000Y-68290517D01*
X144568712Y-68261589D01*
X144851136Y-68175916D01*
X145111420Y-68036792D01*
X145339561Y-67849561D01*
X145526792Y-67621420D01*
X145665916Y-67361136D01*
X145751589Y-67078712D01*
X145780517Y-66785000D01*
X145780517Y-65606144D01*
X146534261Y-64852400D01*
X156404208Y-64852400D01*
X156256592Y-64931302D01*
X156054530Y-65097130D01*
X155888702Y-65299192D01*
X155765481Y-65529723D01*
X155689602Y-65779863D01*
X155663981Y-66040000D01*
X155673001Y-66131582D01*
X155673000Y-84600985D01*
X155633446Y-84633446D01*
X155542597Y-84744147D01*
X155475090Y-84870443D01*
X155433520Y-85007483D01*
X155419483Y-85150000D01*
X155419483Y-86850000D01*
X155433520Y-86992517D01*
X155475090Y-87129557D01*
X155542597Y-87255853D01*
X155633446Y-87366554D01*
X155744147Y-87457403D01*
X155870443Y-87524910D01*
X156007483Y-87566480D01*
X156150000Y-87580517D01*
X157850000Y-87580517D01*
X157992517Y-87566480D01*
X158129557Y-87524910D01*
X158255853Y-87457403D01*
X158366554Y-87366554D01*
X158457403Y-87255853D01*
X158524910Y-87129557D01*
X158566480Y-86992517D01*
X158580517Y-86850000D01*
X158580517Y-85617979D01*
X158657843Y-85659311D01*
X158794883Y-85700881D01*
X158937400Y-85714918D01*
X159337400Y-85714918D01*
X159479917Y-85700881D01*
X159537400Y-85683444D01*
X159594883Y-85700881D01*
X159737400Y-85714918D01*
X160137400Y-85714918D01*
X160279917Y-85700881D01*
X160416957Y-85659311D01*
X160543254Y-85591804D01*
X160653954Y-85500954D01*
X160744804Y-85390254D01*
X160812311Y-85263957D01*
X160853881Y-85126917D01*
X160863596Y-85028281D01*
X160894804Y-84990254D01*
X160962311Y-84863957D01*
X161003881Y-84726917D01*
X161017918Y-84584400D01*
X161017918Y-83584400D01*
X161003881Y-83441883D01*
X160962311Y-83304843D01*
X160894804Y-83178546D01*
X160864400Y-83141499D01*
X160864400Y-75643204D01*
X162125200Y-75643204D01*
X162125200Y-75943996D01*
X162183881Y-76239010D01*
X162298990Y-76516906D01*
X162466101Y-76767006D01*
X162678794Y-76979699D01*
X162928894Y-77146810D01*
X163206790Y-77261919D01*
X163501804Y-77320600D01*
X163802596Y-77320600D01*
X164097610Y-77261919D01*
X164375506Y-77146810D01*
X164625606Y-76979699D01*
X164838299Y-76767006D01*
X165005410Y-76516906D01*
X165120519Y-76239010D01*
X165179200Y-75943996D01*
X165179200Y-75643204D01*
X165120519Y-75348190D01*
X165005410Y-75070294D01*
X164838299Y-74820194D01*
X164625606Y-74607501D01*
X164375506Y-74440390D01*
X164097610Y-74325281D01*
X163802596Y-74266600D01*
X163501804Y-74266600D01*
X163206790Y-74325281D01*
X162928894Y-74440390D01*
X162678794Y-74607501D01*
X162466101Y-74820194D01*
X162298990Y-75070294D01*
X162183881Y-75348190D01*
X162125200Y-75643204D01*
X160864400Y-75643204D01*
X160864400Y-64852400D01*
X177870147Y-64852400D01*
X177166240Y-65556308D01*
X177081254Y-65626054D01*
X176802958Y-65965159D01*
X176596165Y-66352042D01*
X176468823Y-66771833D01*
X176441548Y-67048760D01*
X176425825Y-67208400D01*
X176436600Y-67317798D01*
X176436601Y-74708388D01*
X176337037Y-74761606D01*
X176043613Y-75002413D01*
X175802806Y-75295837D01*
X175776742Y-75344600D01*
X175637653Y-75344600D01*
X171275000Y-70981948D01*
X171275000Y-70848817D01*
X171154831Y-70244688D01*
X170919111Y-69675610D01*
X170582546Y-69171905D01*
X171577200Y-69171905D01*
X171577200Y-69512095D01*
X171643568Y-69845747D01*
X171773753Y-70160041D01*
X171962752Y-70442898D01*
X172203302Y-70683448D01*
X172486159Y-70872447D01*
X172800453Y-71002632D01*
X173134105Y-71069000D01*
X173474295Y-71069000D01*
X173807947Y-71002632D01*
X174122241Y-70872447D01*
X174405098Y-70683448D01*
X174645648Y-70442898D01*
X174834647Y-70160041D01*
X174964832Y-69845747D01*
X175031200Y-69512095D01*
X175031200Y-69171905D01*
X174964832Y-68838253D01*
X174834647Y-68523959D01*
X174645648Y-68241102D01*
X174405098Y-68000552D01*
X174122241Y-67811553D01*
X173807947Y-67681368D01*
X173474295Y-67615000D01*
X173134105Y-67615000D01*
X172800453Y-67681368D01*
X172486159Y-67811553D01*
X172203302Y-68000552D01*
X171962752Y-68241102D01*
X171773753Y-68523959D01*
X171643568Y-68838253D01*
X171577200Y-69171905D01*
X170582546Y-69171905D01*
X170576899Y-69163454D01*
X170141346Y-68727901D01*
X169629190Y-68385689D01*
X169060112Y-68149969D01*
X168455983Y-68029800D01*
X168322852Y-68029800D01*
X167832893Y-67539841D01*
X167763146Y-67454854D01*
X167424041Y-67176558D01*
X167037159Y-66969765D01*
X166617368Y-66842423D01*
X166290201Y-66810200D01*
X166290198Y-66810200D01*
X166180800Y-66799425D01*
X166071402Y-66810200D01*
X165237187Y-66810200D01*
X165174570Y-66758812D01*
X164700827Y-66505591D01*
X164186785Y-66349658D01*
X163786161Y-66310200D01*
X163518239Y-66310200D01*
X163117615Y-66349658D01*
X162603573Y-66505591D01*
X162129830Y-66758812D01*
X161714590Y-67099590D01*
X161373812Y-67514830D01*
X161120591Y-67988573D01*
X160964658Y-68502615D01*
X160912006Y-69037200D01*
X160964658Y-69571785D01*
X161120591Y-70085827D01*
X161373812Y-70559570D01*
X161714590Y-70974810D01*
X162129830Y-71315588D01*
X162603573Y-71568809D01*
X163117615Y-71724742D01*
X163518239Y-71764200D01*
X163786161Y-71764200D01*
X164186785Y-71724742D01*
X164700827Y-71568809D01*
X165021000Y-71397673D01*
X165021000Y-71464783D01*
X165141169Y-72068912D01*
X165376889Y-72637990D01*
X165719101Y-73150146D01*
X166154654Y-73585699D01*
X166666810Y-73927911D01*
X167235888Y-74163631D01*
X167840017Y-74283800D01*
X168277948Y-74283800D01*
X173063112Y-79068965D01*
X173132854Y-79153946D01*
X173471959Y-79432242D01*
X173858841Y-79639035D01*
X174278632Y-79766377D01*
X174605799Y-79798600D01*
X174605801Y-79798600D01*
X174715199Y-79809375D01*
X174824598Y-79798600D01*
X175776742Y-79798600D01*
X175802806Y-79847363D01*
X176043613Y-80140787D01*
X176337037Y-80381594D01*
X176671801Y-80560529D01*
X177035042Y-80670717D01*
X177412800Y-80707923D01*
X178104659Y-80707923D01*
X178050715Y-80718653D01*
X177700023Y-80863915D01*
X177384409Y-81074801D01*
X177214610Y-81244600D01*
X166763461Y-81244600D01*
X165344437Y-79825577D01*
X165125575Y-79606715D01*
X165069790Y-79422815D01*
X164927997Y-79157540D01*
X164737176Y-78925024D01*
X164504660Y-78734203D01*
X164239385Y-78592410D01*
X163951544Y-78505095D01*
X163727211Y-78483000D01*
X163577189Y-78483000D01*
X163352856Y-78505095D01*
X163065015Y-78592410D01*
X162799740Y-78734203D01*
X162567224Y-78925024D01*
X162376403Y-79157540D01*
X162234610Y-79422815D01*
X162147295Y-79710656D01*
X162117812Y-80010000D01*
X162147295Y-80309344D01*
X162234610Y-80597185D01*
X162376403Y-80862460D01*
X162567224Y-81094976D01*
X162799740Y-81285797D01*
X163065015Y-81427590D01*
X163248915Y-81483375D01*
X163467777Y-81702237D01*
X165229377Y-83463838D01*
X165270930Y-83514470D01*
X165321560Y-83556021D01*
X165321561Y-83556022D01*
X165472991Y-83680298D01*
X165600927Y-83748681D01*
X165703522Y-83803519D01*
X165953663Y-83879399D01*
X166148616Y-83898600D01*
X166148625Y-83898600D01*
X166213799Y-83905019D01*
X166278973Y-83898600D01*
X175409140Y-83898600D01*
X174477940Y-84829800D01*
X169546190Y-84829800D01*
X169376391Y-84660001D01*
X169060777Y-84449115D01*
X168710085Y-84303853D01*
X168337793Y-84229800D01*
X167958207Y-84229800D01*
X167585915Y-84303853D01*
X167235223Y-84449115D01*
X166919609Y-84660001D01*
X166651201Y-84928409D01*
X166440315Y-85244023D01*
X166295053Y-85594715D01*
X166221000Y-85967007D01*
X166221000Y-86346593D01*
X166295053Y-86718885D01*
X166440315Y-87069577D01*
X166651201Y-87385191D01*
X166919609Y-87653599D01*
X167235223Y-87864485D01*
X167585915Y-88009747D01*
X167958207Y-88083800D01*
X168337793Y-88083800D01*
X168710085Y-88009747D01*
X169060777Y-87864485D01*
X169376391Y-87653599D01*
X169546190Y-87483800D01*
X174962426Y-87483800D01*
X175027600Y-87490219D01*
X175092774Y-87483800D01*
X175092784Y-87483800D01*
X175287737Y-87464599D01*
X175537878Y-87388719D01*
X175768408Y-87265498D01*
X175970470Y-87099670D01*
X176012025Y-87049035D01*
X177285800Y-85775260D01*
X177285801Y-89213938D01*
X174076750Y-92422990D01*
X101970451Y-92422990D01*
X96780200Y-87232740D01*
X96780200Y-85326895D01*
X96937889Y-85707590D01*
X97280101Y-86219746D01*
X97715654Y-86655299D01*
X98227810Y-86997511D01*
X98796888Y-87233231D01*
X99401017Y-87353400D01*
X100016983Y-87353400D01*
X100621112Y-87233231D01*
X101190190Y-86997511D01*
X101702346Y-86655299D01*
X102137899Y-86219746D01*
X102480111Y-85707590D01*
X102715831Y-85138512D01*
X102836000Y-84534383D01*
X102836000Y-83918417D01*
X102715831Y-83314288D01*
X102480111Y-82745210D01*
X102137899Y-82233054D01*
X101702346Y-81797501D01*
X101190190Y-81455289D01*
X100621112Y-81219569D01*
X100016983Y-81099400D01*
X99401017Y-81099400D01*
X98796888Y-81219569D01*
X98227810Y-81455289D01*
X97715654Y-81797501D01*
X97280101Y-82233054D01*
X96937889Y-82745210D01*
X96780200Y-83125905D01*
X96780200Y-75973404D01*
X102511400Y-75973404D01*
X102511400Y-76274196D01*
X102570081Y-76569210D01*
X102685190Y-76847106D01*
X102852301Y-77097206D01*
X103064994Y-77309899D01*
X103315094Y-77477010D01*
X103592990Y-77592119D01*
X103888004Y-77650800D01*
X104188796Y-77650800D01*
X104483810Y-77592119D01*
X104761706Y-77477010D01*
X105011806Y-77309899D01*
X105224499Y-77097206D01*
X105391610Y-76847106D01*
X105506719Y-76569210D01*
X105565400Y-76274196D01*
X105565400Y-75973404D01*
X105506719Y-75678390D01*
X105391610Y-75400494D01*
X105224499Y-75150394D01*
X105011806Y-74937701D01*
X104761706Y-74770590D01*
X104483810Y-74655481D01*
X104188796Y-74596800D01*
X103888004Y-74596800D01*
X103592990Y-74655481D01*
X103315094Y-74770590D01*
X103064994Y-74937701D01*
X102852301Y-75150394D01*
X102685190Y-75400494D01*
X102570081Y-75678390D01*
X102511400Y-75973404D01*
X96780200Y-75973404D01*
X96780200Y-74875173D01*
X96786619Y-74809999D01*
X96780200Y-74744825D01*
X96780200Y-74744816D01*
X96760999Y-74549863D01*
X96685119Y-74299722D01*
X96561898Y-74069192D01*
X96561897Y-74069190D01*
X96437622Y-73917761D01*
X96437621Y-73917760D01*
X96396070Y-73867130D01*
X96345440Y-73825579D01*
X96294661Y-73774800D01*
X104486340Y-73774800D01*
X109804026Y-79092488D01*
X109859810Y-79276385D01*
X109950400Y-79445867D01*
X109950401Y-81832600D01*
X107024574Y-81832600D01*
X106959400Y-81826181D01*
X106894226Y-81832600D01*
X106894216Y-81832600D01*
X106699263Y-81851801D01*
X106449122Y-81927681D01*
X106218591Y-82050902D01*
X106067161Y-82175178D01*
X106016530Y-82216730D01*
X105974979Y-82267360D01*
X103146161Y-85096179D01*
X103095531Y-85137730D01*
X103053980Y-85188360D01*
X103053978Y-85188362D01*
X102929702Y-85339792D01*
X102806481Y-85570323D01*
X102730602Y-85820463D01*
X102704981Y-86080600D01*
X102711401Y-86145784D01*
X102711400Y-88067133D01*
X102620810Y-88236615D01*
X102533495Y-88524456D01*
X102504012Y-88823800D01*
X102533495Y-89123144D01*
X102620810Y-89410985D01*
X102762603Y-89676260D01*
X102953424Y-89908776D01*
X103185940Y-90099597D01*
X103451215Y-90241390D01*
X103739056Y-90328705D01*
X103963389Y-90350800D01*
X104113411Y-90350800D01*
X104337744Y-90328705D01*
X104625585Y-90241390D01*
X104890860Y-90099597D01*
X105123376Y-89908776D01*
X105314197Y-89676260D01*
X105455990Y-89410985D01*
X105543305Y-89123144D01*
X105572788Y-88823800D01*
X105543305Y-88524456D01*
X105455990Y-88236615D01*
X105365400Y-88067134D01*
X105365400Y-87967905D01*
X106426200Y-87967905D01*
X106426200Y-88308095D01*
X106492568Y-88641747D01*
X106622753Y-88956041D01*
X106811752Y-89238898D01*
X107052302Y-89479448D01*
X107335159Y-89668447D01*
X107649453Y-89798632D01*
X107983105Y-89865000D01*
X108323295Y-89865000D01*
X108656947Y-89798632D01*
X108971241Y-89668447D01*
X109254098Y-89479448D01*
X109494648Y-89238898D01*
X109683647Y-88956041D01*
X109813832Y-88641747D01*
X109880200Y-88308095D01*
X109880200Y-87967905D01*
X109813832Y-87634253D01*
X109683647Y-87319959D01*
X109494648Y-87037102D01*
X109254098Y-86796552D01*
X108971241Y-86607553D01*
X108656947Y-86477368D01*
X108323295Y-86411000D01*
X107983105Y-86411000D01*
X107649453Y-86477368D01*
X107335159Y-86607553D01*
X107052302Y-86796552D01*
X106811752Y-87037102D01*
X106622753Y-87319959D01*
X106492568Y-87634253D01*
X106426200Y-87967905D01*
X105365400Y-87967905D01*
X105365400Y-86630260D01*
X107509061Y-84486600D01*
X110514868Y-84486600D01*
X110554094Y-84512810D01*
X110831990Y-84627919D01*
X111127004Y-84686600D01*
X111427796Y-84686600D01*
X111722810Y-84627919D01*
X112000706Y-84512810D01*
X112250806Y-84345699D01*
X112463499Y-84133006D01*
X112630610Y-83882906D01*
X112745719Y-83605010D01*
X112804400Y-83309996D01*
X112804400Y-83009204D01*
X112745719Y-82714190D01*
X112630610Y-82436294D01*
X112604400Y-82397068D01*
X112604400Y-79445866D01*
X112694990Y-79276385D01*
X112782305Y-78988544D01*
X112811788Y-78689200D01*
X112782305Y-78389856D01*
X112694990Y-78102015D01*
X112553197Y-77836740D01*
X112362376Y-77604224D01*
X112129860Y-77413403D01*
X111864585Y-77271610D01*
X111680688Y-77215826D01*
X110818157Y-76353296D01*
X111003456Y-76409505D01*
X111227789Y-76431600D01*
X111377811Y-76431600D01*
X111602144Y-76409505D01*
X111889985Y-76322190D01*
X112155260Y-76180397D01*
X112387776Y-75989576D01*
X112578597Y-75757060D01*
X112720390Y-75491785D01*
X112807705Y-75203944D01*
X112837188Y-74904600D01*
X112807705Y-74605256D01*
X112720390Y-74317415D01*
X112578597Y-74052140D01*
X112387776Y-73819624D01*
X112155260Y-73628803D01*
X111889985Y-73487010D01*
X111602144Y-73399695D01*
X111377811Y-73377600D01*
X111227789Y-73377600D01*
X111003456Y-73399695D01*
X110715615Y-73487010D01*
X110450340Y-73628803D01*
X110217824Y-73819624D01*
X110027003Y-74052140D01*
X109885210Y-74317415D01*
X109797895Y-74605256D01*
X109768412Y-74904600D01*
X109797895Y-75203944D01*
X109854105Y-75389243D01*
X108133448Y-73668587D01*
X108519614Y-73745400D01*
X109056786Y-73745400D01*
X109583637Y-73640603D01*
X110079919Y-73435036D01*
X110526561Y-73136599D01*
X110906399Y-72756761D01*
X111204836Y-72310119D01*
X111410403Y-71813837D01*
X111461334Y-71557787D01*
X114308200Y-74404653D01*
X114308201Y-78376592D01*
X114297425Y-78486000D01*
X114340424Y-78922568D01*
X114467766Y-79342360D01*
X114652891Y-79688703D01*
X114674559Y-79729241D01*
X114952855Y-80068346D01*
X115037836Y-80138088D01*
X116558308Y-81658560D01*
X116427796Y-81632600D01*
X116127004Y-81632600D01*
X115831990Y-81691281D01*
X115554094Y-81806390D01*
X115303994Y-81973501D01*
X115091301Y-82186194D01*
X114924190Y-82436294D01*
X114809081Y-82714190D01*
X114750400Y-83009204D01*
X114750400Y-83309996D01*
X114809081Y-83605010D01*
X114924190Y-83882906D01*
X115091301Y-84133006D01*
X115303994Y-84345699D01*
X115554094Y-84512810D01*
X115831990Y-84627919D01*
X116127004Y-84686600D01*
X116427796Y-84686600D01*
X116722810Y-84627919D01*
X117000706Y-84512810D01*
X117250806Y-84345699D01*
X117463499Y-84133006D01*
X117630610Y-83882906D01*
X117745719Y-83605010D01*
X117804400Y-83309996D01*
X117804400Y-83009204D01*
X117778440Y-82878693D01*
X120140912Y-85241165D01*
X120210654Y-85326146D01*
X120549759Y-85604442D01*
X120936641Y-85811235D01*
X121264298Y-85910629D01*
X120896025Y-85983882D01*
X120363345Y-86204526D01*
X120360818Y-86206214D01*
X120019054Y-85864450D01*
X119539655Y-85544126D01*
X119006975Y-85323482D01*
X118441484Y-85211000D01*
X117864916Y-85211000D01*
X117299425Y-85323482D01*
X116766745Y-85544126D01*
X116287346Y-85864450D01*
X115879650Y-86272146D01*
X115559326Y-86751545D01*
X115338682Y-87284225D01*
X115226200Y-87849716D01*
X115226200Y-88426284D01*
X115338682Y-88991775D01*
X115559326Y-89524455D01*
X115879650Y-90003854D01*
X116287346Y-90411550D01*
X116766745Y-90731874D01*
X117299425Y-90952518D01*
X117864916Y-91065000D01*
X118441484Y-91065000D01*
X119006975Y-90952518D01*
X119539655Y-90731874D01*
X119542182Y-90730186D01*
X119883946Y-91071950D01*
X120363345Y-91392274D01*
X120896025Y-91612918D01*
X121461516Y-91725400D01*
X122038084Y-91725400D01*
X122603575Y-91612918D01*
X123136255Y-91392274D01*
X123615654Y-91071950D01*
X124023350Y-90664254D01*
X124343674Y-90184855D01*
X124564318Y-89652175D01*
X124676800Y-89086684D01*
X124676800Y-88510116D01*
X124564318Y-87944625D01*
X124343674Y-87411945D01*
X124023350Y-86932546D01*
X123615654Y-86524850D01*
X123136255Y-86204526D01*
X122603575Y-85983882D01*
X122537807Y-85970800D01*
X123334348Y-85970800D01*
X127659316Y-90295770D01*
X127729054Y-90380746D01*
X128068159Y-90659042D01*
X128455041Y-90865835D01*
X128874832Y-90993177D01*
X129201999Y-91025400D01*
X129202001Y-91025400D01*
X129311400Y-91036175D01*
X129420798Y-91025400D01*
X129837396Y-91025400D01*
X129883946Y-91071950D01*
X130363345Y-91392274D01*
X130896025Y-91612918D01*
X131461516Y-91725400D01*
X132038084Y-91725400D01*
X132603575Y-91612918D01*
X133136255Y-91392274D01*
X133615654Y-91071950D01*
X133662204Y-91025400D01*
X136803671Y-91025400D01*
X137087481Y-91215036D01*
X137583763Y-91420603D01*
X138110614Y-91525400D01*
X138647786Y-91525400D01*
X139174637Y-91420603D01*
X139670919Y-91215036D01*
X140117561Y-90916599D01*
X140497399Y-90536761D01*
X140795836Y-90090119D01*
X141001403Y-89593837D01*
X141106200Y-89066986D01*
X141106200Y-88798400D01*
X148339006Y-88798400D01*
X148391658Y-89332985D01*
X148547591Y-89847027D01*
X148800812Y-90320770D01*
X149141590Y-90736010D01*
X149556830Y-91076788D01*
X150030573Y-91330009D01*
X150544615Y-91485942D01*
X150945239Y-91525400D01*
X151213161Y-91525400D01*
X151613785Y-91485942D01*
X152127827Y-91330009D01*
X152601570Y-91076788D01*
X153016810Y-90736010D01*
X153357588Y-90320770D01*
X153610809Y-89847027D01*
X153766742Y-89332985D01*
X153819394Y-88798400D01*
X153766742Y-88263815D01*
X153610809Y-87749773D01*
X153357588Y-87276030D01*
X153016810Y-86860790D01*
X152601570Y-86520012D01*
X152127827Y-86266791D01*
X151613785Y-86110858D01*
X151213161Y-86071400D01*
X150945239Y-86071400D01*
X150544615Y-86110858D01*
X150030573Y-86266791D01*
X149556830Y-86520012D01*
X149141590Y-86860790D01*
X148800812Y-87276030D01*
X148547591Y-87749773D01*
X148391658Y-88263815D01*
X148339006Y-88798400D01*
X141106200Y-88798400D01*
X141106200Y-88529814D01*
X141001403Y-88002963D01*
X140795836Y-87506681D01*
X140497399Y-87060039D01*
X140117561Y-86680201D01*
X139670919Y-86381764D01*
X139174637Y-86176197D01*
X138647786Y-86071400D01*
X138110614Y-86071400D01*
X137583763Y-86176197D01*
X137087481Y-86381764D01*
X136803671Y-86571400D01*
X133662204Y-86571400D01*
X133615654Y-86524850D01*
X133136255Y-86204526D01*
X132603575Y-85983882D01*
X132038084Y-85871400D01*
X131461516Y-85871400D01*
X130896025Y-85983882D01*
X130363345Y-86204526D01*
X130065796Y-86403342D01*
X125908892Y-82246440D01*
X125891297Y-82225000D01*
X128879483Y-82225000D01*
X128879483Y-83775000D01*
X128908411Y-84068712D01*
X128994084Y-84351136D01*
X129133208Y-84611420D01*
X129320439Y-84839561D01*
X129548580Y-85026792D01*
X129808864Y-85165916D01*
X130091288Y-85251589D01*
X130385000Y-85280517D01*
X131935000Y-85280517D01*
X132228712Y-85251589D01*
X132511136Y-85165916D01*
X132771420Y-85026792D01*
X132999561Y-84839561D01*
X133186792Y-84611420D01*
X133325916Y-84351136D01*
X133411589Y-84068712D01*
X133440517Y-83775000D01*
X133440517Y-82225000D01*
X133411589Y-81931288D01*
X133325916Y-81648864D01*
X133219622Y-81450000D01*
X140013677Y-81450000D01*
X140013677Y-84550000D01*
X140050883Y-84927758D01*
X140161071Y-85290999D01*
X140340006Y-85625763D01*
X140580813Y-85919187D01*
X140874237Y-86159994D01*
X141209001Y-86338929D01*
X141572242Y-86449117D01*
X141950000Y-86486323D01*
X145050000Y-86486323D01*
X145427758Y-86449117D01*
X145790999Y-86338929D01*
X146125763Y-86159994D01*
X146419187Y-85919187D01*
X146659994Y-85625763D01*
X146838929Y-85290999D01*
X146949117Y-84927758D01*
X146986323Y-84550000D01*
X146986323Y-81450000D01*
X146949117Y-81072242D01*
X146838929Y-80709001D01*
X146659994Y-80374237D01*
X146419187Y-80080813D01*
X146333749Y-80010696D01*
X146535000Y-80030517D01*
X148085000Y-80030517D01*
X148378712Y-80001589D01*
X148661136Y-79915916D01*
X148766488Y-79859604D01*
X149425200Y-79859604D01*
X149425200Y-80160396D01*
X149483881Y-80455410D01*
X149598990Y-80733306D01*
X149766101Y-80983406D01*
X149978794Y-81196099D01*
X150228894Y-81363210D01*
X150506790Y-81478319D01*
X150801804Y-81537000D01*
X151102596Y-81537000D01*
X151397610Y-81478319D01*
X151675506Y-81363210D01*
X151925606Y-81196099D01*
X152138299Y-80983406D01*
X152305410Y-80733306D01*
X152420519Y-80455410D01*
X152479200Y-80160396D01*
X152479200Y-79859604D01*
X152420519Y-79564590D01*
X152305410Y-79286694D01*
X152138299Y-79036594D01*
X151925606Y-78823901D01*
X151675506Y-78656790D01*
X151397610Y-78541681D01*
X151102596Y-78483000D01*
X150801804Y-78483000D01*
X150506790Y-78541681D01*
X150228894Y-78656790D01*
X149978794Y-78823901D01*
X149766101Y-79036594D01*
X149598990Y-79286694D01*
X149483881Y-79564590D01*
X149425200Y-79859604D01*
X148766488Y-79859604D01*
X148921420Y-79776792D01*
X149149561Y-79589561D01*
X149336792Y-79361420D01*
X149475916Y-79101136D01*
X149561589Y-78818712D01*
X149590517Y-78525000D01*
X149590517Y-76975000D01*
X149561589Y-76681288D01*
X149475916Y-76398864D01*
X149336792Y-76138580D01*
X149149561Y-75910439D01*
X149007193Y-75793600D01*
X149417812Y-75793600D01*
X149447295Y-76092944D01*
X149534610Y-76380785D01*
X149676403Y-76646060D01*
X149867224Y-76878576D01*
X150099740Y-77069397D01*
X150365015Y-77211190D01*
X150652856Y-77298505D01*
X150877189Y-77320600D01*
X151027211Y-77320600D01*
X151251544Y-77298505D01*
X151539385Y-77211190D01*
X151804660Y-77069397D01*
X152037176Y-76878576D01*
X152227997Y-76646060D01*
X152369790Y-76380785D01*
X152457105Y-76092944D01*
X152486588Y-75793600D01*
X152457105Y-75494256D01*
X152369790Y-75206415D01*
X152227997Y-74941140D01*
X152037176Y-74708624D01*
X151804660Y-74517803D01*
X151539385Y-74376010D01*
X151251544Y-74288695D01*
X151027211Y-74266600D01*
X150877189Y-74266600D01*
X150652856Y-74288695D01*
X150365015Y-74376010D01*
X150099740Y-74517803D01*
X149867224Y-74708624D01*
X149676403Y-74941140D01*
X149534610Y-75206415D01*
X149447295Y-75494256D01*
X149417812Y-75793600D01*
X149007193Y-75793600D01*
X148921420Y-75723208D01*
X148661136Y-75584084D01*
X148378712Y-75498411D01*
X148085000Y-75469483D01*
X146535000Y-75469483D01*
X146241288Y-75498411D01*
X145958864Y-75584084D01*
X145698580Y-75723208D01*
X145470439Y-75910439D01*
X145283208Y-76138580D01*
X145144084Y-76398864D01*
X145058411Y-76681288D01*
X145029483Y-76975000D01*
X145029483Y-78525000D01*
X145058411Y-78818712D01*
X145144084Y-79101136D01*
X145283208Y-79361420D01*
X145442323Y-79555301D01*
X145427758Y-79550883D01*
X145050000Y-79513677D01*
X141950000Y-79513677D01*
X141572242Y-79550883D01*
X141209001Y-79661071D01*
X140874237Y-79840006D01*
X140580813Y-80080813D01*
X140340006Y-80374237D01*
X140161071Y-80709001D01*
X140050883Y-81072242D01*
X140013677Y-81450000D01*
X133219622Y-81450000D01*
X133186792Y-81388580D01*
X132999561Y-81160439D01*
X132771420Y-80973208D01*
X132511136Y-80834084D01*
X132228712Y-80748411D01*
X131935000Y-80719483D01*
X130385000Y-80719483D01*
X130091288Y-80748411D01*
X129808864Y-80834084D01*
X129548580Y-80973208D01*
X129320439Y-81160439D01*
X129133208Y-81388580D01*
X128994084Y-81648864D01*
X128908411Y-81931288D01*
X128879483Y-82225000D01*
X125891297Y-82225000D01*
X125839146Y-82161454D01*
X125500041Y-81883158D01*
X125113159Y-81676365D01*
X124693368Y-81549023D01*
X124366201Y-81516800D01*
X124366198Y-81516800D01*
X124256800Y-81506025D01*
X124147402Y-81516800D01*
X122715453Y-81516800D01*
X119737457Y-78538804D01*
X122450400Y-78538804D01*
X122450400Y-78839596D01*
X122509081Y-79134610D01*
X122624190Y-79412506D01*
X122791301Y-79662606D01*
X123003994Y-79875299D01*
X123254094Y-80042410D01*
X123531990Y-80157519D01*
X123827004Y-80216200D01*
X124127796Y-80216200D01*
X124422810Y-80157519D01*
X124700706Y-80042410D01*
X124950806Y-79875299D01*
X125163499Y-79662606D01*
X125330610Y-79412506D01*
X125338836Y-79392647D01*
X125500439Y-79589561D01*
X125728580Y-79776792D01*
X125988864Y-79915916D01*
X126271288Y-80001589D01*
X126565000Y-80030517D01*
X128115000Y-80030517D01*
X128408712Y-80001589D01*
X128691136Y-79915916D01*
X128951420Y-79776792D01*
X129179561Y-79589561D01*
X129366792Y-79361420D01*
X129505916Y-79101136D01*
X129591589Y-78818712D01*
X129620517Y-78525000D01*
X129620517Y-76975000D01*
X129591589Y-76681288D01*
X129505916Y-76398864D01*
X129366792Y-76138580D01*
X129179561Y-75910439D01*
X128951420Y-75723208D01*
X128691136Y-75584084D01*
X128408712Y-75498411D01*
X128115000Y-75469483D01*
X126565000Y-75469483D01*
X126271288Y-75498411D01*
X125988864Y-75584084D01*
X125728580Y-75723208D01*
X125500439Y-75910439D01*
X125313208Y-76138580D01*
X125174084Y-76398864D01*
X125088411Y-76681288D01*
X125059483Y-76975000D01*
X125059483Y-77611778D01*
X124950806Y-77503101D01*
X124700706Y-77335990D01*
X124422810Y-77220881D01*
X124127796Y-77162200D01*
X123827004Y-77162200D01*
X123531990Y-77220881D01*
X123254094Y-77335990D01*
X123003994Y-77503101D01*
X122791301Y-77715794D01*
X122624190Y-77965894D01*
X122509081Y-78243790D01*
X122450400Y-78538804D01*
X119737457Y-78538804D01*
X118762200Y-77563548D01*
X118762200Y-74754204D01*
X122475800Y-74754204D01*
X122475800Y-75054996D01*
X122534481Y-75350010D01*
X122649590Y-75627906D01*
X122816701Y-75878006D01*
X123029394Y-76090699D01*
X123279494Y-76257810D01*
X123557390Y-76372919D01*
X123852404Y-76431600D01*
X124153196Y-76431600D01*
X124448210Y-76372919D01*
X124726106Y-76257810D01*
X124976206Y-76090699D01*
X125188899Y-75878006D01*
X125356010Y-75627906D01*
X125471119Y-75350010D01*
X125529800Y-75054996D01*
X125529800Y-74754204D01*
X125471119Y-74459190D01*
X125356010Y-74181294D01*
X125188899Y-73931194D01*
X124976206Y-73718501D01*
X124726106Y-73551390D01*
X124448210Y-73436281D01*
X124153196Y-73377600D01*
X123852404Y-73377600D01*
X123557390Y-73436281D01*
X123279494Y-73551390D01*
X123029394Y-73718501D01*
X122816701Y-73931194D01*
X122649590Y-74181294D01*
X122534481Y-74459190D01*
X122475800Y-74754204D01*
X118762200Y-74754204D01*
X118762200Y-73591598D01*
X118772975Y-73482199D01*
X118754926Y-73298944D01*
X118729977Y-73045632D01*
X118602635Y-72625841D01*
X118395842Y-72238959D01*
X118117546Y-71899854D01*
X118032565Y-71830112D01*
X117220853Y-71018400D01*
X118748006Y-71018400D01*
X118800658Y-71552985D01*
X118956591Y-72067027D01*
X119209812Y-72540770D01*
X119550590Y-72956010D01*
X119965830Y-73296788D01*
X120439573Y-73550009D01*
X120953615Y-73705942D01*
X121354239Y-73745400D01*
X121622161Y-73745400D01*
X122022785Y-73705942D01*
X122536827Y-73550009D01*
X123010570Y-73296788D01*
X123425810Y-72956010D01*
X123766588Y-72540770D01*
X124019809Y-72067027D01*
X124175742Y-71552985D01*
X124228394Y-71018400D01*
X124175859Y-70485000D01*
X125059483Y-70485000D01*
X125059483Y-72035000D01*
X125088411Y-72328712D01*
X125174084Y-72611136D01*
X125313208Y-72871420D01*
X125500439Y-73099561D01*
X125728580Y-73286792D01*
X125988864Y-73425916D01*
X126271288Y-73511589D01*
X126565000Y-73540517D01*
X128115000Y-73540517D01*
X128408712Y-73511589D01*
X128691136Y-73425916D01*
X128951420Y-73286792D01*
X129179561Y-73099561D01*
X129366792Y-72871420D01*
X129505916Y-72611136D01*
X129591589Y-72328712D01*
X129620517Y-72035000D01*
X129620517Y-70485000D01*
X145029483Y-70485000D01*
X145029483Y-72035000D01*
X145058411Y-72328712D01*
X145144084Y-72611136D01*
X145283208Y-72871420D01*
X145470439Y-73099561D01*
X145698580Y-73286792D01*
X145958864Y-73425916D01*
X146241288Y-73511589D01*
X146535000Y-73540517D01*
X148085000Y-73540517D01*
X148378712Y-73511589D01*
X148661136Y-73425916D01*
X148921420Y-73286792D01*
X149149561Y-73099561D01*
X149336792Y-72871420D01*
X149475916Y-72611136D01*
X149561589Y-72328712D01*
X149590517Y-72035000D01*
X149590517Y-71407087D01*
X149660481Y-71453836D01*
X150156763Y-71659403D01*
X150683614Y-71764200D01*
X151220786Y-71764200D01*
X151747637Y-71659403D01*
X152243919Y-71453836D01*
X152690561Y-71155399D01*
X153070399Y-70775561D01*
X153368836Y-70328919D01*
X153574403Y-69832637D01*
X153679200Y-69305786D01*
X153679200Y-68768614D01*
X153574403Y-68241763D01*
X153368836Y-67745481D01*
X153070399Y-67298839D01*
X152690561Y-66919001D01*
X152243919Y-66620564D01*
X151747637Y-66414997D01*
X151220786Y-66310200D01*
X150683614Y-66310200D01*
X150156763Y-66414997D01*
X149660481Y-66620564D01*
X149213839Y-66919001D01*
X148834001Y-67298839D01*
X148535564Y-67745481D01*
X148329997Y-68241763D01*
X148225200Y-68768614D01*
X148225200Y-68993291D01*
X148085000Y-68979483D01*
X146535000Y-68979483D01*
X146241288Y-69008411D01*
X145958864Y-69094084D01*
X145698580Y-69233208D01*
X145470439Y-69420439D01*
X145283208Y-69648580D01*
X145144084Y-69908864D01*
X145058411Y-70191288D01*
X145029483Y-70485000D01*
X129620517Y-70485000D01*
X129591589Y-70191288D01*
X129505916Y-69908864D01*
X129366792Y-69648580D01*
X129179561Y-69420439D01*
X128951420Y-69233208D01*
X128691136Y-69094084D01*
X128408712Y-69008411D01*
X128115000Y-68979483D01*
X126565000Y-68979483D01*
X126271288Y-69008411D01*
X125988864Y-69094084D01*
X125728580Y-69233208D01*
X125500439Y-69420439D01*
X125313208Y-69648580D01*
X125174084Y-69908864D01*
X125088411Y-70191288D01*
X125059483Y-70485000D01*
X124175859Y-70485000D01*
X124175742Y-70483815D01*
X124019809Y-69969773D01*
X123766588Y-69496030D01*
X123425810Y-69080790D01*
X123010570Y-68740012D01*
X122536827Y-68486791D01*
X122022785Y-68330858D01*
X121622161Y-68291400D01*
X121354239Y-68291400D01*
X120953615Y-68330858D01*
X120439573Y-68486791D01*
X119965830Y-68740012D01*
X119550590Y-69080790D01*
X119209812Y-69496030D01*
X118956591Y-69969773D01*
X118800658Y-70483815D01*
X118748006Y-71018400D01*
X117220853Y-71018400D01*
X115443854Y-69241401D01*
X115654054Y-69100950D01*
X116061750Y-68693254D01*
X116382074Y-68213855D01*
X116602718Y-67681175D01*
X116715200Y-67115684D01*
X116715200Y-66539116D01*
X116602718Y-65973625D01*
X116382074Y-65440945D01*
X116061750Y-64961546D01*
X115654054Y-64553850D01*
X115174655Y-64233526D01*
X114641975Y-64012882D01*
X114076484Y-63900400D01*
X113499916Y-63900400D01*
X112934425Y-64012882D01*
X112401745Y-64233526D01*
X111922346Y-64553850D01*
X111514650Y-64961546D01*
X111288200Y-65300453D01*
X111061750Y-64961546D01*
X110654054Y-64553850D01*
X110174655Y-64233526D01*
X109641975Y-64012882D01*
X109076484Y-63900400D01*
X109010653Y-63900400D01*
X107112893Y-62002641D01*
X107043146Y-61917654D01*
X106704041Y-61639358D01*
X106317159Y-61432565D01*
X105897368Y-61305223D01*
X105570201Y-61273000D01*
X105570198Y-61273000D01*
X105460800Y-61262225D01*
X105351402Y-61273000D01*
X94698990Y-61273000D01*
X94589599Y-61262226D01*
X94480208Y-61273000D01*
X94480199Y-61273000D01*
X94153032Y-61305223D01*
X93733241Y-61432565D01*
X93346359Y-61639358D01*
X93136631Y-61811477D01*
X91891000Y-61811477D01*
X91513242Y-61848683D01*
X91150001Y-61958871D01*
X91128806Y-61970200D01*
X83551445Y-61970200D01*
X83349546Y-61768301D01*
X82837390Y-61426089D01*
X82268312Y-61190369D01*
X81664183Y-61070200D01*
X81048217Y-61070200D01*
X80444088Y-61190369D01*
X79875010Y-61426089D01*
X79362854Y-61768301D01*
X79160955Y-61970200D01*
X77067346Y-61970200D01*
X77030588Y-61901430D01*
X76689810Y-61486190D01*
X76274570Y-61145412D01*
X75800827Y-60892191D01*
X75286785Y-60736258D01*
X74886161Y-60696800D01*
X74618239Y-60696800D01*
X74217615Y-60736258D01*
X73703573Y-60892191D01*
X73229830Y-61145412D01*
X72814590Y-61486190D01*
X72473812Y-61901430D01*
X72220591Y-62375173D01*
X72064658Y-62889215D01*
X72012006Y-63423800D01*
X72064658Y-63958385D01*
X72220591Y-64472427D01*
X72473812Y-64946170D01*
X72814590Y-65361410D01*
X73229830Y-65702188D01*
X73703573Y-65955409D01*
X74217615Y-66111342D01*
X74419684Y-66131244D01*
X74669241Y-66264635D01*
X75089032Y-66391977D01*
X75416199Y-66424200D01*
X75416201Y-66424200D01*
X75525600Y-66434975D01*
X75634998Y-66424200D01*
X79160955Y-66424200D01*
X79362854Y-66626099D01*
X79875010Y-66968311D01*
X80444088Y-67204031D01*
X81048217Y-67324200D01*
X81664183Y-67324200D01*
X82268312Y-67204031D01*
X82837390Y-66968311D01*
X83349546Y-66626099D01*
X83551445Y-66424200D01*
X89981900Y-66424200D01*
X89991883Y-66525558D01*
X90102071Y-66888799D01*
X90281006Y-67223563D01*
X90521813Y-67516987D01*
X90815237Y-67757794D01*
X91150001Y-67936729D01*
X91513242Y-68046917D01*
X91891000Y-68084123D01*
X94291000Y-68084123D01*
X94668758Y-68046917D01*
X95031999Y-67936729D01*
X95366763Y-67757794D01*
X95660187Y-67516987D01*
X95900994Y-67223563D01*
X95927058Y-67174800D01*
X102023748Y-67174800D01*
X105434312Y-70585365D01*
X105504054Y-70670346D01*
X105843159Y-70948642D01*
X106061200Y-71065187D01*
X106061200Y-71286986D01*
X106138013Y-71673153D01*
X106020425Y-71555565D01*
X105978870Y-71504930D01*
X105776808Y-71339102D01*
X105546278Y-71215881D01*
X105296137Y-71140001D01*
X105101184Y-71120800D01*
X105101174Y-71120800D01*
X105036000Y-71114381D01*
X104970826Y-71120800D01*
X94489190Y-71120800D01*
X94319391Y-70951001D01*
X94003777Y-70740115D01*
X93653085Y-70594853D01*
X93280793Y-70520800D01*
X92901207Y-70520800D01*
X92528915Y-70594853D01*
X92178223Y-70740115D01*
X91862609Y-70951001D01*
X91594201Y-71219409D01*
X91383315Y-71535023D01*
X91238053Y-71885715D01*
X91164000Y-72258007D01*
X91164000Y-72498139D01*
X86211362Y-77450778D01*
X85791940Y-77870200D01*
X82754390Y-77870200D01*
X82683200Y-77799010D01*
X82683200Y-73445774D01*
X82689619Y-73380600D01*
X82683200Y-73315426D01*
X82683200Y-73315416D01*
X82663999Y-73120463D01*
X82588119Y-72870322D01*
X82501323Y-72707938D01*
X82464898Y-72639791D01*
X82340622Y-72488361D01*
X82340621Y-72488360D01*
X82299070Y-72437730D01*
X82248441Y-72396180D01*
X78556025Y-68703765D01*
X78514470Y-68653130D01*
X78312408Y-68487302D01*
X78081878Y-68364081D01*
X77831737Y-68288201D01*
X77636784Y-68269000D01*
X77636774Y-68269000D01*
X77571600Y-68262581D01*
X77506426Y-68269000D01*
X72681861Y-68269000D01*
X70248400Y-65835540D01*
X70248400Y-65540482D01*
X70172425Y-65158530D01*
X70023395Y-64798739D01*
X69807036Y-64474936D01*
X69531664Y-64199564D01*
X69207861Y-63983205D01*
X68848070Y-63834175D01*
X68466118Y-63758200D01*
X68076682Y-63758200D01*
X67694730Y-63834175D01*
X67334939Y-63983205D01*
X67011136Y-64199564D01*
X66735764Y-64474936D01*
X66519405Y-64798739D01*
X66457723Y-64947653D01*
X66457723Y-64485200D01*
X66420517Y-64107442D01*
X66310329Y-63744201D01*
X66131394Y-63409437D01*
X65890587Y-63116013D01*
X65597163Y-62875206D01*
X65262399Y-62696271D01*
X64899158Y-62586083D01*
X64521400Y-62548877D01*
X62021400Y-62548877D01*
X61643642Y-62586083D01*
X61280401Y-62696271D01*
X60945637Y-62875206D01*
X60685000Y-63089105D01*
X60685000Y-60685000D01*
X115304033Y-60685000D01*
X115135215Y-60736210D01*
X115135215Y-60736210D01*
G37*
X115135215Y-60736210D02*
X114869940Y-60878003D01*
X114637424Y-61068824D01*
X114446603Y-61301340D01*
X114304810Y-61566615D01*
X114217495Y-61854456D01*
X114188012Y-62153800D01*
X114217495Y-62453144D01*
X114304810Y-62740985D01*
X114446603Y-63006260D01*
X114637424Y-63238776D01*
X114869940Y-63429597D01*
X115135215Y-63571390D01*
X115423056Y-63658705D01*
X115647389Y-63680800D01*
X115797411Y-63680800D01*
X116021744Y-63658705D01*
X116309585Y-63571390D01*
X116574860Y-63429597D01*
X116807376Y-63238776D01*
X116998197Y-63006260D01*
X117139990Y-62740985D01*
X117227305Y-62453144D01*
X117256788Y-62153800D01*
X117227305Y-61854456D01*
X117139990Y-61566615D01*
X116998197Y-61301340D01*
X116807376Y-61068824D01*
X116574860Y-60878003D01*
X116309585Y-60736210D01*
X116140767Y-60685000D01*
X127979408Y-60685000D01*
X127976990Y-60685481D01*
X127699094Y-60800590D01*
X127448994Y-60967701D01*
X127236301Y-61180394D01*
X127069190Y-61430494D01*
X126954081Y-61708390D01*
X126895400Y-62003404D01*
X126895400Y-62304196D01*
X126954081Y-62599210D01*
X127069190Y-62877106D01*
X127236301Y-63127206D01*
X127448994Y-63339899D01*
X127699094Y-63507010D01*
X127976990Y-63622119D01*
X128184231Y-63663341D01*
X128130617Y-63728670D01*
X127880064Y-64197422D01*
X127725774Y-64706047D01*
X127673677Y-65235000D01*
X127673677Y-66785000D01*
X127725774Y-67313953D01*
X127880064Y-67822578D01*
X128130617Y-68291330D01*
X128467805Y-68702195D01*
X128878670Y-69039383D01*
X129347422Y-69289936D01*
X129856047Y-69444226D01*
X130385000Y-69496323D01*
X131935000Y-69496323D01*
X132463953Y-69444226D01*
X132972578Y-69289936D01*
X133441330Y-69039383D01*
X133852195Y-68702195D01*
X134189383Y-68291330D01*
X134439936Y-67822578D01*
X134594226Y-67313953D01*
X134646323Y-66785000D01*
X134646323Y-65235000D01*
X134594226Y-64706047D01*
X134439936Y-64197422D01*
X134189383Y-63728670D01*
X133852195Y-63317805D01*
X133751297Y-63235000D01*
X135049483Y-63235000D01*
X135049483Y-64785000D01*
X135078411Y-65078712D01*
X135164084Y-65361136D01*
X135303208Y-65621420D01*
X135490439Y-65849561D01*
X135718580Y-66036792D01*
X135978864Y-66175916D01*
X136261288Y-66261589D01*
X136555000Y-66290517D01*
X138105000Y-66290517D01*
X138398712Y-66261589D01*
X138681136Y-66175916D01*
X138941420Y-66036792D01*
X139169561Y-65849561D01*
X139356792Y-65621420D01*
X139495916Y-65361136D01*
X139581589Y-65078712D01*
X139610517Y-64785000D01*
X139610517Y-63235000D01*
X139581589Y-62941288D01*
X139495916Y-62658864D01*
X139356792Y-62398580D01*
X139169561Y-62170439D01*
X138941420Y-61983208D01*
X138681136Y-61844084D01*
X138398712Y-61758411D01*
X138105000Y-61729483D01*
X136555000Y-61729483D01*
X136261288Y-61758411D01*
X135978864Y-61844084D01*
X135718580Y-61983208D01*
X135490439Y-62170439D01*
X135303208Y-62398580D01*
X135164084Y-62658864D01*
X135078411Y-62941288D01*
X135049483Y-63235000D01*
X133751297Y-63235000D01*
X133441330Y-62980617D01*
X132972578Y-62730064D01*
X132463953Y-62575774D01*
X131935000Y-62523677D01*
X130385000Y-62523677D01*
X129896167Y-62571823D01*
X129949400Y-62304196D01*
X129949400Y-62003404D01*
X129890719Y-61708390D01*
X129775610Y-61430494D01*
X129608499Y-61180394D01*
X129395806Y-60967701D01*
X129145706Y-60800590D01*
X128867810Y-60685481D01*
X128865392Y-60685000D01*
X225659500Y-60685000D01*
X225574415Y-60710810D01*
X225309140Y-60852603D01*
X225076624Y-61043424D01*
X224885803Y-61275940D01*
X224744010Y-61541215D01*
X224656695Y-61829056D01*
X224627212Y-62128400D01*
X224656695Y-62427744D01*
X224744010Y-62715585D01*
X224885803Y-62980860D01*
X225076624Y-63213376D01*
X225309140Y-63404197D01*
X225574415Y-63545990D01*
X225862256Y-63633305D01*
X226086589Y-63655400D01*
X226236611Y-63655400D01*
X226460944Y-63633305D01*
X226748785Y-63545990D01*
X227014060Y-63404197D01*
X227246576Y-63213376D01*
X227437397Y-62980860D01*
X227579190Y-62715585D01*
X227666505Y-62427744D01*
X227695988Y-62128400D01*
X227666505Y-61829056D01*
X227579190Y-61541215D01*
X227437397Y-61275940D01*
X227246576Y-61043424D01*
X227014060Y-60852603D01*
X226748785Y-60710810D01*
X226663700Y-60685000D01*
X234787635Y-60685000D01*
X234552227Y-60810828D01*
X234312097Y-61007897D01*
X234115028Y-61248027D01*
X233968593Y-61521988D01*
X233878418Y-61819254D01*
X233847970Y-62128400D01*
X233878418Y-62437546D01*
X233968593Y-62734812D01*
X234115028Y-63008773D01*
X234312097Y-63248903D01*
X234552227Y-63445972D01*
X234826188Y-63592407D01*
X235123454Y-63682582D01*
X235355131Y-63705400D01*
X235510069Y-63705400D01*
X235741746Y-63682582D01*
X236039012Y-63592407D01*
X236312973Y-63445972D01*
X236476468Y-63311796D01*
X236515197Y-63384253D01*
X236606046Y-63494954D01*
X236716747Y-63585803D01*
X236843043Y-63653310D01*
X236980083Y-63694880D01*
X237122600Y-63708917D01*
X238822600Y-63708917D01*
X238965117Y-63694880D01*
X239102157Y-63653310D01*
X239228453Y-63585803D01*
X239315000Y-63514776D01*
X239315001Y-78765400D01*
X230174800Y-78765400D01*
X230149830Y-78767879D01*
X230126017Y-78775143D01*
X230104079Y-78786913D01*
X230084858Y-78802737D01*
X230069094Y-78822007D01*
X230057392Y-78843981D01*
X230050202Y-78867817D01*
X230047800Y-78892597D01*
X230061176Y-87506600D01*
X229924436Y-87176481D01*
X229625999Y-86729839D01*
X229246161Y-86350001D01*
X228799519Y-86051564D01*
X228303237Y-85845997D01*
X227776386Y-85741200D01*
X227239214Y-85741200D01*
X226712363Y-85845997D01*
X226216081Y-86051564D01*
X225769439Y-86350001D01*
X225389601Y-86729839D01*
X225091164Y-87176481D01*
X224885597Y-87672763D01*
X224780800Y-88199614D01*
X224780800Y-88736786D01*
X224885597Y-89263637D01*
X225091164Y-89759919D01*
X225389601Y-90206561D01*
X225769439Y-90586399D01*
X226216081Y-90884836D01*
X226712363Y-91090403D01*
X227239214Y-91195200D01*
X227776386Y-91195200D01*
X228303237Y-91090403D01*
X228799519Y-90884836D01*
X229246161Y-90586399D01*
X229625999Y-90206561D01*
X229924436Y-89759919D01*
X230064151Y-89422618D01*
X230071748Y-94315000D01*
X217162260Y-94315000D01*
X229009640Y-82467621D01*
X229060270Y-82426070D01*
X229132376Y-82338209D01*
X229226098Y-82224009D01*
X229349319Y-81993478D01*
X229372004Y-81918696D01*
X229425199Y-81743337D01*
X229444400Y-81548384D01*
X229444400Y-81548374D01*
X229450819Y-81483200D01*
X229444400Y-81418026D01*
X229444400Y-78553060D01*
X229733861Y-78263600D01*
X230789734Y-78263600D01*
X230959215Y-78354190D01*
X231247056Y-78441505D01*
X231471389Y-78463600D01*
X231621411Y-78463600D01*
X231845744Y-78441505D01*
X232133585Y-78354190D01*
X232398860Y-78212397D01*
X232631376Y-78021576D01*
X232822197Y-77789060D01*
X232963990Y-77523785D01*
X233051305Y-77235944D01*
X233080788Y-76936600D01*
X233051305Y-76637256D01*
X232963990Y-76349415D01*
X232822197Y-76084140D01*
X232631376Y-75851624D01*
X232398860Y-75660803D01*
X232133585Y-75519010D01*
X231845744Y-75431695D01*
X231621411Y-75409600D01*
X231471389Y-75409600D01*
X231247056Y-75431695D01*
X230959215Y-75519010D01*
X230789734Y-75609600D01*
X229249373Y-75609600D01*
X229184199Y-75603181D01*
X229119025Y-75609600D01*
X229119016Y-75609600D01*
X228924063Y-75628801D01*
X228673922Y-75704681D01*
X228443391Y-75827902D01*
X228301931Y-75943996D01*
X228241330Y-75993730D01*
X228199779Y-76044360D01*
X227225165Y-77018975D01*
X227174530Y-77060530D01*
X227132978Y-77111162D01*
X227008702Y-77262592D01*
X226936321Y-77398008D01*
X226885481Y-77493123D01*
X226809601Y-77743264D01*
X226790400Y-77938217D01*
X226790400Y-77938226D01*
X226783981Y-78003400D01*
X226790400Y-78068574D01*
X226790401Y-80933538D01*
X215300950Y-92422990D01*
X184520451Y-92422990D01*
X183038600Y-90941140D01*
X183038600Y-89263305D01*
X194277800Y-89263305D01*
X194277800Y-89603495D01*
X194344168Y-89937147D01*
X194474353Y-90251441D01*
X194663352Y-90534298D01*
X194903902Y-90774848D01*
X195186759Y-90963847D01*
X195501053Y-91094032D01*
X195834705Y-91160400D01*
X196174895Y-91160400D01*
X196508547Y-91094032D01*
X196822841Y-90963847D01*
X197105698Y-90774848D01*
X197254800Y-90625746D01*
X197403902Y-90774848D01*
X197686759Y-90963847D01*
X198001053Y-91094032D01*
X198334705Y-91160400D01*
X198674895Y-91160400D01*
X199008547Y-91094032D01*
X199322841Y-90963847D01*
X199605698Y-90774848D01*
X199846248Y-90534298D01*
X200035247Y-90251441D01*
X200165432Y-89937147D01*
X200231800Y-89603495D01*
X200231800Y-89263305D01*
X200208291Y-89145116D01*
X200577800Y-89145116D01*
X200577800Y-89721684D01*
X200690282Y-90287175D01*
X200910926Y-90819855D01*
X201231250Y-91299254D01*
X201638946Y-91706950D01*
X202118345Y-92027274D01*
X202651025Y-92247918D01*
X203216516Y-92360400D01*
X203793084Y-92360400D01*
X204358575Y-92247918D01*
X204754800Y-92083796D01*
X205151025Y-92247918D01*
X205716516Y-92360400D01*
X206293084Y-92360400D01*
X206858575Y-92247918D01*
X207391255Y-92027274D01*
X207870654Y-91706950D01*
X208278350Y-91299254D01*
X208598674Y-90819855D01*
X208819318Y-90287175D01*
X208931800Y-89721684D01*
X208931800Y-89145116D01*
X208819318Y-88579625D01*
X208773165Y-88468200D01*
X212067606Y-88468200D01*
X212120258Y-89002785D01*
X212276191Y-89516827D01*
X212529412Y-89990570D01*
X212870190Y-90405810D01*
X213285430Y-90746588D01*
X213759173Y-90999809D01*
X214273215Y-91155742D01*
X214673839Y-91195200D01*
X214941761Y-91195200D01*
X215342385Y-91155742D01*
X215856427Y-90999809D01*
X216330170Y-90746588D01*
X216745410Y-90405810D01*
X217086188Y-89990570D01*
X217339409Y-89516827D01*
X217495342Y-89002785D01*
X217547994Y-88468200D01*
X217495342Y-87933615D01*
X217339409Y-87419573D01*
X217086188Y-86945830D01*
X216745410Y-86530590D01*
X216691470Y-86486323D01*
X218550000Y-86486323D01*
X218927758Y-86449117D01*
X219290999Y-86338929D01*
X219625763Y-86159994D01*
X219919187Y-85919187D01*
X220159994Y-85625763D01*
X220338929Y-85290999D01*
X220449117Y-84927758D01*
X220486323Y-84550000D01*
X220486323Y-81450000D01*
X220449117Y-81072242D01*
X220338929Y-80709001D01*
X220159994Y-80374237D01*
X219919187Y-80080813D01*
X219833749Y-80010696D01*
X220035000Y-80030517D01*
X221585000Y-80030517D01*
X221878712Y-80001589D01*
X222161136Y-79915916D01*
X222421420Y-79776792D01*
X222649561Y-79589561D01*
X222836792Y-79361420D01*
X222975916Y-79101136D01*
X223061589Y-78818712D01*
X223090517Y-78525000D01*
X223090517Y-76975000D01*
X223061589Y-76681288D01*
X222975916Y-76398864D01*
X222836792Y-76138580D01*
X222649561Y-75910439D01*
X222421420Y-75723208D01*
X222161136Y-75584084D01*
X221878712Y-75498411D01*
X221585000Y-75469483D01*
X220035000Y-75469483D01*
X219741288Y-75498411D01*
X219458864Y-75584084D01*
X219198580Y-75723208D01*
X218970439Y-75910439D01*
X218783208Y-76138580D01*
X218644084Y-76398864D01*
X218558411Y-76681288D01*
X218529483Y-76975000D01*
X218529483Y-78525000D01*
X218558411Y-78818712D01*
X218644084Y-79101136D01*
X218783208Y-79361420D01*
X218942323Y-79555301D01*
X218927758Y-79550883D01*
X218550000Y-79513677D01*
X215450000Y-79513677D01*
X215072242Y-79550883D01*
X214709001Y-79661071D01*
X214374237Y-79840006D01*
X214080813Y-80080813D01*
X213840006Y-80374237D01*
X213661071Y-80709001D01*
X213550883Y-81072242D01*
X213513677Y-81450000D01*
X213513677Y-84550000D01*
X213550883Y-84927758D01*
X213661071Y-85290999D01*
X213840006Y-85625763D01*
X214028137Y-85855002D01*
X213759173Y-85936591D01*
X213285430Y-86189812D01*
X212870190Y-86530590D01*
X212529412Y-86945830D01*
X212276191Y-87419573D01*
X212120258Y-87933615D01*
X212067606Y-88468200D01*
X208773165Y-88468200D01*
X208598674Y-88046945D01*
X208278350Y-87567546D01*
X207870654Y-87159850D01*
X207391255Y-86839526D01*
X206858575Y-86618882D01*
X206293084Y-86506400D01*
X205716516Y-86506400D01*
X205151025Y-86618882D01*
X204754800Y-86783004D01*
X204358575Y-86618882D01*
X203793084Y-86506400D01*
X203216516Y-86506400D01*
X202651025Y-86618882D01*
X202118345Y-86839526D01*
X201638946Y-87159850D01*
X201231250Y-87567546D01*
X200910926Y-88046945D01*
X200690282Y-88579625D01*
X200577800Y-89145116D01*
X200208291Y-89145116D01*
X200165432Y-88929653D01*
X200035247Y-88615359D01*
X199846248Y-88332502D01*
X199605698Y-88091952D01*
X199322841Y-87902953D01*
X199008547Y-87772768D01*
X198674895Y-87706400D01*
X198334705Y-87706400D01*
X198001053Y-87772768D01*
X197686759Y-87902953D01*
X197403902Y-88091952D01*
X197254800Y-88241054D01*
X197105698Y-88091952D01*
X196822841Y-87902953D01*
X196508547Y-87772768D01*
X196174895Y-87706400D01*
X195834705Y-87706400D01*
X195501053Y-87772768D01*
X195186759Y-87902953D01*
X194903902Y-88091952D01*
X194663352Y-88332502D01*
X194474353Y-88615359D01*
X194344168Y-88929653D01*
X194277800Y-89263305D01*
X183038600Y-89263305D01*
X183038600Y-85735574D01*
X183045019Y-85670400D01*
X183038600Y-85605226D01*
X183038600Y-85605216D01*
X183019399Y-85410263D01*
X182943519Y-85160122D01*
X182883643Y-85048102D01*
X182820298Y-84929591D01*
X182696022Y-84778161D01*
X182696021Y-84778160D01*
X182654470Y-84727530D01*
X182603840Y-84685979D01*
X181816461Y-83898600D01*
X185185110Y-83898600D01*
X185860858Y-84574348D01*
X185831210Y-84629815D01*
X185743895Y-84917656D01*
X185714412Y-85217000D01*
X185743895Y-85516344D01*
X185831210Y-85804185D01*
X185973003Y-86069460D01*
X186163824Y-86301976D01*
X186396340Y-86492797D01*
X186661615Y-86634590D01*
X186949456Y-86721905D01*
X187173789Y-86744000D01*
X187323811Y-86744000D01*
X187548144Y-86721905D01*
X187835985Y-86634590D01*
X188101260Y-86492797D01*
X188333776Y-86301976D01*
X188524597Y-86069460D01*
X188666390Y-85804185D01*
X188753705Y-85516344D01*
X188783188Y-85217000D01*
X188768376Y-85066604D01*
X198421800Y-85066604D01*
X198421800Y-85367396D01*
X198480481Y-85662410D01*
X198595590Y-85940306D01*
X198762701Y-86190406D01*
X198975394Y-86403099D01*
X199225494Y-86570210D01*
X199503390Y-86685319D01*
X199798404Y-86744000D01*
X200099196Y-86744000D01*
X200394210Y-86685319D01*
X200672106Y-86570210D01*
X200922206Y-86403099D01*
X201134899Y-86190406D01*
X201302010Y-85940306D01*
X201417119Y-85662410D01*
X201475800Y-85367396D01*
X201475800Y-85066604D01*
X201417119Y-84771590D01*
X201302010Y-84493694D01*
X201134899Y-84243594D01*
X200922206Y-84030901D01*
X200672106Y-83863790D01*
X200394210Y-83748681D01*
X200099196Y-83690000D01*
X199798404Y-83690000D01*
X199503390Y-83748681D01*
X199225494Y-83863790D01*
X198975394Y-84030901D01*
X198762701Y-84243594D01*
X198595590Y-84493694D01*
X198480481Y-84771590D01*
X198421800Y-85066604D01*
X188768376Y-85066604D01*
X188753705Y-84917656D01*
X188666390Y-84629815D01*
X188575800Y-84460334D01*
X188575800Y-84150804D01*
X188582219Y-84085630D01*
X188575800Y-84020456D01*
X188575800Y-84020446D01*
X188556599Y-83825493D01*
X188480719Y-83575352D01*
X188421114Y-83463839D01*
X188357498Y-83344821D01*
X188233222Y-83193391D01*
X188233221Y-83193390D01*
X188191670Y-83142760D01*
X188141040Y-83101209D01*
X187621105Y-82581275D01*
X187671071Y-82540269D01*
X187712626Y-82489634D01*
X187927337Y-82274923D01*
X187973610Y-82265719D01*
X188251506Y-82150610D01*
X188501606Y-81983499D01*
X188714299Y-81770806D01*
X188881410Y-81520706D01*
X188996519Y-81242810D01*
X189055200Y-80947796D01*
X189055200Y-80647004D01*
X191001200Y-80647004D01*
X191001200Y-80947796D01*
X191059881Y-81242810D01*
X191174990Y-81520706D01*
X191342101Y-81770806D01*
X191554794Y-81983499D01*
X191804894Y-82150610D01*
X192082790Y-82265719D01*
X192377804Y-82324400D01*
X192678596Y-82324400D01*
X192973610Y-82265719D01*
X193071913Y-82225000D01*
X202379483Y-82225000D01*
X202379483Y-83775000D01*
X202408411Y-84068712D01*
X202494084Y-84351136D01*
X202633208Y-84611420D01*
X202820439Y-84839561D01*
X203048580Y-85026792D01*
X203308864Y-85165916D01*
X203591288Y-85251589D01*
X203885000Y-85280517D01*
X205435000Y-85280517D01*
X205728712Y-85251589D01*
X206011136Y-85165916D01*
X206271420Y-85026792D01*
X206499561Y-84839561D01*
X206686792Y-84611420D01*
X206825916Y-84351136D01*
X206911589Y-84068712D01*
X206940517Y-83775000D01*
X206940517Y-82225000D01*
X206911589Y-81931288D01*
X206825916Y-81648864D01*
X206686792Y-81388580D01*
X206499561Y-81160439D01*
X206271420Y-80973208D01*
X206011136Y-80834084D01*
X205728712Y-80748411D01*
X205435000Y-80719483D01*
X203885000Y-80719483D01*
X203591288Y-80748411D01*
X203308864Y-80834084D01*
X203048580Y-80973208D01*
X202820439Y-81160439D01*
X202633208Y-81388580D01*
X202494084Y-81648864D01*
X202408411Y-81931288D01*
X202379483Y-82225000D01*
X193071913Y-82225000D01*
X193251506Y-82150610D01*
X193501606Y-81983499D01*
X193714299Y-81770806D01*
X193881410Y-81520706D01*
X193996519Y-81242810D01*
X194055200Y-80947796D01*
X194055200Y-80647004D01*
X193996519Y-80351990D01*
X193881410Y-80074094D01*
X193714299Y-79823994D01*
X193501606Y-79611301D01*
X193251506Y-79444190D01*
X192973610Y-79329081D01*
X192678596Y-79270400D01*
X192377804Y-79270400D01*
X192082790Y-79329081D01*
X191804894Y-79444190D01*
X191554794Y-79611301D01*
X191342101Y-79823994D01*
X191174990Y-80074094D01*
X191059881Y-80351990D01*
X191001200Y-80647004D01*
X189055200Y-80647004D01*
X188996519Y-80351990D01*
X188881410Y-80074094D01*
X188855200Y-80034868D01*
X188855200Y-78077060D01*
X188920154Y-78023754D01*
X189011003Y-77913053D01*
X189049732Y-77840596D01*
X189213227Y-77974772D01*
X189487188Y-78121207D01*
X189784454Y-78211382D01*
X190016131Y-78234200D01*
X190171069Y-78234200D01*
X190402746Y-78211382D01*
X190700012Y-78121207D01*
X190973973Y-77974772D01*
X191214103Y-77777703D01*
X191363600Y-77595540D01*
X191513097Y-77777703D01*
X191753227Y-77974772D01*
X192027188Y-78121207D01*
X192324454Y-78211382D01*
X192556131Y-78234200D01*
X192711069Y-78234200D01*
X192942746Y-78211382D01*
X193240012Y-78121207D01*
X193513973Y-77974772D01*
X193754103Y-77777703D01*
X193951172Y-77537573D01*
X194097607Y-77263612D01*
X194185156Y-76975000D01*
X198559483Y-76975000D01*
X198559483Y-78525000D01*
X198588411Y-78818712D01*
X198674084Y-79101136D01*
X198813208Y-79361420D01*
X199000439Y-79589561D01*
X199228580Y-79776792D01*
X199488864Y-79915916D01*
X199771288Y-80001589D01*
X200065000Y-80030517D01*
X201615000Y-80030517D01*
X201908712Y-80001589D01*
X202191136Y-79915916D01*
X202451420Y-79776792D01*
X202679561Y-79589561D01*
X202866792Y-79361420D01*
X203005916Y-79101136D01*
X203091589Y-78818712D01*
X203120517Y-78525000D01*
X203120517Y-76975000D01*
X203091589Y-76681288D01*
X203005916Y-76398864D01*
X202866792Y-76138580D01*
X202679561Y-75910439D01*
X202451420Y-75723208D01*
X202191136Y-75584084D01*
X201908712Y-75498411D01*
X201615000Y-75469483D01*
X200065000Y-75469483D01*
X199771288Y-75498411D01*
X199488864Y-75584084D01*
X199228580Y-75723208D01*
X199000439Y-75910439D01*
X198813208Y-76138580D01*
X198674084Y-76398864D01*
X198588411Y-76681288D01*
X198559483Y-76975000D01*
X194185156Y-76975000D01*
X194187782Y-76966346D01*
X194218230Y-76657200D01*
X194187782Y-76348054D01*
X194097607Y-76050788D01*
X193951172Y-75776827D01*
X193754103Y-75536697D01*
X193513973Y-75339628D01*
X193240012Y-75193193D01*
X192942746Y-75103018D01*
X192711069Y-75080200D01*
X192556131Y-75080200D01*
X192324454Y-75103018D01*
X192027188Y-75193193D01*
X191753227Y-75339628D01*
X191513097Y-75536697D01*
X191363600Y-75718860D01*
X191214103Y-75536697D01*
X190973973Y-75339628D01*
X190700012Y-75193193D01*
X190402746Y-75103018D01*
X190171069Y-75080200D01*
X190016131Y-75080200D01*
X189784454Y-75103018D01*
X189487188Y-75193193D01*
X189213227Y-75339628D01*
X189049732Y-75473804D01*
X189011003Y-75401347D01*
X188920154Y-75290646D01*
X188809453Y-75199797D01*
X188683157Y-75132290D01*
X188546117Y-75090720D01*
X188403600Y-75076683D01*
X186703600Y-75076683D01*
X186561083Y-75090720D01*
X186424043Y-75132290D01*
X186297747Y-75199797D01*
X186187046Y-75290646D01*
X186096197Y-75401347D01*
X186028690Y-75527643D01*
X185987120Y-75664683D01*
X185973083Y-75807200D01*
X185973083Y-77507200D01*
X185987120Y-77649717D01*
X186028690Y-77786757D01*
X186096197Y-77913053D01*
X186187046Y-78023754D01*
X186201201Y-78035370D01*
X186201200Y-80034868D01*
X186174990Y-80074094D01*
X186059881Y-80351990D01*
X186050677Y-80398263D01*
X185923977Y-80524963D01*
X185893639Y-80549861D01*
X185766101Y-80654529D01*
X185724550Y-80705159D01*
X185185110Y-81244600D01*
X180010990Y-81244600D01*
X179841191Y-81074801D01*
X179525577Y-80863915D01*
X179174885Y-80718653D01*
X179120941Y-80707923D01*
X179812800Y-80707923D01*
X180190558Y-80670717D01*
X180553799Y-80560529D01*
X180888563Y-80381594D01*
X181181987Y-80140787D01*
X181422794Y-79847363D01*
X181601729Y-79512599D01*
X181711917Y-79149358D01*
X181749123Y-78771600D01*
X181749123Y-76371600D01*
X181711917Y-75993842D01*
X181601729Y-75630601D01*
X181422794Y-75295837D01*
X181181987Y-75002413D01*
X180890600Y-74763278D01*
X180890600Y-74678004D01*
X224634600Y-74678004D01*
X224634600Y-74978796D01*
X224693281Y-75273810D01*
X224808390Y-75551706D01*
X224975501Y-75801806D01*
X225188194Y-76014499D01*
X225438294Y-76181610D01*
X225716190Y-76296719D01*
X226011204Y-76355400D01*
X226311996Y-76355400D01*
X226607010Y-76296719D01*
X226884906Y-76181610D01*
X227135006Y-76014499D01*
X227347699Y-75801806D01*
X227514810Y-75551706D01*
X227629919Y-75273810D01*
X227688600Y-74978796D01*
X227688600Y-74678004D01*
X234591400Y-74678004D01*
X234591400Y-74978796D01*
X234650081Y-75273810D01*
X234765190Y-75551706D01*
X234932301Y-75801806D01*
X235144994Y-76014499D01*
X235395094Y-76181610D01*
X235672990Y-76296719D01*
X235968004Y-76355400D01*
X236268796Y-76355400D01*
X236563810Y-76296719D01*
X236841706Y-76181610D01*
X237091806Y-76014499D01*
X237304499Y-75801806D01*
X237471610Y-75551706D01*
X237586719Y-75273810D01*
X237645400Y-74978796D01*
X237645400Y-74678004D01*
X237586719Y-74382990D01*
X237471610Y-74105094D01*
X237304499Y-73854994D01*
X237091806Y-73642301D01*
X236841706Y-73475190D01*
X236563810Y-73360081D01*
X236268796Y-73301400D01*
X235968004Y-73301400D01*
X235672990Y-73360081D01*
X235395094Y-73475190D01*
X235144994Y-73642301D01*
X234932301Y-73854994D01*
X234765190Y-74105094D01*
X234650081Y-74382990D01*
X234591400Y-74678004D01*
X227688600Y-74678004D01*
X227629919Y-74382990D01*
X227514810Y-74105094D01*
X227347699Y-73854994D01*
X227135006Y-73642301D01*
X226884906Y-73475190D01*
X226607010Y-73360081D01*
X226311996Y-73301400D01*
X226011204Y-73301400D01*
X225716190Y-73360081D01*
X225438294Y-73475190D01*
X225188194Y-73642301D01*
X224975501Y-73854994D01*
X224808390Y-74105094D01*
X224693281Y-74382990D01*
X224634600Y-74678004D01*
X180890600Y-74678004D01*
X180890600Y-70998254D01*
X181030650Y-71207854D01*
X181438346Y-71615550D01*
X181917745Y-71935874D01*
X182343914Y-72112399D01*
X182315403Y-72147140D01*
X182173610Y-72412415D01*
X182086295Y-72700256D01*
X182056812Y-72999600D01*
X182086295Y-73298944D01*
X182173610Y-73586785D01*
X182315403Y-73852060D01*
X182506224Y-74084576D01*
X182738740Y-74275397D01*
X183004015Y-74417190D01*
X183291856Y-74504505D01*
X183516189Y-74526600D01*
X183666211Y-74526600D01*
X183890544Y-74504505D01*
X184178385Y-74417190D01*
X184443660Y-74275397D01*
X184676176Y-74084576D01*
X184866997Y-73852060D01*
X185008790Y-73586785D01*
X185096105Y-73298944D01*
X185125588Y-72999600D01*
X185110776Y-72849204D01*
X194764200Y-72849204D01*
X194764200Y-73149996D01*
X194822881Y-73445010D01*
X194937990Y-73722906D01*
X195105101Y-73973006D01*
X195317794Y-74185699D01*
X195567894Y-74352810D01*
X195845790Y-74467919D01*
X196140804Y-74526600D01*
X196441596Y-74526600D01*
X196736610Y-74467919D01*
X197014506Y-74352810D01*
X197264606Y-74185699D01*
X197477299Y-73973006D01*
X197644410Y-73722906D01*
X197759519Y-73445010D01*
X197818200Y-73149996D01*
X197818200Y-72849204D01*
X197759519Y-72554190D01*
X197644410Y-72276294D01*
X197477299Y-72026194D01*
X197264606Y-71813501D01*
X197014506Y-71646390D01*
X196736610Y-71531281D01*
X196441596Y-71472600D01*
X196140804Y-71472600D01*
X195845790Y-71531281D01*
X195567894Y-71646390D01*
X195317794Y-71813501D01*
X195105101Y-72026194D01*
X194937990Y-72276294D01*
X194822881Y-72554190D01*
X194764200Y-72849204D01*
X185110776Y-72849204D01*
X185096105Y-72700256D01*
X185008790Y-72412415D01*
X184866997Y-72147140D01*
X184692567Y-71934596D01*
X185170054Y-71615550D01*
X185577750Y-71207854D01*
X185898074Y-70728455D01*
X186118718Y-70195775D01*
X186231200Y-69630284D01*
X186231200Y-69481558D01*
X186647237Y-69398803D01*
X187143519Y-69193236D01*
X187590161Y-68894799D01*
X187969999Y-68514961D01*
X188268436Y-68068319D01*
X188474003Y-67572037D01*
X188578800Y-67045186D01*
X188578800Y-66508014D01*
X188474003Y-65981163D01*
X188268436Y-65484881D01*
X187969999Y-65038239D01*
X187784160Y-64852400D01*
X196603185Y-64852400D01*
X196273412Y-65254230D01*
X196020191Y-65727973D01*
X195864258Y-66242015D01*
X195811606Y-66776600D01*
X195864258Y-67311185D01*
X196020191Y-67825227D01*
X196273412Y-68298970D01*
X196614190Y-68714210D01*
X197029430Y-69054988D01*
X197503173Y-69308209D01*
X198017215Y-69464142D01*
X198417839Y-69503600D01*
X198685761Y-69503600D01*
X198953861Y-69477194D01*
X198813208Y-69648580D01*
X198674084Y-69908864D01*
X198588411Y-70191288D01*
X198559483Y-70485000D01*
X198559483Y-72035000D01*
X198588411Y-72328712D01*
X198674084Y-72611136D01*
X198813208Y-72871420D01*
X199000439Y-73099561D01*
X199228580Y-73286792D01*
X199488864Y-73425916D01*
X199771288Y-73511589D01*
X200065000Y-73540517D01*
X201615000Y-73540517D01*
X201908712Y-73511589D01*
X202191136Y-73425916D01*
X202451420Y-73286792D01*
X202679561Y-73099561D01*
X202866792Y-72871420D01*
X203005916Y-72611136D01*
X203091589Y-72328712D01*
X203120517Y-72035000D01*
X203120517Y-70485000D01*
X218529483Y-70485000D01*
X218529483Y-72035000D01*
X218558411Y-72328712D01*
X218644084Y-72611136D01*
X218783208Y-72871420D01*
X218970439Y-73099561D01*
X219198580Y-73286792D01*
X219458864Y-73425916D01*
X219741288Y-73511589D01*
X220035000Y-73540517D01*
X221585000Y-73540517D01*
X221878712Y-73511589D01*
X222161136Y-73425916D01*
X222421420Y-73286792D01*
X222649561Y-73099561D01*
X222836792Y-72871420D01*
X222975916Y-72611136D01*
X223061589Y-72328712D01*
X223090517Y-72035000D01*
X223090517Y-70485000D01*
X223061589Y-70191288D01*
X222975916Y-69908864D01*
X222852520Y-69678004D01*
X234591400Y-69678004D01*
X234591400Y-69978796D01*
X234650081Y-70273810D01*
X234765190Y-70551706D01*
X234932301Y-70801806D01*
X235144994Y-71014499D01*
X235395094Y-71181610D01*
X235672990Y-71296719D01*
X235968004Y-71355400D01*
X236268796Y-71355400D01*
X236563810Y-71296719D01*
X236841706Y-71181610D01*
X237091806Y-71014499D01*
X237304499Y-70801806D01*
X237471610Y-70551706D01*
X237586719Y-70273810D01*
X237645400Y-69978796D01*
X237645400Y-69678004D01*
X237586719Y-69382990D01*
X237471610Y-69105094D01*
X237304499Y-68854994D01*
X237091806Y-68642301D01*
X236841706Y-68475190D01*
X236563810Y-68360081D01*
X236268796Y-68301400D01*
X235968004Y-68301400D01*
X235672990Y-68360081D01*
X235395094Y-68475190D01*
X235144994Y-68642301D01*
X234932301Y-68854994D01*
X234765190Y-69105094D01*
X234650081Y-69382990D01*
X234591400Y-69678004D01*
X222852520Y-69678004D01*
X222836792Y-69648580D01*
X222649561Y-69420439D01*
X222421420Y-69233208D01*
X222161136Y-69094084D01*
X221878712Y-69008411D01*
X221585000Y-68979483D01*
X220035000Y-68979483D01*
X219741288Y-69008411D01*
X219458864Y-69094084D01*
X219198580Y-69233208D01*
X218970439Y-69420439D01*
X218783208Y-69648580D01*
X218644084Y-69908864D01*
X218558411Y-70191288D01*
X218529483Y-70485000D01*
X203120517Y-70485000D01*
X203091589Y-70191288D01*
X203005916Y-69908864D01*
X202866792Y-69648580D01*
X202679561Y-69420439D01*
X202451420Y-69233208D01*
X202191136Y-69094084D01*
X201908712Y-69008411D01*
X201615000Y-68979483D01*
X200166173Y-68979483D01*
X200489410Y-68714210D01*
X200830188Y-68298970D01*
X201083409Y-67825227D01*
X201232138Y-67334933D01*
X201380064Y-67822578D01*
X201630617Y-68291330D01*
X201967805Y-68702195D01*
X202378670Y-69039383D01*
X202847422Y-69289936D01*
X203356047Y-69444226D01*
X203885000Y-69496323D01*
X205435000Y-69496323D01*
X205963953Y-69444226D01*
X206472578Y-69289936D01*
X206941330Y-69039383D01*
X207352195Y-68702195D01*
X207689383Y-68291330D01*
X207939936Y-67822578D01*
X208094226Y-67313953D01*
X208146323Y-66785000D01*
X208146323Y-65235000D01*
X208141041Y-65181369D01*
X208254322Y-65241919D01*
X208504463Y-65317799D01*
X208655449Y-65332670D01*
X208664084Y-65361136D01*
X208803208Y-65621420D01*
X208990439Y-65849561D01*
X209218580Y-66036792D01*
X209478864Y-66175916D01*
X209761288Y-66261589D01*
X210055000Y-66290517D01*
X211605000Y-66290517D01*
X211898712Y-66261589D01*
X212181136Y-66175916D01*
X212441420Y-66036792D01*
X212669561Y-65849561D01*
X212856792Y-65621420D01*
X212995916Y-65361136D01*
X213034179Y-65235000D01*
X214719483Y-65235000D01*
X214719483Y-66785000D01*
X214748411Y-67078712D01*
X214834084Y-67361136D01*
X214973208Y-67621420D01*
X215160439Y-67849561D01*
X215388580Y-68036792D01*
X215648864Y-68175916D01*
X215931288Y-68261589D01*
X216225000Y-68290517D01*
X217775000Y-68290517D01*
X218068712Y-68261589D01*
X218351136Y-68175916D01*
X218611420Y-68036792D01*
X218839561Y-67849561D01*
X219026792Y-67621420D01*
X219165916Y-67361136D01*
X219251589Y-67078712D01*
X219280517Y-66785000D01*
X219280517Y-65235000D01*
X219251589Y-64941288D01*
X219165916Y-64658864D01*
X219026792Y-64398580D01*
X218839561Y-64170439D01*
X218736921Y-64086204D01*
X230019400Y-64086204D01*
X230019400Y-64386996D01*
X230078081Y-64682010D01*
X230193190Y-64959906D01*
X230360301Y-65210006D01*
X230572994Y-65422699D01*
X230823094Y-65589810D01*
X231100990Y-65704919D01*
X231396004Y-65763600D01*
X231696796Y-65763600D01*
X231991810Y-65704919D01*
X232269706Y-65589810D01*
X232519806Y-65422699D01*
X232732499Y-65210006D01*
X232899610Y-64959906D01*
X233014719Y-64682010D01*
X233073400Y-64386996D01*
X233073400Y-64086204D01*
X233014719Y-63791190D01*
X232899610Y-63513294D01*
X232732499Y-63263194D01*
X232519806Y-63050501D01*
X232269706Y-62883390D01*
X231991810Y-62768281D01*
X231696796Y-62709600D01*
X231396004Y-62709600D01*
X231100990Y-62768281D01*
X230823094Y-62883390D01*
X230572994Y-63050501D01*
X230360301Y-63263194D01*
X230193190Y-63513294D01*
X230078081Y-63791190D01*
X230019400Y-64086204D01*
X218736921Y-64086204D01*
X218611420Y-63983208D01*
X218351136Y-63844084D01*
X218068712Y-63758411D01*
X217775000Y-63729483D01*
X216225000Y-63729483D01*
X215931288Y-63758411D01*
X215648864Y-63844084D01*
X215388580Y-63983208D01*
X215160439Y-64170439D01*
X214973208Y-64398580D01*
X214834084Y-64658864D01*
X214748411Y-64941288D01*
X214719483Y-65235000D01*
X213034179Y-65235000D01*
X213081589Y-65078712D01*
X213110517Y-64785000D01*
X213110517Y-63235000D01*
X213081589Y-62941288D01*
X212995916Y-62658864D01*
X212856792Y-62398580D01*
X212669561Y-62170439D01*
X212441420Y-61983208D01*
X212181136Y-61844084D01*
X211898712Y-61758411D01*
X211605000Y-61729483D01*
X210055000Y-61729483D01*
X209761288Y-61758411D01*
X209478864Y-61844084D01*
X209218580Y-61983208D01*
X208990439Y-62170439D01*
X208905364Y-62274103D01*
X207765825Y-61134565D01*
X207724270Y-61083930D01*
X207522208Y-60918102D01*
X207291678Y-60794881D01*
X207041537Y-60719001D01*
X206846584Y-60699800D01*
X206846574Y-60699800D01*
X206781400Y-60693381D01*
X206716226Y-60699800D01*
X202604771Y-60699800D01*
X202539599Y-60693381D01*
X202474428Y-60699800D01*
X202474416Y-60699800D01*
X202279463Y-60719001D01*
X202029322Y-60794881D01*
X201873812Y-60878003D01*
X201798790Y-60918103D01*
X201689376Y-61007897D01*
X201596730Y-61083930D01*
X201555179Y-61134560D01*
X200491340Y-62198400D01*
X159602584Y-62198400D01*
X159537400Y-62191980D01*
X159472216Y-62198400D01*
X146049773Y-62198400D01*
X145984599Y-62191981D01*
X145919425Y-62198400D01*
X145919416Y-62198400D01*
X145724463Y-62217601D01*
X145495895Y-62286937D01*
X145474322Y-62293481D01*
X145243791Y-62416702D01*
X145097113Y-62537078D01*
X145041730Y-62582530D01*
X145000179Y-62633160D01*
X143903856Y-63729483D01*
X142725000Y-63729483D01*
X142431288Y-63758411D01*
X142148864Y-63844084D01*
X141888580Y-63983208D01*
X141660439Y-64170439D01*
X141473208Y-64398580D01*
X141334084Y-64658864D01*
X141248411Y-64941288D01*
X141219483Y-65235000D01*
X141219483Y-66785000D01*
X141248411Y-67078712D01*
X141334084Y-67361136D01*
X141473208Y-67621420D01*
X141660439Y-67849561D01*
X141888580Y-68036792D01*
X142148864Y-68175916D01*
X142431288Y-68261589D01*
X142725000Y-68290517D01*
X144275000Y-68290517D01*
X144568712Y-68261589D01*
X144851136Y-68175916D01*
X145111420Y-68036792D01*
X145339561Y-67849561D01*
X145526792Y-67621420D01*
X145665916Y-67361136D01*
X145751589Y-67078712D01*
X145780517Y-66785000D01*
X145780517Y-65606144D01*
X146534261Y-64852400D01*
X156404208Y-64852400D01*
X156256592Y-64931302D01*
X156054530Y-65097130D01*
X155888702Y-65299192D01*
X155765481Y-65529723D01*
X155689602Y-65779863D01*
X155663981Y-66040000D01*
X155673001Y-66131582D01*
X155673000Y-84600985D01*
X155633446Y-84633446D01*
X155542597Y-84744147D01*
X155475090Y-84870443D01*
X155433520Y-85007483D01*
X155419483Y-85150000D01*
X155419483Y-86850000D01*
X155433520Y-86992517D01*
X155475090Y-87129557D01*
X155542597Y-87255853D01*
X155633446Y-87366554D01*
X155744147Y-87457403D01*
X155870443Y-87524910D01*
X156007483Y-87566480D01*
X156150000Y-87580517D01*
X157850000Y-87580517D01*
X157992517Y-87566480D01*
X158129557Y-87524910D01*
X158255853Y-87457403D01*
X158366554Y-87366554D01*
X158457403Y-87255853D01*
X158524910Y-87129557D01*
X158566480Y-86992517D01*
X158580517Y-86850000D01*
X158580517Y-85617979D01*
X158657843Y-85659311D01*
X158794883Y-85700881D01*
X158937400Y-85714918D01*
X159337400Y-85714918D01*
X159479917Y-85700881D01*
X159537400Y-85683444D01*
X159594883Y-85700881D01*
X159737400Y-85714918D01*
X160137400Y-85714918D01*
X160279917Y-85700881D01*
X160416957Y-85659311D01*
X160543254Y-85591804D01*
X160653954Y-85500954D01*
X160744804Y-85390254D01*
X160812311Y-85263957D01*
X160853881Y-85126917D01*
X160863596Y-85028281D01*
X160894804Y-84990254D01*
X160962311Y-84863957D01*
X161003881Y-84726917D01*
X161017918Y-84584400D01*
X161017918Y-83584400D01*
X161003881Y-83441883D01*
X160962311Y-83304843D01*
X160894804Y-83178546D01*
X160864400Y-83141499D01*
X160864400Y-75643204D01*
X162125200Y-75643204D01*
X162125200Y-75943996D01*
X162183881Y-76239010D01*
X162298990Y-76516906D01*
X162466101Y-76767006D01*
X162678794Y-76979699D01*
X162928894Y-77146810D01*
X163206790Y-77261919D01*
X163501804Y-77320600D01*
X163802596Y-77320600D01*
X164097610Y-77261919D01*
X164375506Y-77146810D01*
X164625606Y-76979699D01*
X164838299Y-76767006D01*
X165005410Y-76516906D01*
X165120519Y-76239010D01*
X165179200Y-75943996D01*
X165179200Y-75643204D01*
X165120519Y-75348190D01*
X165005410Y-75070294D01*
X164838299Y-74820194D01*
X164625606Y-74607501D01*
X164375506Y-74440390D01*
X164097610Y-74325281D01*
X163802596Y-74266600D01*
X163501804Y-74266600D01*
X163206790Y-74325281D01*
X162928894Y-74440390D01*
X162678794Y-74607501D01*
X162466101Y-74820194D01*
X162298990Y-75070294D01*
X162183881Y-75348190D01*
X162125200Y-75643204D01*
X160864400Y-75643204D01*
X160864400Y-64852400D01*
X177870147Y-64852400D01*
X177166240Y-65556308D01*
X177081254Y-65626054D01*
X176802958Y-65965159D01*
X176596165Y-66352042D01*
X176468823Y-66771833D01*
X176441548Y-67048760D01*
X176425825Y-67208400D01*
X176436600Y-67317798D01*
X176436601Y-74708388D01*
X176337037Y-74761606D01*
X176043613Y-75002413D01*
X175802806Y-75295837D01*
X175776742Y-75344600D01*
X175637653Y-75344600D01*
X171275000Y-70981948D01*
X171275000Y-70848817D01*
X171154831Y-70244688D01*
X170919111Y-69675610D01*
X170582546Y-69171905D01*
X171577200Y-69171905D01*
X171577200Y-69512095D01*
X171643568Y-69845747D01*
X171773753Y-70160041D01*
X171962752Y-70442898D01*
X172203302Y-70683448D01*
X172486159Y-70872447D01*
X172800453Y-71002632D01*
X173134105Y-71069000D01*
X173474295Y-71069000D01*
X173807947Y-71002632D01*
X174122241Y-70872447D01*
X174405098Y-70683448D01*
X174645648Y-70442898D01*
X174834647Y-70160041D01*
X174964832Y-69845747D01*
X175031200Y-69512095D01*
X175031200Y-69171905D01*
X174964832Y-68838253D01*
X174834647Y-68523959D01*
X174645648Y-68241102D01*
X174405098Y-68000552D01*
X174122241Y-67811553D01*
X173807947Y-67681368D01*
X173474295Y-67615000D01*
X173134105Y-67615000D01*
X172800453Y-67681368D01*
X172486159Y-67811553D01*
X172203302Y-68000552D01*
X171962752Y-68241102D01*
X171773753Y-68523959D01*
X171643568Y-68838253D01*
X171577200Y-69171905D01*
X170582546Y-69171905D01*
X170576899Y-69163454D01*
X170141346Y-68727901D01*
X169629190Y-68385689D01*
X169060112Y-68149969D01*
X168455983Y-68029800D01*
X168322852Y-68029800D01*
X167832893Y-67539841D01*
X167763146Y-67454854D01*
X167424041Y-67176558D01*
X167037159Y-66969765D01*
X166617368Y-66842423D01*
X166290201Y-66810200D01*
X166290198Y-66810200D01*
X166180800Y-66799425D01*
X166071402Y-66810200D01*
X165237187Y-66810200D01*
X165174570Y-66758812D01*
X164700827Y-66505591D01*
X164186785Y-66349658D01*
X163786161Y-66310200D01*
X163518239Y-66310200D01*
X163117615Y-66349658D01*
X162603573Y-66505591D01*
X162129830Y-66758812D01*
X161714590Y-67099590D01*
X161373812Y-67514830D01*
X161120591Y-67988573D01*
X160964658Y-68502615D01*
X160912006Y-69037200D01*
X160964658Y-69571785D01*
X161120591Y-70085827D01*
X161373812Y-70559570D01*
X161714590Y-70974810D01*
X162129830Y-71315588D01*
X162603573Y-71568809D01*
X163117615Y-71724742D01*
X163518239Y-71764200D01*
X163786161Y-71764200D01*
X164186785Y-71724742D01*
X164700827Y-71568809D01*
X165021000Y-71397673D01*
X165021000Y-71464783D01*
X165141169Y-72068912D01*
X165376889Y-72637990D01*
X165719101Y-73150146D01*
X166154654Y-73585699D01*
X166666810Y-73927911D01*
X167235888Y-74163631D01*
X167840017Y-74283800D01*
X168277948Y-74283800D01*
X173063112Y-79068965D01*
X173132854Y-79153946D01*
X173471959Y-79432242D01*
X173858841Y-79639035D01*
X174278632Y-79766377D01*
X174605799Y-79798600D01*
X174605801Y-79798600D01*
X174715199Y-79809375D01*
X174824598Y-79798600D01*
X175776742Y-79798600D01*
X175802806Y-79847363D01*
X176043613Y-80140787D01*
X176337037Y-80381594D01*
X176671801Y-80560529D01*
X177035042Y-80670717D01*
X177412800Y-80707923D01*
X178104659Y-80707923D01*
X178050715Y-80718653D01*
X177700023Y-80863915D01*
X177384409Y-81074801D01*
X177214610Y-81244600D01*
X166763461Y-81244600D01*
X165344437Y-79825577D01*
X165125575Y-79606715D01*
X165069790Y-79422815D01*
X164927997Y-79157540D01*
X164737176Y-78925024D01*
X164504660Y-78734203D01*
X164239385Y-78592410D01*
X163951544Y-78505095D01*
X163727211Y-78483000D01*
X163577189Y-78483000D01*
X163352856Y-78505095D01*
X163065015Y-78592410D01*
X162799740Y-78734203D01*
X162567224Y-78925024D01*
X162376403Y-79157540D01*
X162234610Y-79422815D01*
X162147295Y-79710656D01*
X162117812Y-80010000D01*
X162147295Y-80309344D01*
X162234610Y-80597185D01*
X162376403Y-80862460D01*
X162567224Y-81094976D01*
X162799740Y-81285797D01*
X163065015Y-81427590D01*
X163248915Y-81483375D01*
X163467777Y-81702237D01*
X165229377Y-83463838D01*
X165270930Y-83514470D01*
X165321560Y-83556021D01*
X165321561Y-83556022D01*
X165472991Y-83680298D01*
X165600927Y-83748681D01*
X165703522Y-83803519D01*
X165953663Y-83879399D01*
X166148616Y-83898600D01*
X166148625Y-83898600D01*
X166213799Y-83905019D01*
X166278973Y-83898600D01*
X175409140Y-83898600D01*
X174477940Y-84829800D01*
X169546190Y-84829800D01*
X169376391Y-84660001D01*
X169060777Y-84449115D01*
X168710085Y-84303853D01*
X168337793Y-84229800D01*
X167958207Y-84229800D01*
X167585915Y-84303853D01*
X167235223Y-84449115D01*
X166919609Y-84660001D01*
X166651201Y-84928409D01*
X166440315Y-85244023D01*
X166295053Y-85594715D01*
X166221000Y-85967007D01*
X166221000Y-86346593D01*
X166295053Y-86718885D01*
X166440315Y-87069577D01*
X166651201Y-87385191D01*
X166919609Y-87653599D01*
X167235223Y-87864485D01*
X167585915Y-88009747D01*
X167958207Y-88083800D01*
X168337793Y-88083800D01*
X168710085Y-88009747D01*
X169060777Y-87864485D01*
X169376391Y-87653599D01*
X169546190Y-87483800D01*
X174962426Y-87483800D01*
X175027600Y-87490219D01*
X175092774Y-87483800D01*
X175092784Y-87483800D01*
X175287737Y-87464599D01*
X175537878Y-87388719D01*
X175768408Y-87265498D01*
X175970470Y-87099670D01*
X176012025Y-87049035D01*
X177285800Y-85775260D01*
X177285801Y-89213938D01*
X174076750Y-92422990D01*
X101970451Y-92422990D01*
X96780200Y-87232740D01*
X96780200Y-85326895D01*
X96937889Y-85707590D01*
X97280101Y-86219746D01*
X97715654Y-86655299D01*
X98227810Y-86997511D01*
X98796888Y-87233231D01*
X99401017Y-87353400D01*
X100016983Y-87353400D01*
X100621112Y-87233231D01*
X101190190Y-86997511D01*
X101702346Y-86655299D01*
X102137899Y-86219746D01*
X102480111Y-85707590D01*
X102715831Y-85138512D01*
X102836000Y-84534383D01*
X102836000Y-83918417D01*
X102715831Y-83314288D01*
X102480111Y-82745210D01*
X102137899Y-82233054D01*
X101702346Y-81797501D01*
X101190190Y-81455289D01*
X100621112Y-81219569D01*
X100016983Y-81099400D01*
X99401017Y-81099400D01*
X98796888Y-81219569D01*
X98227810Y-81455289D01*
X97715654Y-81797501D01*
X97280101Y-82233054D01*
X96937889Y-82745210D01*
X96780200Y-83125905D01*
X96780200Y-75973404D01*
X102511400Y-75973404D01*
X102511400Y-76274196D01*
X102570081Y-76569210D01*
X102685190Y-76847106D01*
X102852301Y-77097206D01*
X103064994Y-77309899D01*
X103315094Y-77477010D01*
X103592990Y-77592119D01*
X103888004Y-77650800D01*
X104188796Y-77650800D01*
X104483810Y-77592119D01*
X104761706Y-77477010D01*
X105011806Y-77309899D01*
X105224499Y-77097206D01*
X105391610Y-76847106D01*
X105506719Y-76569210D01*
X105565400Y-76274196D01*
X105565400Y-75973404D01*
X105506719Y-75678390D01*
X105391610Y-75400494D01*
X105224499Y-75150394D01*
X105011806Y-74937701D01*
X104761706Y-74770590D01*
X104483810Y-74655481D01*
X104188796Y-74596800D01*
X103888004Y-74596800D01*
X103592990Y-74655481D01*
X103315094Y-74770590D01*
X103064994Y-74937701D01*
X102852301Y-75150394D01*
X102685190Y-75400494D01*
X102570081Y-75678390D01*
X102511400Y-75973404D01*
X96780200Y-75973404D01*
X96780200Y-74875173D01*
X96786619Y-74809999D01*
X96780200Y-74744825D01*
X96780200Y-74744816D01*
X96760999Y-74549863D01*
X96685119Y-74299722D01*
X96561898Y-74069192D01*
X96561897Y-74069190D01*
X96437622Y-73917761D01*
X96437621Y-73917760D01*
X96396070Y-73867130D01*
X96345440Y-73825579D01*
X96294661Y-73774800D01*
X104486340Y-73774800D01*
X109804026Y-79092488D01*
X109859810Y-79276385D01*
X109950400Y-79445867D01*
X109950401Y-81832600D01*
X107024574Y-81832600D01*
X106959400Y-81826181D01*
X106894226Y-81832600D01*
X106894216Y-81832600D01*
X106699263Y-81851801D01*
X106449122Y-81927681D01*
X106218591Y-82050902D01*
X106067161Y-82175178D01*
X106016530Y-82216730D01*
X105974979Y-82267360D01*
X103146161Y-85096179D01*
X103095531Y-85137730D01*
X103053980Y-85188360D01*
X103053978Y-85188362D01*
X102929702Y-85339792D01*
X102806481Y-85570323D01*
X102730602Y-85820463D01*
X102704981Y-86080600D01*
X102711401Y-86145784D01*
X102711400Y-88067133D01*
X102620810Y-88236615D01*
X102533495Y-88524456D01*
X102504012Y-88823800D01*
X102533495Y-89123144D01*
X102620810Y-89410985D01*
X102762603Y-89676260D01*
X102953424Y-89908776D01*
X103185940Y-90099597D01*
X103451215Y-90241390D01*
X103739056Y-90328705D01*
X103963389Y-90350800D01*
X104113411Y-90350800D01*
X104337744Y-90328705D01*
X104625585Y-90241390D01*
X104890860Y-90099597D01*
X105123376Y-89908776D01*
X105314197Y-89676260D01*
X105455990Y-89410985D01*
X105543305Y-89123144D01*
X105572788Y-88823800D01*
X105543305Y-88524456D01*
X105455990Y-88236615D01*
X105365400Y-88067134D01*
X105365400Y-87967905D01*
X106426200Y-87967905D01*
X106426200Y-88308095D01*
X106492568Y-88641747D01*
X106622753Y-88956041D01*
X106811752Y-89238898D01*
X107052302Y-89479448D01*
X107335159Y-89668447D01*
X107649453Y-89798632D01*
X107983105Y-89865000D01*
X108323295Y-89865000D01*
X108656947Y-89798632D01*
X108971241Y-89668447D01*
X109254098Y-89479448D01*
X109494648Y-89238898D01*
X109683647Y-88956041D01*
X109813832Y-88641747D01*
X109880200Y-88308095D01*
X109880200Y-87967905D01*
X109813832Y-87634253D01*
X109683647Y-87319959D01*
X109494648Y-87037102D01*
X109254098Y-86796552D01*
X108971241Y-86607553D01*
X108656947Y-86477368D01*
X108323295Y-86411000D01*
X107983105Y-86411000D01*
X107649453Y-86477368D01*
X107335159Y-86607553D01*
X107052302Y-86796552D01*
X106811752Y-87037102D01*
X106622753Y-87319959D01*
X106492568Y-87634253D01*
X106426200Y-87967905D01*
X105365400Y-87967905D01*
X105365400Y-86630260D01*
X107509061Y-84486600D01*
X110514868Y-84486600D01*
X110554094Y-84512810D01*
X110831990Y-84627919D01*
X111127004Y-84686600D01*
X111427796Y-84686600D01*
X111722810Y-84627919D01*
X112000706Y-84512810D01*
X112250806Y-84345699D01*
X112463499Y-84133006D01*
X112630610Y-83882906D01*
X112745719Y-83605010D01*
X112804400Y-83309996D01*
X112804400Y-83009204D01*
X112745719Y-82714190D01*
X112630610Y-82436294D01*
X112604400Y-82397068D01*
X112604400Y-79445866D01*
X112694990Y-79276385D01*
X112782305Y-78988544D01*
X112811788Y-78689200D01*
X112782305Y-78389856D01*
X112694990Y-78102015D01*
X112553197Y-77836740D01*
X112362376Y-77604224D01*
X112129860Y-77413403D01*
X111864585Y-77271610D01*
X111680688Y-77215826D01*
X110818157Y-76353296D01*
X111003456Y-76409505D01*
X111227789Y-76431600D01*
X111377811Y-76431600D01*
X111602144Y-76409505D01*
X111889985Y-76322190D01*
X112155260Y-76180397D01*
X112387776Y-75989576D01*
X112578597Y-75757060D01*
X112720390Y-75491785D01*
X112807705Y-75203944D01*
X112837188Y-74904600D01*
X112807705Y-74605256D01*
X112720390Y-74317415D01*
X112578597Y-74052140D01*
X112387776Y-73819624D01*
X112155260Y-73628803D01*
X111889985Y-73487010D01*
X111602144Y-73399695D01*
X111377811Y-73377600D01*
X111227789Y-73377600D01*
X111003456Y-73399695D01*
X110715615Y-73487010D01*
X110450340Y-73628803D01*
X110217824Y-73819624D01*
X110027003Y-74052140D01*
X109885210Y-74317415D01*
X109797895Y-74605256D01*
X109768412Y-74904600D01*
X109797895Y-75203944D01*
X109854105Y-75389243D01*
X108133448Y-73668587D01*
X108519614Y-73745400D01*
X109056786Y-73745400D01*
X109583637Y-73640603D01*
X110079919Y-73435036D01*
X110526561Y-73136599D01*
X110906399Y-72756761D01*
X111204836Y-72310119D01*
X111410403Y-71813837D01*
X111461334Y-71557787D01*
X114308200Y-74404653D01*
X114308201Y-78376592D01*
X114297425Y-78486000D01*
X114340424Y-78922568D01*
X114467766Y-79342360D01*
X114652891Y-79688703D01*
X114674559Y-79729241D01*
X114952855Y-80068346D01*
X115037836Y-80138088D01*
X116558308Y-81658560D01*
X116427796Y-81632600D01*
X116127004Y-81632600D01*
X115831990Y-81691281D01*
X115554094Y-81806390D01*
X115303994Y-81973501D01*
X115091301Y-82186194D01*
X114924190Y-82436294D01*
X114809081Y-82714190D01*
X114750400Y-83009204D01*
X114750400Y-83309996D01*
X114809081Y-83605010D01*
X114924190Y-83882906D01*
X115091301Y-84133006D01*
X115303994Y-84345699D01*
X115554094Y-84512810D01*
X115831990Y-84627919D01*
X116127004Y-84686600D01*
X116427796Y-84686600D01*
X116722810Y-84627919D01*
X117000706Y-84512810D01*
X117250806Y-84345699D01*
X117463499Y-84133006D01*
X117630610Y-83882906D01*
X117745719Y-83605010D01*
X117804400Y-83309996D01*
X117804400Y-83009204D01*
X117778440Y-82878693D01*
X120140912Y-85241165D01*
X120210654Y-85326146D01*
X120549759Y-85604442D01*
X120936641Y-85811235D01*
X121264298Y-85910629D01*
X120896025Y-85983882D01*
X120363345Y-86204526D01*
X120360818Y-86206214D01*
X120019054Y-85864450D01*
X119539655Y-85544126D01*
X119006975Y-85323482D01*
X118441484Y-85211000D01*
X117864916Y-85211000D01*
X117299425Y-85323482D01*
X116766745Y-85544126D01*
X116287346Y-85864450D01*
X115879650Y-86272146D01*
X115559326Y-86751545D01*
X115338682Y-87284225D01*
X115226200Y-87849716D01*
X115226200Y-88426284D01*
X115338682Y-88991775D01*
X115559326Y-89524455D01*
X115879650Y-90003854D01*
X116287346Y-90411550D01*
X116766745Y-90731874D01*
X117299425Y-90952518D01*
X117864916Y-91065000D01*
X118441484Y-91065000D01*
X119006975Y-90952518D01*
X119539655Y-90731874D01*
X119542182Y-90730186D01*
X119883946Y-91071950D01*
X120363345Y-91392274D01*
X120896025Y-91612918D01*
X121461516Y-91725400D01*
X122038084Y-91725400D01*
X122603575Y-91612918D01*
X123136255Y-91392274D01*
X123615654Y-91071950D01*
X124023350Y-90664254D01*
X124343674Y-90184855D01*
X124564318Y-89652175D01*
X124676800Y-89086684D01*
X124676800Y-88510116D01*
X124564318Y-87944625D01*
X124343674Y-87411945D01*
X124023350Y-86932546D01*
X123615654Y-86524850D01*
X123136255Y-86204526D01*
X122603575Y-85983882D01*
X122537807Y-85970800D01*
X123334348Y-85970800D01*
X127659316Y-90295770D01*
X127729054Y-90380746D01*
X128068159Y-90659042D01*
X128455041Y-90865835D01*
X128874832Y-90993177D01*
X129201999Y-91025400D01*
X129202001Y-91025400D01*
X129311400Y-91036175D01*
X129420798Y-91025400D01*
X129837396Y-91025400D01*
X129883946Y-91071950D01*
X130363345Y-91392274D01*
X130896025Y-91612918D01*
X131461516Y-91725400D01*
X132038084Y-91725400D01*
X132603575Y-91612918D01*
X133136255Y-91392274D01*
X133615654Y-91071950D01*
X133662204Y-91025400D01*
X136803671Y-91025400D01*
X137087481Y-91215036D01*
X137583763Y-91420603D01*
X138110614Y-91525400D01*
X138647786Y-91525400D01*
X139174637Y-91420603D01*
X139670919Y-91215036D01*
X140117561Y-90916599D01*
X140497399Y-90536761D01*
X140795836Y-90090119D01*
X141001403Y-89593837D01*
X141106200Y-89066986D01*
X141106200Y-88798400D01*
X148339006Y-88798400D01*
X148391658Y-89332985D01*
X148547591Y-89847027D01*
X148800812Y-90320770D01*
X149141590Y-90736010D01*
X149556830Y-91076788D01*
X150030573Y-91330009D01*
X150544615Y-91485942D01*
X150945239Y-91525400D01*
X151213161Y-91525400D01*
X151613785Y-91485942D01*
X152127827Y-91330009D01*
X152601570Y-91076788D01*
X153016810Y-90736010D01*
X153357588Y-90320770D01*
X153610809Y-89847027D01*
X153766742Y-89332985D01*
X153819394Y-88798400D01*
X153766742Y-88263815D01*
X153610809Y-87749773D01*
X153357588Y-87276030D01*
X153016810Y-86860790D01*
X152601570Y-86520012D01*
X152127827Y-86266791D01*
X151613785Y-86110858D01*
X151213161Y-86071400D01*
X150945239Y-86071400D01*
X150544615Y-86110858D01*
X150030573Y-86266791D01*
X149556830Y-86520012D01*
X149141590Y-86860790D01*
X148800812Y-87276030D01*
X148547591Y-87749773D01*
X148391658Y-88263815D01*
X148339006Y-88798400D01*
X141106200Y-88798400D01*
X141106200Y-88529814D01*
X141001403Y-88002963D01*
X140795836Y-87506681D01*
X140497399Y-87060039D01*
X140117561Y-86680201D01*
X139670919Y-86381764D01*
X139174637Y-86176197D01*
X138647786Y-86071400D01*
X138110614Y-86071400D01*
X137583763Y-86176197D01*
X137087481Y-86381764D01*
X136803671Y-86571400D01*
X133662204Y-86571400D01*
X133615654Y-86524850D01*
X133136255Y-86204526D01*
X132603575Y-85983882D01*
X132038084Y-85871400D01*
X131461516Y-85871400D01*
X130896025Y-85983882D01*
X130363345Y-86204526D01*
X130065796Y-86403342D01*
X125908892Y-82246440D01*
X125891297Y-82225000D01*
X128879483Y-82225000D01*
X128879483Y-83775000D01*
X128908411Y-84068712D01*
X128994084Y-84351136D01*
X129133208Y-84611420D01*
X129320439Y-84839561D01*
X129548580Y-85026792D01*
X129808864Y-85165916D01*
X130091288Y-85251589D01*
X130385000Y-85280517D01*
X131935000Y-85280517D01*
X132228712Y-85251589D01*
X132511136Y-85165916D01*
X132771420Y-85026792D01*
X132999561Y-84839561D01*
X133186792Y-84611420D01*
X133325916Y-84351136D01*
X133411589Y-84068712D01*
X133440517Y-83775000D01*
X133440517Y-82225000D01*
X133411589Y-81931288D01*
X133325916Y-81648864D01*
X133219622Y-81450000D01*
X140013677Y-81450000D01*
X140013677Y-84550000D01*
X140050883Y-84927758D01*
X140161071Y-85290999D01*
X140340006Y-85625763D01*
X140580813Y-85919187D01*
X140874237Y-86159994D01*
X141209001Y-86338929D01*
X141572242Y-86449117D01*
X141950000Y-86486323D01*
X145050000Y-86486323D01*
X145427758Y-86449117D01*
X145790999Y-86338929D01*
X146125763Y-86159994D01*
X146419187Y-85919187D01*
X146659994Y-85625763D01*
X146838929Y-85290999D01*
X146949117Y-84927758D01*
X146986323Y-84550000D01*
X146986323Y-81450000D01*
X146949117Y-81072242D01*
X146838929Y-80709001D01*
X146659994Y-80374237D01*
X146419187Y-80080813D01*
X146333749Y-80010696D01*
X146535000Y-80030517D01*
X148085000Y-80030517D01*
X148378712Y-80001589D01*
X148661136Y-79915916D01*
X148766488Y-79859604D01*
X149425200Y-79859604D01*
X149425200Y-80160396D01*
X149483881Y-80455410D01*
X149598990Y-80733306D01*
X149766101Y-80983406D01*
X149978794Y-81196099D01*
X150228894Y-81363210D01*
X150506790Y-81478319D01*
X150801804Y-81537000D01*
X151102596Y-81537000D01*
X151397610Y-81478319D01*
X151675506Y-81363210D01*
X151925606Y-81196099D01*
X152138299Y-80983406D01*
X152305410Y-80733306D01*
X152420519Y-80455410D01*
X152479200Y-80160396D01*
X152479200Y-79859604D01*
X152420519Y-79564590D01*
X152305410Y-79286694D01*
X152138299Y-79036594D01*
X151925606Y-78823901D01*
X151675506Y-78656790D01*
X151397610Y-78541681D01*
X151102596Y-78483000D01*
X150801804Y-78483000D01*
X150506790Y-78541681D01*
X150228894Y-78656790D01*
X149978794Y-78823901D01*
X149766101Y-79036594D01*
X149598990Y-79286694D01*
X149483881Y-79564590D01*
X149425200Y-79859604D01*
X148766488Y-79859604D01*
X148921420Y-79776792D01*
X149149561Y-79589561D01*
X149336792Y-79361420D01*
X149475916Y-79101136D01*
X149561589Y-78818712D01*
X149590517Y-78525000D01*
X149590517Y-76975000D01*
X149561589Y-76681288D01*
X149475916Y-76398864D01*
X149336792Y-76138580D01*
X149149561Y-75910439D01*
X149007193Y-75793600D01*
X149417812Y-75793600D01*
X149447295Y-76092944D01*
X149534610Y-76380785D01*
X149676403Y-76646060D01*
X149867224Y-76878576D01*
X150099740Y-77069397D01*
X150365015Y-77211190D01*
X150652856Y-77298505D01*
X150877189Y-77320600D01*
X151027211Y-77320600D01*
X151251544Y-77298505D01*
X151539385Y-77211190D01*
X151804660Y-77069397D01*
X152037176Y-76878576D01*
X152227997Y-76646060D01*
X152369790Y-76380785D01*
X152457105Y-76092944D01*
X152486588Y-75793600D01*
X152457105Y-75494256D01*
X152369790Y-75206415D01*
X152227997Y-74941140D01*
X152037176Y-74708624D01*
X151804660Y-74517803D01*
X151539385Y-74376010D01*
X151251544Y-74288695D01*
X151027211Y-74266600D01*
X150877189Y-74266600D01*
X150652856Y-74288695D01*
X150365015Y-74376010D01*
X150099740Y-74517803D01*
X149867224Y-74708624D01*
X149676403Y-74941140D01*
X149534610Y-75206415D01*
X149447295Y-75494256D01*
X149417812Y-75793600D01*
X149007193Y-75793600D01*
X148921420Y-75723208D01*
X148661136Y-75584084D01*
X148378712Y-75498411D01*
X148085000Y-75469483D01*
X146535000Y-75469483D01*
X146241288Y-75498411D01*
X145958864Y-75584084D01*
X145698580Y-75723208D01*
X145470439Y-75910439D01*
X145283208Y-76138580D01*
X145144084Y-76398864D01*
X145058411Y-76681288D01*
X145029483Y-76975000D01*
X145029483Y-78525000D01*
X145058411Y-78818712D01*
X145144084Y-79101136D01*
X145283208Y-79361420D01*
X145442323Y-79555301D01*
X145427758Y-79550883D01*
X145050000Y-79513677D01*
X141950000Y-79513677D01*
X141572242Y-79550883D01*
X141209001Y-79661071D01*
X140874237Y-79840006D01*
X140580813Y-80080813D01*
X140340006Y-80374237D01*
X140161071Y-80709001D01*
X140050883Y-81072242D01*
X140013677Y-81450000D01*
X133219622Y-81450000D01*
X133186792Y-81388580D01*
X132999561Y-81160439D01*
X132771420Y-80973208D01*
X132511136Y-80834084D01*
X132228712Y-80748411D01*
X131935000Y-80719483D01*
X130385000Y-80719483D01*
X130091288Y-80748411D01*
X129808864Y-80834084D01*
X129548580Y-80973208D01*
X129320439Y-81160439D01*
X129133208Y-81388580D01*
X128994084Y-81648864D01*
X128908411Y-81931288D01*
X128879483Y-82225000D01*
X125891297Y-82225000D01*
X125839146Y-82161454D01*
X125500041Y-81883158D01*
X125113159Y-81676365D01*
X124693368Y-81549023D01*
X124366201Y-81516800D01*
X124366198Y-81516800D01*
X124256800Y-81506025D01*
X124147402Y-81516800D01*
X122715453Y-81516800D01*
X119737457Y-78538804D01*
X122450400Y-78538804D01*
X122450400Y-78839596D01*
X122509081Y-79134610D01*
X122624190Y-79412506D01*
X122791301Y-79662606D01*
X123003994Y-79875299D01*
X123254094Y-80042410D01*
X123531990Y-80157519D01*
X123827004Y-80216200D01*
X124127796Y-80216200D01*
X124422810Y-80157519D01*
X124700706Y-80042410D01*
X124950806Y-79875299D01*
X125163499Y-79662606D01*
X125330610Y-79412506D01*
X125338836Y-79392647D01*
X125500439Y-79589561D01*
X125728580Y-79776792D01*
X125988864Y-79915916D01*
X126271288Y-80001589D01*
X126565000Y-80030517D01*
X128115000Y-80030517D01*
X128408712Y-80001589D01*
X128691136Y-79915916D01*
X128951420Y-79776792D01*
X129179561Y-79589561D01*
X129366792Y-79361420D01*
X129505916Y-79101136D01*
X129591589Y-78818712D01*
X129620517Y-78525000D01*
X129620517Y-76975000D01*
X129591589Y-76681288D01*
X129505916Y-76398864D01*
X129366792Y-76138580D01*
X129179561Y-75910439D01*
X128951420Y-75723208D01*
X128691136Y-75584084D01*
X128408712Y-75498411D01*
X128115000Y-75469483D01*
X126565000Y-75469483D01*
X126271288Y-75498411D01*
X125988864Y-75584084D01*
X125728580Y-75723208D01*
X125500439Y-75910439D01*
X125313208Y-76138580D01*
X125174084Y-76398864D01*
X125088411Y-76681288D01*
X125059483Y-76975000D01*
X125059483Y-77611778D01*
X124950806Y-77503101D01*
X124700706Y-77335990D01*
X124422810Y-77220881D01*
X124127796Y-77162200D01*
X123827004Y-77162200D01*
X123531990Y-77220881D01*
X123254094Y-77335990D01*
X123003994Y-77503101D01*
X122791301Y-77715794D01*
X122624190Y-77965894D01*
X122509081Y-78243790D01*
X122450400Y-78538804D01*
X119737457Y-78538804D01*
X118762200Y-77563548D01*
X118762200Y-74754204D01*
X122475800Y-74754204D01*
X122475800Y-75054996D01*
X122534481Y-75350010D01*
X122649590Y-75627906D01*
X122816701Y-75878006D01*
X123029394Y-76090699D01*
X123279494Y-76257810D01*
X123557390Y-76372919D01*
X123852404Y-76431600D01*
X124153196Y-76431600D01*
X124448210Y-76372919D01*
X124726106Y-76257810D01*
X124976206Y-76090699D01*
X125188899Y-75878006D01*
X125356010Y-75627906D01*
X125471119Y-75350010D01*
X125529800Y-75054996D01*
X125529800Y-74754204D01*
X125471119Y-74459190D01*
X125356010Y-74181294D01*
X125188899Y-73931194D01*
X124976206Y-73718501D01*
X124726106Y-73551390D01*
X124448210Y-73436281D01*
X124153196Y-73377600D01*
X123852404Y-73377600D01*
X123557390Y-73436281D01*
X123279494Y-73551390D01*
X123029394Y-73718501D01*
X122816701Y-73931194D01*
X122649590Y-74181294D01*
X122534481Y-74459190D01*
X122475800Y-74754204D01*
X118762200Y-74754204D01*
X118762200Y-73591598D01*
X118772975Y-73482199D01*
X118754926Y-73298944D01*
X118729977Y-73045632D01*
X118602635Y-72625841D01*
X118395842Y-72238959D01*
X118117546Y-71899854D01*
X118032565Y-71830112D01*
X117220853Y-71018400D01*
X118748006Y-71018400D01*
X118800658Y-71552985D01*
X118956591Y-72067027D01*
X119209812Y-72540770D01*
X119550590Y-72956010D01*
X119965830Y-73296788D01*
X120439573Y-73550009D01*
X120953615Y-73705942D01*
X121354239Y-73745400D01*
X121622161Y-73745400D01*
X122022785Y-73705942D01*
X122536827Y-73550009D01*
X123010570Y-73296788D01*
X123425810Y-72956010D01*
X123766588Y-72540770D01*
X124019809Y-72067027D01*
X124175742Y-71552985D01*
X124228394Y-71018400D01*
X124175859Y-70485000D01*
X125059483Y-70485000D01*
X125059483Y-72035000D01*
X125088411Y-72328712D01*
X125174084Y-72611136D01*
X125313208Y-72871420D01*
X125500439Y-73099561D01*
X125728580Y-73286792D01*
X125988864Y-73425916D01*
X126271288Y-73511589D01*
X126565000Y-73540517D01*
X128115000Y-73540517D01*
X128408712Y-73511589D01*
X128691136Y-73425916D01*
X128951420Y-73286792D01*
X129179561Y-73099561D01*
X129366792Y-72871420D01*
X129505916Y-72611136D01*
X129591589Y-72328712D01*
X129620517Y-72035000D01*
X129620517Y-70485000D01*
X145029483Y-70485000D01*
X145029483Y-72035000D01*
X145058411Y-72328712D01*
X145144084Y-72611136D01*
X145283208Y-72871420D01*
X145470439Y-73099561D01*
X145698580Y-73286792D01*
X145958864Y-73425916D01*
X146241288Y-73511589D01*
X146535000Y-73540517D01*
X148085000Y-73540517D01*
X148378712Y-73511589D01*
X148661136Y-73425916D01*
X148921420Y-73286792D01*
X149149561Y-73099561D01*
X149336792Y-72871420D01*
X149475916Y-72611136D01*
X149561589Y-72328712D01*
X149590517Y-72035000D01*
X149590517Y-71407087D01*
X149660481Y-71453836D01*
X150156763Y-71659403D01*
X150683614Y-71764200D01*
X151220786Y-71764200D01*
X151747637Y-71659403D01*
X152243919Y-71453836D01*
X152690561Y-71155399D01*
X153070399Y-70775561D01*
X153368836Y-70328919D01*
X153574403Y-69832637D01*
X153679200Y-69305786D01*
X153679200Y-68768614D01*
X153574403Y-68241763D01*
X153368836Y-67745481D01*
X153070399Y-67298839D01*
X152690561Y-66919001D01*
X152243919Y-66620564D01*
X151747637Y-66414997D01*
X151220786Y-66310200D01*
X150683614Y-66310200D01*
X150156763Y-66414997D01*
X149660481Y-66620564D01*
X149213839Y-66919001D01*
X148834001Y-67298839D01*
X148535564Y-67745481D01*
X148329997Y-68241763D01*
X148225200Y-68768614D01*
X148225200Y-68993291D01*
X148085000Y-68979483D01*
X146535000Y-68979483D01*
X146241288Y-69008411D01*
X145958864Y-69094084D01*
X145698580Y-69233208D01*
X145470439Y-69420439D01*
X145283208Y-69648580D01*
X145144084Y-69908864D01*
X145058411Y-70191288D01*
X145029483Y-70485000D01*
X129620517Y-70485000D01*
X129591589Y-70191288D01*
X129505916Y-69908864D01*
X129366792Y-69648580D01*
X129179561Y-69420439D01*
X128951420Y-69233208D01*
X128691136Y-69094084D01*
X128408712Y-69008411D01*
X128115000Y-68979483D01*
X126565000Y-68979483D01*
X126271288Y-69008411D01*
X125988864Y-69094084D01*
X125728580Y-69233208D01*
X125500439Y-69420439D01*
X125313208Y-69648580D01*
X125174084Y-69908864D01*
X125088411Y-70191288D01*
X125059483Y-70485000D01*
X124175859Y-70485000D01*
X124175742Y-70483815D01*
X124019809Y-69969773D01*
X123766588Y-69496030D01*
X123425810Y-69080790D01*
X123010570Y-68740012D01*
X122536827Y-68486791D01*
X122022785Y-68330858D01*
X121622161Y-68291400D01*
X121354239Y-68291400D01*
X120953615Y-68330858D01*
X120439573Y-68486791D01*
X119965830Y-68740012D01*
X119550590Y-69080790D01*
X119209812Y-69496030D01*
X118956591Y-69969773D01*
X118800658Y-70483815D01*
X118748006Y-71018400D01*
X117220853Y-71018400D01*
X115443854Y-69241401D01*
X115654054Y-69100950D01*
X116061750Y-68693254D01*
X116382074Y-68213855D01*
X116602718Y-67681175D01*
X116715200Y-67115684D01*
X116715200Y-66539116D01*
X116602718Y-65973625D01*
X116382074Y-65440945D01*
X116061750Y-64961546D01*
X115654054Y-64553850D01*
X115174655Y-64233526D01*
X114641975Y-64012882D01*
X114076484Y-63900400D01*
X113499916Y-63900400D01*
X112934425Y-64012882D01*
X112401745Y-64233526D01*
X111922346Y-64553850D01*
X111514650Y-64961546D01*
X111288200Y-65300453D01*
X111061750Y-64961546D01*
X110654054Y-64553850D01*
X110174655Y-64233526D01*
X109641975Y-64012882D01*
X109076484Y-63900400D01*
X109010653Y-63900400D01*
X107112893Y-62002641D01*
X107043146Y-61917654D01*
X106704041Y-61639358D01*
X106317159Y-61432565D01*
X105897368Y-61305223D01*
X105570201Y-61273000D01*
X105570198Y-61273000D01*
X105460800Y-61262225D01*
X105351402Y-61273000D01*
X94698990Y-61273000D01*
X94589599Y-61262226D01*
X94480208Y-61273000D01*
X94480199Y-61273000D01*
X94153032Y-61305223D01*
X93733241Y-61432565D01*
X93346359Y-61639358D01*
X93136631Y-61811477D01*
X91891000Y-61811477D01*
X91513242Y-61848683D01*
X91150001Y-61958871D01*
X91128806Y-61970200D01*
X83551445Y-61970200D01*
X83349546Y-61768301D01*
X82837390Y-61426089D01*
X82268312Y-61190369D01*
X81664183Y-61070200D01*
X81048217Y-61070200D01*
X80444088Y-61190369D01*
X79875010Y-61426089D01*
X79362854Y-61768301D01*
X79160955Y-61970200D01*
X77067346Y-61970200D01*
X77030588Y-61901430D01*
X76689810Y-61486190D01*
X76274570Y-61145412D01*
X75800827Y-60892191D01*
X75286785Y-60736258D01*
X74886161Y-60696800D01*
X74618239Y-60696800D01*
X74217615Y-60736258D01*
X73703573Y-60892191D01*
X73229830Y-61145412D01*
X72814590Y-61486190D01*
X72473812Y-61901430D01*
X72220591Y-62375173D01*
X72064658Y-62889215D01*
X72012006Y-63423800D01*
X72064658Y-63958385D01*
X72220591Y-64472427D01*
X72473812Y-64946170D01*
X72814590Y-65361410D01*
X73229830Y-65702188D01*
X73703573Y-65955409D01*
X74217615Y-66111342D01*
X74419684Y-66131244D01*
X74669241Y-66264635D01*
X75089032Y-66391977D01*
X75416199Y-66424200D01*
X75416201Y-66424200D01*
X75525600Y-66434975D01*
X75634998Y-66424200D01*
X79160955Y-66424200D01*
X79362854Y-66626099D01*
X79875010Y-66968311D01*
X80444088Y-67204031D01*
X81048217Y-67324200D01*
X81664183Y-67324200D01*
X82268312Y-67204031D01*
X82837390Y-66968311D01*
X83349546Y-66626099D01*
X83551445Y-66424200D01*
X89981900Y-66424200D01*
X89991883Y-66525558D01*
X90102071Y-66888799D01*
X90281006Y-67223563D01*
X90521813Y-67516987D01*
X90815237Y-67757794D01*
X91150001Y-67936729D01*
X91513242Y-68046917D01*
X91891000Y-68084123D01*
X94291000Y-68084123D01*
X94668758Y-68046917D01*
X95031999Y-67936729D01*
X95366763Y-67757794D01*
X95660187Y-67516987D01*
X95900994Y-67223563D01*
X95927058Y-67174800D01*
X102023748Y-67174800D01*
X105434312Y-70585365D01*
X105504054Y-70670346D01*
X105843159Y-70948642D01*
X106061200Y-71065187D01*
X106061200Y-71286986D01*
X106138013Y-71673153D01*
X106020425Y-71555565D01*
X105978870Y-71504930D01*
X105776808Y-71339102D01*
X105546278Y-71215881D01*
X105296137Y-71140001D01*
X105101184Y-71120800D01*
X105101174Y-71120800D01*
X105036000Y-71114381D01*
X104970826Y-71120800D01*
X94489190Y-71120800D01*
X94319391Y-70951001D01*
X94003777Y-70740115D01*
X93653085Y-70594853D01*
X93280793Y-70520800D01*
X92901207Y-70520800D01*
X92528915Y-70594853D01*
X92178223Y-70740115D01*
X91862609Y-70951001D01*
X91594201Y-71219409D01*
X91383315Y-71535023D01*
X91238053Y-71885715D01*
X91164000Y-72258007D01*
X91164000Y-72498139D01*
X86211362Y-77450778D01*
X85791940Y-77870200D01*
X82754390Y-77870200D01*
X82683200Y-77799010D01*
X82683200Y-73445774D01*
X82689619Y-73380600D01*
X82683200Y-73315426D01*
X82683200Y-73315416D01*
X82663999Y-73120463D01*
X82588119Y-72870322D01*
X82501323Y-72707938D01*
X82464898Y-72639791D01*
X82340622Y-72488361D01*
X82340621Y-72488360D01*
X82299070Y-72437730D01*
X82248441Y-72396180D01*
X78556025Y-68703765D01*
X78514470Y-68653130D01*
X78312408Y-68487302D01*
X78081878Y-68364081D01*
X77831737Y-68288201D01*
X77636784Y-68269000D01*
X77636774Y-68269000D01*
X77571600Y-68262581D01*
X77506426Y-68269000D01*
X72681861Y-68269000D01*
X70248400Y-65835540D01*
X70248400Y-65540482D01*
X70172425Y-65158530D01*
X70023395Y-64798739D01*
X69807036Y-64474936D01*
X69531664Y-64199564D01*
X69207861Y-63983205D01*
X68848070Y-63834175D01*
X68466118Y-63758200D01*
X68076682Y-63758200D01*
X67694730Y-63834175D01*
X67334939Y-63983205D01*
X67011136Y-64199564D01*
X66735764Y-64474936D01*
X66519405Y-64798739D01*
X66457723Y-64947653D01*
X66457723Y-64485200D01*
X66420517Y-64107442D01*
X66310329Y-63744201D01*
X66131394Y-63409437D01*
X65890587Y-63116013D01*
X65597163Y-62875206D01*
X65262399Y-62696271D01*
X64899158Y-62586083D01*
X64521400Y-62548877D01*
X62021400Y-62548877D01*
X61643642Y-62586083D01*
X61280401Y-62696271D01*
X60945637Y-62875206D01*
X60685000Y-63089105D01*
X60685000Y-60685000D01*
X115304033Y-60685000D01*
X115135215Y-60736210D01*
G36*
X66519405Y-66671661D02*
G01*
X66735764Y-66995464D01*
X67011136Y-67270836D01*
X67334939Y-67487195D01*
X67694730Y-67636225D01*
X68076682Y-67712200D01*
X68371740Y-67712200D01*
X71147777Y-70488238D01*
X71189330Y-70538870D01*
X71239960Y-70580421D01*
X71239961Y-70580422D01*
X71391391Y-70704698D01*
X71523967Y-70775561D01*
X71621922Y-70827919D01*
X71872063Y-70903799D01*
X72067016Y-70923000D01*
X72067026Y-70923000D01*
X72132200Y-70929419D01*
X72197374Y-70923000D01*
X77021940Y-70923000D01*
X80029200Y-73930261D01*
X80029201Y-77799009D01*
X79859401Y-77968809D01*
X79648515Y-78284423D01*
X79503253Y-78635115D01*
X79429200Y-79007407D01*
X79429200Y-79386993D01*
X79503253Y-79759285D01*
X79648515Y-80109977D01*
X79859401Y-80425591D01*
X80127809Y-80693999D01*
X80443423Y-80904885D01*
X80794115Y-81050147D01*
X81166407Y-81124200D01*
X81545993Y-81124200D01*
X81918285Y-81050147D01*
X82268977Y-80904885D01*
X82584591Y-80693999D01*
X82754390Y-80524200D01*
X86276426Y-80524200D01*
X86341600Y-80530619D01*
X86406774Y-80524200D01*
X86406784Y-80524200D01*
X86601737Y-80504999D01*
X86851878Y-80429119D01*
X87082408Y-80305898D01*
X87284470Y-80140070D01*
X87326025Y-80089435D01*
X91764000Y-75651460D01*
X91764001Y-79968338D01*
X85073740Y-86658600D01*
X80075261Y-86658600D01*
X79088377Y-85671716D01*
X79004007Y-85393588D01*
X78857572Y-85119627D01*
X78660503Y-84879497D01*
X78420373Y-84682428D01*
X78146412Y-84535993D01*
X77849146Y-84445818D01*
X77617469Y-84423000D01*
X77462531Y-84423000D01*
X77230854Y-84445818D01*
X76933588Y-84535993D01*
X76659627Y-84682428D01*
X76496132Y-84816604D01*
X76457403Y-84744147D01*
X76366554Y-84633446D01*
X76255853Y-84542597D01*
X76129557Y-84475090D01*
X75992517Y-84433520D01*
X75850000Y-84419483D01*
X74150000Y-84419483D01*
X74007483Y-84433520D01*
X73870443Y-84475090D01*
X73744147Y-84542597D01*
X73633446Y-84633446D01*
X73542597Y-84744147D01*
X73475090Y-84870443D01*
X73433520Y-85007483D01*
X73419483Y-85150000D01*
X73419483Y-86850000D01*
X73433520Y-86992517D01*
X73475090Y-87129557D01*
X73542597Y-87255853D01*
X73633446Y-87366554D01*
X73744147Y-87457403D01*
X73870443Y-87524910D01*
X74007483Y-87566480D01*
X74150000Y-87580517D01*
X75850000Y-87580517D01*
X75992517Y-87566480D01*
X76129557Y-87524910D01*
X76255853Y-87457403D01*
X76366554Y-87366554D01*
X76457403Y-87255853D01*
X76496132Y-87183396D01*
X76659627Y-87317572D01*
X76933588Y-87464007D01*
X77211716Y-87548377D01*
X78541179Y-88877840D01*
X78582730Y-88928470D01*
X78633360Y-88970021D01*
X78633361Y-88970022D01*
X78784790Y-89094297D01*
X78784792Y-89094298D01*
X79015322Y-89217519D01*
X79265463Y-89293399D01*
X79460416Y-89312600D01*
X79460428Y-89312600D01*
X79525599Y-89319019D01*
X79590771Y-89312600D01*
X85558226Y-89312600D01*
X85623400Y-89319019D01*
X85688574Y-89312600D01*
X85688584Y-89312600D01*
X85883537Y-89293399D01*
X86133678Y-89217519D01*
X86364208Y-89094298D01*
X86566270Y-88928470D01*
X86607825Y-88877835D01*
X93983240Y-81502421D01*
X94033870Y-81460870D01*
X94093197Y-81388580D01*
X94126200Y-81348366D01*
X94126200Y-87717226D01*
X94119781Y-87782400D01*
X94126200Y-87847574D01*
X94126200Y-87847583D01*
X94145401Y-88042536D01*
X94204275Y-88236615D01*
X94221281Y-88292677D01*
X94344502Y-88523208D01*
X94420129Y-88615359D01*
X94510330Y-88725270D01*
X94560965Y-88766825D01*
X100109139Y-94315000D01*
X72162726Y-94315000D01*
X72178587Y-84036607D01*
X82782000Y-84036607D01*
X82782000Y-84416193D01*
X82856053Y-84788485D01*
X83001315Y-85139177D01*
X83212201Y-85454791D01*
X83480609Y-85723199D01*
X83796223Y-85934085D01*
X84146915Y-86079347D01*
X84519207Y-86153400D01*
X84898793Y-86153400D01*
X85271085Y-86079347D01*
X85621777Y-85934085D01*
X85937391Y-85723199D01*
X86205799Y-85454791D01*
X86416685Y-85139177D01*
X86561947Y-84788485D01*
X86636000Y-84416193D01*
X86636000Y-84036607D01*
X86561947Y-83664315D01*
X86416685Y-83313623D01*
X86205799Y-82998009D01*
X85937391Y-82729601D01*
X85621777Y-82518715D01*
X85271085Y-82373453D01*
X84898793Y-82299400D01*
X84519207Y-82299400D01*
X84146915Y-82373453D01*
X83796223Y-82518715D01*
X83480609Y-82729601D01*
X83212201Y-82998009D01*
X83001315Y-83313623D01*
X82856053Y-83664315D01*
X82782000Y-84036607D01*
X72178587Y-84036607D01*
X72186800Y-78714796D01*
X72184352Y-78689786D01*
X72177118Y-78665964D01*
X72165376Y-78644011D01*
X72149576Y-78624771D01*
X72130326Y-78608982D01*
X72108366Y-78597253D01*
X72084539Y-78590033D01*
X72059762Y-78587600D01*
X60685000Y-78590997D01*
X60685000Y-68381295D01*
X60945637Y-68595194D01*
X61044401Y-68647984D01*
X61044400Y-73423601D01*
X61033625Y-73533000D01*
X61044400Y-73642398D01*
X61044400Y-73642400D01*
X61076623Y-73969567D01*
X61203965Y-74389358D01*
X61410758Y-74776241D01*
X61689054Y-75115346D01*
X61774040Y-75185093D01*
X64210112Y-77621164D01*
X64279854Y-77706146D01*
X64618959Y-77984442D01*
X65005841Y-78191235D01*
X65425632Y-78318577D01*
X65752799Y-78350800D01*
X65752808Y-78350800D01*
X65862199Y-78361574D01*
X65971590Y-78350800D01*
X73176671Y-78350800D01*
X73460481Y-78540436D01*
X73956763Y-78746003D01*
X74483614Y-78850800D01*
X75020786Y-78850800D01*
X75547637Y-78746003D01*
X76043919Y-78540436D01*
X76490561Y-78241999D01*
X76870399Y-77862161D01*
X77168836Y-77415519D01*
X77374403Y-76919237D01*
X77479200Y-76392386D01*
X77479200Y-75855214D01*
X77374403Y-75328363D01*
X77168836Y-74832081D01*
X76870399Y-74385439D01*
X76490561Y-74005601D01*
X76043919Y-73707164D01*
X75547637Y-73501597D01*
X75020786Y-73396800D01*
X74483614Y-73396800D01*
X73956763Y-73501597D01*
X73460481Y-73707164D01*
X73176671Y-73896800D01*
X66784653Y-73896800D01*
X65498400Y-72610548D01*
X65498400Y-68647984D01*
X65597163Y-68595194D01*
X65890587Y-68354387D01*
X66131394Y-68060963D01*
X66310329Y-67726199D01*
X66420517Y-67362958D01*
X66457723Y-66985200D01*
X66457723Y-66522747D01*
X66519405Y-66671661D01*
X66519405Y-66671661D01*
G37*
X66519405Y-66671661D02*
X66735764Y-66995464D01*
X67011136Y-67270836D01*
X67334939Y-67487195D01*
X67694730Y-67636225D01*
X68076682Y-67712200D01*
X68371740Y-67712200D01*
X71147777Y-70488238D01*
X71189330Y-70538870D01*
X71239960Y-70580421D01*
X71239961Y-70580422D01*
X71391391Y-70704698D01*
X71523967Y-70775561D01*
X71621922Y-70827919D01*
X71872063Y-70903799D01*
X72067016Y-70923000D01*
X72067026Y-70923000D01*
X72132200Y-70929419D01*
X72197374Y-70923000D01*
X77021940Y-70923000D01*
X80029200Y-73930261D01*
X80029201Y-77799009D01*
X79859401Y-77968809D01*
X79648515Y-78284423D01*
X79503253Y-78635115D01*
X79429200Y-79007407D01*
X79429200Y-79386993D01*
X79503253Y-79759285D01*
X79648515Y-80109977D01*
X79859401Y-80425591D01*
X80127809Y-80693999D01*
X80443423Y-80904885D01*
X80794115Y-81050147D01*
X81166407Y-81124200D01*
X81545993Y-81124200D01*
X81918285Y-81050147D01*
X82268977Y-80904885D01*
X82584591Y-80693999D01*
X82754390Y-80524200D01*
X86276426Y-80524200D01*
X86341600Y-80530619D01*
X86406774Y-80524200D01*
X86406784Y-80524200D01*
X86601737Y-80504999D01*
X86851878Y-80429119D01*
X87082408Y-80305898D01*
X87284470Y-80140070D01*
X87326025Y-80089435D01*
X91764000Y-75651460D01*
X91764001Y-79968338D01*
X85073740Y-86658600D01*
X80075261Y-86658600D01*
X79088377Y-85671716D01*
X79004007Y-85393588D01*
X78857572Y-85119627D01*
X78660503Y-84879497D01*
X78420373Y-84682428D01*
X78146412Y-84535993D01*
X77849146Y-84445818D01*
X77617469Y-84423000D01*
X77462531Y-84423000D01*
X77230854Y-84445818D01*
X76933588Y-84535993D01*
X76659627Y-84682428D01*
X76496132Y-84816604D01*
X76457403Y-84744147D01*
X76366554Y-84633446D01*
X76255853Y-84542597D01*
X76129557Y-84475090D01*
X75992517Y-84433520D01*
X75850000Y-84419483D01*
X74150000Y-84419483D01*
X74007483Y-84433520D01*
X73870443Y-84475090D01*
X73744147Y-84542597D01*
X73633446Y-84633446D01*
X73542597Y-84744147D01*
X73475090Y-84870443D01*
X73433520Y-85007483D01*
X73419483Y-85150000D01*
X73419483Y-86850000D01*
X73433520Y-86992517D01*
X73475090Y-87129557D01*
X73542597Y-87255853D01*
X73633446Y-87366554D01*
X73744147Y-87457403D01*
X73870443Y-87524910D01*
X74007483Y-87566480D01*
X74150000Y-87580517D01*
X75850000Y-87580517D01*
X75992517Y-87566480D01*
X76129557Y-87524910D01*
X76255853Y-87457403D01*
X76366554Y-87366554D01*
X76457403Y-87255853D01*
X76496132Y-87183396D01*
X76659627Y-87317572D01*
X76933588Y-87464007D01*
X77211716Y-87548377D01*
X78541179Y-88877840D01*
X78582730Y-88928470D01*
X78633360Y-88970021D01*
X78633361Y-88970022D01*
X78784790Y-89094297D01*
X78784792Y-89094298D01*
X79015322Y-89217519D01*
X79265463Y-89293399D01*
X79460416Y-89312600D01*
X79460428Y-89312600D01*
X79525599Y-89319019D01*
X79590771Y-89312600D01*
X85558226Y-89312600D01*
X85623400Y-89319019D01*
X85688574Y-89312600D01*
X85688584Y-89312600D01*
X85883537Y-89293399D01*
X86133678Y-89217519D01*
X86364208Y-89094298D01*
X86566270Y-88928470D01*
X86607825Y-88877835D01*
X93983240Y-81502421D01*
X94033870Y-81460870D01*
X94093197Y-81388580D01*
X94126200Y-81348366D01*
X94126200Y-87717226D01*
X94119781Y-87782400D01*
X94126200Y-87847574D01*
X94126200Y-87847583D01*
X94145401Y-88042536D01*
X94204275Y-88236615D01*
X94221281Y-88292677D01*
X94344502Y-88523208D01*
X94420129Y-88615359D01*
X94510330Y-88725270D01*
X94560965Y-88766825D01*
X100109139Y-94315000D01*
X72162726Y-94315000D01*
X72178587Y-84036607D01*
X82782000Y-84036607D01*
X82782000Y-84416193D01*
X82856053Y-84788485D01*
X83001315Y-85139177D01*
X83212201Y-85454791D01*
X83480609Y-85723199D01*
X83796223Y-85934085D01*
X84146915Y-86079347D01*
X84519207Y-86153400D01*
X84898793Y-86153400D01*
X85271085Y-86079347D01*
X85621777Y-85934085D01*
X85937391Y-85723199D01*
X86205799Y-85454791D01*
X86416685Y-85139177D01*
X86561947Y-84788485D01*
X86636000Y-84416193D01*
X86636000Y-84036607D01*
X86561947Y-83664315D01*
X86416685Y-83313623D01*
X86205799Y-82998009D01*
X85937391Y-82729601D01*
X85621777Y-82518715D01*
X85271085Y-82373453D01*
X84898793Y-82299400D01*
X84519207Y-82299400D01*
X84146915Y-82373453D01*
X83796223Y-82518715D01*
X83480609Y-82729601D01*
X83212201Y-82998009D01*
X83001315Y-83313623D01*
X82856053Y-83664315D01*
X82782000Y-84036607D01*
X72178587Y-84036607D01*
X72186800Y-78714796D01*
X72184352Y-78689786D01*
X72177118Y-78665964D01*
X72165376Y-78644011D01*
X72149576Y-78624771D01*
X72130326Y-78608982D01*
X72108366Y-78597253D01*
X72084539Y-78590033D01*
X72059762Y-78587600D01*
X60685000Y-78590997D01*
X60685000Y-68381295D01*
X60945637Y-68595194D01*
X61044401Y-68647984D01*
X61044400Y-73423601D01*
X61033625Y-73533000D01*
X61044400Y-73642398D01*
X61044400Y-73642400D01*
X61076623Y-73969567D01*
X61203965Y-74389358D01*
X61410758Y-74776241D01*
X61689054Y-75115346D01*
X61774040Y-75185093D01*
X64210112Y-77621164D01*
X64279854Y-77706146D01*
X64618959Y-77984442D01*
X65005841Y-78191235D01*
X65425632Y-78318577D01*
X65752799Y-78350800D01*
X65752808Y-78350800D01*
X65862199Y-78361574D01*
X65971590Y-78350800D01*
X73176671Y-78350800D01*
X73460481Y-78540436D01*
X73956763Y-78746003D01*
X74483614Y-78850800D01*
X75020786Y-78850800D01*
X75547637Y-78746003D01*
X76043919Y-78540436D01*
X76490561Y-78241999D01*
X76870399Y-77862161D01*
X77168836Y-77415519D01*
X77374403Y-76919237D01*
X77479200Y-76392386D01*
X77479200Y-75855214D01*
X77374403Y-75328363D01*
X77168836Y-74832081D01*
X76870399Y-74385439D01*
X76490561Y-74005601D01*
X76043919Y-73707164D01*
X75547637Y-73501597D01*
X75020786Y-73396800D01*
X74483614Y-73396800D01*
X73956763Y-73501597D01*
X73460481Y-73707164D01*
X73176671Y-73896800D01*
X66784653Y-73896800D01*
X65498400Y-72610548D01*
X65498400Y-68647984D01*
X65597163Y-68595194D01*
X65890587Y-68354387D01*
X66131394Y-68060963D01*
X66310329Y-67726199D01*
X66420517Y-67362958D01*
X66457723Y-66985200D01*
X66457723Y-66522747D01*
X66519405Y-66671661D01*
M02*
