M48
; DRILL file {KiCad 5.1.4+dfsg1-1} date mer. 02 oct. 2019 13:31:53 CEST
; FORMAT={-:-/ absolute / metric / decimal}
; #@! TF.CreationDate,2019-10-02T13:31:53+02:00
; #@! TF.GenerationSoftware,Kicad,Pcbnew,5.1.4+dfsg1-1
; #@! TF.FileFunction,Plated,1,2,PTH
FMAT,2
METRIC
T1C0.600
T2C0.800
T3C1.000
T4C1.200
T5C1.300
T6C2.000
%
G90
G05
T1
X86.03Y-91.059
X120.726Y-66.091
X138.1Y-75.794
X156.997Y-66.04
X188.925Y-88.29
X210.845Y-75.057
T2
X104.038Y-76.124
X104.038Y-88.824
X111.277Y-78.689
X123.977Y-78.689
X185.852Y-66.777
X198.552Y-66.777
X150.952Y-80.01
X163.652Y-80.01
X187.528Y-80.797
X192.528Y-80.797
X183.591Y-73.0
X196.291Y-73.0
X187.249Y-85.217
X199.949Y-85.217
X111.303Y-74.905
X124.003Y-74.905
X150.952Y-69.037
X163.652Y-69.037
X150.952Y-75.794
X163.652Y-75.794
X74.752Y-63.424
X74.752Y-76.124
X226.162Y-62.128
X226.162Y-74.828
X236.118Y-69.828
X236.118Y-74.828
X231.546Y-64.237
X231.546Y-76.937
X108.788Y-71.018
X121.488Y-71.018
X138.379Y-88.798
X151.079Y-88.798
X214.808Y-88.468
X227.508Y-88.468
X115.722Y-62.154
X128.422Y-62.154
X111.277Y-83.16
X116.277Y-83.16
T3
X75.0Y-86.0
X77.54Y-86.0
X196.005Y-89.433
X206.005Y-89.433
X121.75Y-88.798
X131.75Y-88.798
X173.304Y-69.342
X183.304Y-69.342
X187.554Y-76.657
X190.094Y-76.657
X192.634Y-76.657
X157.0Y-86.0
X159.54Y-86.0
X198.505Y-89.433
X203.505Y-89.433
X235.433Y-62.128
X237.973Y-62.128
X108.788Y-66.827
X113.788Y-66.827
X108.153Y-88.138
X118.153Y-88.138
T4
X168.148Y-71.157
X168.148Y-86.157
X178.613Y-77.572
X178.613Y-82.572
X93.091Y-64.948
X93.091Y-72.448
X84.709Y-84.226
X99.709Y-84.226
X81.356Y-64.197
X81.356Y-79.197
T5
X63.271Y-65.735
X68.271Y-65.735
T6
X200.84Y-71.26
X200.84Y-77.75
X204.66Y-66.01
X204.66Y-83.0
X210.83Y-64.01
X217.0Y-66.01
X217.0Y-83.0
X220.81Y-71.26
X220.81Y-77.75
X127.34Y-71.26
X127.34Y-77.75
X131.16Y-66.01
X131.16Y-83.0
X137.33Y-64.01
X143.5Y-66.01
X143.5Y-83.0
X147.31Y-71.26
X147.31Y-77.75
T0
M30
