G04 #@! TF.GenerationSoftware,KiCad,Pcbnew,5.1.4+dfsg1-1*
G04 #@! TF.CreationDate,2019-10-02T13:31:48+02:00*
G04 #@! TF.ProjectId,fat_bastard_lead,6661745f-6261-4737-9461-72645f6c6561,rev?*
G04 #@! TF.SameCoordinates,Original*
G04 #@! TF.FileFunction,Legend,Top*
G04 #@! TF.FilePolarity,Positive*
%FSLAX46Y46*%
G04 Gerber Fmt 4.6, Leading zero omitted, Abs format (unit mm)*
G04 Created by KiCad (PCBNEW 5.1.4+dfsg1-1) date 2019-10-02 13:31:48*
%MOMM*%
%LPD*%
G04 APERTURE LIST*
%ADD10C,0.300000*%
%ADD11C,0.120000*%
%ADD12C,0.010000*%
%ADD13C,0.150000*%
G04 APERTURE END LIST*
D10*
X62176571Y-90741971D02*
X61462285Y-90741971D01*
X61462285Y-89241971D01*
X62676571Y-90741971D02*
X62676571Y-89741971D01*
X62676571Y-89241971D02*
X62605142Y-89313400D01*
X62676571Y-89384828D01*
X62748000Y-89313400D01*
X62676571Y-89241971D01*
X62676571Y-89384828D01*
X64033714Y-90670542D02*
X63890857Y-90741971D01*
X63605142Y-90741971D01*
X63462285Y-90670542D01*
X63390857Y-90599114D01*
X63319428Y-90456257D01*
X63319428Y-90027685D01*
X63390857Y-89884828D01*
X63462285Y-89813400D01*
X63605142Y-89741971D01*
X63890857Y-89741971D01*
X64033714Y-89813400D01*
X65248000Y-90670542D02*
X65105142Y-90741971D01*
X64819428Y-90741971D01*
X64676571Y-90670542D01*
X64605142Y-90527685D01*
X64605142Y-89956257D01*
X64676571Y-89813400D01*
X64819428Y-89741971D01*
X65105142Y-89741971D01*
X65248000Y-89813400D01*
X65319428Y-89956257D01*
X65319428Y-90099114D01*
X64605142Y-90241971D01*
X65962285Y-89741971D02*
X65962285Y-90741971D01*
X65962285Y-89884828D02*
X66033714Y-89813400D01*
X66176571Y-89741971D01*
X66390857Y-89741971D01*
X66533714Y-89813400D01*
X66605142Y-89956257D01*
X66605142Y-90741971D01*
X67248000Y-90670542D02*
X67390857Y-90741971D01*
X67676571Y-90741971D01*
X67819428Y-90670542D01*
X67890857Y-90527685D01*
X67890857Y-90456257D01*
X67819428Y-90313400D01*
X67676571Y-90241971D01*
X67462285Y-90241971D01*
X67319428Y-90170542D01*
X67248000Y-90027685D01*
X67248000Y-89956257D01*
X67319428Y-89813400D01*
X67462285Y-89741971D01*
X67676571Y-89741971D01*
X67819428Y-89813400D01*
X69105142Y-90670542D02*
X68962285Y-90741971D01*
X68676571Y-90741971D01*
X68533714Y-90670542D01*
X68462285Y-90527685D01*
X68462285Y-89956257D01*
X68533714Y-89813400D01*
X68676571Y-89741971D01*
X68962285Y-89741971D01*
X69105142Y-89813400D01*
X69176571Y-89956257D01*
X69176571Y-90099114D01*
X68462285Y-90241971D01*
X70462285Y-90741971D02*
X70462285Y-89241971D01*
X70462285Y-90670542D02*
X70319428Y-90741971D01*
X70033714Y-90741971D01*
X69890857Y-90670542D01*
X69819428Y-90599114D01*
X69748000Y-90456257D01*
X69748000Y-90027685D01*
X69819428Y-89884828D01*
X69890857Y-89813400D01*
X70033714Y-89741971D01*
X70319428Y-89741971D01*
X70462285Y-89813400D01*
X72962285Y-89741971D02*
X72962285Y-90741971D01*
X72319428Y-89741971D02*
X72319428Y-90527685D01*
X72390857Y-90670542D01*
X72533714Y-90741971D01*
X72748000Y-90741971D01*
X72890857Y-90670542D01*
X72962285Y-90599114D01*
X73676571Y-89741971D02*
X73676571Y-90741971D01*
X73676571Y-89884828D02*
X73748000Y-89813400D01*
X73890857Y-89741971D01*
X74105142Y-89741971D01*
X74248000Y-89813400D01*
X74319428Y-89956257D01*
X74319428Y-90741971D01*
X75676571Y-90741971D02*
X75676571Y-89241971D01*
X75676571Y-90670542D02*
X75533714Y-90741971D01*
X75248000Y-90741971D01*
X75105142Y-90670542D01*
X75033714Y-90599114D01*
X74962285Y-90456257D01*
X74962285Y-90027685D01*
X75033714Y-89884828D01*
X75105142Y-89813400D01*
X75248000Y-89741971D01*
X75533714Y-89741971D01*
X75676571Y-89813400D01*
X76962285Y-90670542D02*
X76819428Y-90741971D01*
X76533714Y-90741971D01*
X76390857Y-90670542D01*
X76319428Y-90527685D01*
X76319428Y-89956257D01*
X76390857Y-89813400D01*
X76533714Y-89741971D01*
X76819428Y-89741971D01*
X76962285Y-89813400D01*
X77033714Y-89956257D01*
X77033714Y-90099114D01*
X76319428Y-90241971D01*
X77676571Y-90741971D02*
X77676571Y-89741971D01*
X77676571Y-90027685D02*
X77748000Y-89884828D01*
X77819428Y-89813400D01*
X77962285Y-89741971D01*
X78105142Y-89741971D01*
X80605142Y-90599114D02*
X80533714Y-90670542D01*
X80319428Y-90741971D01*
X80176571Y-90741971D01*
X79962285Y-90670542D01*
X79819428Y-90527685D01*
X79748000Y-90384828D01*
X79676571Y-90099114D01*
X79676571Y-89884828D01*
X79748000Y-89599114D01*
X79819428Y-89456257D01*
X79962285Y-89313400D01*
X80176571Y-89241971D01*
X80319428Y-89241971D01*
X80533714Y-89313400D01*
X80605142Y-89384828D01*
X81248000Y-89956257D02*
X81748000Y-89956257D01*
X81962285Y-90741971D02*
X81248000Y-90741971D01*
X81248000Y-89241971D01*
X81962285Y-89241971D01*
X83462285Y-90741971D02*
X82962285Y-90027685D01*
X82605142Y-90741971D02*
X82605142Y-89241971D01*
X83176571Y-89241971D01*
X83319428Y-89313400D01*
X83390857Y-89384828D01*
X83462285Y-89527685D01*
X83462285Y-89741971D01*
X83390857Y-89884828D01*
X83319428Y-89956257D01*
X83176571Y-90027685D01*
X82605142Y-90027685D01*
X84105142Y-90741971D02*
X84105142Y-89241971D01*
X84962285Y-90741971D01*
X84962285Y-89241971D01*
X87105142Y-89241971D02*
X87390857Y-89241971D01*
X87533714Y-89313400D01*
X87676571Y-89456257D01*
X87748000Y-89741971D01*
X87748000Y-90241971D01*
X87676571Y-90527685D01*
X87533714Y-90670542D01*
X87390857Y-90741971D01*
X87105142Y-90741971D01*
X86962285Y-90670542D01*
X86819428Y-90527685D01*
X86748000Y-90241971D01*
X86748000Y-89741971D01*
X86819428Y-89456257D01*
X86962285Y-89313400D01*
X87105142Y-89241971D01*
X88390857Y-90741971D02*
X88390857Y-89241971D01*
X88390857Y-89956257D02*
X89248000Y-89956257D01*
X89248000Y-90741971D02*
X89248000Y-89241971D01*
X90676571Y-90741971D02*
X89962285Y-90741971D01*
X89962285Y-89241971D01*
X92176571Y-89741971D02*
X92533714Y-90741971D01*
X92890857Y-89741971D01*
X93462285Y-90599114D02*
X93533714Y-90670542D01*
X93462285Y-90741971D01*
X93390857Y-90670542D01*
X93462285Y-90599114D01*
X93462285Y-90741971D01*
X94962285Y-90741971D02*
X94105142Y-90741971D01*
X94533714Y-90741971D02*
X94533714Y-89241971D01*
X94390857Y-89456257D01*
X94248000Y-89599114D01*
X94105142Y-89670542D01*
X95605142Y-90599114D02*
X95676571Y-90670542D01*
X95605142Y-90741971D01*
X95533714Y-90670542D01*
X95605142Y-90599114D01*
X95605142Y-90741971D01*
X96248000Y-89384828D02*
X96319428Y-89313400D01*
X96462285Y-89241971D01*
X96819428Y-89241971D01*
X96962285Y-89313400D01*
X97033714Y-89384828D01*
X97105142Y-89527685D01*
X97105142Y-89670542D01*
X97033714Y-89884828D01*
X96176571Y-90741971D01*
X97105142Y-90741971D01*
X62748000Y-92291971D02*
X62748000Y-93506257D01*
X62676571Y-93649114D01*
X62605142Y-93720542D01*
X62462285Y-93791971D01*
X62248000Y-93791971D01*
X62105142Y-93720542D01*
X62748000Y-93220542D02*
X62605142Y-93291971D01*
X62319428Y-93291971D01*
X62176571Y-93220542D01*
X62105142Y-93149114D01*
X62033714Y-93006257D01*
X62033714Y-92577685D01*
X62105142Y-92434828D01*
X62176571Y-92363400D01*
X62319428Y-92291971D01*
X62605142Y-92291971D01*
X62748000Y-92363400D01*
X63462285Y-93291971D02*
X63462285Y-92291971D01*
X63462285Y-91791971D02*
X63390857Y-91863400D01*
X63462285Y-91934828D01*
X63533714Y-91863400D01*
X63462285Y-91791971D01*
X63462285Y-91934828D01*
X63962285Y-92291971D02*
X64533714Y-92291971D01*
X64176571Y-91791971D02*
X64176571Y-93077685D01*
X64248000Y-93220542D01*
X64390857Y-93291971D01*
X64533714Y-93291971D01*
X65033714Y-93291971D02*
X65033714Y-91791971D01*
X65676571Y-93291971D02*
X65676571Y-92506257D01*
X65605142Y-92363400D01*
X65462285Y-92291971D01*
X65248000Y-92291971D01*
X65105142Y-92363400D01*
X65033714Y-92434828D01*
X67033714Y-92291971D02*
X67033714Y-93291971D01*
X66390857Y-92291971D02*
X66390857Y-93077685D01*
X66462285Y-93220542D01*
X66605142Y-93291971D01*
X66819428Y-93291971D01*
X66962285Y-93220542D01*
X67033714Y-93149114D01*
X67748000Y-93291971D02*
X67748000Y-91791971D01*
X67748000Y-92363400D02*
X67890857Y-92291971D01*
X68176571Y-92291971D01*
X68319428Y-92363400D01*
X68390857Y-92434828D01*
X68462285Y-92577685D01*
X68462285Y-93006257D01*
X68390857Y-93149114D01*
X68319428Y-93220542D01*
X68176571Y-93291971D01*
X67890857Y-93291971D01*
X67748000Y-93220542D01*
X69105142Y-93149114D02*
X69176571Y-93220542D01*
X69105142Y-93291971D01*
X69033714Y-93220542D01*
X69105142Y-93149114D01*
X69105142Y-93291971D01*
X70462285Y-93220542D02*
X70319428Y-93291971D01*
X70033714Y-93291971D01*
X69890857Y-93220542D01*
X69819428Y-93149114D01*
X69748000Y-93006257D01*
X69748000Y-92577685D01*
X69819428Y-92434828D01*
X69890857Y-92363400D01*
X70033714Y-92291971D01*
X70319428Y-92291971D01*
X70462285Y-92363400D01*
X71319428Y-93291971D02*
X71176571Y-93220542D01*
X71105142Y-93149114D01*
X71033714Y-93006257D01*
X71033714Y-92577685D01*
X71105142Y-92434828D01*
X71176571Y-92363400D01*
X71319428Y-92291971D01*
X71533714Y-92291971D01*
X71676571Y-92363400D01*
X71748000Y-92434828D01*
X71819428Y-92577685D01*
X71819428Y-93006257D01*
X71748000Y-93149114D01*
X71676571Y-93220542D01*
X71533714Y-93291971D01*
X71319428Y-93291971D01*
X72462285Y-93291971D02*
X72462285Y-92291971D01*
X72462285Y-92434828D02*
X72533714Y-92363400D01*
X72676571Y-92291971D01*
X72890857Y-92291971D01*
X73033714Y-92363400D01*
X73105142Y-92506257D01*
X73105142Y-93291971D01*
X73105142Y-92506257D02*
X73176571Y-92363400D01*
X73319428Y-92291971D01*
X73533714Y-92291971D01*
X73676571Y-92363400D01*
X73748000Y-92506257D01*
X73748000Y-93291971D01*
X75533714Y-91720542D02*
X74248000Y-93649114D01*
X76676571Y-93291971D02*
X76676571Y-92506257D01*
X76605142Y-92363400D01*
X76462285Y-92291971D01*
X76176571Y-92291971D01*
X76033714Y-92363400D01*
X76676571Y-93220542D02*
X76533714Y-93291971D01*
X76176571Y-93291971D01*
X76033714Y-93220542D01*
X75962285Y-93077685D01*
X75962285Y-92934828D01*
X76033714Y-92791971D01*
X76176571Y-92720542D01*
X76533714Y-92720542D01*
X76676571Y-92649114D01*
X77390857Y-92720542D02*
X78533714Y-92720542D01*
X79105142Y-92291971D02*
X79390857Y-93291971D01*
X79676571Y-92577685D01*
X79962285Y-93291971D01*
X80248000Y-92291971D01*
X81462285Y-93291971D02*
X81462285Y-92506257D01*
X81390857Y-92363400D01*
X81248000Y-92291971D01*
X80962285Y-92291971D01*
X80819428Y-92363400D01*
X81462285Y-93220542D02*
X81319428Y-93291971D01*
X80962285Y-93291971D01*
X80819428Y-93220542D01*
X80748000Y-93077685D01*
X80748000Y-92934828D01*
X80819428Y-92791971D01*
X80962285Y-92720542D01*
X81319428Y-92720542D01*
X81462285Y-92649114D01*
X82176571Y-93291971D02*
X82176571Y-92291971D01*
X82176571Y-91791971D02*
X82105142Y-91863400D01*
X82176571Y-91934828D01*
X82248000Y-91863400D01*
X82176571Y-91791971D01*
X82176571Y-91934828D01*
X83962285Y-91720542D02*
X82676571Y-93649114D01*
X84248000Y-92291971D02*
X84819428Y-92291971D01*
X84462285Y-93291971D02*
X84462285Y-92006257D01*
X84533714Y-91863400D01*
X84676571Y-91791971D01*
X84819428Y-91791971D01*
X85962285Y-93291971D02*
X85962285Y-92506257D01*
X85890857Y-92363400D01*
X85748000Y-92291971D01*
X85462285Y-92291971D01*
X85319428Y-92363400D01*
X85962285Y-93220542D02*
X85819428Y-93291971D01*
X85462285Y-93291971D01*
X85319428Y-93220542D01*
X85248000Y-93077685D01*
X85248000Y-92934828D01*
X85319428Y-92791971D01*
X85462285Y-92720542D01*
X85819428Y-92720542D01*
X85962285Y-92649114D01*
X86462285Y-92291971D02*
X87033714Y-92291971D01*
X86676571Y-91791971D02*
X86676571Y-93077685D01*
X86748000Y-93220542D01*
X86890857Y-93291971D01*
X87033714Y-93291971D01*
X87176571Y-93434828D02*
X88319428Y-93434828D01*
X88676571Y-93291971D02*
X88676571Y-91791971D01*
X88676571Y-92363400D02*
X88819428Y-92291971D01*
X89105142Y-92291971D01*
X89248000Y-92363400D01*
X89319428Y-92434828D01*
X89390857Y-92577685D01*
X89390857Y-93006257D01*
X89319428Y-93149114D01*
X89248000Y-93220542D01*
X89105142Y-93291971D01*
X88819428Y-93291971D01*
X88676571Y-93220542D01*
X90676571Y-93291971D02*
X90676571Y-92506257D01*
X90605142Y-92363400D01*
X90462285Y-92291971D01*
X90176571Y-92291971D01*
X90033714Y-92363400D01*
X90676571Y-93220542D02*
X90533714Y-93291971D01*
X90176571Y-93291971D01*
X90033714Y-93220542D01*
X89962285Y-93077685D01*
X89962285Y-92934828D01*
X90033714Y-92791971D01*
X90176571Y-92720542D01*
X90533714Y-92720542D01*
X90676571Y-92649114D01*
X91319428Y-93220542D02*
X91462285Y-93291971D01*
X91748000Y-93291971D01*
X91890857Y-93220542D01*
X91962285Y-93077685D01*
X91962285Y-93006257D01*
X91890857Y-92863400D01*
X91748000Y-92791971D01*
X91533714Y-92791971D01*
X91390857Y-92720542D01*
X91319428Y-92577685D01*
X91319428Y-92506257D01*
X91390857Y-92363400D01*
X91533714Y-92291971D01*
X91748000Y-92291971D01*
X91890857Y-92363400D01*
X92390857Y-92291971D02*
X92962285Y-92291971D01*
X92605142Y-91791971D02*
X92605142Y-93077685D01*
X92676571Y-93220542D01*
X92819428Y-93291971D01*
X92962285Y-93291971D01*
X94105142Y-93291971D02*
X94105142Y-92506257D01*
X94033714Y-92363400D01*
X93890857Y-92291971D01*
X93605142Y-92291971D01*
X93462285Y-92363400D01*
X94105142Y-93220542D02*
X93962285Y-93291971D01*
X93605142Y-93291971D01*
X93462285Y-93220542D01*
X93390857Y-93077685D01*
X93390857Y-92934828D01*
X93462285Y-92791971D01*
X93605142Y-92720542D01*
X93962285Y-92720542D01*
X94105142Y-92649114D01*
X94819428Y-93291971D02*
X94819428Y-92291971D01*
X94819428Y-92577685D02*
X94890857Y-92434828D01*
X94962285Y-92363400D01*
X95105142Y-92291971D01*
X95248000Y-92291971D01*
X96390857Y-93291971D02*
X96390857Y-91791971D01*
X96390857Y-93220542D02*
X96248000Y-93291971D01*
X95962285Y-93291971D01*
X95819428Y-93220542D01*
X95748000Y-93149114D01*
X95676571Y-93006257D01*
X95676571Y-92577685D01*
X95748000Y-92434828D01*
X95819428Y-92363400D01*
X95962285Y-92291971D01*
X96248000Y-92291971D01*
X96390857Y-92363400D01*
X160383828Y-61736857D02*
X159883828Y-61736857D01*
X159883828Y-62522571D02*
X159883828Y-61022571D01*
X160598114Y-61022571D01*
X161812400Y-62522571D02*
X161812400Y-61736857D01*
X161740971Y-61594000D01*
X161598114Y-61522571D01*
X161312400Y-61522571D01*
X161169542Y-61594000D01*
X161812400Y-62451142D02*
X161669542Y-62522571D01*
X161312400Y-62522571D01*
X161169542Y-62451142D01*
X161098114Y-62308285D01*
X161098114Y-62165428D01*
X161169542Y-62022571D01*
X161312400Y-61951142D01*
X161669542Y-61951142D01*
X161812400Y-61879714D01*
X162312400Y-61522571D02*
X162883828Y-61522571D01*
X162526685Y-61022571D02*
X162526685Y-62308285D01*
X162598114Y-62451142D01*
X162740971Y-62522571D01*
X162883828Y-62522571D01*
X165026685Y-61736857D02*
X165240971Y-61808285D01*
X165312400Y-61879714D01*
X165383828Y-62022571D01*
X165383828Y-62236857D01*
X165312400Y-62379714D01*
X165240971Y-62451142D01*
X165098114Y-62522571D01*
X164526685Y-62522571D01*
X164526685Y-61022571D01*
X165026685Y-61022571D01*
X165169542Y-61094000D01*
X165240971Y-61165428D01*
X165312400Y-61308285D01*
X165312400Y-61451142D01*
X165240971Y-61594000D01*
X165169542Y-61665428D01*
X165026685Y-61736857D01*
X164526685Y-61736857D01*
X166669542Y-62522571D02*
X166669542Y-61736857D01*
X166598114Y-61594000D01*
X166455257Y-61522571D01*
X166169542Y-61522571D01*
X166026685Y-61594000D01*
X166669542Y-62451142D02*
X166526685Y-62522571D01*
X166169542Y-62522571D01*
X166026685Y-62451142D01*
X165955257Y-62308285D01*
X165955257Y-62165428D01*
X166026685Y-62022571D01*
X166169542Y-61951142D01*
X166526685Y-61951142D01*
X166669542Y-61879714D01*
X167312400Y-62451142D02*
X167455257Y-62522571D01*
X167740971Y-62522571D01*
X167883828Y-62451142D01*
X167955257Y-62308285D01*
X167955257Y-62236857D01*
X167883828Y-62094000D01*
X167740971Y-62022571D01*
X167526685Y-62022571D01*
X167383828Y-61951142D01*
X167312400Y-61808285D01*
X167312400Y-61736857D01*
X167383828Y-61594000D01*
X167526685Y-61522571D01*
X167740971Y-61522571D01*
X167883828Y-61594000D01*
X168383828Y-61522571D02*
X168955257Y-61522571D01*
X168598114Y-61022571D02*
X168598114Y-62308285D01*
X168669542Y-62451142D01*
X168812400Y-62522571D01*
X168955257Y-62522571D01*
X170098114Y-62522571D02*
X170098114Y-61736857D01*
X170026685Y-61594000D01*
X169883828Y-61522571D01*
X169598114Y-61522571D01*
X169455257Y-61594000D01*
X170098114Y-62451142D02*
X169955257Y-62522571D01*
X169598114Y-62522571D01*
X169455257Y-62451142D01*
X169383828Y-62308285D01*
X169383828Y-62165428D01*
X169455257Y-62022571D01*
X169598114Y-61951142D01*
X169955257Y-61951142D01*
X170098114Y-61879714D01*
X170812400Y-62522571D02*
X170812400Y-61522571D01*
X170812400Y-61808285D02*
X170883828Y-61665428D01*
X170955257Y-61594000D01*
X171098114Y-61522571D01*
X171240971Y-61522571D01*
X172383828Y-62522571D02*
X172383828Y-61022571D01*
X172383828Y-62451142D02*
X172240971Y-62522571D01*
X171955257Y-62522571D01*
X171812400Y-62451142D01*
X171740971Y-62379714D01*
X171669542Y-62236857D01*
X171669542Y-61808285D01*
X171740971Y-61665428D01*
X171812400Y-61594000D01*
X171955257Y-61522571D01*
X172240971Y-61522571D01*
X172383828Y-61594000D01*
X174098114Y-61522571D02*
X174455257Y-62522571D01*
X174812400Y-61522571D01*
X176169542Y-62522571D02*
X175312399Y-62522571D01*
X175740971Y-62522571D02*
X175740971Y-61022571D01*
X175598114Y-61236857D01*
X175455257Y-61379714D01*
X175312399Y-61451142D01*
X176812400Y-62379714D02*
X176883828Y-62451142D01*
X176812400Y-62522571D01*
X176740971Y-62451142D01*
X176812400Y-62379714D01*
X176812400Y-62522571D01*
X177812399Y-61022571D02*
X177955257Y-61022571D01*
X178098114Y-61094000D01*
X178169542Y-61165428D01*
X178240971Y-61308285D01*
X178312399Y-61594000D01*
X178312399Y-61951142D01*
X178240971Y-62236857D01*
X178169542Y-62379714D01*
X178098114Y-62451142D01*
X177955257Y-62522571D01*
X177812399Y-62522571D01*
X177669542Y-62451142D01*
X177598114Y-62379714D01*
X177526685Y-62236857D01*
X177455257Y-61951142D01*
X177455257Y-61594000D01*
X177526685Y-61308285D01*
X177598114Y-61165428D01*
X177669542Y-61094000D01*
X177812399Y-61022571D01*
X158062400Y-64644000D02*
X158776685Y-64644000D01*
X157919542Y-65072571D02*
X158419542Y-63572571D01*
X158919542Y-65072571D01*
X159419542Y-64501142D02*
X160562400Y-64501142D01*
X161133828Y-64072571D02*
X161419542Y-65072571D01*
X161705257Y-64358285D01*
X161990971Y-65072571D01*
X162276685Y-64072571D01*
X163490971Y-65072571D02*
X163490971Y-64286857D01*
X163419542Y-64144000D01*
X163276685Y-64072571D01*
X162990971Y-64072571D01*
X162848114Y-64144000D01*
X163490971Y-65001142D02*
X163348114Y-65072571D01*
X162990971Y-65072571D01*
X162848114Y-65001142D01*
X162776685Y-64858285D01*
X162776685Y-64715428D01*
X162848114Y-64572571D01*
X162990971Y-64501142D01*
X163348114Y-64501142D01*
X163490971Y-64429714D01*
X164205257Y-65072571D02*
X164205257Y-64072571D01*
X164205257Y-63572571D02*
X164133828Y-63644000D01*
X164205257Y-63715428D01*
X164276685Y-63644000D01*
X164205257Y-63572571D01*
X164205257Y-63715428D01*
X165990971Y-64644000D02*
X166705257Y-64644000D01*
X165848114Y-65072571D02*
X166348114Y-63572571D01*
X166848114Y-65072571D01*
X167348114Y-65072571D02*
X167348114Y-64072571D01*
X167348114Y-64215428D02*
X167419542Y-64144000D01*
X167562400Y-64072571D01*
X167776685Y-64072571D01*
X167919542Y-64144000D01*
X167990971Y-64286857D01*
X167990971Y-65072571D01*
X167990971Y-64286857D02*
X168062400Y-64144000D01*
X168205257Y-64072571D01*
X168419542Y-64072571D01*
X168562400Y-64144000D01*
X168633828Y-64286857D01*
X168633828Y-65072571D01*
X169348114Y-64072571D02*
X169348114Y-65572571D01*
X169348114Y-64144000D02*
X169490971Y-64072571D01*
X169776685Y-64072571D01*
X169919542Y-64144000D01*
X169990971Y-64215428D01*
X170062400Y-64358285D01*
X170062400Y-64786857D01*
X169990971Y-64929714D01*
X169919542Y-65001142D01*
X169776685Y-65072571D01*
X169490971Y-65072571D01*
X169348114Y-65001142D01*
X170919542Y-65072571D02*
X170776685Y-65001142D01*
X170705257Y-64858285D01*
X170705257Y-63572571D01*
X171490971Y-65072571D02*
X171490971Y-64072571D01*
X171490971Y-63572571D02*
X171419542Y-63644000D01*
X171490971Y-63715428D01*
X171562400Y-63644000D01*
X171490971Y-63572571D01*
X171490971Y-63715428D01*
X171990971Y-64072571D02*
X172562400Y-64072571D01*
X172205257Y-65072571D02*
X172205257Y-63786857D01*
X172276685Y-63644000D01*
X172419542Y-63572571D01*
X172562400Y-63572571D01*
X173062400Y-65072571D02*
X173062400Y-64072571D01*
X173062400Y-63572571D02*
X172990971Y-63644000D01*
X173062400Y-63715428D01*
X173133828Y-63644000D01*
X173062400Y-63572571D01*
X173062400Y-63715428D01*
X174419542Y-65001142D02*
X174276685Y-65072571D01*
X173990971Y-65072571D01*
X173848114Y-65001142D01*
X173776685Y-64929714D01*
X173705257Y-64786857D01*
X173705257Y-64358285D01*
X173776685Y-64215428D01*
X173848114Y-64144000D01*
X173990971Y-64072571D01*
X174276685Y-64072571D01*
X174419542Y-64144000D01*
X175705257Y-65072571D02*
X175705257Y-64286857D01*
X175633828Y-64144000D01*
X175490971Y-64072571D01*
X175205257Y-64072571D01*
X175062400Y-64144000D01*
X175705257Y-65001142D02*
X175562400Y-65072571D01*
X175205257Y-65072571D01*
X175062400Y-65001142D01*
X174990971Y-64858285D01*
X174990971Y-64715428D01*
X175062400Y-64572571D01*
X175205257Y-64501142D01*
X175562400Y-64501142D01*
X175705257Y-64429714D01*
X176205257Y-64072571D02*
X176776685Y-64072571D01*
X176419542Y-63572571D02*
X176419542Y-64858285D01*
X176490971Y-65001142D01*
X176633828Y-65072571D01*
X176776685Y-65072571D01*
X177276685Y-65072571D02*
X177276685Y-64072571D01*
X177276685Y-63572571D02*
X177205257Y-63644000D01*
X177276685Y-63715428D01*
X177348114Y-63644000D01*
X177276685Y-63572571D01*
X177276685Y-63715428D01*
X178205257Y-65072571D02*
X178062400Y-65001142D01*
X177990971Y-64929714D01*
X177919542Y-64786857D01*
X177919542Y-64358285D01*
X177990971Y-64215428D01*
X178062400Y-64144000D01*
X178205257Y-64072571D01*
X178419542Y-64072571D01*
X178562400Y-64144000D01*
X178633828Y-64215428D01*
X178705257Y-64358285D01*
X178705257Y-64786857D01*
X178633828Y-64929714D01*
X178562400Y-65001142D01*
X178419542Y-65072571D01*
X178205257Y-65072571D01*
X179348114Y-64072571D02*
X179348114Y-65072571D01*
X179348114Y-64215428D02*
X179419542Y-64144000D01*
X179562400Y-64072571D01*
X179776685Y-64072571D01*
X179919542Y-64144000D01*
X179990971Y-64286857D01*
X179990971Y-65072571D01*
D11*
X116908200Y-64207400D02*
X116908200Y-69447400D01*
X105668200Y-64207400D02*
X105668200Y-69447400D01*
X105668200Y-69447400D02*
X116908200Y-69447400D01*
X105668200Y-64207400D02*
X116908200Y-64207400D01*
X223780000Y-74510000D02*
G75*
G03X223780000Y-74510000I-12950000J0D01*
G01*
X150280000Y-74510000D02*
G75*
G03X150280000Y-74510000I-12950000J0D01*
G01*
X224441600Y-73098400D02*
X227881600Y-73098400D01*
X227881600Y-73098400D02*
X227881600Y-63858400D01*
X227881600Y-63858400D02*
X224441600Y-63858400D01*
X224441600Y-63858400D02*
X224441600Y-73098400D01*
X226161600Y-73788400D02*
X226161600Y-73098400D01*
X226161600Y-63168400D02*
X226161600Y-63858400D01*
X231546400Y-75896600D02*
X231546400Y-75206600D01*
X231546400Y-65276600D02*
X231546400Y-65966600D01*
X233266400Y-75206600D02*
X233266400Y-65966600D01*
X229826400Y-75206600D02*
X233266400Y-75206600D01*
X229826400Y-65966600D02*
X229826400Y-75206600D01*
X233266400Y-65966600D02*
X229826400Y-65966600D01*
X215847800Y-88468200D02*
X216537800Y-88468200D01*
X226467800Y-88468200D02*
X225777800Y-88468200D01*
X216537800Y-90188200D02*
X225777800Y-90188200D01*
X216537800Y-86748200D02*
X216537800Y-90188200D01*
X225777800Y-86748200D02*
X216537800Y-86748200D01*
X225777800Y-90188200D02*
X225777800Y-86748200D01*
X184631200Y-72999600D02*
X185321200Y-72999600D01*
X195251200Y-72999600D02*
X194561200Y-72999600D01*
X185321200Y-74719600D02*
X194561200Y-74719600D01*
X185321200Y-71279600D02*
X185321200Y-74719600D01*
X194561200Y-71279600D02*
X185321200Y-71279600D01*
X194561200Y-74719600D02*
X194561200Y-71279600D01*
X188288800Y-85217000D02*
X188978800Y-85217000D01*
X198908800Y-85217000D02*
X198218800Y-85217000D01*
X188978800Y-86937000D02*
X198218800Y-86937000D01*
X188978800Y-83497000D02*
X188978800Y-86937000D01*
X198218800Y-83497000D02*
X188978800Y-83497000D01*
X198218800Y-86937000D02*
X198218800Y-83497000D01*
X187581800Y-65056600D02*
X187581800Y-68496600D01*
X187581800Y-68496600D02*
X196821800Y-68496600D01*
X196821800Y-68496600D02*
X196821800Y-65056600D01*
X196821800Y-65056600D02*
X187581800Y-65056600D01*
X186891800Y-66776600D02*
X187581800Y-66776600D01*
X197511800Y-66776600D02*
X196821800Y-66776600D01*
X151992200Y-75793600D02*
X152682200Y-75793600D01*
X162612200Y-75793600D02*
X161922200Y-75793600D01*
X152682200Y-77513600D02*
X161922200Y-77513600D01*
X152682200Y-74073600D02*
X152682200Y-77513600D01*
X161922200Y-74073600D02*
X152682200Y-74073600D01*
X161922200Y-77513600D02*
X161922200Y-74073600D01*
X162612200Y-80010000D02*
X161922200Y-80010000D01*
X151992200Y-80010000D02*
X152682200Y-80010000D01*
X161922200Y-78290000D02*
X152682200Y-78290000D01*
X161922200Y-81730000D02*
X161922200Y-78290000D01*
X152682200Y-81730000D02*
X161922200Y-81730000D01*
X152682200Y-78290000D02*
X152682200Y-81730000D01*
X126692400Y-63873800D02*
X126692400Y-60433800D01*
X126692400Y-60433800D02*
X117452400Y-60433800D01*
X117452400Y-60433800D02*
X117452400Y-63873800D01*
X117452400Y-63873800D02*
X126692400Y-63873800D01*
X127382400Y-62153800D02*
X126692400Y-62153800D01*
X116762400Y-62153800D02*
X117452400Y-62153800D01*
X140109200Y-87078400D02*
X140109200Y-90518400D01*
X140109200Y-90518400D02*
X149349200Y-90518400D01*
X149349200Y-90518400D02*
X149349200Y-87078400D01*
X149349200Y-87078400D02*
X140109200Y-87078400D01*
X139419200Y-88798400D02*
X140109200Y-88798400D01*
X150039200Y-88798400D02*
X149349200Y-88798400D01*
X105758400Y-77853800D02*
X102318400Y-77853800D01*
X102318400Y-77853800D02*
X102318400Y-87093800D01*
X102318400Y-87093800D02*
X105758400Y-87093800D01*
X105758400Y-87093800D02*
X105758400Y-77853800D01*
X104038400Y-77163800D02*
X104038400Y-77853800D01*
X104038400Y-87783800D02*
X104038400Y-87093800D01*
X112342800Y-74904600D02*
X113032800Y-74904600D01*
X122962800Y-74904600D02*
X122272800Y-74904600D01*
X113032800Y-76624600D02*
X122272800Y-76624600D01*
X113032800Y-73184600D02*
X113032800Y-76624600D01*
X122272800Y-73184600D02*
X113032800Y-73184600D01*
X122272800Y-76624600D02*
X122272800Y-73184600D01*
X122247400Y-80409200D02*
X122247400Y-76969200D01*
X122247400Y-76969200D02*
X113007400Y-76969200D01*
X113007400Y-76969200D02*
X113007400Y-80409200D01*
X113007400Y-80409200D02*
X122247400Y-80409200D01*
X122937400Y-78689200D02*
X122247400Y-78689200D01*
X112317400Y-78689200D02*
X113007400Y-78689200D01*
X110518200Y-69298400D02*
X110518200Y-72738400D01*
X110518200Y-72738400D02*
X119758200Y-72738400D01*
X119758200Y-72738400D02*
X119758200Y-69298400D01*
X119758200Y-69298400D02*
X110518200Y-69298400D01*
X109828200Y-71018400D02*
X110518200Y-71018400D01*
X120448200Y-71018400D02*
X119758200Y-71018400D01*
X162612200Y-69037200D02*
X161922200Y-69037200D01*
X151992200Y-69037200D02*
X152682200Y-69037200D01*
X161922200Y-67317200D02*
X152682200Y-67317200D01*
X161922200Y-70757200D02*
X161922200Y-67317200D01*
X152682200Y-70757200D02*
X161922200Y-70757200D01*
X152682200Y-67317200D02*
X152682200Y-70757200D01*
X73032200Y-74393800D02*
X76472200Y-74393800D01*
X76472200Y-74393800D02*
X76472200Y-65153800D01*
X76472200Y-65153800D02*
X73032200Y-65153800D01*
X73032200Y-65153800D02*
X73032200Y-74393800D01*
X74752200Y-75083800D02*
X74752200Y-74393800D01*
X74752200Y-64463800D02*
X74752200Y-65153800D01*
X60471400Y-70035200D02*
X61971400Y-70035200D01*
X60471400Y-68295200D02*
X60471400Y-70035200D01*
X67091400Y-66711200D02*
X66997400Y-66804200D01*
X69341400Y-64460200D02*
X69282400Y-64519200D01*
X67261400Y-66951200D02*
X67202400Y-67009200D01*
X69546400Y-64666200D02*
X69452400Y-64759200D01*
X70831400Y-60675200D02*
X70831400Y-69795200D01*
X60711400Y-60675200D02*
X60711400Y-69795200D01*
X60711400Y-69795200D02*
X70831400Y-69795200D01*
X60711400Y-60675200D02*
X70831400Y-60675200D01*
X60711400Y-68235200D02*
X70831400Y-68235200D01*
X69171400Y-62735200D02*
G75*
G03X69171400Y-62735200I-900000J0D01*
G01*
X69951400Y-65735200D02*
G75*
G03X69951400Y-65735200I-1680000J0D01*
G01*
X64171400Y-62735200D02*
G75*
G03X64171400Y-62735200I-900000J0D01*
G01*
X63300783Y-67415650D02*
G75*
G02X62482400Y-67219200I-29383J1680450D01*
G01*
X61787447Y-66524288D02*
G75*
G02X61787400Y-64946200I1483953J789088D01*
G01*
X62482312Y-64251247D02*
G75*
G02X64060400Y-64251200I789088J-1483953D01*
G01*
X64755353Y-64946112D02*
G75*
G02X64755400Y-66524200I-1483953J-789088D01*
G01*
X64060112Y-67218552D02*
G75*
G02X63271400Y-67415200I-788712J1483352D01*
G01*
X233748400Y-76048400D02*
X233748400Y-68608400D01*
X238488400Y-76048400D02*
X238488400Y-68608400D01*
X233748400Y-76048400D02*
X238488400Y-76048400D01*
X233748400Y-68608400D02*
X238488400Y-68608400D01*
X186308200Y-78427400D02*
X193748200Y-78427400D01*
X186308200Y-83167400D02*
X193748200Y-83167400D01*
X186308200Y-78427400D02*
X186308200Y-83167400D01*
X193748200Y-78427400D02*
X193748200Y-83167400D01*
X117497400Y-80789600D02*
X117497400Y-85529600D01*
X110057400Y-80789600D02*
X110057400Y-85529600D01*
X110057400Y-85529600D02*
X117497400Y-85529600D01*
X110057400Y-80789600D02*
X117497400Y-80789600D01*
X184924200Y-67222000D02*
X184924200Y-71462000D01*
X171684200Y-67222000D02*
X171684200Y-71462000D01*
X171684200Y-71462000D02*
X184924200Y-71462000D01*
X171684200Y-67222000D02*
X184924200Y-67222000D01*
X106533200Y-86018000D02*
X119773200Y-86018000D01*
X106533200Y-90258000D02*
X119773200Y-90258000D01*
X106533200Y-86018000D02*
X106533200Y-90258000D01*
X119773200Y-86018000D02*
X119773200Y-90258000D01*
X82589000Y-81106400D02*
X101829000Y-81106400D01*
X82589000Y-87346400D02*
X101829000Y-87346400D01*
X82589000Y-81106400D02*
X82589000Y-87346400D01*
X101829000Y-81106400D02*
X101829000Y-87346400D01*
X185232800Y-80071600D02*
G75*
G03X185232800Y-80071600I-6620000J0D01*
G01*
X185192800Y-80071600D02*
X172032800Y-80071600D01*
X185192800Y-80111600D02*
X172032800Y-80111600D01*
X185192800Y-80151600D02*
X172032800Y-80151600D01*
X185191800Y-80191600D02*
X172033800Y-80191600D01*
X185191800Y-80231600D02*
X172033800Y-80231600D01*
X185189800Y-80271600D02*
X172035800Y-80271600D01*
X185188800Y-80311600D02*
X172036800Y-80311600D01*
X185187800Y-80351600D02*
X172037800Y-80351600D01*
X185185800Y-80391600D02*
X172039800Y-80391600D01*
X185183800Y-80431600D02*
X172041800Y-80431600D01*
X185180800Y-80471600D02*
X172044800Y-80471600D01*
X185178800Y-80511600D02*
X172046800Y-80511600D01*
X185175800Y-80551600D02*
X172049800Y-80551600D01*
X185172800Y-80591600D02*
X172052800Y-80591600D01*
X185169800Y-80631600D02*
X172055800Y-80631600D01*
X185165800Y-80671600D02*
X172059800Y-80671600D01*
X185161800Y-80711600D02*
X172063800Y-80711600D01*
X185157800Y-80751600D02*
X172067800Y-80751600D01*
X185153800Y-80792600D02*
X172071800Y-80792600D01*
X185149800Y-80832600D02*
X172075800Y-80832600D01*
X185144800Y-80872600D02*
X172080800Y-80872600D01*
X185139800Y-80912600D02*
X172085800Y-80912600D01*
X185134800Y-80952600D02*
X172090800Y-80952600D01*
X185128800Y-80992600D02*
X172096800Y-80992600D01*
X185123800Y-81032600D02*
X172101800Y-81032600D01*
X185117800Y-81072600D02*
X172107800Y-81072600D01*
X185110800Y-81112600D02*
X172114800Y-81112600D01*
X185104800Y-81152600D02*
X180052800Y-81152600D01*
X177172800Y-81152600D02*
X172120800Y-81152600D01*
X185097800Y-81192600D02*
X180052800Y-81192600D01*
X177172800Y-81192600D02*
X172127800Y-81192600D01*
X185090800Y-81232600D02*
X180052800Y-81232600D01*
X177172800Y-81232600D02*
X172134800Y-81232600D01*
X185083800Y-81272600D02*
X180052800Y-81272600D01*
X177172800Y-81272600D02*
X172141800Y-81272600D01*
X185075800Y-81312600D02*
X180052800Y-81312600D01*
X177172800Y-81312600D02*
X172149800Y-81312600D01*
X185068800Y-81352600D02*
X180052800Y-81352600D01*
X177172800Y-81352600D02*
X172156800Y-81352600D01*
X185060800Y-81392600D02*
X180052800Y-81392600D01*
X177172800Y-81392600D02*
X172164800Y-81392600D01*
X185051800Y-81432600D02*
X180052800Y-81432600D01*
X177172800Y-81432600D02*
X172173800Y-81432600D01*
X185043800Y-81472600D02*
X180052800Y-81472600D01*
X177172800Y-81472600D02*
X172181800Y-81472600D01*
X185034800Y-81512600D02*
X180052800Y-81512600D01*
X177172800Y-81512600D02*
X172190800Y-81512600D01*
X185025800Y-81552600D02*
X180052800Y-81552600D01*
X177172800Y-81552600D02*
X172199800Y-81552600D01*
X185016800Y-81592600D02*
X180052800Y-81592600D01*
X177172800Y-81592600D02*
X172208800Y-81592600D01*
X185006800Y-81632600D02*
X180052800Y-81632600D01*
X177172800Y-81632600D02*
X172218800Y-81632600D01*
X184996800Y-81672600D02*
X180052800Y-81672600D01*
X177172800Y-81672600D02*
X172228800Y-81672600D01*
X184986800Y-81712600D02*
X180052800Y-81712600D01*
X177172800Y-81712600D02*
X172238800Y-81712600D01*
X184976800Y-81752600D02*
X180052800Y-81752600D01*
X177172800Y-81752600D02*
X172248800Y-81752600D01*
X184965800Y-81792600D02*
X180052800Y-81792600D01*
X177172800Y-81792600D02*
X172259800Y-81792600D01*
X184954800Y-81832600D02*
X180052800Y-81832600D01*
X177172800Y-81832600D02*
X172270800Y-81832600D01*
X184943800Y-81872600D02*
X180052800Y-81872600D01*
X177172800Y-81872600D02*
X172281800Y-81872600D01*
X184932800Y-81912600D02*
X180052800Y-81912600D01*
X177172800Y-81912600D02*
X172292800Y-81912600D01*
X184920800Y-81952600D02*
X180052800Y-81952600D01*
X177172800Y-81952600D02*
X172304800Y-81952600D01*
X184908800Y-81992600D02*
X180052800Y-81992600D01*
X177172800Y-81992600D02*
X172316800Y-81992600D01*
X184896800Y-82032600D02*
X180052800Y-82032600D01*
X177172800Y-82032600D02*
X172328800Y-82032600D01*
X184883800Y-82072600D02*
X180052800Y-82072600D01*
X177172800Y-82072600D02*
X172341800Y-82072600D01*
X184870800Y-82112600D02*
X180052800Y-82112600D01*
X177172800Y-82112600D02*
X172354800Y-82112600D01*
X184857800Y-82152600D02*
X180052800Y-82152600D01*
X177172800Y-82152600D02*
X172367800Y-82152600D01*
X184844800Y-82192600D02*
X180052800Y-82192600D01*
X177172800Y-82192600D02*
X172380800Y-82192600D01*
X184830800Y-82232600D02*
X180052800Y-82232600D01*
X177172800Y-82232600D02*
X172394800Y-82232600D01*
X184816800Y-82272600D02*
X180052800Y-82272600D01*
X177172800Y-82272600D02*
X172408800Y-82272600D01*
X184802800Y-82312600D02*
X180052800Y-82312600D01*
X177172800Y-82312600D02*
X172422800Y-82312600D01*
X184787800Y-82352600D02*
X180052800Y-82352600D01*
X177172800Y-82352600D02*
X172437800Y-82352600D01*
X184773800Y-82392600D02*
X180052800Y-82392600D01*
X177172800Y-82392600D02*
X172451800Y-82392600D01*
X184758800Y-82432600D02*
X180052800Y-82432600D01*
X177172800Y-82432600D02*
X172466800Y-82432600D01*
X184742800Y-82472600D02*
X180052800Y-82472600D01*
X177172800Y-82472600D02*
X172482800Y-82472600D01*
X184726800Y-82512600D02*
X180052800Y-82512600D01*
X177172800Y-82512600D02*
X172498800Y-82512600D01*
X184710800Y-82552600D02*
X180052800Y-82552600D01*
X177172800Y-82552600D02*
X172514800Y-82552600D01*
X184694800Y-82592600D02*
X180052800Y-82592600D01*
X177172800Y-82592600D02*
X172530800Y-82592600D01*
X184677800Y-82632600D02*
X180052800Y-82632600D01*
X177172800Y-82632600D02*
X172547800Y-82632600D01*
X184661800Y-82672600D02*
X180052800Y-82672600D01*
X177172800Y-82672600D02*
X172563800Y-82672600D01*
X184643800Y-82712600D02*
X180052800Y-82712600D01*
X177172800Y-82712600D02*
X172581800Y-82712600D01*
X184626800Y-82752600D02*
X180052800Y-82752600D01*
X177172800Y-82752600D02*
X172598800Y-82752600D01*
X184608800Y-82792600D02*
X180052800Y-82792600D01*
X177172800Y-82792600D02*
X172616800Y-82792600D01*
X184590800Y-82832600D02*
X180052800Y-82832600D01*
X177172800Y-82832600D02*
X172634800Y-82832600D01*
X184571800Y-82872600D02*
X180052800Y-82872600D01*
X177172800Y-82872600D02*
X172653800Y-82872600D01*
X184552800Y-82912600D02*
X180052800Y-82912600D01*
X177172800Y-82912600D02*
X172672800Y-82912600D01*
X184533800Y-82952600D02*
X180052800Y-82952600D01*
X177172800Y-82952600D02*
X172691800Y-82952600D01*
X184514800Y-82992600D02*
X180052800Y-82992600D01*
X177172800Y-82992600D02*
X172710800Y-82992600D01*
X184494800Y-83032600D02*
X180052800Y-83032600D01*
X177172800Y-83032600D02*
X172730800Y-83032600D01*
X184474800Y-83072600D02*
X180052800Y-83072600D01*
X177172800Y-83072600D02*
X172750800Y-83072600D01*
X184453800Y-83112600D02*
X180052800Y-83112600D01*
X177172800Y-83112600D02*
X172771800Y-83112600D01*
X184432800Y-83152600D02*
X180052800Y-83152600D01*
X177172800Y-83152600D02*
X172792800Y-83152600D01*
X184411800Y-83192600D02*
X180052800Y-83192600D01*
X177172800Y-83192600D02*
X172813800Y-83192600D01*
X184390800Y-83232600D02*
X180052800Y-83232600D01*
X177172800Y-83232600D02*
X172834800Y-83232600D01*
X184368800Y-83272600D02*
X180052800Y-83272600D01*
X177172800Y-83272600D02*
X172856800Y-83272600D01*
X184345800Y-83312600D02*
X180052800Y-83312600D01*
X177172800Y-83312600D02*
X172879800Y-83312600D01*
X184323800Y-83352600D02*
X180052800Y-83352600D01*
X177172800Y-83352600D02*
X172901800Y-83352600D01*
X184300800Y-83392600D02*
X180052800Y-83392600D01*
X177172800Y-83392600D02*
X172924800Y-83392600D01*
X184276800Y-83432600D02*
X180052800Y-83432600D01*
X177172800Y-83432600D02*
X172948800Y-83432600D01*
X184253800Y-83472600D02*
X180052800Y-83472600D01*
X177172800Y-83472600D02*
X172971800Y-83472600D01*
X184229800Y-83512600D02*
X180052800Y-83512600D01*
X177172800Y-83512600D02*
X172995800Y-83512600D01*
X184204800Y-83552600D02*
X180052800Y-83552600D01*
X177172800Y-83552600D02*
X173020800Y-83552600D01*
X184179800Y-83592600D02*
X180052800Y-83592600D01*
X177172800Y-83592600D02*
X173045800Y-83592600D01*
X184154800Y-83632600D02*
X180052800Y-83632600D01*
X177172800Y-83632600D02*
X173070800Y-83632600D01*
X184128800Y-83672600D02*
X180052800Y-83672600D01*
X177172800Y-83672600D02*
X173096800Y-83672600D01*
X184102800Y-83712600D02*
X180052800Y-83712600D01*
X177172800Y-83712600D02*
X173122800Y-83712600D01*
X184075800Y-83752600D02*
X180052800Y-83752600D01*
X177172800Y-83752600D02*
X173149800Y-83752600D01*
X184048800Y-83792600D02*
X180052800Y-83792600D01*
X177172800Y-83792600D02*
X173176800Y-83792600D01*
X184021800Y-83832600D02*
X180052800Y-83832600D01*
X177172800Y-83832600D02*
X173203800Y-83832600D01*
X183993800Y-83872600D02*
X180052800Y-83872600D01*
X177172800Y-83872600D02*
X173231800Y-83872600D01*
X183965800Y-83912600D02*
X180052800Y-83912600D01*
X177172800Y-83912600D02*
X173259800Y-83912600D01*
X183936800Y-83952600D02*
X180052800Y-83952600D01*
X177172800Y-83952600D02*
X173288800Y-83952600D01*
X183907800Y-83992600D02*
X180052800Y-83992600D01*
X177172800Y-83992600D02*
X173317800Y-83992600D01*
X183877800Y-84032600D02*
X173347800Y-84032600D01*
X183847800Y-84072600D02*
X173377800Y-84072600D01*
X183817800Y-84112600D02*
X173407800Y-84112600D01*
X183786800Y-84152600D02*
X173438800Y-84152600D01*
X183754800Y-84192600D02*
X173470800Y-84192600D01*
X183722800Y-84232600D02*
X173502800Y-84232600D01*
X183690800Y-84272600D02*
X173534800Y-84272600D01*
X183656800Y-84312600D02*
X173568800Y-84312600D01*
X183623800Y-84352600D02*
X173601800Y-84352600D01*
X183589800Y-84392600D02*
X173635800Y-84392600D01*
X183554800Y-84432600D02*
X173670800Y-84432600D01*
X183519800Y-84472600D02*
X173705800Y-84472600D01*
X183483800Y-84512600D02*
X173741800Y-84512600D01*
X183446800Y-84552600D02*
X173778800Y-84552600D01*
X183409800Y-84592600D02*
X173815800Y-84592600D01*
X183372800Y-84632600D02*
X173852800Y-84632600D01*
X183333800Y-84672600D02*
X173891800Y-84672600D01*
X183294800Y-84712600D02*
X173930800Y-84712600D01*
X183255800Y-84752600D02*
X173969800Y-84752600D01*
X183214800Y-84792600D02*
X174010800Y-84792600D01*
X183173800Y-84832600D02*
X174051800Y-84832600D01*
X183131800Y-84872600D02*
X174093800Y-84872600D01*
X183089800Y-84912600D02*
X174135800Y-84912600D01*
X183046800Y-84952600D02*
X174178800Y-84952600D01*
X183002800Y-84992600D02*
X174222800Y-84992600D01*
X182957800Y-85032600D02*
X174267800Y-85032600D01*
X182911800Y-85072600D02*
X174313800Y-85072600D01*
X182865800Y-85112600D02*
X174359800Y-85112600D01*
X182817800Y-85152600D02*
X174407800Y-85152600D01*
X182769800Y-85192600D02*
X174455800Y-85192600D01*
X182720800Y-85232600D02*
X174504800Y-85232600D01*
X182669800Y-85272600D02*
X174555800Y-85272600D01*
X182618800Y-85312600D02*
X174606800Y-85312600D01*
X182566800Y-85352600D02*
X174658800Y-85352600D01*
X182512800Y-85392600D02*
X174712800Y-85392600D01*
X182458800Y-85432600D02*
X174766800Y-85432600D01*
X182402800Y-85472600D02*
X174822800Y-85472600D01*
X182345800Y-85512600D02*
X174879800Y-85512600D01*
X182287800Y-85552600D02*
X174937800Y-85552600D01*
X182227800Y-85592600D02*
X174997800Y-85592600D01*
X182166800Y-85632600D02*
X175058800Y-85632600D01*
X182103800Y-85672600D02*
X175121800Y-85672600D01*
X182039800Y-85712600D02*
X175185800Y-85712600D01*
X181973800Y-85752600D02*
X175251800Y-85752600D01*
X181905800Y-85792600D02*
X175319800Y-85792600D01*
X181835800Y-85832600D02*
X175389800Y-85832600D01*
X181764800Y-85872600D02*
X175460800Y-85872600D01*
X181690800Y-85912600D02*
X175534800Y-85912600D01*
X181614800Y-85952600D02*
X175610800Y-85952600D01*
X181535800Y-85992600D02*
X175689800Y-85992600D01*
X181454800Y-86032600D02*
X175770800Y-86032600D01*
X181370800Y-86072600D02*
X175854800Y-86072600D01*
X181282800Y-86112600D02*
X175942800Y-86112600D01*
X181191800Y-86152600D02*
X176033800Y-86152600D01*
X181096800Y-86192600D02*
X176128800Y-86192600D01*
X180997800Y-86232600D02*
X176227800Y-86232600D01*
X180893800Y-86272600D02*
X176331800Y-86272600D01*
X180783800Y-86312600D02*
X176441800Y-86312600D01*
X180667800Y-86352600D02*
X176557800Y-86352600D01*
X180543800Y-86392600D02*
X176681800Y-86392600D01*
X180410800Y-86432600D02*
X176814800Y-86432600D01*
X180265800Y-86472600D02*
X176959800Y-86472600D01*
X180106800Y-86512600D02*
X177118800Y-86512600D01*
X179927800Y-86552600D02*
X177297800Y-86552600D01*
X179719800Y-86592600D02*
X177505800Y-86592600D01*
X179462800Y-86632600D02*
X177762800Y-86632600D01*
X179087800Y-86672600D02*
X178137800Y-86672600D01*
X182327800Y-72987031D02*
X182327800Y-74287031D01*
X182977800Y-73637031D02*
X181677800Y-73637031D01*
X101211000Y-68697800D02*
G75*
G03X101211000Y-68697800I-8120000J0D01*
G01*
X101172000Y-68697800D02*
X85010000Y-68697800D01*
X101171000Y-68737800D02*
X85011000Y-68737800D01*
X101171000Y-68777800D02*
X85011000Y-68777800D01*
X101171000Y-68817800D02*
X85011000Y-68817800D01*
X101170000Y-68857800D02*
X85012000Y-68857800D01*
X101169000Y-68897800D02*
X85013000Y-68897800D01*
X101168000Y-68937800D02*
X85014000Y-68937800D01*
X101167000Y-68977800D02*
X85015000Y-68977800D01*
X101165000Y-69017800D02*
X85017000Y-69017800D01*
X101164000Y-69057800D02*
X85018000Y-69057800D01*
X101162000Y-69097800D02*
X85020000Y-69097800D01*
X101160000Y-69137800D02*
X85022000Y-69137800D01*
X101157000Y-69177800D02*
X85025000Y-69177800D01*
X101155000Y-69217800D02*
X85027000Y-69217800D01*
X101152000Y-69257800D02*
X85030000Y-69257800D01*
X101149000Y-69297800D02*
X85033000Y-69297800D01*
X101146000Y-69337800D02*
X85036000Y-69337800D01*
X101143000Y-69377800D02*
X85039000Y-69377800D01*
X101140000Y-69418800D02*
X85042000Y-69418800D01*
X101136000Y-69458800D02*
X85046000Y-69458800D01*
X101132000Y-69498800D02*
X85050000Y-69498800D01*
X101128000Y-69538800D02*
X85054000Y-69538800D01*
X101124000Y-69578800D02*
X85058000Y-69578800D01*
X101119000Y-69618800D02*
X85063000Y-69618800D01*
X101115000Y-69658800D02*
X85067000Y-69658800D01*
X101110000Y-69698800D02*
X85072000Y-69698800D01*
X101105000Y-69738800D02*
X85077000Y-69738800D01*
X101099000Y-69778800D02*
X85083000Y-69778800D01*
X101094000Y-69818800D02*
X85088000Y-69818800D01*
X101088000Y-69858800D02*
X85094000Y-69858800D01*
X101082000Y-69898800D02*
X85100000Y-69898800D01*
X101076000Y-69938800D02*
X85106000Y-69938800D01*
X101070000Y-69978800D02*
X85112000Y-69978800D01*
X101063000Y-70018800D02*
X85119000Y-70018800D01*
X101057000Y-70058800D02*
X85125000Y-70058800D01*
X101050000Y-70098800D02*
X85132000Y-70098800D01*
X101043000Y-70138800D02*
X85139000Y-70138800D01*
X101035000Y-70178800D02*
X85147000Y-70178800D01*
X101028000Y-70218800D02*
X85154000Y-70218800D01*
X101020000Y-70258800D02*
X85162000Y-70258800D01*
X101012000Y-70298800D02*
X85170000Y-70298800D01*
X101004000Y-70338800D02*
X85178000Y-70338800D01*
X100996000Y-70378800D02*
X85186000Y-70378800D01*
X100987000Y-70418800D02*
X85195000Y-70418800D01*
X100978000Y-70458800D02*
X85204000Y-70458800D01*
X100969000Y-70498800D02*
X85213000Y-70498800D01*
X100960000Y-70538800D02*
X85222000Y-70538800D01*
X100951000Y-70578800D02*
X85231000Y-70578800D01*
X100941000Y-70618800D02*
X85241000Y-70618800D01*
X100931000Y-70658800D02*
X85251000Y-70658800D01*
X100921000Y-70698800D02*
X85261000Y-70698800D01*
X100911000Y-70738800D02*
X85271000Y-70738800D01*
X100901000Y-70778800D02*
X85281000Y-70778800D01*
X100890000Y-70818800D02*
X85292000Y-70818800D01*
X100879000Y-70858800D02*
X85303000Y-70858800D01*
X100868000Y-70898800D02*
X85314000Y-70898800D01*
X100856000Y-70938800D02*
X85326000Y-70938800D01*
X100845000Y-70978800D02*
X85337000Y-70978800D01*
X100833000Y-71018800D02*
X94531000Y-71018800D01*
X91651000Y-71018800D02*
X85349000Y-71018800D01*
X100821000Y-71058800D02*
X94531000Y-71058800D01*
X91651000Y-71058800D02*
X85361000Y-71058800D01*
X100809000Y-71098800D02*
X94531000Y-71098800D01*
X91651000Y-71098800D02*
X85373000Y-71098800D01*
X100796000Y-71138800D02*
X94531000Y-71138800D01*
X91651000Y-71138800D02*
X85386000Y-71138800D01*
X100784000Y-71178800D02*
X94531000Y-71178800D01*
X91651000Y-71178800D02*
X85398000Y-71178800D01*
X100771000Y-71218800D02*
X94531000Y-71218800D01*
X91651000Y-71218800D02*
X85411000Y-71218800D01*
X100757000Y-71258800D02*
X94531000Y-71258800D01*
X91651000Y-71258800D02*
X85425000Y-71258800D01*
X100744000Y-71298800D02*
X94531000Y-71298800D01*
X91651000Y-71298800D02*
X85438000Y-71298800D01*
X100730000Y-71338800D02*
X94531000Y-71338800D01*
X91651000Y-71338800D02*
X85452000Y-71338800D01*
X100716000Y-71378800D02*
X94531000Y-71378800D01*
X91651000Y-71378800D02*
X85466000Y-71378800D01*
X100702000Y-71418800D02*
X94531000Y-71418800D01*
X91651000Y-71418800D02*
X85480000Y-71418800D01*
X100688000Y-71458800D02*
X94531000Y-71458800D01*
X91651000Y-71458800D02*
X85494000Y-71458800D01*
X100673000Y-71498800D02*
X94531000Y-71498800D01*
X91651000Y-71498800D02*
X85509000Y-71498800D01*
X100659000Y-71538800D02*
X94531000Y-71538800D01*
X91651000Y-71538800D02*
X85523000Y-71538800D01*
X100644000Y-71578800D02*
X94531000Y-71578800D01*
X91651000Y-71578800D02*
X85538000Y-71578800D01*
X100628000Y-71618800D02*
X94531000Y-71618800D01*
X91651000Y-71618800D02*
X85554000Y-71618800D01*
X100613000Y-71658800D02*
X94531000Y-71658800D01*
X91651000Y-71658800D02*
X85569000Y-71658800D01*
X100597000Y-71698800D02*
X94531000Y-71698800D01*
X91651000Y-71698800D02*
X85585000Y-71698800D01*
X100581000Y-71738800D02*
X94531000Y-71738800D01*
X91651000Y-71738800D02*
X85601000Y-71738800D01*
X100565000Y-71778800D02*
X94531000Y-71778800D01*
X91651000Y-71778800D02*
X85617000Y-71778800D01*
X100548000Y-71818800D02*
X94531000Y-71818800D01*
X91651000Y-71818800D02*
X85634000Y-71818800D01*
X100531000Y-71858800D02*
X94531000Y-71858800D01*
X91651000Y-71858800D02*
X85651000Y-71858800D01*
X100514000Y-71898800D02*
X94531000Y-71898800D01*
X91651000Y-71898800D02*
X85668000Y-71898800D01*
X100497000Y-71938800D02*
X94531000Y-71938800D01*
X91651000Y-71938800D02*
X85685000Y-71938800D01*
X100480000Y-71978800D02*
X94531000Y-71978800D01*
X91651000Y-71978800D02*
X85702000Y-71978800D01*
X100462000Y-72018800D02*
X94531000Y-72018800D01*
X91651000Y-72018800D02*
X85720000Y-72018800D01*
X100444000Y-72058800D02*
X94531000Y-72058800D01*
X91651000Y-72058800D02*
X85738000Y-72058800D01*
X100425000Y-72098800D02*
X94531000Y-72098800D01*
X91651000Y-72098800D02*
X85757000Y-72098800D01*
X100407000Y-72138800D02*
X94531000Y-72138800D01*
X91651000Y-72138800D02*
X85775000Y-72138800D01*
X100388000Y-72178800D02*
X94531000Y-72178800D01*
X91651000Y-72178800D02*
X85794000Y-72178800D01*
X100369000Y-72218800D02*
X94531000Y-72218800D01*
X91651000Y-72218800D02*
X85813000Y-72218800D01*
X100349000Y-72258800D02*
X94531000Y-72258800D01*
X91651000Y-72258800D02*
X85833000Y-72258800D01*
X100330000Y-72298800D02*
X94531000Y-72298800D01*
X91651000Y-72298800D02*
X85852000Y-72298800D01*
X100310000Y-72338800D02*
X94531000Y-72338800D01*
X91651000Y-72338800D02*
X85872000Y-72338800D01*
X100290000Y-72378800D02*
X94531000Y-72378800D01*
X91651000Y-72378800D02*
X85892000Y-72378800D01*
X100269000Y-72418800D02*
X94531000Y-72418800D01*
X91651000Y-72418800D02*
X85913000Y-72418800D01*
X100248000Y-72458800D02*
X94531000Y-72458800D01*
X91651000Y-72458800D02*
X85934000Y-72458800D01*
X100227000Y-72498800D02*
X94531000Y-72498800D01*
X91651000Y-72498800D02*
X85955000Y-72498800D01*
X100206000Y-72538800D02*
X94531000Y-72538800D01*
X91651000Y-72538800D02*
X85976000Y-72538800D01*
X100185000Y-72578800D02*
X94531000Y-72578800D01*
X91651000Y-72578800D02*
X85997000Y-72578800D01*
X100163000Y-72618800D02*
X94531000Y-72618800D01*
X91651000Y-72618800D02*
X86019000Y-72618800D01*
X100140000Y-72658800D02*
X94531000Y-72658800D01*
X91651000Y-72658800D02*
X86042000Y-72658800D01*
X100118000Y-72698800D02*
X94531000Y-72698800D01*
X91651000Y-72698800D02*
X86064000Y-72698800D01*
X100095000Y-72738800D02*
X94531000Y-72738800D01*
X91651000Y-72738800D02*
X86087000Y-72738800D01*
X100072000Y-72778800D02*
X94531000Y-72778800D01*
X91651000Y-72778800D02*
X86110000Y-72778800D01*
X100049000Y-72818800D02*
X94531000Y-72818800D01*
X91651000Y-72818800D02*
X86133000Y-72818800D01*
X100025000Y-72858800D02*
X94531000Y-72858800D01*
X91651000Y-72858800D02*
X86157000Y-72858800D01*
X100001000Y-72898800D02*
X94531000Y-72898800D01*
X91651000Y-72898800D02*
X86181000Y-72898800D01*
X99977000Y-72938800D02*
X94531000Y-72938800D01*
X91651000Y-72938800D02*
X86205000Y-72938800D01*
X99952000Y-72978800D02*
X94531000Y-72978800D01*
X91651000Y-72978800D02*
X86230000Y-72978800D01*
X99927000Y-73018800D02*
X94531000Y-73018800D01*
X91651000Y-73018800D02*
X86255000Y-73018800D01*
X99902000Y-73058800D02*
X94531000Y-73058800D01*
X91651000Y-73058800D02*
X86280000Y-73058800D01*
X99876000Y-73098800D02*
X94531000Y-73098800D01*
X91651000Y-73098800D02*
X86306000Y-73098800D01*
X99850000Y-73138800D02*
X94531000Y-73138800D01*
X91651000Y-73138800D02*
X86332000Y-73138800D01*
X99824000Y-73178800D02*
X94531000Y-73178800D01*
X91651000Y-73178800D02*
X86358000Y-73178800D01*
X99797000Y-73218800D02*
X94531000Y-73218800D01*
X91651000Y-73218800D02*
X86385000Y-73218800D01*
X99770000Y-73258800D02*
X94531000Y-73258800D01*
X91651000Y-73258800D02*
X86412000Y-73258800D01*
X99743000Y-73298800D02*
X94531000Y-73298800D01*
X91651000Y-73298800D02*
X86439000Y-73298800D01*
X99715000Y-73338800D02*
X94531000Y-73338800D01*
X91651000Y-73338800D02*
X86467000Y-73338800D01*
X99687000Y-73378800D02*
X94531000Y-73378800D01*
X91651000Y-73378800D02*
X86495000Y-73378800D01*
X99659000Y-73418800D02*
X94531000Y-73418800D01*
X91651000Y-73418800D02*
X86523000Y-73418800D01*
X99630000Y-73458800D02*
X94531000Y-73458800D01*
X91651000Y-73458800D02*
X86552000Y-73458800D01*
X99601000Y-73498800D02*
X94531000Y-73498800D01*
X91651000Y-73498800D02*
X86581000Y-73498800D01*
X99571000Y-73538800D02*
X94531000Y-73538800D01*
X91651000Y-73538800D02*
X86611000Y-73538800D01*
X99541000Y-73578800D02*
X94531000Y-73578800D01*
X91651000Y-73578800D02*
X86641000Y-73578800D01*
X99511000Y-73618800D02*
X94531000Y-73618800D01*
X91651000Y-73618800D02*
X86671000Y-73618800D01*
X99481000Y-73658800D02*
X94531000Y-73658800D01*
X91651000Y-73658800D02*
X86701000Y-73658800D01*
X99449000Y-73698800D02*
X94531000Y-73698800D01*
X91651000Y-73698800D02*
X86733000Y-73698800D01*
X99418000Y-73738800D02*
X94531000Y-73738800D01*
X91651000Y-73738800D02*
X86764000Y-73738800D01*
X99386000Y-73778800D02*
X94531000Y-73778800D01*
X91651000Y-73778800D02*
X86796000Y-73778800D01*
X99354000Y-73818800D02*
X94531000Y-73818800D01*
X91651000Y-73818800D02*
X86828000Y-73818800D01*
X99321000Y-73858800D02*
X94531000Y-73858800D01*
X91651000Y-73858800D02*
X86861000Y-73858800D01*
X99288000Y-73898800D02*
X86894000Y-73898800D01*
X99254000Y-73938800D02*
X86928000Y-73938800D01*
X99220000Y-73978800D02*
X86962000Y-73978800D01*
X99186000Y-74018800D02*
X86996000Y-74018800D01*
X99151000Y-74058800D02*
X87031000Y-74058800D01*
X99116000Y-74098800D02*
X87066000Y-74098800D01*
X99080000Y-74138800D02*
X87102000Y-74138800D01*
X99043000Y-74178800D02*
X87139000Y-74178800D01*
X99007000Y-74218800D02*
X87175000Y-74218800D01*
X98969000Y-74258800D02*
X87213000Y-74258800D01*
X98931000Y-74298800D02*
X87251000Y-74298800D01*
X98893000Y-74338800D02*
X87289000Y-74338800D01*
X98854000Y-74378800D02*
X87328000Y-74378800D01*
X98815000Y-74418800D02*
X87367000Y-74418800D01*
X98775000Y-74458800D02*
X87407000Y-74458800D01*
X98734000Y-74498800D02*
X87448000Y-74498800D01*
X98693000Y-74538800D02*
X87489000Y-74538800D01*
X98651000Y-74578800D02*
X87531000Y-74578800D01*
X98609000Y-74618800D02*
X87573000Y-74618800D01*
X98566000Y-74658800D02*
X87616000Y-74658800D01*
X98523000Y-74698800D02*
X87659000Y-74698800D01*
X98479000Y-74738800D02*
X87703000Y-74738800D01*
X98434000Y-74778800D02*
X87748000Y-74778800D01*
X98388000Y-74818800D02*
X87794000Y-74818800D01*
X98342000Y-74858800D02*
X87840000Y-74858800D01*
X98295000Y-74898800D02*
X87887000Y-74898800D01*
X98247000Y-74938800D02*
X87935000Y-74938800D01*
X98199000Y-74978800D02*
X87983000Y-74978800D01*
X98150000Y-75018800D02*
X88032000Y-75018800D01*
X98100000Y-75058800D02*
X88082000Y-75058800D01*
X98049000Y-75098800D02*
X88133000Y-75098800D01*
X97997000Y-75138800D02*
X88185000Y-75138800D01*
X97945000Y-75178800D02*
X88237000Y-75178800D01*
X97891000Y-75218800D02*
X88291000Y-75218800D01*
X97837000Y-75258800D02*
X88345000Y-75258800D01*
X97782000Y-75298800D02*
X88400000Y-75298800D01*
X97725000Y-75338800D02*
X88457000Y-75338800D01*
X97668000Y-75378800D02*
X88514000Y-75378800D01*
X97610000Y-75418800D02*
X88572000Y-75418800D01*
X97550000Y-75458800D02*
X88632000Y-75458800D01*
X97489000Y-75498800D02*
X88693000Y-75498800D01*
X97427000Y-75538800D02*
X88755000Y-75538800D01*
X97364000Y-75578800D02*
X88818000Y-75578800D01*
X97300000Y-75618800D02*
X88882000Y-75618800D01*
X97234000Y-75658800D02*
X88948000Y-75658800D01*
X97167000Y-75698800D02*
X89015000Y-75698800D01*
X97098000Y-75738800D02*
X89084000Y-75738800D01*
X97027000Y-75778800D02*
X89155000Y-75778800D01*
X96955000Y-75818800D02*
X89227000Y-75818800D01*
X96881000Y-75858800D02*
X89301000Y-75858800D01*
X96806000Y-75898800D02*
X89376000Y-75898800D01*
X96728000Y-75938800D02*
X89454000Y-75938800D01*
X96648000Y-75978800D02*
X89534000Y-75978800D01*
X96566000Y-76018800D02*
X89616000Y-76018800D01*
X96481000Y-76058800D02*
X89701000Y-76058800D01*
X96394000Y-76098800D02*
X89788000Y-76098800D01*
X96304000Y-76138800D02*
X89878000Y-76138800D01*
X96211000Y-76178800D02*
X89971000Y-76178800D01*
X96115000Y-76218800D02*
X90067000Y-76218800D01*
X96015000Y-76258800D02*
X90167000Y-76258800D01*
X95911000Y-76298800D02*
X90271000Y-76298800D01*
X95802000Y-76338800D02*
X90380000Y-76338800D01*
X95688000Y-76378800D02*
X90494000Y-76378800D01*
X95569000Y-76418800D02*
X90613000Y-76418800D01*
X95442000Y-76458800D02*
X90740000Y-76458800D01*
X95309000Y-76498800D02*
X90873000Y-76498800D01*
X95165000Y-76538800D02*
X91017000Y-76538800D01*
X95011000Y-76578800D02*
X91171000Y-76578800D01*
X94843000Y-76618800D02*
X91339000Y-76618800D01*
X94655000Y-76658800D02*
X91527000Y-76658800D01*
X94442000Y-76698800D02*
X91740000Y-76698800D01*
X94189000Y-76738800D02*
X91993000Y-76738800D01*
X93856000Y-76778800D02*
X92326000Y-76778800D01*
X97646000Y-60008309D02*
X97646000Y-61608309D01*
X98446000Y-60808309D02*
X96846000Y-60808309D01*
X165028000Y-69036800D02*
X171268000Y-69036800D01*
X165028000Y-88276800D02*
X171268000Y-88276800D01*
X171268000Y-88276800D02*
X171268000Y-69036800D01*
X165028000Y-88276800D02*
X165028000Y-69036800D01*
X78236200Y-81317200D02*
X78236200Y-62077200D01*
X84476200Y-81317200D02*
X84476200Y-62077200D01*
X78236200Y-81317200D02*
X84476200Y-81317200D01*
X78236200Y-62077200D02*
X84476200Y-62077200D01*
D12*
G36*
X66347110Y-72375548D02*
G01*
X66425654Y-72375978D01*
X66482498Y-72377142D01*
X66521305Y-72379407D01*
X66545738Y-72383140D01*
X66559462Y-72388706D01*
X66566140Y-72396473D01*
X66569436Y-72406805D01*
X66569756Y-72408143D01*
X66574762Y-72432279D01*
X66584029Y-72479901D01*
X66596592Y-72545941D01*
X66611487Y-72625328D01*
X66627751Y-72712996D01*
X66628319Y-72716075D01*
X66644610Y-72801989D01*
X66659852Y-72877896D01*
X66673061Y-72939245D01*
X66683254Y-72981482D01*
X66689448Y-73000055D01*
X66689743Y-73000384D01*
X66707988Y-73009453D01*
X66745605Y-73024567D01*
X66794471Y-73042462D01*
X66794743Y-73042558D01*
X66856293Y-73065693D01*
X66928857Y-73095165D01*
X66997257Y-73124797D01*
X67000494Y-73126262D01*
X67111902Y-73176826D01*
X67358599Y-73008360D01*
X67434277Y-72957003D01*
X67502831Y-72911089D01*
X67560288Y-72873230D01*
X67602676Y-72846037D01*
X67626025Y-72832121D01*
X67628242Y-72831089D01*
X67645210Y-72835684D01*
X67676901Y-72857855D01*
X67724552Y-72898647D01*
X67789398Y-72959105D01*
X67855597Y-73023427D01*
X67919414Y-73086812D01*
X67976529Y-73144651D01*
X68023505Y-73193375D01*
X68056903Y-73229410D01*
X68073285Y-73249184D01*
X68073894Y-73250202D01*
X68075705Y-73263772D01*
X68068883Y-73285933D01*
X68051740Y-73319678D01*
X68022593Y-73368000D01*
X67979755Y-73433892D01*
X67922648Y-73518717D01*
X67871966Y-73593377D01*
X67826661Y-73660340D01*
X67789350Y-73715716D01*
X67762652Y-73755620D01*
X67749185Y-73776162D01*
X67748337Y-73777556D01*
X67749981Y-73797238D01*
X67762445Y-73835493D01*
X67783248Y-73885089D01*
X67790662Y-73900928D01*
X67823014Y-73971490D01*
X67857528Y-74051553D01*
X67885565Y-74120829D01*
X67905768Y-74172245D01*
X67921815Y-74211319D01*
X67931088Y-74231741D01*
X67932241Y-74233314D01*
X67949296Y-74235921D01*
X67989498Y-74243063D01*
X68047502Y-74253723D01*
X68117963Y-74266885D01*
X68195535Y-74281533D01*
X68274872Y-74296649D01*
X68350631Y-74311218D01*
X68417464Y-74324222D01*
X68470028Y-74334645D01*
X68502976Y-74341470D01*
X68511057Y-74343399D01*
X68519405Y-74348162D01*
X68525706Y-74358918D01*
X68530245Y-74379298D01*
X68533304Y-74412934D01*
X68535167Y-74463455D01*
X68536118Y-74534492D01*
X68536440Y-74629676D01*
X68536457Y-74668692D01*
X68536457Y-74985999D01*
X68460257Y-75001039D01*
X68417863Y-75009195D01*
X68354600Y-75021099D01*
X68278162Y-75035316D01*
X68196243Y-75050410D01*
X68173600Y-75054555D01*
X68098006Y-75069253D01*
X68032153Y-75083705D01*
X67981566Y-75096575D01*
X67951774Y-75106522D01*
X67946812Y-75109487D01*
X67934626Y-75130483D01*
X67917153Y-75171167D01*
X67897777Y-75223522D01*
X67893934Y-75234800D01*
X67868539Y-75304723D01*
X67837017Y-75383618D01*
X67806169Y-75454466D01*
X67806017Y-75454795D01*
X67754647Y-75565933D01*
X67923599Y-75814453D01*
X68092552Y-76062972D01*
X67875629Y-76280258D01*
X67810019Y-76344926D01*
X67750179Y-76401933D01*
X67699467Y-76448233D01*
X67661246Y-76480784D01*
X67638875Y-76496543D01*
X67635666Y-76497543D01*
X67616826Y-76489669D01*
X67578380Y-76467778D01*
X67524530Y-76434467D01*
X67459476Y-76392331D01*
X67389140Y-76345143D01*
X67317755Y-76297010D01*
X67254108Y-76255128D01*
X67202241Y-76222071D01*
X67166195Y-76200418D01*
X67150067Y-76192743D01*
X67130389Y-76199237D01*
X67093075Y-76216350D01*
X67045821Y-76240526D01*
X67040812Y-76243213D01*
X66977177Y-76275127D01*
X66933541Y-76290779D01*
X66906402Y-76290945D01*
X66892257Y-76276404D01*
X66892175Y-76276200D01*
X66885105Y-76258979D01*
X66868242Y-76218099D01*
X66842895Y-76156725D01*
X66810371Y-76078019D01*
X66771978Y-75985147D01*
X66729022Y-75881272D01*
X66687422Y-75780702D01*
X66641704Y-75669716D01*
X66599726Y-75566903D01*
X66562748Y-75475415D01*
X66532027Y-75398401D01*
X66508822Y-75339015D01*
X66494390Y-75300409D01*
X66489943Y-75286000D01*
X66501096Y-75269472D01*
X66530269Y-75243130D01*
X66569171Y-75214087D01*
X66679957Y-75122239D01*
X66766551Y-75016959D01*
X66827916Y-74900466D01*
X66863015Y-74774976D01*
X66870808Y-74642707D01*
X66865143Y-74581657D01*
X66834278Y-74454995D01*
X66781120Y-74343141D01*
X66708967Y-74247201D01*
X66621117Y-74168276D01*
X66520865Y-74107470D01*
X66411510Y-74065887D01*
X66296347Y-74044628D01*
X66178675Y-74044799D01*
X66061790Y-74067501D01*
X65948989Y-74113838D01*
X65843569Y-74184913D01*
X65799568Y-74225111D01*
X65715179Y-74328329D01*
X65656422Y-74441125D01*
X65622904Y-74560210D01*
X65614235Y-74682295D01*
X65630023Y-74804093D01*
X65669878Y-74922316D01*
X65733407Y-75033675D01*
X65820221Y-75134884D01*
X65917229Y-75214087D01*
X65957637Y-75244362D01*
X65986182Y-75270419D01*
X65996457Y-75286025D01*
X65991077Y-75303043D01*
X65975775Y-75343700D01*
X65951812Y-75404842D01*
X65920444Y-75483319D01*
X65882932Y-75575980D01*
X65840533Y-75679672D01*
X65798863Y-75780726D01*
X65752890Y-75891807D01*
X65710307Y-75994741D01*
X65672421Y-76086365D01*
X65640540Y-76163516D01*
X65615971Y-76223031D01*
X65600020Y-76261744D01*
X65594110Y-76276200D01*
X65580148Y-76290885D01*
X65553140Y-76290842D01*
X65509613Y-76275299D01*
X65446090Y-76243484D01*
X65445588Y-76243213D01*
X65397760Y-76218523D01*
X65359097Y-76200538D01*
X65337295Y-76192814D01*
X65336333Y-76192743D01*
X65319921Y-76200578D01*
X65283687Y-76222365D01*
X65231674Y-76255528D01*
X65167925Y-76297491D01*
X65097260Y-76345143D01*
X65025316Y-76393391D01*
X64960474Y-76435351D01*
X64906935Y-76468427D01*
X64868897Y-76490021D01*
X64850733Y-76497543D01*
X64834008Y-76487657D01*
X64800380Y-76460026D01*
X64753210Y-76417695D01*
X64695858Y-76363705D01*
X64631684Y-76301099D01*
X64610697Y-76280183D01*
X64393699Y-76062823D01*
X64558868Y-75820420D01*
X64609064Y-75745981D01*
X64653119Y-75679172D01*
X64688562Y-75623865D01*
X64712919Y-75583929D01*
X64723722Y-75563236D01*
X64724038Y-75561763D01*
X64718343Y-75542258D01*
X64703026Y-75503022D01*
X64680737Y-75450630D01*
X64665093Y-75415555D01*
X64635841Y-75348401D01*
X64608294Y-75280558D01*
X64586937Y-75223234D01*
X64581135Y-75205772D01*
X64564652Y-75159138D01*
X64548540Y-75123105D01*
X64539690Y-75109487D01*
X64520160Y-75101152D01*
X64477534Y-75089337D01*
X64417345Y-75075381D01*
X64345122Y-75060622D01*
X64312800Y-75054555D01*
X64230722Y-75039473D01*
X64151995Y-75024869D01*
X64084309Y-75012180D01*
X64035360Y-75002842D01*
X64026143Y-75001039D01*
X63949943Y-74985999D01*
X63949943Y-74668692D01*
X63950114Y-74564354D01*
X63950816Y-74485413D01*
X63952334Y-74428238D01*
X63954949Y-74389199D01*
X63958946Y-74364665D01*
X63964609Y-74351005D01*
X63972220Y-74344589D01*
X63975343Y-74343399D01*
X63994178Y-74339180D01*
X64035788Y-74330762D01*
X64094830Y-74319161D01*
X64165957Y-74305395D01*
X64243825Y-74290480D01*
X64323087Y-74275432D01*
X64398398Y-74261269D01*
X64464413Y-74249006D01*
X64515787Y-74239661D01*
X64547175Y-74234250D01*
X64554159Y-74233314D01*
X64560485Y-74220796D01*
X64574490Y-74187446D01*
X64593555Y-74139577D01*
X64600834Y-74120829D01*
X64630196Y-74048395D01*
X64664771Y-73968370D01*
X64695737Y-73900928D01*
X64718523Y-73849359D01*
X64733682Y-73806985D01*
X64738742Y-73781034D01*
X64737936Y-73777556D01*
X64727241Y-73761136D01*
X64702820Y-73724617D01*
X64667295Y-73671887D01*
X64623287Y-73606835D01*
X64573417Y-73533351D01*
X64563556Y-73518845D01*
X64505692Y-73432904D01*
X64463156Y-73367461D01*
X64434254Y-73319504D01*
X64417290Y-73286020D01*
X64410567Y-73263995D01*
X64412390Y-73250417D01*
X64412436Y-73250331D01*
X64426786Y-73232497D01*
X64458523Y-73198017D01*
X64504210Y-73150468D01*
X64560404Y-73093422D01*
X64623668Y-73030455D01*
X64630802Y-73023427D01*
X64710530Y-72946220D01*
X64772057Y-72889530D01*
X64816621Y-72852310D01*
X64845457Y-72833515D01*
X64858158Y-72831089D01*
X64876694Y-72841671D01*
X64915161Y-72866116D01*
X64969586Y-72901812D01*
X65035998Y-72946147D01*
X65110425Y-72996511D01*
X65127801Y-73008360D01*
X65374497Y-73176826D01*
X65485906Y-73126262D01*
X65553657Y-73096795D01*
X65626383Y-73067159D01*
X65688903Y-73043530D01*
X65691657Y-73042558D01*
X65740560Y-73024657D01*
X65778257Y-73009520D01*
X65796625Y-73000410D01*
X65796656Y-73000384D01*
X65802485Y-72983917D01*
X65812392Y-72943419D01*
X65825395Y-72883442D01*
X65840509Y-72808540D01*
X65856752Y-72723264D01*
X65858081Y-72716075D01*
X65874375Y-72628214D01*
X65889333Y-72548460D01*
X65901991Y-72481881D01*
X65911386Y-72433547D01*
X65916554Y-72408525D01*
X65916644Y-72408143D01*
X65919789Y-72397499D01*
X65925904Y-72389462D01*
X65938653Y-72383667D01*
X65961700Y-72379747D01*
X65998709Y-72377335D01*
X66053344Y-72376065D01*
X66129267Y-72375571D01*
X66230144Y-72375486D01*
X66243200Y-72375486D01*
X66347110Y-72375548D01*
X66347110Y-72375548D01*
G37*
X66347110Y-72375548D02*
X66425654Y-72375978D01*
X66482498Y-72377142D01*
X66521305Y-72379407D01*
X66545738Y-72383140D01*
X66559462Y-72388706D01*
X66566140Y-72396473D01*
X66569436Y-72406805D01*
X66569756Y-72408143D01*
X66574762Y-72432279D01*
X66584029Y-72479901D01*
X66596592Y-72545941D01*
X66611487Y-72625328D01*
X66627751Y-72712996D01*
X66628319Y-72716075D01*
X66644610Y-72801989D01*
X66659852Y-72877896D01*
X66673061Y-72939245D01*
X66683254Y-72981482D01*
X66689448Y-73000055D01*
X66689743Y-73000384D01*
X66707988Y-73009453D01*
X66745605Y-73024567D01*
X66794471Y-73042462D01*
X66794743Y-73042558D01*
X66856293Y-73065693D01*
X66928857Y-73095165D01*
X66997257Y-73124797D01*
X67000494Y-73126262D01*
X67111902Y-73176826D01*
X67358599Y-73008360D01*
X67434277Y-72957003D01*
X67502831Y-72911089D01*
X67560288Y-72873230D01*
X67602676Y-72846037D01*
X67626025Y-72832121D01*
X67628242Y-72831089D01*
X67645210Y-72835684D01*
X67676901Y-72857855D01*
X67724552Y-72898647D01*
X67789398Y-72959105D01*
X67855597Y-73023427D01*
X67919414Y-73086812D01*
X67976529Y-73144651D01*
X68023505Y-73193375D01*
X68056903Y-73229410D01*
X68073285Y-73249184D01*
X68073894Y-73250202D01*
X68075705Y-73263772D01*
X68068883Y-73285933D01*
X68051740Y-73319678D01*
X68022593Y-73368000D01*
X67979755Y-73433892D01*
X67922648Y-73518717D01*
X67871966Y-73593377D01*
X67826661Y-73660340D01*
X67789350Y-73715716D01*
X67762652Y-73755620D01*
X67749185Y-73776162D01*
X67748337Y-73777556D01*
X67749981Y-73797238D01*
X67762445Y-73835493D01*
X67783248Y-73885089D01*
X67790662Y-73900928D01*
X67823014Y-73971490D01*
X67857528Y-74051553D01*
X67885565Y-74120829D01*
X67905768Y-74172245D01*
X67921815Y-74211319D01*
X67931088Y-74231741D01*
X67932241Y-74233314D01*
X67949296Y-74235921D01*
X67989498Y-74243063D01*
X68047502Y-74253723D01*
X68117963Y-74266885D01*
X68195535Y-74281533D01*
X68274872Y-74296649D01*
X68350631Y-74311218D01*
X68417464Y-74324222D01*
X68470028Y-74334645D01*
X68502976Y-74341470D01*
X68511057Y-74343399D01*
X68519405Y-74348162D01*
X68525706Y-74358918D01*
X68530245Y-74379298D01*
X68533304Y-74412934D01*
X68535167Y-74463455D01*
X68536118Y-74534492D01*
X68536440Y-74629676D01*
X68536457Y-74668692D01*
X68536457Y-74985999D01*
X68460257Y-75001039D01*
X68417863Y-75009195D01*
X68354600Y-75021099D01*
X68278162Y-75035316D01*
X68196243Y-75050410D01*
X68173600Y-75054555D01*
X68098006Y-75069253D01*
X68032153Y-75083705D01*
X67981566Y-75096575D01*
X67951774Y-75106522D01*
X67946812Y-75109487D01*
X67934626Y-75130483D01*
X67917153Y-75171167D01*
X67897777Y-75223522D01*
X67893934Y-75234800D01*
X67868539Y-75304723D01*
X67837017Y-75383618D01*
X67806169Y-75454466D01*
X67806017Y-75454795D01*
X67754647Y-75565933D01*
X67923599Y-75814453D01*
X68092552Y-76062972D01*
X67875629Y-76280258D01*
X67810019Y-76344926D01*
X67750179Y-76401933D01*
X67699467Y-76448233D01*
X67661246Y-76480784D01*
X67638875Y-76496543D01*
X67635666Y-76497543D01*
X67616826Y-76489669D01*
X67578380Y-76467778D01*
X67524530Y-76434467D01*
X67459476Y-76392331D01*
X67389140Y-76345143D01*
X67317755Y-76297010D01*
X67254108Y-76255128D01*
X67202241Y-76222071D01*
X67166195Y-76200418D01*
X67150067Y-76192743D01*
X67130389Y-76199237D01*
X67093075Y-76216350D01*
X67045821Y-76240526D01*
X67040812Y-76243213D01*
X66977177Y-76275127D01*
X66933541Y-76290779D01*
X66906402Y-76290945D01*
X66892257Y-76276404D01*
X66892175Y-76276200D01*
X66885105Y-76258979D01*
X66868242Y-76218099D01*
X66842895Y-76156725D01*
X66810371Y-76078019D01*
X66771978Y-75985147D01*
X66729022Y-75881272D01*
X66687422Y-75780702D01*
X66641704Y-75669716D01*
X66599726Y-75566903D01*
X66562748Y-75475415D01*
X66532027Y-75398401D01*
X66508822Y-75339015D01*
X66494390Y-75300409D01*
X66489943Y-75286000D01*
X66501096Y-75269472D01*
X66530269Y-75243130D01*
X66569171Y-75214087D01*
X66679957Y-75122239D01*
X66766551Y-75016959D01*
X66827916Y-74900466D01*
X66863015Y-74774976D01*
X66870808Y-74642707D01*
X66865143Y-74581657D01*
X66834278Y-74454995D01*
X66781120Y-74343141D01*
X66708967Y-74247201D01*
X66621117Y-74168276D01*
X66520865Y-74107470D01*
X66411510Y-74065887D01*
X66296347Y-74044628D01*
X66178675Y-74044799D01*
X66061790Y-74067501D01*
X65948989Y-74113838D01*
X65843569Y-74184913D01*
X65799568Y-74225111D01*
X65715179Y-74328329D01*
X65656422Y-74441125D01*
X65622904Y-74560210D01*
X65614235Y-74682295D01*
X65630023Y-74804093D01*
X65669878Y-74922316D01*
X65733407Y-75033675D01*
X65820221Y-75134884D01*
X65917229Y-75214087D01*
X65957637Y-75244362D01*
X65986182Y-75270419D01*
X65996457Y-75286025D01*
X65991077Y-75303043D01*
X65975775Y-75343700D01*
X65951812Y-75404842D01*
X65920444Y-75483319D01*
X65882932Y-75575980D01*
X65840533Y-75679672D01*
X65798863Y-75780726D01*
X65752890Y-75891807D01*
X65710307Y-75994741D01*
X65672421Y-76086365D01*
X65640540Y-76163516D01*
X65615971Y-76223031D01*
X65600020Y-76261744D01*
X65594110Y-76276200D01*
X65580148Y-76290885D01*
X65553140Y-76290842D01*
X65509613Y-76275299D01*
X65446090Y-76243484D01*
X65445588Y-76243213D01*
X65397760Y-76218523D01*
X65359097Y-76200538D01*
X65337295Y-76192814D01*
X65336333Y-76192743D01*
X65319921Y-76200578D01*
X65283687Y-76222365D01*
X65231674Y-76255528D01*
X65167925Y-76297491D01*
X65097260Y-76345143D01*
X65025316Y-76393391D01*
X64960474Y-76435351D01*
X64906935Y-76468427D01*
X64868897Y-76490021D01*
X64850733Y-76497543D01*
X64834008Y-76487657D01*
X64800380Y-76460026D01*
X64753210Y-76417695D01*
X64695858Y-76363705D01*
X64631684Y-76301099D01*
X64610697Y-76280183D01*
X64393699Y-76062823D01*
X64558868Y-75820420D01*
X64609064Y-75745981D01*
X64653119Y-75679172D01*
X64688562Y-75623865D01*
X64712919Y-75583929D01*
X64723722Y-75563236D01*
X64724038Y-75561763D01*
X64718343Y-75542258D01*
X64703026Y-75503022D01*
X64680737Y-75450630D01*
X64665093Y-75415555D01*
X64635841Y-75348401D01*
X64608294Y-75280558D01*
X64586937Y-75223234D01*
X64581135Y-75205772D01*
X64564652Y-75159138D01*
X64548540Y-75123105D01*
X64539690Y-75109487D01*
X64520160Y-75101152D01*
X64477534Y-75089337D01*
X64417345Y-75075381D01*
X64345122Y-75060622D01*
X64312800Y-75054555D01*
X64230722Y-75039473D01*
X64151995Y-75024869D01*
X64084309Y-75012180D01*
X64035360Y-75002842D01*
X64026143Y-75001039D01*
X63949943Y-74985999D01*
X63949943Y-74668692D01*
X63950114Y-74564354D01*
X63950816Y-74485413D01*
X63952334Y-74428238D01*
X63954949Y-74389199D01*
X63958946Y-74364665D01*
X63964609Y-74351005D01*
X63972220Y-74344589D01*
X63975343Y-74343399D01*
X63994178Y-74339180D01*
X64035788Y-74330762D01*
X64094830Y-74319161D01*
X64165957Y-74305395D01*
X64243825Y-74290480D01*
X64323087Y-74275432D01*
X64398398Y-74261269D01*
X64464413Y-74249006D01*
X64515787Y-74239661D01*
X64547175Y-74234250D01*
X64554159Y-74233314D01*
X64560485Y-74220796D01*
X64574490Y-74187446D01*
X64593555Y-74139577D01*
X64600834Y-74120829D01*
X64630196Y-74048395D01*
X64664771Y-73968370D01*
X64695737Y-73900928D01*
X64718523Y-73849359D01*
X64733682Y-73806985D01*
X64738742Y-73781034D01*
X64737936Y-73777556D01*
X64727241Y-73761136D01*
X64702820Y-73724617D01*
X64667295Y-73671887D01*
X64623287Y-73606835D01*
X64573417Y-73533351D01*
X64563556Y-73518845D01*
X64505692Y-73432904D01*
X64463156Y-73367461D01*
X64434254Y-73319504D01*
X64417290Y-73286020D01*
X64410567Y-73263995D01*
X64412390Y-73250417D01*
X64412436Y-73250331D01*
X64426786Y-73232497D01*
X64458523Y-73198017D01*
X64504210Y-73150468D01*
X64560404Y-73093422D01*
X64623668Y-73030455D01*
X64630802Y-73023427D01*
X64710530Y-72946220D01*
X64772057Y-72889530D01*
X64816621Y-72852310D01*
X64845457Y-72833515D01*
X64858158Y-72831089D01*
X64876694Y-72841671D01*
X64915161Y-72866116D01*
X64969586Y-72901812D01*
X65035998Y-72946147D01*
X65110425Y-72996511D01*
X65127801Y-73008360D01*
X65374497Y-73176826D01*
X65485906Y-73126262D01*
X65553657Y-73096795D01*
X65626383Y-73067159D01*
X65688903Y-73043530D01*
X65691657Y-73042558D01*
X65740560Y-73024657D01*
X65778257Y-73009520D01*
X65796625Y-73000410D01*
X65796656Y-73000384D01*
X65802485Y-72983917D01*
X65812392Y-72943419D01*
X65825395Y-72883442D01*
X65840509Y-72808540D01*
X65856752Y-72723264D01*
X65858081Y-72716075D01*
X65874375Y-72628214D01*
X65889333Y-72548460D01*
X65901991Y-72481881D01*
X65911386Y-72433547D01*
X65916554Y-72408525D01*
X65916644Y-72408143D01*
X65919789Y-72397499D01*
X65925904Y-72389462D01*
X65938653Y-72383667D01*
X65961700Y-72379747D01*
X65998709Y-72377335D01*
X66053344Y-72376065D01*
X66129267Y-72375571D01*
X66230144Y-72375486D01*
X66243200Y-72375486D01*
X66347110Y-72375548D01*
G36*
X69396795Y-77100166D02*
G01*
X69454221Y-77137697D01*
X69481919Y-77171296D01*
X69503862Y-77232264D01*
X69505605Y-77280508D01*
X69501657Y-77345016D01*
X69352886Y-77410134D01*
X69280549Y-77443402D01*
X69233284Y-77470164D01*
X69208707Y-77493344D01*
X69204437Y-77515867D01*
X69218089Y-77540655D01*
X69233143Y-77557086D01*
X69276946Y-77583435D01*
X69324589Y-77585281D01*
X69368345Y-77564746D01*
X69400489Y-77523952D01*
X69406238Y-77509547D01*
X69433776Y-77464556D01*
X69465458Y-77445382D01*
X69508914Y-77428979D01*
X69508914Y-77491166D01*
X69505072Y-77533483D01*
X69490023Y-77569169D01*
X69458480Y-77610143D01*
X69453792Y-77615467D01*
X69418706Y-77651920D01*
X69388547Y-77671483D01*
X69350815Y-77680483D01*
X69319535Y-77683430D01*
X69263585Y-77684165D01*
X69223755Y-77674860D01*
X69198908Y-77661046D01*
X69159856Y-77630667D01*
X69132825Y-77597813D01*
X69115717Y-77556494D01*
X69106438Y-77500721D01*
X69102893Y-77424505D01*
X69102610Y-77385822D01*
X69103572Y-77339447D01*
X69191207Y-77339447D01*
X69192223Y-77364326D01*
X69194756Y-77368400D01*
X69211474Y-77362865D01*
X69247449Y-77348217D01*
X69295531Y-77327390D01*
X69305586Y-77322914D01*
X69366352Y-77292014D01*
X69399832Y-77264857D01*
X69407190Y-77239420D01*
X69389591Y-77213681D01*
X69375056Y-77202309D01*
X69322610Y-77179564D01*
X69273522Y-77183322D01*
X69232427Y-77211084D01*
X69203958Y-77260352D01*
X69194831Y-77299457D01*
X69191207Y-77339447D01*
X69103572Y-77339447D01*
X69104485Y-77295449D01*
X69111396Y-77228584D01*
X69125084Y-77179895D01*
X69147296Y-77144049D01*
X69179774Y-77115713D01*
X69193933Y-77106555D01*
X69258253Y-77082707D01*
X69328673Y-77081206D01*
X69396795Y-77100166D01*
X69396795Y-77100166D01*
G37*
X69396795Y-77100166D02*
X69454221Y-77137697D01*
X69481919Y-77171296D01*
X69503862Y-77232264D01*
X69505605Y-77280508D01*
X69501657Y-77345016D01*
X69352886Y-77410134D01*
X69280549Y-77443402D01*
X69233284Y-77470164D01*
X69208707Y-77493344D01*
X69204437Y-77515867D01*
X69218089Y-77540655D01*
X69233143Y-77557086D01*
X69276946Y-77583435D01*
X69324589Y-77585281D01*
X69368345Y-77564746D01*
X69400489Y-77523952D01*
X69406238Y-77509547D01*
X69433776Y-77464556D01*
X69465458Y-77445382D01*
X69508914Y-77428979D01*
X69508914Y-77491166D01*
X69505072Y-77533483D01*
X69490023Y-77569169D01*
X69458480Y-77610143D01*
X69453792Y-77615467D01*
X69418706Y-77651920D01*
X69388547Y-77671483D01*
X69350815Y-77680483D01*
X69319535Y-77683430D01*
X69263585Y-77684165D01*
X69223755Y-77674860D01*
X69198908Y-77661046D01*
X69159856Y-77630667D01*
X69132825Y-77597813D01*
X69115717Y-77556494D01*
X69106438Y-77500721D01*
X69102893Y-77424505D01*
X69102610Y-77385822D01*
X69103572Y-77339447D01*
X69191207Y-77339447D01*
X69192223Y-77364326D01*
X69194756Y-77368400D01*
X69211474Y-77362865D01*
X69247449Y-77348217D01*
X69295531Y-77327390D01*
X69305586Y-77322914D01*
X69366352Y-77292014D01*
X69399832Y-77264857D01*
X69407190Y-77239420D01*
X69389591Y-77213681D01*
X69375056Y-77202309D01*
X69322610Y-77179564D01*
X69273522Y-77183322D01*
X69232427Y-77211084D01*
X69203958Y-77260352D01*
X69194831Y-77299457D01*
X69191207Y-77339447D01*
X69103572Y-77339447D01*
X69104485Y-77295449D01*
X69111396Y-77228584D01*
X69125084Y-77179895D01*
X69147296Y-77144049D01*
X69179774Y-77115713D01*
X69193933Y-77106555D01*
X69258253Y-77082707D01*
X69328673Y-77081206D01*
X69396795Y-77100166D01*
G36*
X68895800Y-77091952D02*
G01*
X68913148Y-77099534D01*
X68954556Y-77132328D01*
X68989965Y-77179747D01*
X69011864Y-77230351D01*
X69015429Y-77255298D01*
X69003479Y-77290127D01*
X68977267Y-77308557D01*
X68949164Y-77319716D01*
X68936295Y-77321772D01*
X68930029Y-77306849D01*
X68917656Y-77274375D01*
X68912228Y-77259702D01*
X68881790Y-77208944D01*
X68837720Y-77183627D01*
X68781210Y-77184406D01*
X68777025Y-77185403D01*
X68746855Y-77199707D01*
X68724676Y-77227593D01*
X68709527Y-77272487D01*
X68700450Y-77337815D01*
X68696486Y-77427004D01*
X68696114Y-77474461D01*
X68695930Y-77549271D01*
X68694722Y-77600269D01*
X68691509Y-77632671D01*
X68685309Y-77651695D01*
X68675140Y-77662556D01*
X68660019Y-77670472D01*
X68659146Y-77670870D01*
X68630028Y-77683181D01*
X68615603Y-77687714D01*
X68613386Y-77674009D01*
X68611489Y-77636125D01*
X68610047Y-77578915D01*
X68609198Y-77507227D01*
X68609029Y-77454765D01*
X68609892Y-77353247D01*
X68613270Y-77276232D01*
X68620342Y-77219223D01*
X68632288Y-77177726D01*
X68650290Y-77147243D01*
X68675527Y-77123280D01*
X68700447Y-77106555D01*
X68760371Y-77084297D01*
X68830111Y-77079276D01*
X68895800Y-77091952D01*
X68895800Y-77091952D01*
G37*
X68895800Y-77091952D02*
X68913148Y-77099534D01*
X68954556Y-77132328D01*
X68989965Y-77179747D01*
X69011864Y-77230351D01*
X69015429Y-77255298D01*
X69003479Y-77290127D01*
X68977267Y-77308557D01*
X68949164Y-77319716D01*
X68936295Y-77321772D01*
X68930029Y-77306849D01*
X68917656Y-77274375D01*
X68912228Y-77259702D01*
X68881790Y-77208944D01*
X68837720Y-77183627D01*
X68781210Y-77184406D01*
X68777025Y-77185403D01*
X68746855Y-77199707D01*
X68724676Y-77227593D01*
X68709527Y-77272487D01*
X68700450Y-77337815D01*
X68696486Y-77427004D01*
X68696114Y-77474461D01*
X68695930Y-77549271D01*
X68694722Y-77600269D01*
X68691509Y-77632671D01*
X68685309Y-77651695D01*
X68675140Y-77662556D01*
X68660019Y-77670472D01*
X68659146Y-77670870D01*
X68630028Y-77683181D01*
X68615603Y-77687714D01*
X68613386Y-77674009D01*
X68611489Y-77636125D01*
X68610047Y-77578915D01*
X68609198Y-77507227D01*
X68609029Y-77454765D01*
X68609892Y-77353247D01*
X68613270Y-77276232D01*
X68620342Y-77219223D01*
X68632288Y-77177726D01*
X68650290Y-77147243D01*
X68675527Y-77123280D01*
X68700447Y-77106555D01*
X68760371Y-77084297D01*
X68830111Y-77079276D01*
X68895800Y-77091952D01*
G36*
X68388076Y-77089535D02*
G01*
X68429867Y-77108544D01*
X68462669Y-77131578D01*
X68486703Y-77157333D01*
X68503297Y-77190558D01*
X68513777Y-77236000D01*
X68519471Y-77298407D01*
X68521707Y-77382527D01*
X68521943Y-77437921D01*
X68521943Y-77654026D01*
X68484974Y-77670870D01*
X68455856Y-77683181D01*
X68441431Y-77687714D01*
X68438672Y-77674225D01*
X68436482Y-77637853D01*
X68435142Y-77584742D01*
X68434857Y-77542572D01*
X68433634Y-77481647D01*
X68430336Y-77433315D01*
X68425521Y-77403718D01*
X68421696Y-77397429D01*
X68395983Y-77403852D01*
X68355618Y-77420325D01*
X68308879Y-77442658D01*
X68264045Y-77466657D01*
X68229393Y-77488130D01*
X68213202Y-77502885D01*
X68213138Y-77503045D01*
X68214530Y-77530352D01*
X68227018Y-77556419D01*
X68248943Y-77577592D01*
X68280943Y-77584674D01*
X68308292Y-77583849D01*
X68347026Y-77583242D01*
X68367358Y-77592316D01*
X68379569Y-77616292D01*
X68381109Y-77620813D01*
X68386403Y-77655006D01*
X68372247Y-77675768D01*
X68335348Y-77685662D01*
X68295489Y-77687492D01*
X68223762Y-77673927D01*
X68186632Y-77654555D01*
X68140776Y-77609045D01*
X68116456Y-77553183D01*
X68114273Y-77494157D01*
X68134829Y-77439153D01*
X68165749Y-77404686D01*
X68196620Y-77385389D01*
X68245142Y-77360959D01*
X68301685Y-77336185D01*
X68311110Y-77332399D01*
X68373219Y-77304991D01*
X68409022Y-77280834D01*
X68420537Y-77256819D01*
X68409780Y-77229835D01*
X68391314Y-77208743D01*
X68347669Y-77182772D01*
X68299646Y-77180824D01*
X68255606Y-77200837D01*
X68223909Y-77240751D01*
X68219749Y-77251048D01*
X68195527Y-77288924D01*
X68160165Y-77317042D01*
X68115543Y-77340117D01*
X68115543Y-77274685D01*
X68118169Y-77234706D01*
X68129430Y-77203197D01*
X68154399Y-77169578D01*
X68178369Y-77143684D01*
X68215641Y-77107017D01*
X68244601Y-77087321D01*
X68275705Y-77079420D01*
X68310913Y-77078114D01*
X68388076Y-77089535D01*
X68388076Y-77089535D01*
G37*
X68388076Y-77089535D02*
X68429867Y-77108544D01*
X68462669Y-77131578D01*
X68486703Y-77157333D01*
X68503297Y-77190558D01*
X68513777Y-77236000D01*
X68519471Y-77298407D01*
X68521707Y-77382527D01*
X68521943Y-77437921D01*
X68521943Y-77654026D01*
X68484974Y-77670870D01*
X68455856Y-77683181D01*
X68441431Y-77687714D01*
X68438672Y-77674225D01*
X68436482Y-77637853D01*
X68435142Y-77584742D01*
X68434857Y-77542572D01*
X68433634Y-77481647D01*
X68430336Y-77433315D01*
X68425521Y-77403718D01*
X68421696Y-77397429D01*
X68395983Y-77403852D01*
X68355618Y-77420325D01*
X68308879Y-77442658D01*
X68264045Y-77466657D01*
X68229393Y-77488130D01*
X68213202Y-77502885D01*
X68213138Y-77503045D01*
X68214530Y-77530352D01*
X68227018Y-77556419D01*
X68248943Y-77577592D01*
X68280943Y-77584674D01*
X68308292Y-77583849D01*
X68347026Y-77583242D01*
X68367358Y-77592316D01*
X68379569Y-77616292D01*
X68381109Y-77620813D01*
X68386403Y-77655006D01*
X68372247Y-77675768D01*
X68335348Y-77685662D01*
X68295489Y-77687492D01*
X68223762Y-77673927D01*
X68186632Y-77654555D01*
X68140776Y-77609045D01*
X68116456Y-77553183D01*
X68114273Y-77494157D01*
X68134829Y-77439153D01*
X68165749Y-77404686D01*
X68196620Y-77385389D01*
X68245142Y-77360959D01*
X68301685Y-77336185D01*
X68311110Y-77332399D01*
X68373219Y-77304991D01*
X68409022Y-77280834D01*
X68420537Y-77256819D01*
X68409780Y-77229835D01*
X68391314Y-77208743D01*
X68347669Y-77182772D01*
X68299646Y-77180824D01*
X68255606Y-77200837D01*
X68223909Y-77240751D01*
X68219749Y-77251048D01*
X68195527Y-77288924D01*
X68160165Y-77317042D01*
X68115543Y-77340117D01*
X68115543Y-77274685D01*
X68118169Y-77234706D01*
X68129430Y-77203197D01*
X68154399Y-77169578D01*
X68178369Y-77143684D01*
X68215641Y-77107017D01*
X68244601Y-77087321D01*
X68275705Y-77079420D01*
X68310913Y-77078114D01*
X68388076Y-77089535D01*
G36*
X68023033Y-77091863D02*
G01*
X68025248Y-77130050D01*
X68026984Y-77188086D01*
X68028099Y-77261380D01*
X68028457Y-77338255D01*
X68028457Y-77598396D01*
X67982526Y-77644327D01*
X67950875Y-77672629D01*
X67923090Y-77684093D01*
X67885115Y-77683368D01*
X67870040Y-77681521D01*
X67822926Y-77676148D01*
X67783956Y-77673069D01*
X67774457Y-77672785D01*
X67742433Y-77674645D01*
X67696632Y-77679314D01*
X67678874Y-77681521D01*
X67635257Y-77684935D01*
X67605945Y-77677520D01*
X67576880Y-77654627D01*
X67566388Y-77644327D01*
X67520457Y-77598396D01*
X67520457Y-77111802D01*
X67557426Y-77094958D01*
X67589259Y-77082482D01*
X67607883Y-77078114D01*
X67612658Y-77091918D01*
X67617121Y-77130486D01*
X67620975Y-77189556D01*
X67623922Y-77264863D01*
X67625343Y-77328486D01*
X67629314Y-77578857D01*
X67663959Y-77583756D01*
X67695468Y-77580331D01*
X67710908Y-77569241D01*
X67715223Y-77548508D01*
X67718908Y-77504345D01*
X67721669Y-77442346D01*
X67723212Y-77368109D01*
X67723435Y-77329906D01*
X67723657Y-77109983D01*
X67769366Y-77094049D01*
X67801718Y-77083215D01*
X67819315Y-77078162D01*
X67819823Y-77078114D01*
X67821588Y-77091848D01*
X67823529Y-77129930D01*
X67825482Y-77187682D01*
X67827284Y-77260427D01*
X67828543Y-77328486D01*
X67832514Y-77578857D01*
X67919600Y-77578857D01*
X67923596Y-77350440D01*
X67927592Y-77122022D01*
X67970047Y-77100068D01*
X68001392Y-77084993D01*
X68019944Y-77078151D01*
X68020479Y-77078114D01*
X68023033Y-77091863D01*
X68023033Y-77091863D01*
G37*
X68023033Y-77091863D02*
X68025248Y-77130050D01*
X68026984Y-77188086D01*
X68028099Y-77261380D01*
X68028457Y-77338255D01*
X68028457Y-77598396D01*
X67982526Y-77644327D01*
X67950875Y-77672629D01*
X67923090Y-77684093D01*
X67885115Y-77683368D01*
X67870040Y-77681521D01*
X67822926Y-77676148D01*
X67783956Y-77673069D01*
X67774457Y-77672785D01*
X67742433Y-77674645D01*
X67696632Y-77679314D01*
X67678874Y-77681521D01*
X67635257Y-77684935D01*
X67605945Y-77677520D01*
X67576880Y-77654627D01*
X67566388Y-77644327D01*
X67520457Y-77598396D01*
X67520457Y-77111802D01*
X67557426Y-77094958D01*
X67589259Y-77082482D01*
X67607883Y-77078114D01*
X67612658Y-77091918D01*
X67617121Y-77130486D01*
X67620975Y-77189556D01*
X67623922Y-77264863D01*
X67625343Y-77328486D01*
X67629314Y-77578857D01*
X67663959Y-77583756D01*
X67695468Y-77580331D01*
X67710908Y-77569241D01*
X67715223Y-77548508D01*
X67718908Y-77504345D01*
X67721669Y-77442346D01*
X67723212Y-77368109D01*
X67723435Y-77329906D01*
X67723657Y-77109983D01*
X67769366Y-77094049D01*
X67801718Y-77083215D01*
X67819315Y-77078162D01*
X67819823Y-77078114D01*
X67821588Y-77091848D01*
X67823529Y-77129930D01*
X67825482Y-77187682D01*
X67827284Y-77260427D01*
X67828543Y-77328486D01*
X67832514Y-77578857D01*
X67919600Y-77578857D01*
X67923596Y-77350440D01*
X67927592Y-77122022D01*
X67970047Y-77100068D01*
X68001392Y-77084993D01*
X68019944Y-77078151D01*
X68020479Y-77078114D01*
X68023033Y-77091863D01*
G36*
X67433317Y-77198558D02*
G01*
X67433133Y-77307037D01*
X67432419Y-77390487D01*
X67430875Y-77452904D01*
X67428201Y-77498285D01*
X67424094Y-77530629D01*
X67418255Y-77553933D01*
X67410382Y-77572195D01*
X67404421Y-77582618D01*
X67355055Y-77639145D01*
X67292464Y-77674577D01*
X67223213Y-77687290D01*
X67153868Y-77675663D01*
X67112575Y-77654768D01*
X67069225Y-77618622D01*
X67039681Y-77574476D01*
X67021855Y-77516662D01*
X67013663Y-77439513D01*
X67012502Y-77382914D01*
X67012658Y-77378847D01*
X67114057Y-77378847D01*
X67114676Y-77443750D01*
X67117514Y-77486714D01*
X67124040Y-77514822D01*
X67135723Y-77535153D01*
X67149683Y-77550488D01*
X67196565Y-77580090D01*
X67246901Y-77582619D01*
X67294476Y-77557905D01*
X67298179Y-77554556D01*
X67313983Y-77537135D01*
X67323893Y-77516409D01*
X67329258Y-77485562D01*
X67331428Y-77437777D01*
X67331771Y-77384948D01*
X67331027Y-77318581D01*
X67327948Y-77274306D01*
X67321261Y-77245209D01*
X67309696Y-77224373D01*
X67300213Y-77213307D01*
X67256160Y-77185398D01*
X67205424Y-77182043D01*
X67156996Y-77203359D01*
X67147650Y-77211273D01*
X67131740Y-77228847D01*
X67121810Y-77249787D01*
X67116478Y-77280982D01*
X67114363Y-77329322D01*
X67114057Y-77378847D01*
X67012658Y-77378847D01*
X67016010Y-77291768D01*
X67027926Y-77223286D01*
X67050335Y-77171800D01*
X67085324Y-77131643D01*
X67112575Y-77111061D01*
X67162107Y-77088825D01*
X67219516Y-77078504D01*
X67272882Y-77081267D01*
X67302743Y-77092412D01*
X67314461Y-77095583D01*
X67322237Y-77083757D01*
X67327665Y-77052066D01*
X67331771Y-77003793D01*
X67336267Y-76950029D01*
X67342513Y-76917682D01*
X67353876Y-76899185D01*
X67373728Y-76886970D01*
X67386200Y-76881562D01*
X67433371Y-76861801D01*
X67433317Y-77198558D01*
X67433317Y-77198558D01*
G37*
X67433317Y-77198558D02*
X67433133Y-77307037D01*
X67432419Y-77390487D01*
X67430875Y-77452904D01*
X67428201Y-77498285D01*
X67424094Y-77530629D01*
X67418255Y-77553933D01*
X67410382Y-77572195D01*
X67404421Y-77582618D01*
X67355055Y-77639145D01*
X67292464Y-77674577D01*
X67223213Y-77687290D01*
X67153868Y-77675663D01*
X67112575Y-77654768D01*
X67069225Y-77618622D01*
X67039681Y-77574476D01*
X67021855Y-77516662D01*
X67013663Y-77439513D01*
X67012502Y-77382914D01*
X67012658Y-77378847D01*
X67114057Y-77378847D01*
X67114676Y-77443750D01*
X67117514Y-77486714D01*
X67124040Y-77514822D01*
X67135723Y-77535153D01*
X67149683Y-77550488D01*
X67196565Y-77580090D01*
X67246901Y-77582619D01*
X67294476Y-77557905D01*
X67298179Y-77554556D01*
X67313983Y-77537135D01*
X67323893Y-77516409D01*
X67329258Y-77485562D01*
X67331428Y-77437777D01*
X67331771Y-77384948D01*
X67331027Y-77318581D01*
X67327948Y-77274306D01*
X67321261Y-77245209D01*
X67309696Y-77224373D01*
X67300213Y-77213307D01*
X67256160Y-77185398D01*
X67205424Y-77182043D01*
X67156996Y-77203359D01*
X67147650Y-77211273D01*
X67131740Y-77228847D01*
X67121810Y-77249787D01*
X67116478Y-77280982D01*
X67114363Y-77329322D01*
X67114057Y-77378847D01*
X67012658Y-77378847D01*
X67016010Y-77291768D01*
X67027926Y-77223286D01*
X67050335Y-77171800D01*
X67085324Y-77131643D01*
X67112575Y-77111061D01*
X67162107Y-77088825D01*
X67219516Y-77078504D01*
X67272882Y-77081267D01*
X67302743Y-77092412D01*
X67314461Y-77095583D01*
X67322237Y-77083757D01*
X67327665Y-77052066D01*
X67331771Y-77003793D01*
X67336267Y-76950029D01*
X67342513Y-76917682D01*
X67353876Y-76899185D01*
X67373728Y-76886970D01*
X67386200Y-76881562D01*
X67433371Y-76861801D01*
X67433317Y-77198558D01*
G36*
X66773126Y-77082955D02*
G01*
X66839058Y-77107284D01*
X66892473Y-77150317D01*
X66913364Y-77180609D01*
X66936139Y-77236194D01*
X66935666Y-77276386D01*
X66911762Y-77303417D01*
X66902917Y-77308013D01*
X66864730Y-77322344D01*
X66845228Y-77318672D01*
X66838622Y-77294607D01*
X66838286Y-77281314D01*
X66826192Y-77232410D01*
X66794671Y-77198199D01*
X66750859Y-77181676D01*
X66701895Y-77185834D01*
X66662094Y-77207427D01*
X66648650Y-77219744D01*
X66639121Y-77234687D01*
X66632685Y-77257275D01*
X66628517Y-77292528D01*
X66625797Y-77345466D01*
X66623702Y-77421107D01*
X66623160Y-77445057D01*
X66621181Y-77526990D01*
X66618931Y-77584655D01*
X66615557Y-77622808D01*
X66610206Y-77646204D01*
X66602024Y-77659598D01*
X66590159Y-77667745D01*
X66582562Y-77671344D01*
X66550302Y-77683652D01*
X66531311Y-77687714D01*
X66525036Y-77674148D01*
X66521206Y-77633134D01*
X66519800Y-77564199D01*
X66520798Y-77466869D01*
X66521108Y-77451857D01*
X66523301Y-77363059D01*
X66525893Y-77298219D01*
X66529582Y-77252267D01*
X66535064Y-77220135D01*
X66543035Y-77196753D01*
X66554193Y-77177052D01*
X66560030Y-77168610D01*
X66593496Y-77131257D01*
X66630927Y-77102203D01*
X66635509Y-77099667D01*
X66702626Y-77079643D01*
X66773126Y-77082955D01*
X66773126Y-77082955D01*
G37*
X66773126Y-77082955D02*
X66839058Y-77107284D01*
X66892473Y-77150317D01*
X66913364Y-77180609D01*
X66936139Y-77236194D01*
X66935666Y-77276386D01*
X66911762Y-77303417D01*
X66902917Y-77308013D01*
X66864730Y-77322344D01*
X66845228Y-77318672D01*
X66838622Y-77294607D01*
X66838286Y-77281314D01*
X66826192Y-77232410D01*
X66794671Y-77198199D01*
X66750859Y-77181676D01*
X66701895Y-77185834D01*
X66662094Y-77207427D01*
X66648650Y-77219744D01*
X66639121Y-77234687D01*
X66632685Y-77257275D01*
X66628517Y-77292528D01*
X66625797Y-77345466D01*
X66623702Y-77421107D01*
X66623160Y-77445057D01*
X66621181Y-77526990D01*
X66618931Y-77584655D01*
X66615557Y-77622808D01*
X66610206Y-77646204D01*
X66602024Y-77659598D01*
X66590159Y-77667745D01*
X66582562Y-77671344D01*
X66550302Y-77683652D01*
X66531311Y-77687714D01*
X66525036Y-77674148D01*
X66521206Y-77633134D01*
X66519800Y-77564199D01*
X66520798Y-77466869D01*
X66521108Y-77451857D01*
X66523301Y-77363059D01*
X66525893Y-77298219D01*
X66529582Y-77252267D01*
X66535064Y-77220135D01*
X66543035Y-77196753D01*
X66554193Y-77177052D01*
X66560030Y-77168610D01*
X66593496Y-77131257D01*
X66630927Y-77102203D01*
X66635509Y-77099667D01*
X66702626Y-77079643D01*
X66773126Y-77082955D01*
G36*
X66282944Y-77084168D02*
G01*
X66339816Y-77105287D01*
X66340467Y-77105693D01*
X66375640Y-77131580D01*
X66401607Y-77161833D01*
X66419870Y-77201258D01*
X66431932Y-77254662D01*
X66439296Y-77326851D01*
X66443464Y-77422632D01*
X66443829Y-77436278D01*
X66449076Y-77642042D01*
X66404916Y-77664878D01*
X66372963Y-77680310D01*
X66353670Y-77687623D01*
X66352778Y-77687714D01*
X66349439Y-77674222D01*
X66346787Y-77637826D01*
X66345156Y-77584652D01*
X66344800Y-77541593D01*
X66344792Y-77471841D01*
X66341603Y-77428037D01*
X66330488Y-77407144D01*
X66306701Y-77406125D01*
X66265496Y-77421941D01*
X66203286Y-77451015D01*
X66157541Y-77475163D01*
X66134013Y-77496113D01*
X66127096Y-77518947D01*
X66127086Y-77520077D01*
X66138499Y-77559412D01*
X66172292Y-77580662D01*
X66224009Y-77583739D01*
X66261261Y-77583206D01*
X66280903Y-77593935D01*
X66293152Y-77619705D01*
X66300202Y-77652537D01*
X66290042Y-77671166D01*
X66286217Y-77673832D01*
X66250201Y-77684540D01*
X66199766Y-77686056D01*
X66147826Y-77678959D01*
X66111022Y-77665988D01*
X66060138Y-77622785D01*
X66031214Y-77562646D01*
X66025486Y-77515662D01*
X66029857Y-77473282D01*
X66045675Y-77438688D01*
X66076997Y-77407963D01*
X66127878Y-77377190D01*
X66202376Y-77342452D01*
X66206914Y-77340488D01*
X66274021Y-77309487D01*
X66315432Y-77284062D01*
X66333181Y-77261214D01*
X66329307Y-77237945D01*
X66305843Y-77211256D01*
X66298827Y-77205114D01*
X66251830Y-77181300D01*
X66203133Y-77182303D01*
X66160722Y-77205651D01*
X66132584Y-77248875D01*
X66129969Y-77257360D01*
X66104508Y-77298508D01*
X66072201Y-77318328D01*
X66025486Y-77337970D01*
X66025486Y-77287150D01*
X66039696Y-77213282D01*
X66081875Y-77145527D01*
X66103824Y-77122861D01*
X66153717Y-77093769D01*
X66217167Y-77080600D01*
X66282944Y-77084168D01*
X66282944Y-77084168D01*
G37*
X66282944Y-77084168D02*
X66339816Y-77105287D01*
X66340467Y-77105693D01*
X66375640Y-77131580D01*
X66401607Y-77161833D01*
X66419870Y-77201258D01*
X66431932Y-77254662D01*
X66439296Y-77326851D01*
X66443464Y-77422632D01*
X66443829Y-77436278D01*
X66449076Y-77642042D01*
X66404916Y-77664878D01*
X66372963Y-77680310D01*
X66353670Y-77687623D01*
X66352778Y-77687714D01*
X66349439Y-77674222D01*
X66346787Y-77637826D01*
X66345156Y-77584652D01*
X66344800Y-77541593D01*
X66344792Y-77471841D01*
X66341603Y-77428037D01*
X66330488Y-77407144D01*
X66306701Y-77406125D01*
X66265496Y-77421941D01*
X66203286Y-77451015D01*
X66157541Y-77475163D01*
X66134013Y-77496113D01*
X66127096Y-77518947D01*
X66127086Y-77520077D01*
X66138499Y-77559412D01*
X66172292Y-77580662D01*
X66224009Y-77583739D01*
X66261261Y-77583206D01*
X66280903Y-77593935D01*
X66293152Y-77619705D01*
X66300202Y-77652537D01*
X66290042Y-77671166D01*
X66286217Y-77673832D01*
X66250201Y-77684540D01*
X66199766Y-77686056D01*
X66147826Y-77678959D01*
X66111022Y-77665988D01*
X66060138Y-77622785D01*
X66031214Y-77562646D01*
X66025486Y-77515662D01*
X66029857Y-77473282D01*
X66045675Y-77438688D01*
X66076997Y-77407963D01*
X66127878Y-77377190D01*
X66202376Y-77342452D01*
X66206914Y-77340488D01*
X66274021Y-77309487D01*
X66315432Y-77284062D01*
X66333181Y-77261214D01*
X66329307Y-77237945D01*
X66305843Y-77211256D01*
X66298827Y-77205114D01*
X66251830Y-77181300D01*
X66203133Y-77182303D01*
X66160722Y-77205651D01*
X66132584Y-77248875D01*
X66129969Y-77257360D01*
X66104508Y-77298508D01*
X66072201Y-77318328D01*
X66025486Y-77337970D01*
X66025486Y-77287150D01*
X66039696Y-77213282D01*
X66081875Y-77145527D01*
X66103824Y-77122861D01*
X66153717Y-77093769D01*
X66217167Y-77080600D01*
X66282944Y-77084168D01*
G36*
X65619086Y-76984489D02*
G01*
X65623339Y-77043813D01*
X65628225Y-77078772D01*
X65634995Y-77094020D01*
X65644902Y-77094215D01*
X65648114Y-77092395D01*
X65690844Y-77079215D01*
X65746427Y-77079985D01*
X65802937Y-77093533D01*
X65838282Y-77111061D01*
X65874521Y-77139061D01*
X65901013Y-77170749D01*
X65919199Y-77211013D01*
X65930522Y-77264743D01*
X65936422Y-77336826D01*
X65938343Y-77432151D01*
X65938377Y-77450437D01*
X65938400Y-77655846D01*
X65892691Y-77671780D01*
X65860227Y-77682620D01*
X65842415Y-77687668D01*
X65841891Y-77687714D01*
X65840137Y-77674028D01*
X65838644Y-77636276D01*
X65837526Y-77579424D01*
X65836897Y-77508434D01*
X65836800Y-77465273D01*
X65836598Y-77380173D01*
X65835558Y-77319181D01*
X65833031Y-77277377D01*
X65828364Y-77249842D01*
X65820907Y-77231656D01*
X65810011Y-77217898D01*
X65803207Y-77211273D01*
X65756472Y-77184575D01*
X65705472Y-77182575D01*
X65659201Y-77205155D01*
X65650644Y-77213307D01*
X65638093Y-77228636D01*
X65629388Y-77246818D01*
X65623831Y-77273109D01*
X65620726Y-77312762D01*
X65619376Y-77371032D01*
X65619086Y-77451373D01*
X65619086Y-77655846D01*
X65573377Y-77671780D01*
X65540913Y-77682620D01*
X65523101Y-77687668D01*
X65522577Y-77687714D01*
X65521237Y-77673823D01*
X65520028Y-77634639D01*
X65519001Y-77573900D01*
X65518202Y-77495341D01*
X65517681Y-77402698D01*
X65517486Y-77299709D01*
X65517486Y-76902542D01*
X65564657Y-76882644D01*
X65611829Y-76862747D01*
X65619086Y-76984489D01*
X65619086Y-76984489D01*
G37*
X65619086Y-76984489D02*
X65623339Y-77043813D01*
X65628225Y-77078772D01*
X65634995Y-77094020D01*
X65644902Y-77094215D01*
X65648114Y-77092395D01*
X65690844Y-77079215D01*
X65746427Y-77079985D01*
X65802937Y-77093533D01*
X65838282Y-77111061D01*
X65874521Y-77139061D01*
X65901013Y-77170749D01*
X65919199Y-77211013D01*
X65930522Y-77264743D01*
X65936422Y-77336826D01*
X65938343Y-77432151D01*
X65938377Y-77450437D01*
X65938400Y-77655846D01*
X65892691Y-77671780D01*
X65860227Y-77682620D01*
X65842415Y-77687668D01*
X65841891Y-77687714D01*
X65840137Y-77674028D01*
X65838644Y-77636276D01*
X65837526Y-77579424D01*
X65836897Y-77508434D01*
X65836800Y-77465273D01*
X65836598Y-77380173D01*
X65835558Y-77319181D01*
X65833031Y-77277377D01*
X65828364Y-77249842D01*
X65820907Y-77231656D01*
X65810011Y-77217898D01*
X65803207Y-77211273D01*
X65756472Y-77184575D01*
X65705472Y-77182575D01*
X65659201Y-77205155D01*
X65650644Y-77213307D01*
X65638093Y-77228636D01*
X65629388Y-77246818D01*
X65623831Y-77273109D01*
X65620726Y-77312762D01*
X65619376Y-77371032D01*
X65619086Y-77451373D01*
X65619086Y-77655846D01*
X65573377Y-77671780D01*
X65540913Y-77682620D01*
X65523101Y-77687668D01*
X65522577Y-77687714D01*
X65521237Y-77673823D01*
X65520028Y-77634639D01*
X65519001Y-77573900D01*
X65518202Y-77495341D01*
X65517681Y-77402698D01*
X65517486Y-77299709D01*
X65517486Y-76902542D01*
X65564657Y-76882644D01*
X65611829Y-76862747D01*
X65619086Y-76984489D01*
G36*
X64411503Y-77064439D02*
G01*
X64468727Y-77102935D01*
X64512949Y-77158535D01*
X64539367Y-77229286D01*
X64544710Y-77281362D01*
X64544103Y-77303093D01*
X64539022Y-77319731D01*
X64525055Y-77334637D01*
X64497789Y-77351173D01*
X64452812Y-77372698D01*
X64385711Y-77402574D01*
X64385371Y-77402724D01*
X64323607Y-77431013D01*
X64272959Y-77456133D01*
X64238604Y-77475379D01*
X64225718Y-77486048D01*
X64225714Y-77486134D01*
X64237072Y-77509366D01*
X64263631Y-77534974D01*
X64294123Y-77553421D01*
X64309570Y-77557086D01*
X64351715Y-77544412D01*
X64388008Y-77512671D01*
X64405717Y-77477772D01*
X64422752Y-77452045D01*
X64456122Y-77422746D01*
X64495349Y-77397435D01*
X64529956Y-77383671D01*
X64537193Y-77382914D01*
X64545339Y-77395360D01*
X64545830Y-77427172D01*
X64539843Y-77470066D01*
X64528557Y-77515758D01*
X64513150Y-77555961D01*
X64512371Y-77557522D01*
X64466004Y-77622262D01*
X64405911Y-77666297D01*
X64337665Y-77687911D01*
X64266838Y-77685385D01*
X64199004Y-77657004D01*
X64195988Y-77655008D01*
X64142627Y-77606648D01*
X64107540Y-77543552D01*
X64088122Y-77460587D01*
X64085516Y-77437278D01*
X64080901Y-77327255D01*
X64086433Y-77275948D01*
X64225714Y-77275948D01*
X64227524Y-77307953D01*
X64237422Y-77317293D01*
X64262098Y-77310305D01*
X64300995Y-77293787D01*
X64344475Y-77273081D01*
X64345556Y-77272533D01*
X64382409Y-77253149D01*
X64397200Y-77240213D01*
X64393553Y-77226651D01*
X64378195Y-77208832D01*
X64339123Y-77183045D01*
X64297046Y-77181150D01*
X64259303Y-77199917D01*
X64233234Y-77236115D01*
X64225714Y-77275948D01*
X64086433Y-77275948D01*
X64090394Y-77239227D01*
X64114750Y-77169412D01*
X64148656Y-77120502D01*
X64209853Y-77071078D01*
X64277263Y-77046559D01*
X64346080Y-77044997D01*
X64411503Y-77064439D01*
X64411503Y-77064439D01*
G37*
X64411503Y-77064439D02*
X64468727Y-77102935D01*
X64512949Y-77158535D01*
X64539367Y-77229286D01*
X64544710Y-77281362D01*
X64544103Y-77303093D01*
X64539022Y-77319731D01*
X64525055Y-77334637D01*
X64497789Y-77351173D01*
X64452812Y-77372698D01*
X64385711Y-77402574D01*
X64385371Y-77402724D01*
X64323607Y-77431013D01*
X64272959Y-77456133D01*
X64238604Y-77475379D01*
X64225718Y-77486048D01*
X64225714Y-77486134D01*
X64237072Y-77509366D01*
X64263631Y-77534974D01*
X64294123Y-77553421D01*
X64309570Y-77557086D01*
X64351715Y-77544412D01*
X64388008Y-77512671D01*
X64405717Y-77477772D01*
X64422752Y-77452045D01*
X64456122Y-77422746D01*
X64495349Y-77397435D01*
X64529956Y-77383671D01*
X64537193Y-77382914D01*
X64545339Y-77395360D01*
X64545830Y-77427172D01*
X64539843Y-77470066D01*
X64528557Y-77515758D01*
X64513150Y-77555961D01*
X64512371Y-77557522D01*
X64466004Y-77622262D01*
X64405911Y-77666297D01*
X64337665Y-77687911D01*
X64266838Y-77685385D01*
X64199004Y-77657004D01*
X64195988Y-77655008D01*
X64142627Y-77606648D01*
X64107540Y-77543552D01*
X64088122Y-77460587D01*
X64085516Y-77437278D01*
X64080901Y-77327255D01*
X64086433Y-77275948D01*
X64225714Y-77275948D01*
X64227524Y-77307953D01*
X64237422Y-77317293D01*
X64262098Y-77310305D01*
X64300995Y-77293787D01*
X64344475Y-77273081D01*
X64345556Y-77272533D01*
X64382409Y-77253149D01*
X64397200Y-77240213D01*
X64393553Y-77226651D01*
X64378195Y-77208832D01*
X64339123Y-77183045D01*
X64297046Y-77181150D01*
X64259303Y-77199917D01*
X64233234Y-77236115D01*
X64225714Y-77275948D01*
X64086433Y-77275948D01*
X64090394Y-77239227D01*
X64114750Y-77169412D01*
X64148656Y-77120502D01*
X64209853Y-77071078D01*
X64277263Y-77046559D01*
X64346080Y-77044997D01*
X64411503Y-77064439D01*
G36*
X63284315Y-77055162D02*
G01*
X63352345Y-77090933D01*
X63402551Y-77148501D01*
X63420385Y-77185512D01*
X63434263Y-77241082D01*
X63441367Y-77311296D01*
X63442040Y-77387927D01*
X63436627Y-77462752D01*
X63425470Y-77527542D01*
X63408914Y-77574073D01*
X63403826Y-77582087D01*
X63343555Y-77641907D01*
X63271969Y-77677735D01*
X63194292Y-77688220D01*
X63115748Y-77672010D01*
X63093889Y-77662292D01*
X63051322Y-77632343D01*
X63013963Y-77592633D01*
X63010432Y-77587597D01*
X62996081Y-77563324D01*
X62986594Y-77537378D01*
X62980990Y-77503222D01*
X62978286Y-77454319D01*
X62977499Y-77384135D01*
X62977486Y-77368400D01*
X62977522Y-77363392D01*
X63122629Y-77363392D01*
X63123473Y-77429630D01*
X63126796Y-77473586D01*
X63133783Y-77501979D01*
X63145616Y-77521525D01*
X63151657Y-77528057D01*
X63186386Y-77552880D01*
X63220103Y-77551748D01*
X63254195Y-77530216D01*
X63274529Y-77507229D01*
X63286571Y-77473678D01*
X63293334Y-77420769D01*
X63293798Y-77414599D01*
X63294952Y-77318713D01*
X63282888Y-77247499D01*
X63257770Y-77201394D01*
X63219760Y-77180835D01*
X63206192Y-77179714D01*
X63170564Y-77185352D01*
X63146194Y-77204886D01*
X63131293Y-77242242D01*
X63124075Y-77301350D01*
X63122629Y-77363392D01*
X62977522Y-77363392D01*
X62978026Y-77293613D01*
X62980296Y-77241359D01*
X62985268Y-77205149D01*
X62993913Y-77178499D01*
X63007205Y-77154922D01*
X63010143Y-77150538D01*
X63059513Y-77091449D01*
X63113309Y-77057147D01*
X63178802Y-77043531D01*
X63201042Y-77042865D01*
X63284315Y-77055162D01*
X63284315Y-77055162D01*
G37*
X63284315Y-77055162D02*
X63352345Y-77090933D01*
X63402551Y-77148501D01*
X63420385Y-77185512D01*
X63434263Y-77241082D01*
X63441367Y-77311296D01*
X63442040Y-77387927D01*
X63436627Y-77462752D01*
X63425470Y-77527542D01*
X63408914Y-77574073D01*
X63403826Y-77582087D01*
X63343555Y-77641907D01*
X63271969Y-77677735D01*
X63194292Y-77688220D01*
X63115748Y-77672010D01*
X63093889Y-77662292D01*
X63051322Y-77632343D01*
X63013963Y-77592633D01*
X63010432Y-77587597D01*
X62996081Y-77563324D01*
X62986594Y-77537378D01*
X62980990Y-77503222D01*
X62978286Y-77454319D01*
X62977499Y-77384135D01*
X62977486Y-77368400D01*
X62977522Y-77363392D01*
X63122629Y-77363392D01*
X63123473Y-77429630D01*
X63126796Y-77473586D01*
X63133783Y-77501979D01*
X63145616Y-77521525D01*
X63151657Y-77528057D01*
X63186386Y-77552880D01*
X63220103Y-77551748D01*
X63254195Y-77530216D01*
X63274529Y-77507229D01*
X63286571Y-77473678D01*
X63293334Y-77420769D01*
X63293798Y-77414599D01*
X63294952Y-77318713D01*
X63282888Y-77247499D01*
X63257770Y-77201394D01*
X63219760Y-77180835D01*
X63206192Y-77179714D01*
X63170564Y-77185352D01*
X63146194Y-77204886D01*
X63131293Y-77242242D01*
X63124075Y-77301350D01*
X63122629Y-77363392D01*
X62977522Y-77363392D01*
X62978026Y-77293613D01*
X62980296Y-77241359D01*
X62985268Y-77205149D01*
X62993913Y-77178499D01*
X63007205Y-77154922D01*
X63010143Y-77150538D01*
X63059513Y-77091449D01*
X63113309Y-77057147D01*
X63178802Y-77043531D01*
X63201042Y-77042865D01*
X63284315Y-77055162D01*
G36*
X64959293Y-77060980D02*
G01*
X65005872Y-77087923D01*
X65038257Y-77114666D01*
X65061942Y-77142684D01*
X65078259Y-77176948D01*
X65088539Y-77222427D01*
X65094114Y-77284092D01*
X65096316Y-77366911D01*
X65096571Y-77426446D01*
X65096571Y-77645591D01*
X65034886Y-77673244D01*
X64973200Y-77700897D01*
X64965943Y-77460870D01*
X64962944Y-77371228D01*
X64959798Y-77306162D01*
X64955901Y-77261226D01*
X64950647Y-77231970D01*
X64943431Y-77213948D01*
X64933650Y-77202711D01*
X64930512Y-77200279D01*
X64882961Y-77181283D01*
X64834897Y-77188800D01*
X64806286Y-77208743D01*
X64794647Y-77222875D01*
X64786591Y-77241420D01*
X64781471Y-77269534D01*
X64778641Y-77312373D01*
X64777456Y-77375095D01*
X64777257Y-77440461D01*
X64777218Y-77522468D01*
X64775814Y-77580516D01*
X64771114Y-77619665D01*
X64761187Y-77644980D01*
X64744103Y-77661523D01*
X64717932Y-77674356D01*
X64682975Y-77687691D01*
X64644796Y-77702207D01*
X64649341Y-77444589D01*
X64651171Y-77351719D01*
X64653312Y-77283089D01*
X64656381Y-77233911D01*
X64660994Y-77199398D01*
X64667768Y-77174762D01*
X64677319Y-77155216D01*
X64688834Y-77137970D01*
X64744390Y-77082880D01*
X64812180Y-77051022D01*
X64885913Y-77043391D01*
X64959293Y-77060980D01*
X64959293Y-77060980D01*
G37*
X64959293Y-77060980D02*
X65005872Y-77087923D01*
X65038257Y-77114666D01*
X65061942Y-77142684D01*
X65078259Y-77176948D01*
X65088539Y-77222427D01*
X65094114Y-77284092D01*
X65096316Y-77366911D01*
X65096571Y-77426446D01*
X65096571Y-77645591D01*
X65034886Y-77673244D01*
X64973200Y-77700897D01*
X64965943Y-77460870D01*
X64962944Y-77371228D01*
X64959798Y-77306162D01*
X64955901Y-77261226D01*
X64950647Y-77231970D01*
X64943431Y-77213948D01*
X64933650Y-77202711D01*
X64930512Y-77200279D01*
X64882961Y-77181283D01*
X64834897Y-77188800D01*
X64806286Y-77208743D01*
X64794647Y-77222875D01*
X64786591Y-77241420D01*
X64781471Y-77269534D01*
X64778641Y-77312373D01*
X64777456Y-77375095D01*
X64777257Y-77440461D01*
X64777218Y-77522468D01*
X64775814Y-77580516D01*
X64771114Y-77619665D01*
X64761187Y-77644980D01*
X64744103Y-77661523D01*
X64717932Y-77674356D01*
X64682975Y-77687691D01*
X64644796Y-77702207D01*
X64649341Y-77444589D01*
X64651171Y-77351719D01*
X64653312Y-77283089D01*
X64656381Y-77233911D01*
X64660994Y-77199398D01*
X64667768Y-77174762D01*
X64677319Y-77155216D01*
X64688834Y-77137970D01*
X64744390Y-77082880D01*
X64812180Y-77051022D01*
X64885913Y-77043391D01*
X64959293Y-77060980D01*
G36*
X63842944Y-77053118D02*
G01*
X63898401Y-77080768D01*
X63947348Y-77131680D01*
X63960829Y-77150538D01*
X63975514Y-77175215D01*
X63985042Y-77202016D01*
X63990493Y-77237787D01*
X63992947Y-77289369D01*
X63993486Y-77357467D01*
X63991052Y-77450788D01*
X63982594Y-77520857D01*
X63966374Y-77573131D01*
X63940654Y-77613069D01*
X63903697Y-77646129D01*
X63900982Y-77648086D01*
X63864560Y-77668108D01*
X63820702Y-77678015D01*
X63764924Y-77680457D01*
X63674248Y-77680457D01*
X63674210Y-77768483D01*
X63673366Y-77817508D01*
X63668224Y-77846265D01*
X63654787Y-77863511D01*
X63629058Y-77878008D01*
X63622879Y-77880969D01*
X63593964Y-77894848D01*
X63571576Y-77903614D01*
X63554929Y-77904371D01*
X63543236Y-77894223D01*
X63535710Y-77870273D01*
X63531566Y-77829626D01*
X63530015Y-77769386D01*
X63530271Y-77686655D01*
X63531549Y-77578539D01*
X63531948Y-77546200D01*
X63533385Y-77434724D01*
X63534672Y-77361803D01*
X63674171Y-77361803D01*
X63674955Y-77423699D01*
X63678440Y-77464197D01*
X63686324Y-77490908D01*
X63700305Y-77511444D01*
X63709797Y-77521460D01*
X63748604Y-77550767D01*
X63782963Y-77553152D01*
X63818416Y-77528950D01*
X63819314Y-77528057D01*
X63833739Y-77509353D01*
X63842513Y-77483932D01*
X63846939Y-77444784D01*
X63848318Y-77384897D01*
X63848343Y-77371630D01*
X63845012Y-77289101D01*
X63834169Y-77231891D01*
X63814540Y-77196966D01*
X63784850Y-77181294D01*
X63767691Y-77179714D01*
X63726966Y-77187126D01*
X63699032Y-77211530D01*
X63682217Y-77256180D01*
X63674850Y-77324330D01*
X63674171Y-77361803D01*
X63534672Y-77361803D01*
X63534908Y-77348445D01*
X63536877Y-77283533D01*
X63539650Y-77236158D01*
X63543588Y-77202490D01*
X63549049Y-77178698D01*
X63556392Y-77160953D01*
X63565977Y-77145424D01*
X63570087Y-77139581D01*
X63624605Y-77084385D01*
X63693536Y-77053090D01*
X63773272Y-77044365D01*
X63842944Y-77053118D01*
X63842944Y-77053118D01*
G37*
X63842944Y-77053118D02*
X63898401Y-77080768D01*
X63947348Y-77131680D01*
X63960829Y-77150538D01*
X63975514Y-77175215D01*
X63985042Y-77202016D01*
X63990493Y-77237787D01*
X63992947Y-77289369D01*
X63993486Y-77357467D01*
X63991052Y-77450788D01*
X63982594Y-77520857D01*
X63966374Y-77573131D01*
X63940654Y-77613069D01*
X63903697Y-77646129D01*
X63900982Y-77648086D01*
X63864560Y-77668108D01*
X63820702Y-77678015D01*
X63764924Y-77680457D01*
X63674248Y-77680457D01*
X63674210Y-77768483D01*
X63673366Y-77817508D01*
X63668224Y-77846265D01*
X63654787Y-77863511D01*
X63629058Y-77878008D01*
X63622879Y-77880969D01*
X63593964Y-77894848D01*
X63571576Y-77903614D01*
X63554929Y-77904371D01*
X63543236Y-77894223D01*
X63535710Y-77870273D01*
X63531566Y-77829626D01*
X63530015Y-77769386D01*
X63530271Y-77686655D01*
X63531549Y-77578539D01*
X63531948Y-77546200D01*
X63533385Y-77434724D01*
X63534672Y-77361803D01*
X63674171Y-77361803D01*
X63674955Y-77423699D01*
X63678440Y-77464197D01*
X63686324Y-77490908D01*
X63700305Y-77511444D01*
X63709797Y-77521460D01*
X63748604Y-77550767D01*
X63782963Y-77553152D01*
X63818416Y-77528950D01*
X63819314Y-77528057D01*
X63833739Y-77509353D01*
X63842513Y-77483932D01*
X63846939Y-77444784D01*
X63848318Y-77384897D01*
X63848343Y-77371630D01*
X63845012Y-77289101D01*
X63834169Y-77231891D01*
X63814540Y-77196966D01*
X63784850Y-77181294D01*
X63767691Y-77179714D01*
X63726966Y-77187126D01*
X63699032Y-77211530D01*
X63682217Y-77256180D01*
X63674850Y-77324330D01*
X63674171Y-77361803D01*
X63534672Y-77361803D01*
X63534908Y-77348445D01*
X63536877Y-77283533D01*
X63539650Y-77236158D01*
X63543588Y-77202490D01*
X63549049Y-77178698D01*
X63556392Y-77160953D01*
X63565977Y-77145424D01*
X63570087Y-77139581D01*
X63624605Y-77084385D01*
X63693536Y-77053090D01*
X63773272Y-77044365D01*
X63842944Y-77053118D01*
D11*
X195384800Y-86813400D02*
X206624800Y-86813400D01*
X195384800Y-92053400D02*
X206624800Y-92053400D01*
X195384800Y-86813400D02*
X195384800Y-92053400D01*
X206624800Y-86813400D02*
X206624800Y-92053400D01*
X133369800Y-90918400D02*
X120129800Y-90918400D01*
X133369800Y-86678400D02*
X120129800Y-86678400D01*
X133369800Y-90918400D02*
X133369800Y-86678400D01*
X120129800Y-90918400D02*
X120129800Y-86678400D01*
X207624800Y-87313400D02*
X207624800Y-91553400D01*
X194384800Y-87313400D02*
X194384800Y-91553400D01*
X194384800Y-91553400D02*
X207624800Y-91553400D01*
X194384800Y-87313400D02*
X207624800Y-87313400D01*
D13*
X118000542Y-67209942D02*
X117952923Y-67257561D01*
X117810066Y-67305180D01*
X117714828Y-67305180D01*
X117571971Y-67257561D01*
X117476733Y-67162323D01*
X117429114Y-67067085D01*
X117381495Y-66876609D01*
X117381495Y-66733752D01*
X117429114Y-66543276D01*
X117476733Y-66448038D01*
X117571971Y-66352800D01*
X117714828Y-66305180D01*
X117810066Y-66305180D01*
X117952923Y-66352800D01*
X118000542Y-66400419D01*
X118952923Y-67305180D02*
X118381495Y-67305180D01*
X118667209Y-67305180D02*
X118667209Y-66305180D01*
X118571971Y-66448038D01*
X118476733Y-66543276D01*
X118381495Y-66590895D01*
X119286257Y-66305180D02*
X119905304Y-66305180D01*
X119571971Y-66686133D01*
X119714828Y-66686133D01*
X119810066Y-66733752D01*
X119857685Y-66781371D01*
X119905304Y-66876609D01*
X119905304Y-67114704D01*
X119857685Y-67209942D01*
X119810066Y-67257561D01*
X119714828Y-67305180D01*
X119429114Y-67305180D01*
X119333876Y-67257561D01*
X119286257Y-67209942D01*
X215036495Y-60869580D02*
X215036495Y-61679104D01*
X215084114Y-61774342D01*
X215131733Y-61821961D01*
X215226971Y-61869580D01*
X215417447Y-61869580D01*
X215512685Y-61821961D01*
X215560304Y-61774342D01*
X215607923Y-61679104D01*
X215607923Y-60869580D01*
X216607923Y-61869580D02*
X216036495Y-61869580D01*
X216322209Y-61869580D02*
X216322209Y-60869580D01*
X216226971Y-61012438D01*
X216131733Y-61107676D01*
X216036495Y-61155295D01*
X140436695Y-60640980D02*
X140436695Y-61450504D01*
X140484314Y-61545742D01*
X140531933Y-61593361D01*
X140627171Y-61640980D01*
X140817647Y-61640980D01*
X140912885Y-61593361D01*
X140960504Y-61545742D01*
X141008123Y-61450504D01*
X141008123Y-60640980D01*
X141436695Y-60736219D02*
X141484314Y-60688600D01*
X141579552Y-60640980D01*
X141817647Y-60640980D01*
X141912885Y-60688600D01*
X141960504Y-60736219D01*
X142008123Y-60831457D01*
X142008123Y-60926695D01*
X141960504Y-61069552D01*
X141389076Y-61640980D01*
X142008123Y-61640980D01*
X223896180Y-66714666D02*
X223419990Y-67048000D01*
X223896180Y-67286095D02*
X222896180Y-67286095D01*
X222896180Y-66905142D01*
X222943800Y-66809904D01*
X222991419Y-66762285D01*
X223086657Y-66714666D01*
X223229514Y-66714666D01*
X223324752Y-66762285D01*
X223372371Y-66809904D01*
X223419990Y-66905142D01*
X223419990Y-67286095D01*
X223896180Y-65762285D02*
X223896180Y-66333714D01*
X223896180Y-66048000D02*
X222896180Y-66048000D01*
X223039038Y-66143238D01*
X223134276Y-66238476D01*
X223181895Y-66333714D01*
X229407980Y-74360066D02*
X228931790Y-74693400D01*
X229407980Y-74931495D02*
X228407980Y-74931495D01*
X228407980Y-74550542D01*
X228455600Y-74455304D01*
X228503219Y-74407685D01*
X228598457Y-74360066D01*
X228741314Y-74360066D01*
X228836552Y-74407685D01*
X228884171Y-74455304D01*
X228931790Y-74550542D01*
X228931790Y-74931495D01*
X228503219Y-73979114D02*
X228455600Y-73931495D01*
X228407980Y-73836257D01*
X228407980Y-73598161D01*
X228455600Y-73502923D01*
X228503219Y-73455304D01*
X228598457Y-73407685D01*
X228693695Y-73407685D01*
X228836552Y-73455304D01*
X229407980Y-74026733D01*
X229407980Y-73407685D01*
X220991133Y-91640580D02*
X220657800Y-91164390D01*
X220419704Y-91640580D02*
X220419704Y-90640580D01*
X220800657Y-90640580D01*
X220895895Y-90688200D01*
X220943514Y-90735819D01*
X220991133Y-90831057D01*
X220991133Y-90973914D01*
X220943514Y-91069152D01*
X220895895Y-91116771D01*
X220800657Y-91164390D01*
X220419704Y-91164390D01*
X221324466Y-90640580D02*
X221943514Y-90640580D01*
X221610180Y-91021533D01*
X221753038Y-91021533D01*
X221848276Y-91069152D01*
X221895895Y-91116771D01*
X221943514Y-91212009D01*
X221943514Y-91450104D01*
X221895895Y-91545342D01*
X221848276Y-91592961D01*
X221753038Y-91640580D01*
X221467323Y-91640580D01*
X221372085Y-91592961D01*
X221324466Y-91545342D01*
X195565733Y-75458580D02*
X195232400Y-74982390D01*
X194994304Y-75458580D02*
X194994304Y-74458580D01*
X195375257Y-74458580D01*
X195470495Y-74506200D01*
X195518114Y-74553819D01*
X195565733Y-74649057D01*
X195565733Y-74791914D01*
X195518114Y-74887152D01*
X195470495Y-74934771D01*
X195375257Y-74982390D01*
X194994304Y-74982390D01*
X196422876Y-74791914D02*
X196422876Y-75458580D01*
X196184780Y-74410961D02*
X195946685Y-75125247D01*
X196565733Y-75125247D01*
X190155533Y-88412580D02*
X189822200Y-87936390D01*
X189584104Y-88412580D02*
X189584104Y-87412580D01*
X189965057Y-87412580D01*
X190060295Y-87460200D01*
X190107914Y-87507819D01*
X190155533Y-87603057D01*
X190155533Y-87745914D01*
X190107914Y-87841152D01*
X190060295Y-87888771D01*
X189965057Y-87936390D01*
X189584104Y-87936390D01*
X191060295Y-87412580D02*
X190584104Y-87412580D01*
X190536485Y-87888771D01*
X190584104Y-87841152D01*
X190679342Y-87793533D01*
X190917438Y-87793533D01*
X191012676Y-87841152D01*
X191060295Y-87888771D01*
X191107914Y-87984009D01*
X191107914Y-88222104D01*
X191060295Y-88317342D01*
X191012676Y-88364961D01*
X190917438Y-88412580D01*
X190679342Y-88412580D01*
X190584104Y-88364961D01*
X190536485Y-88317342D01*
X192035133Y-64508980D02*
X191701800Y-64032790D01*
X191463704Y-64508980D02*
X191463704Y-63508980D01*
X191844657Y-63508980D01*
X191939895Y-63556600D01*
X191987514Y-63604219D01*
X192035133Y-63699457D01*
X192035133Y-63842314D01*
X191987514Y-63937552D01*
X191939895Y-63985171D01*
X191844657Y-64032790D01*
X191463704Y-64032790D01*
X192892276Y-63508980D02*
X192701800Y-63508980D01*
X192606561Y-63556600D01*
X192558942Y-63604219D01*
X192463704Y-63747076D01*
X192416085Y-63937552D01*
X192416085Y-64318504D01*
X192463704Y-64413742D01*
X192511323Y-64461361D01*
X192606561Y-64508980D01*
X192797038Y-64508980D01*
X192892276Y-64461361D01*
X192939895Y-64413742D01*
X192987514Y-64318504D01*
X192987514Y-64080409D01*
X192939895Y-63985171D01*
X192892276Y-63937552D01*
X192797038Y-63889933D01*
X192606561Y-63889933D01*
X192511323Y-63937552D01*
X192463704Y-63985171D01*
X192416085Y-64080409D01*
X160539133Y-73655180D02*
X160205800Y-73178990D01*
X159967704Y-73655180D02*
X159967704Y-72655180D01*
X160348657Y-72655180D01*
X160443895Y-72702800D01*
X160491514Y-72750419D01*
X160539133Y-72845657D01*
X160539133Y-72988514D01*
X160491514Y-73083752D01*
X160443895Y-73131371D01*
X160348657Y-73178990D01*
X159967704Y-73178990D01*
X160872466Y-72655180D02*
X161539133Y-72655180D01*
X161110561Y-73655180D01*
X153630333Y-83256380D02*
X153297000Y-82780190D01*
X153058904Y-83256380D02*
X153058904Y-82256380D01*
X153439857Y-82256380D01*
X153535095Y-82304000D01*
X153582714Y-82351619D01*
X153630333Y-82446857D01*
X153630333Y-82589714D01*
X153582714Y-82684952D01*
X153535095Y-82732571D01*
X153439857Y-82780190D01*
X153058904Y-82780190D01*
X154201761Y-82684952D02*
X154106523Y-82637333D01*
X154058904Y-82589714D01*
X154011285Y-82494476D01*
X154011285Y-82446857D01*
X154058904Y-82351619D01*
X154106523Y-82304000D01*
X154201761Y-82256380D01*
X154392238Y-82256380D01*
X154487476Y-82304000D01*
X154535095Y-82351619D01*
X154582714Y-82446857D01*
X154582714Y-82494476D01*
X154535095Y-82589714D01*
X154487476Y-82637333D01*
X154392238Y-82684952D01*
X154201761Y-82684952D01*
X154106523Y-82732571D01*
X154058904Y-82780190D01*
X154011285Y-82875428D01*
X154011285Y-83065904D01*
X154058904Y-83161142D01*
X154106523Y-83208761D01*
X154201761Y-83256380D01*
X154392238Y-83256380D01*
X154487476Y-83208761D01*
X154535095Y-83161142D01*
X154582714Y-83065904D01*
X154582714Y-82875428D01*
X154535095Y-82780190D01*
X154487476Y-82732571D01*
X154392238Y-82684952D01*
X125309333Y-65298580D02*
X124976000Y-64822390D01*
X124737904Y-65298580D02*
X124737904Y-64298580D01*
X125118857Y-64298580D01*
X125214095Y-64346200D01*
X125261714Y-64393819D01*
X125309333Y-64489057D01*
X125309333Y-64631914D01*
X125261714Y-64727152D01*
X125214095Y-64774771D01*
X125118857Y-64822390D01*
X124737904Y-64822390D01*
X125785523Y-65298580D02*
X125976000Y-65298580D01*
X126071238Y-65250961D01*
X126118857Y-65203342D01*
X126214095Y-65060485D01*
X126261714Y-64870009D01*
X126261714Y-64489057D01*
X126214095Y-64393819D01*
X126166476Y-64346200D01*
X126071238Y-64298580D01*
X125880761Y-64298580D01*
X125785523Y-64346200D01*
X125737904Y-64393819D01*
X125690285Y-64489057D01*
X125690285Y-64727152D01*
X125737904Y-64822390D01*
X125785523Y-64870009D01*
X125880761Y-64917628D01*
X126071238Y-64917628D01*
X126166476Y-64870009D01*
X126214095Y-64822390D01*
X126261714Y-64727152D01*
X140809742Y-91943180D02*
X140476409Y-91466990D01*
X140238314Y-91943180D02*
X140238314Y-90943180D01*
X140619266Y-90943180D01*
X140714504Y-90990800D01*
X140762123Y-91038419D01*
X140809742Y-91133657D01*
X140809742Y-91276514D01*
X140762123Y-91371752D01*
X140714504Y-91419371D01*
X140619266Y-91466990D01*
X140238314Y-91466990D01*
X141762123Y-91943180D02*
X141190695Y-91943180D01*
X141476409Y-91943180D02*
X141476409Y-90943180D01*
X141381171Y-91086038D01*
X141285933Y-91181276D01*
X141190695Y-91228895D01*
X142381171Y-90943180D02*
X142476409Y-90943180D01*
X142571647Y-90990800D01*
X142619266Y-91038419D01*
X142666885Y-91133657D01*
X142714504Y-91324133D01*
X142714504Y-91562228D01*
X142666885Y-91752704D01*
X142619266Y-91847942D01*
X142571647Y-91895561D01*
X142476409Y-91943180D01*
X142381171Y-91943180D01*
X142285933Y-91895561D01*
X142238314Y-91847942D01*
X142190695Y-91752704D01*
X142143076Y-91562228D01*
X142143076Y-91324133D01*
X142190695Y-91133657D01*
X142238314Y-91038419D01*
X142285933Y-90990800D01*
X142381171Y-90943180D01*
X107210780Y-83116657D02*
X106734590Y-83449990D01*
X107210780Y-83688085D02*
X106210780Y-83688085D01*
X106210780Y-83307133D01*
X106258400Y-83211895D01*
X106306019Y-83164276D01*
X106401257Y-83116657D01*
X106544114Y-83116657D01*
X106639352Y-83164276D01*
X106686971Y-83211895D01*
X106734590Y-83307133D01*
X106734590Y-83688085D01*
X107210780Y-82164276D02*
X107210780Y-82735704D01*
X107210780Y-82449990D02*
X106210780Y-82449990D01*
X106353638Y-82545228D01*
X106448876Y-82640466D01*
X106496495Y-82735704D01*
X107210780Y-81211895D02*
X107210780Y-81783323D01*
X107210780Y-81497609D02*
X106210780Y-81497609D01*
X106353638Y-81592847D01*
X106448876Y-81688085D01*
X106496495Y-81783323D01*
X107662742Y-75382380D02*
X107329409Y-74906190D01*
X107091314Y-75382380D02*
X107091314Y-74382380D01*
X107472266Y-74382380D01*
X107567504Y-74430000D01*
X107615123Y-74477619D01*
X107662742Y-74572857D01*
X107662742Y-74715714D01*
X107615123Y-74810952D01*
X107567504Y-74858571D01*
X107472266Y-74906190D01*
X107091314Y-74906190D01*
X108615123Y-75382380D02*
X108043695Y-75382380D01*
X108329409Y-75382380D02*
X108329409Y-74382380D01*
X108234171Y-74525238D01*
X108138933Y-74620476D01*
X108043695Y-74668095D01*
X108996076Y-74477619D02*
X109043695Y-74430000D01*
X109138933Y-74382380D01*
X109377028Y-74382380D01*
X109472266Y-74430000D01*
X109519885Y-74477619D01*
X109567504Y-74572857D01*
X109567504Y-74668095D01*
X109519885Y-74810952D01*
X108948457Y-75382380D01*
X109567504Y-75382380D01*
X107662742Y-79039980D02*
X107329409Y-78563790D01*
X107091314Y-79039980D02*
X107091314Y-78039980D01*
X107472266Y-78039980D01*
X107567504Y-78087600D01*
X107615123Y-78135219D01*
X107662742Y-78230457D01*
X107662742Y-78373314D01*
X107615123Y-78468552D01*
X107567504Y-78516171D01*
X107472266Y-78563790D01*
X107091314Y-78563790D01*
X108615123Y-79039980D02*
X108043695Y-79039980D01*
X108329409Y-79039980D02*
X108329409Y-78039980D01*
X108234171Y-78182838D01*
X108138933Y-78278076D01*
X108043695Y-78325695D01*
X108948457Y-78039980D02*
X109567504Y-78039980D01*
X109234171Y-78420933D01*
X109377028Y-78420933D01*
X109472266Y-78468552D01*
X109519885Y-78516171D01*
X109567504Y-78611409D01*
X109567504Y-78849504D01*
X109519885Y-78944742D01*
X109472266Y-78992361D01*
X109377028Y-79039980D01*
X109091314Y-79039980D01*
X108996076Y-78992361D01*
X108948457Y-78944742D01*
X105529142Y-71394580D02*
X105195809Y-70918390D01*
X104957714Y-71394580D02*
X104957714Y-70394580D01*
X105338666Y-70394580D01*
X105433904Y-70442200D01*
X105481523Y-70489819D01*
X105529142Y-70585057D01*
X105529142Y-70727914D01*
X105481523Y-70823152D01*
X105433904Y-70870771D01*
X105338666Y-70918390D01*
X104957714Y-70918390D01*
X106481523Y-71394580D02*
X105910095Y-71394580D01*
X106195809Y-71394580D02*
X106195809Y-70394580D01*
X106100571Y-70537438D01*
X106005333Y-70632676D01*
X105910095Y-70680295D01*
X107338666Y-70727914D02*
X107338666Y-71394580D01*
X107100571Y-70346961D02*
X106862476Y-71061247D01*
X107481523Y-71061247D01*
X156659342Y-66769580D02*
X156326009Y-66293390D01*
X156087914Y-66769580D02*
X156087914Y-65769580D01*
X156468866Y-65769580D01*
X156564104Y-65817200D01*
X156611723Y-65864819D01*
X156659342Y-65960057D01*
X156659342Y-66102914D01*
X156611723Y-66198152D01*
X156564104Y-66245771D01*
X156468866Y-66293390D01*
X156087914Y-66293390D01*
X157611723Y-66769580D02*
X157040295Y-66769580D01*
X157326009Y-66769580D02*
X157326009Y-65769580D01*
X157230771Y-65912438D01*
X157135533Y-66007676D01*
X157040295Y-66055295D01*
X158516485Y-65769580D02*
X158040295Y-65769580D01*
X157992676Y-66245771D01*
X158040295Y-66198152D01*
X158135533Y-66150533D01*
X158373628Y-66150533D01*
X158468866Y-66198152D01*
X158516485Y-66245771D01*
X158564104Y-66341009D01*
X158564104Y-66579104D01*
X158516485Y-66674342D01*
X158468866Y-66721961D01*
X158373628Y-66769580D01*
X158135533Y-66769580D01*
X158040295Y-66721961D01*
X157992676Y-66674342D01*
X72484580Y-70416657D02*
X72008390Y-70749990D01*
X72484580Y-70988085D02*
X71484580Y-70988085D01*
X71484580Y-70607133D01*
X71532200Y-70511895D01*
X71579819Y-70464276D01*
X71675057Y-70416657D01*
X71817914Y-70416657D01*
X71913152Y-70464276D01*
X71960771Y-70511895D01*
X72008390Y-70607133D01*
X72008390Y-70988085D01*
X72484580Y-69464276D02*
X72484580Y-70035704D01*
X72484580Y-69749990D02*
X71484580Y-69749990D01*
X71627438Y-69845228D01*
X71722676Y-69940466D01*
X71770295Y-70035704D01*
X71484580Y-68607133D02*
X71484580Y-68797609D01*
X71532200Y-68892847D01*
X71579819Y-68940466D01*
X71722676Y-69035704D01*
X71913152Y-69083323D01*
X72294104Y-69083323D01*
X72389342Y-69035704D01*
X72436961Y-68988085D01*
X72484580Y-68892847D01*
X72484580Y-68702371D01*
X72436961Y-68607133D01*
X72389342Y-68559514D01*
X72294104Y-68511895D01*
X72056009Y-68511895D01*
X71960771Y-68559514D01*
X71913152Y-68607133D01*
X71865533Y-68702371D01*
X71865533Y-68892847D01*
X71913152Y-68988085D01*
X71960771Y-69035704D01*
X72056009Y-69083323D01*
X60906066Y-70699380D02*
X60906066Y-71413666D01*
X60858447Y-71556523D01*
X60763209Y-71651761D01*
X60620352Y-71699380D01*
X60525114Y-71699380D01*
X61858447Y-70699380D02*
X61382257Y-70699380D01*
X61334638Y-71175571D01*
X61382257Y-71127952D01*
X61477495Y-71080333D01*
X61715590Y-71080333D01*
X61810828Y-71127952D01*
X61858447Y-71175571D01*
X61906066Y-71270809D01*
X61906066Y-71508904D01*
X61858447Y-71604142D01*
X61810828Y-71651761D01*
X61715590Y-71699380D01*
X61477495Y-71699380D01*
X61382257Y-71651761D01*
X61334638Y-71604142D01*
X237577333Y-67997342D02*
X237529714Y-68044961D01*
X237386857Y-68092580D01*
X237291619Y-68092580D01*
X237148761Y-68044961D01*
X237053523Y-67949723D01*
X237005904Y-67854485D01*
X236958285Y-67664009D01*
X236958285Y-67521152D01*
X237005904Y-67330676D01*
X237053523Y-67235438D01*
X237148761Y-67140200D01*
X237291619Y-67092580D01*
X237386857Y-67092580D01*
X237529714Y-67140200D01*
X237577333Y-67187819D01*
X238529714Y-68092580D02*
X237958285Y-68092580D01*
X238244000Y-68092580D02*
X238244000Y-67092580D01*
X238148761Y-67235438D01*
X238053523Y-67330676D01*
X237958285Y-67378295D01*
X195159333Y-81154542D02*
X195111714Y-81202161D01*
X194968857Y-81249780D01*
X194873619Y-81249780D01*
X194730761Y-81202161D01*
X194635523Y-81106923D01*
X194587904Y-81011685D01*
X194540285Y-80821209D01*
X194540285Y-80678352D01*
X194587904Y-80487876D01*
X194635523Y-80392638D01*
X194730761Y-80297400D01*
X194873619Y-80249780D01*
X194968857Y-80249780D01*
X195111714Y-80297400D01*
X195159333Y-80345019D01*
X195492666Y-80249780D02*
X196111714Y-80249780D01*
X195778380Y-80630733D01*
X195921238Y-80630733D01*
X196016476Y-80678352D01*
X196064095Y-80725971D01*
X196111714Y-80821209D01*
X196111714Y-81059304D01*
X196064095Y-81154542D01*
X196016476Y-81202161D01*
X195921238Y-81249780D01*
X195635523Y-81249780D01*
X195540285Y-81202161D01*
X195492666Y-81154542D01*
X118730733Y-83719942D02*
X118683114Y-83767561D01*
X118540257Y-83815180D01*
X118445019Y-83815180D01*
X118302161Y-83767561D01*
X118206923Y-83672323D01*
X118159304Y-83577085D01*
X118111685Y-83386609D01*
X118111685Y-83243752D01*
X118159304Y-83053276D01*
X118206923Y-82958038D01*
X118302161Y-82862800D01*
X118445019Y-82815180D01*
X118540257Y-82815180D01*
X118683114Y-82862800D01*
X118730733Y-82910419D01*
X119064066Y-82815180D02*
X119730733Y-82815180D01*
X119302161Y-83815180D01*
X178137533Y-66449142D02*
X178089914Y-66496761D01*
X177947057Y-66544380D01*
X177851819Y-66544380D01*
X177708961Y-66496761D01*
X177613723Y-66401523D01*
X177566104Y-66306285D01*
X177518485Y-66115809D01*
X177518485Y-65972952D01*
X177566104Y-65782476D01*
X177613723Y-65687238D01*
X177708961Y-65592000D01*
X177851819Y-65544380D01*
X177947057Y-65544380D01*
X178089914Y-65592000D01*
X178137533Y-65639619D01*
X178994676Y-65877714D02*
X178994676Y-66544380D01*
X178756580Y-65496761D02*
X178518485Y-66211047D01*
X179137533Y-66211047D01*
X108037333Y-91492342D02*
X107989714Y-91539961D01*
X107846857Y-91587580D01*
X107751619Y-91587580D01*
X107608761Y-91539961D01*
X107513523Y-91444723D01*
X107465904Y-91349485D01*
X107418285Y-91159009D01*
X107418285Y-91016152D01*
X107465904Y-90825676D01*
X107513523Y-90730438D01*
X107608761Y-90635200D01*
X107751619Y-90587580D01*
X107846857Y-90587580D01*
X107989714Y-90635200D01*
X108037333Y-90682819D01*
X108894476Y-90587580D02*
X108704000Y-90587580D01*
X108608761Y-90635200D01*
X108561142Y-90682819D01*
X108465904Y-90825676D01*
X108418285Y-91016152D01*
X108418285Y-91397104D01*
X108465904Y-91492342D01*
X108513523Y-91539961D01*
X108608761Y-91587580D01*
X108799238Y-91587580D01*
X108894476Y-91539961D01*
X108942095Y-91492342D01*
X108989714Y-91397104D01*
X108989714Y-91159009D01*
X108942095Y-91063771D01*
X108894476Y-91016152D01*
X108799238Y-90968533D01*
X108608761Y-90968533D01*
X108513523Y-91016152D01*
X108465904Y-91063771D01*
X108418285Y-91159009D01*
X91959133Y-80595742D02*
X91911514Y-80643361D01*
X91768657Y-80690980D01*
X91673419Y-80690980D01*
X91530561Y-80643361D01*
X91435323Y-80548123D01*
X91387704Y-80452885D01*
X91340085Y-80262409D01*
X91340085Y-80119552D01*
X91387704Y-79929076D01*
X91435323Y-79833838D01*
X91530561Y-79738600D01*
X91673419Y-79690980D01*
X91768657Y-79690980D01*
X91911514Y-79738600D01*
X91959133Y-79786219D01*
X92530561Y-80119552D02*
X92435323Y-80071933D01*
X92387704Y-80024314D01*
X92340085Y-79929076D01*
X92340085Y-79881457D01*
X92387704Y-79786219D01*
X92435323Y-79738600D01*
X92530561Y-79690980D01*
X92721038Y-79690980D01*
X92816276Y-79738600D01*
X92863895Y-79786219D01*
X92911514Y-79881457D01*
X92911514Y-79929076D01*
X92863895Y-80024314D01*
X92816276Y-80071933D01*
X92721038Y-80119552D01*
X92530561Y-80119552D01*
X92435323Y-80167171D01*
X92387704Y-80214790D01*
X92340085Y-80310028D01*
X92340085Y-80500504D01*
X92387704Y-80595742D01*
X92435323Y-80643361D01*
X92530561Y-80690980D01*
X92721038Y-80690980D01*
X92816276Y-80643361D01*
X92863895Y-80595742D01*
X92911514Y-80500504D01*
X92911514Y-80310028D01*
X92863895Y-80214790D01*
X92816276Y-80167171D01*
X92721038Y-80119552D01*
X178496933Y-87987142D02*
X178449314Y-88034761D01*
X178306457Y-88082380D01*
X178211219Y-88082380D01*
X178068361Y-88034761D01*
X177973123Y-87939523D01*
X177925504Y-87844285D01*
X177877885Y-87653809D01*
X177877885Y-87510952D01*
X177925504Y-87320476D01*
X177973123Y-87225238D01*
X178068361Y-87130000D01*
X178211219Y-87082380D01*
X178306457Y-87082380D01*
X178449314Y-87130000D01*
X178496933Y-87177619D01*
X178973123Y-88082380D02*
X179163600Y-88082380D01*
X179258838Y-88034761D01*
X179306457Y-87987142D01*
X179401695Y-87844285D01*
X179449314Y-87653809D01*
X179449314Y-87272857D01*
X179401695Y-87177619D01*
X179354076Y-87130000D01*
X179258838Y-87082380D01*
X179068361Y-87082380D01*
X178973123Y-87130000D01*
X178925504Y-87177619D01*
X178877885Y-87272857D01*
X178877885Y-87510952D01*
X178925504Y-87606190D01*
X178973123Y-87653809D01*
X179068361Y-87701428D01*
X179258838Y-87701428D01*
X179354076Y-87653809D01*
X179401695Y-87606190D01*
X179449314Y-87510952D01*
X99255342Y-61977542D02*
X99207723Y-62025161D01*
X99064866Y-62072780D01*
X98969628Y-62072780D01*
X98826771Y-62025161D01*
X98731533Y-61929923D01*
X98683914Y-61834685D01*
X98636295Y-61644209D01*
X98636295Y-61501352D01*
X98683914Y-61310876D01*
X98731533Y-61215638D01*
X98826771Y-61120400D01*
X98969628Y-61072780D01*
X99064866Y-61072780D01*
X99207723Y-61120400D01*
X99255342Y-61168019D01*
X100207723Y-62072780D02*
X99636295Y-62072780D01*
X99922009Y-62072780D02*
X99922009Y-61072780D01*
X99826771Y-61215638D01*
X99731533Y-61310876D01*
X99636295Y-61358495D01*
X100826771Y-61072780D02*
X100922009Y-61072780D01*
X101017247Y-61120400D01*
X101064866Y-61168019D01*
X101112485Y-61263257D01*
X101160104Y-61453733D01*
X101160104Y-61691828D01*
X101112485Y-61882304D01*
X101064866Y-61977542D01*
X101017247Y-62025161D01*
X100922009Y-62072780D01*
X100826771Y-62072780D01*
X100731533Y-62025161D01*
X100683914Y-61977542D01*
X100636295Y-61882304D01*
X100588676Y-61691828D01*
X100588676Y-61453733D01*
X100636295Y-61263257D01*
X100683914Y-61168019D01*
X100731533Y-61120400D01*
X100826771Y-61072780D01*
X164466542Y-86825057D02*
X164514161Y-86872676D01*
X164561780Y-87015533D01*
X164561780Y-87110771D01*
X164514161Y-87253628D01*
X164418923Y-87348866D01*
X164323685Y-87396485D01*
X164133209Y-87444104D01*
X163990352Y-87444104D01*
X163799876Y-87396485D01*
X163704638Y-87348866D01*
X163609400Y-87253628D01*
X163561780Y-87110771D01*
X163561780Y-87015533D01*
X163609400Y-86872676D01*
X163657019Y-86825057D01*
X164561780Y-85872676D02*
X164561780Y-86444104D01*
X164561780Y-86158390D02*
X163561780Y-86158390D01*
X163704638Y-86253628D01*
X163799876Y-86348866D01*
X163847495Y-86444104D01*
X164561780Y-84920295D02*
X164561780Y-85491723D01*
X164561780Y-85206009D02*
X163561780Y-85206009D01*
X163704638Y-85301247D01*
X163799876Y-85396485D01*
X163847495Y-85491723D01*
X77268342Y-80348057D02*
X77315961Y-80395676D01*
X77363580Y-80538533D01*
X77363580Y-80633771D01*
X77315961Y-80776628D01*
X77220723Y-80871866D01*
X77125485Y-80919485D01*
X76935009Y-80967104D01*
X76792152Y-80967104D01*
X76601676Y-80919485D01*
X76506438Y-80871866D01*
X76411200Y-80776628D01*
X76363580Y-80633771D01*
X76363580Y-80538533D01*
X76411200Y-80395676D01*
X76458819Y-80348057D01*
X77363580Y-79395676D02*
X77363580Y-79967104D01*
X77363580Y-79681390D02*
X76363580Y-79681390D01*
X76506438Y-79776628D01*
X76601676Y-79871866D01*
X76649295Y-79967104D01*
X76458819Y-79014723D02*
X76411200Y-78967104D01*
X76363580Y-78871866D01*
X76363580Y-78633771D01*
X76411200Y-78538533D01*
X76458819Y-78490914D01*
X76554057Y-78443295D01*
X76649295Y-78443295D01*
X76792152Y-78490914D01*
X77363580Y-79062342D01*
X77363580Y-78443295D01*
X208799133Y-89841342D02*
X208751514Y-89888961D01*
X208608657Y-89936580D01*
X208513419Y-89936580D01*
X208370561Y-89888961D01*
X208275323Y-89793723D01*
X208227704Y-89698485D01*
X208180085Y-89508009D01*
X208180085Y-89365152D01*
X208227704Y-89174676D01*
X208275323Y-89079438D01*
X208370561Y-88984200D01*
X208513419Y-88936580D01*
X208608657Y-88936580D01*
X208751514Y-88984200D01*
X208799133Y-89031819D01*
X209180085Y-89031819D02*
X209227704Y-88984200D01*
X209322942Y-88936580D01*
X209561038Y-88936580D01*
X209656276Y-88984200D01*
X209703895Y-89031819D01*
X209751514Y-89127057D01*
X209751514Y-89222295D01*
X209703895Y-89365152D01*
X209132466Y-89936580D01*
X209751514Y-89936580D01*
X126583133Y-92405542D02*
X126535514Y-92453161D01*
X126392657Y-92500780D01*
X126297419Y-92500780D01*
X126154561Y-92453161D01*
X126059323Y-92357923D01*
X126011704Y-92262685D01*
X125964085Y-92072209D01*
X125964085Y-91929352D01*
X126011704Y-91738876D01*
X126059323Y-91643638D01*
X126154561Y-91548400D01*
X126297419Y-91500780D01*
X126392657Y-91500780D01*
X126535514Y-91548400D01*
X126583133Y-91596019D01*
X127487895Y-91500780D02*
X127011704Y-91500780D01*
X126964085Y-91976971D01*
X127011704Y-91929352D01*
X127106942Y-91881733D01*
X127345038Y-91881733D01*
X127440276Y-91929352D01*
X127487895Y-91976971D01*
X127535514Y-92072209D01*
X127535514Y-92310304D01*
X127487895Y-92405542D01*
X127440276Y-92453161D01*
X127345038Y-92500780D01*
X127106942Y-92500780D01*
X127011704Y-92453161D01*
X126964085Y-92405542D01*
M02*
